<svg width="16" height="16" viewBox="0 0 16 16" fill="none" xmlns="http://www.w3.org/2000/svg">
<mask id="mask0_72_13" style="mask-type:alpha" maskUnits="userSpaceOnUse" x="0" y="0" width="16" height="16">
<rect width="16" height="16" fill="#D9D9D9"/>
</mask>
<g mask="url(#mask0_72_13)">
<path d="M2.66683 13.3334C2.30016 13.3334 1.98627 13.2028 1.72516 12.9417C1.46405 12.6806 1.3335 12.3667 1.3335 12V4.00002C1.3335 3.63335 1.46405 3.31946 1.72516 3.05835C1.98627 2.79724 2.30016 2.66669 2.66683 2.66669H13.3335C13.7002 2.66669 14.0141 2.79724 14.2752 3.05835C14.5363 3.31946 14.6668 3.63335 14.6668 4.00002V12C14.6668 12.3667 14.5363 12.6806 14.2752 12.9417C14.0141 13.2028 13.7002 13.3334 13.3335 13.3334H2.66683ZM8.00016 8.66669L13.3335 5.33335V4.00002L8.00016 7.33335L2.66683 4.00002V5.33335L8.00016 8.66669Z" fill="#424040"/>
</g>
</svg>
