<svg width="402" height="8" viewBox="0 0 402 8" fill="none" xmlns="http://www.w3.org/2000/svg">
<path d="M401.354 4.35355C401.549 4.15829 401.549 3.84171 401.354 3.64645L398.172 0.464466C397.976 0.269204 397.66 0.269204 397.464 0.464466C397.269 0.659728 397.269 0.976311 397.464 1.17157L400.293 4L397.464 6.82843C397.269 7.02369 397.269 7.34027 397.464 7.53553C397.66 7.7308 397.976 7.7308 398.172 7.53553L401.354 4.35355ZM0.646441 3.64643C0.451179 3.84169 0.451178 4.15827 0.646441 4.35354L3.82842 7.53552C4.02368 7.73078 4.34027 7.73078 4.53553 7.53552C4.73079 7.34025 4.73079 7.02367 4.53553 6.82841L1.7071 3.99998L4.53553 1.17156C4.73079 0.976293 4.73079 0.659711 4.53553 0.464449C4.34027 0.269187 4.02368 0.269187 3.82842 0.464449L0.646441 3.64643ZM401 4L401 3.5L0.999994 3.49998L0.999994 3.99998L0.999994 4.49998L401 4.5L401 4Z" fill="#424040"/>
</svg>
