<svg width="216" height="72" viewBox="0 0 216 72" fill="none" xmlns="http://www.w3.org/2000/svg">
<rect x="0.5" y="0.5" width="215" height="71" rx="4.5" stroke="#9747FF" stroke-dasharray="10 5"/>
<mask id="mask0_242_1884" style="mask-type:alpha" maskUnits="userSpaceOnUse" x="24" y="24" width="24" height="24">
<rect x="24" y="24" width="24" height="24" fill="#D9D9D9"/>
</mask>
<g mask="url(#mask0_242_1884)">
<path d="M27 45V40.75L40.2 27.575C40.4 27.3917 40.6208 27.25 40.8625 27.15C41.1042 27.05 41.3583 27 41.625 27C41.8917 27 42.15 27.05 42.4 27.15C42.65 27.25 42.8667 27.4 43.05 27.6L44.425 29C44.625 29.1833 44.7708 29.4 44.8625 29.65C44.9542 29.9 45 30.15 45 30.4C45 30.6667 44.9542 30.9208 44.8625 31.1625C44.7708 31.4042 44.625 31.625 44.425 31.825L31.25 45H27ZM41.6 31.8L43 30.4L41.6 29L40.2 30.4L41.6 31.8Z" fill="#1D2935"/>
</g>
<rect x="88" y="16" width="40" height="40" rx="20" fill="#1D2935" fill-opacity="0.1"/>
<mask id="mask1_242_1884" style="mask-type:alpha" maskUnits="userSpaceOnUse" x="96" y="24" width="24" height="24">
<rect x="96" y="24" width="24" height="24" fill="#D9D9D9"/>
</mask>
<g mask="url(#mask1_242_1884)">
<path d="M99 45V40.75L112.2 27.575C112.4 27.3917 112.621 27.25 112.863 27.15C113.104 27.05 113.358 27 113.625 27C113.892 27 114.15 27.05 114.4 27.15C114.65 27.25 114.867 27.4 115.05 27.6L116.425 29C116.625 29.1833 116.771 29.4 116.863 29.65C116.954 29.9 117 30.15 117 30.4C117 30.6667 116.954 30.9208 116.863 31.1625C116.771 31.4042 116.625 31.625 116.425 31.825L103.25 45H99ZM113.6 31.8L115 30.4L113.6 29L112.2 30.4L113.6 31.8Z" fill="#1D2935"/>
</g>
<rect x="160" y="16" width="40" height="40" rx="20" fill="#1D2935" fill-opacity="0.1"/>
<mask id="mask2_242_1884" style="mask-type:alpha" maskUnits="userSpaceOnUse" x="169" y="25" width="22" height="22">
<rect x="169" y="25" width="22" height="22" fill="#D9D9D9"/>
</mask>
<g mask="url(#mask2_242_1884)">
<path d="M171.75 44.25V40.3542L183.85 28.2771C184.033 28.109 184.236 27.9792 184.457 27.8875C184.679 27.7958 184.912 27.75 185.156 27.75C185.401 27.75 185.638 27.7958 185.867 27.8875C186.096 27.9792 186.294 28.1167 186.463 28.3L187.723 29.5833C187.906 29.7514 188.04 29.95 188.124 30.1792C188.208 30.4083 188.25 30.6375 188.25 30.8667C188.25 31.1111 188.208 31.3441 188.124 31.5656C188.04 31.7872 187.906 31.9896 187.723 32.1729L175.646 44.25H171.75ZM185.133 32.15L186.417 30.8667L185.133 29.5833L183.85 30.8667L185.133 32.15Z" fill="#1D2935"/>
</g>
</svg>
