<svg width="264" height="88" viewBox="0 0 264 88" fill="none" xmlns="http://www.w3.org/2000/svg">
<rect x="0.5" y="0.5" width="263" height="87" rx="4.5" stroke="#9747FF" stroke-dasharray="10 5"/>
<g filter="url(#filter0_d_232_205)">
<mask id="mask0_232_205" style="mask-type:alpha" maskUnits="userSpaceOnUse" x="24" y="24" width="40" height="40">
<rect x="24" y="24" width="40" height="40" fill="#D9D9D9"/>
</mask>
<g mask="url(#mask0_232_205)">
<path d="M42.3333 52.3332H45.6666V45.6666H52.3333V42.3332H45.6666V35.6666H42.3333V42.3332H35.6666V45.6666H42.3333V52.3332ZM43.9999 60.6666C41.6944 60.6666 39.5277 60.2291 37.4999 59.3541C35.4721 58.4791 33.7083 57.2916 32.2083 55.7916C30.7083 54.2916 29.5208 52.5277 28.6458 50.4999C27.7708 48.4721 27.3333 46.3055 27.3333 43.9999C27.3333 41.6943 27.7708 39.5277 28.6458 37.4999C29.5208 35.4721 30.7083 33.7082 32.2083 32.2082C33.7083 30.7082 35.4721 29.5207 37.4999 28.6457C39.5277 27.7707 41.6944 27.3332 43.9999 27.3332C46.3055 27.3332 48.4721 27.7707 50.4999 28.6457C52.5277 29.5207 54.2916 30.7082 55.7916 32.2082C57.2916 33.7082 58.4791 35.4721 59.3541 37.4999C60.2291 39.5277 60.6666 41.6943 60.6666 43.9999C60.6666 46.3055 60.2291 48.4721 59.3541 50.4999C58.4791 52.5277 57.2916 54.2916 55.7916 55.7916C54.2916 57.2916 52.5277 58.4791 50.4999 59.3541C48.4721 60.2291 46.3055 60.6666 43.9999 60.6666ZM43.9999 57.3332C47.7221 57.3332 50.8749 56.0416 53.4583 53.4582C56.0416 50.8749 57.3333 47.7221 57.3333 43.9999C57.3333 40.2777 56.0416 37.1249 53.4583 34.5416C50.8749 31.9582 47.7221 30.6666 43.9999 30.6666C40.2777 30.6666 37.1249 31.9582 34.5416 34.5416C31.9583 37.1249 30.6666 40.2777 30.6666 43.9999C30.6666 47.7221 31.9583 50.8749 34.5416 53.4582C37.1249 56.0416 40.2777 57.3332 43.9999 57.3332Z" fill="#1D2935"/>
</g>
</g>
<rect x="104" y="16" width="56" height="56" rx="28" fill="#1D2935" fill-opacity="0.1"/>
<g filter="url(#filter1_d_232_205)">
<mask id="mask1_232_205" style="mask-type:alpha" maskUnits="userSpaceOnUse" x="112" y="24" width="40" height="40">
<rect x="112" y="24" width="40" height="40" fill="#D9D9D9"/>
</mask>
<g mask="url(#mask1_232_205)">
<path d="M130.333 52.3332H133.667V45.6666H140.333V42.3332H133.667V35.6666H130.333V42.3332H123.667V45.6666H130.333V52.3332ZM132 60.6666C129.694 60.6666 127.528 60.2291 125.5 59.3541C123.472 58.4791 121.708 57.2916 120.208 55.7916C118.708 54.2916 117.521 52.5277 116.646 50.4999C115.771 48.4721 115.333 46.3055 115.333 43.9999C115.333 41.6943 115.771 39.5277 116.646 37.4999C117.521 35.4721 118.708 33.7082 120.208 32.2082C121.708 30.7082 123.472 29.5207 125.5 28.6457C127.528 27.7707 129.694 27.3332 132 27.3332C134.305 27.3332 136.472 27.7707 138.5 28.6457C140.528 29.5207 142.292 30.7082 143.792 32.2082C145.292 33.7082 146.479 35.4721 147.354 37.4999C148.229 39.5277 148.667 41.6943 148.667 43.9999C148.667 46.3055 148.229 48.4721 147.354 50.4999C146.479 52.5277 145.292 54.2916 143.792 55.7916C142.292 57.2916 140.528 58.4791 138.5 59.3541C136.472 60.2291 134.305 60.6666 132 60.6666ZM132 57.3332C135.722 57.3332 138.875 56.0416 141.458 53.4582C144.042 50.8749 145.333 47.7221 145.333 43.9999C145.333 40.2777 144.042 37.1249 141.458 34.5416C138.875 31.9582 135.722 30.6666 132 30.6666C128.278 30.6666 125.125 31.9582 122.542 34.5416C119.958 37.1249 118.667 40.2777 118.667 43.9999C118.667 47.7221 119.958 50.8749 122.542 53.4582C125.125 56.0416 128.278 57.3332 132 57.3332Z" fill="#1D2935"/>
</g>
</g>
<rect x="192" y="16" width="56" height="56" rx="28" fill="#1D2935" fill-opacity="0.1"/>
<g filter="url(#filter2_d_232_205)">
<mask id="mask2_232_205" style="mask-type:alpha" maskUnits="userSpaceOnUse" x="202" y="26" width="36" height="36">
<rect x="202" y="26" width="36" height="36" fill="#D9D9D9"/>
</mask>
<g mask="url(#mask2_232_205)">
<path d="M218.5 51.4999H221.5V45.4999H227.5V42.4999H221.5V36.4999H218.5V42.4999H212.5V45.4999H218.5V51.4999ZM220 58.9999C217.925 58.9999 215.975 58.6062 214.15 57.8187C212.325 57.0312 210.737 55.9624 209.387 54.6124C208.037 53.2624 206.969 51.6749 206.181 49.8499C205.394 48.0249 205 46.0749 205 43.9999C205 41.9249 205.394 39.9749 206.181 38.1499C206.969 36.3249 208.037 34.7374 209.387 33.3874C210.737 32.0374 212.325 30.9687 214.15 30.1812C215.975 29.3937 217.925 28.9999 220 28.9999C222.075 28.9999 224.025 29.3937 225.85 30.1812C227.675 30.9687 229.262 32.0374 230.612 33.3874C231.962 34.7374 233.031 36.3249 233.819 38.1499C234.606 39.9749 235 41.9249 235 43.9999C235 46.0749 234.606 48.0249 233.819 49.8499C233.031 51.6749 231.962 53.2624 230.612 54.6124C229.262 55.9624 227.675 57.0312 225.85 57.8187C224.025 58.6062 222.075 58.9999 220 58.9999ZM220 55.9999C223.35 55.9999 226.187 54.8374 228.512 52.5124C230.837 50.1874 232 47.3499 232 43.9999C232 40.6499 230.837 37.8124 228.512 35.4874C226.187 33.1624 223.35 31.9999 220 31.9999C216.65 31.9999 213.812 33.1624 211.487 35.4874C209.162 37.8124 208 40.6499 208 43.9999C208 47.3499 209.162 50.1874 211.487 52.5124C213.812 54.8374 216.65 55.9999 220 55.9999Z" fill="#1D2935"/>
</g>
</g>
<defs>
<filter id="filter0_d_232_205" x="25.3333" y="25.3332" width="37.3334" height="37.3333" filterUnits="userSpaceOnUse" color-interpolation-filters="sRGB">
<feFlood flood-opacity="0" result="BackgroundImageFix"/>
<feColorMatrix in="SourceAlpha" type="matrix" values="0 0 0 0 0 0 0 0 0 0 0 0 0 0 0 0 0 0 127 0" result="hardAlpha"/>
<feOffset/>
<feGaussianBlur stdDeviation="1"/>
<feComposite in2="hardAlpha" operator="out"/>
<feColorMatrix type="matrix" values="0 0 0 0 0.113725 0 0 0 0 0.160784 0 0 0 0 0.207843 0 0 0 0.5 0"/>
<feBlend mode="normal" in2="BackgroundImageFix" result="effect1_dropShadow_232_205"/>
<feBlend mode="normal" in="SourceGraphic" in2="effect1_dropShadow_232_205" result="shape"/>
</filter>
<filter id="filter1_d_232_205" x="113.333" y="25.3332" width="37.3334" height="37.3333" filterUnits="userSpaceOnUse" color-interpolation-filters="sRGB">
<feFlood flood-opacity="0" result="BackgroundImageFix"/>
<feColorMatrix in="SourceAlpha" type="matrix" values="0 0 0 0 0 0 0 0 0 0 0 0 0 0 0 0 0 0 127 0" result="hardAlpha"/>
<feOffset/>
<feGaussianBlur stdDeviation="1"/>
<feComposite in2="hardAlpha" operator="out"/>
<feColorMatrix type="matrix" values="0 0 0 0 0.113725 0 0 0 0 0.160784 0 0 0 0 0.207843 0 0 0 0.5 0"/>
<feBlend mode="normal" in2="BackgroundImageFix" result="effect1_dropShadow_232_205"/>
<feBlend mode="normal" in="SourceGraphic" in2="effect1_dropShadow_232_205" result="shape"/>
</filter>
<filter id="filter2_d_232_205" x="203" y="26.9999" width="34" height="34" filterUnits="userSpaceOnUse" color-interpolation-filters="sRGB">
<feFlood flood-opacity="0" result="BackgroundImageFix"/>
<feColorMatrix in="SourceAlpha" type="matrix" values="0 0 0 0 0 0 0 0 0 0 0 0 0 0 0 0 0 0 127 0" result="hardAlpha"/>
<feOffset/>
<feGaussianBlur stdDeviation="1"/>
<feComposite in2="hardAlpha" operator="out"/>
<feColorMatrix type="matrix" values="0 0 0 0 0.113725 0 0 0 0 0.160784 0 0 0 0 0.207843 0 0 0 0.5 0"/>
<feBlend mode="normal" in2="BackgroundImageFix" result="effect1_dropShadow_232_205"/>
<feBlend mode="normal" in="SourceGraphic" in2="effect1_dropShadow_232_205" result="shape"/>
</filter>
</defs>
</svg>
