<svg width="314" height="864" viewBox="0 0 314 864" fill="none" xmlns="http://www.w3.org/2000/svg">
<rect x="0.5" y="0.5" width="313" height="863" rx="4.5" stroke="#9747FF" stroke-dasharray="10 5"/>
<g filter="url(#filter0_d_198_42)">
<rect width="100" height="832" transform="translate(16 16)" fill="#F8F0EC"/>
<g filter="url(#filter1_d_198_42)">
<mask id="mask0_198_42" style="mask-type:alpha" maskUnits="userSpaceOnUse" x="60" y="124" width="40" height="40">
<rect x="60" y="124" width="40" height="40" fill="#D9D9D9"/>
</mask>
<g mask="url(#mask0_198_42)">
<path d="M80.8333 137.333V150.667L87.5 144L80.8333 137.333ZM68.3333 159C67.4167 159 66.6319 158.674 65.9792 158.021C65.3264 157.368 65 156.583 65 155.667V132.333C65 131.417 65.3264 130.632 65.9792 129.979C66.6319 129.326 67.4167 129 68.3333 129H91.6667C92.5833 129 93.3681 129.326 94.0208 129.979C94.6736 130.632 95 131.417 95 132.333V155.667C95 156.583 94.6736 157.368 94.0208 158.021C93.3681 158.674 92.5833 159 91.6667 159H68.3333ZM73.3333 155.667V132.333H68.3333V155.667H73.3333ZM76.6667 155.667H91.6667V132.333H76.6667V155.667Z" fill="#1D2935"/>
</g>
</g>
</g>
<g filter="url(#filter2_d_198_42)">
<rect width="150" height="832" transform="translate(148 16)" fill="#F8F0EC"/>
<g filter="url(#filter3_d_198_42)">
<mask id="mask1_198_42" style="mask-type:alpha" maskUnits="userSpaceOnUse" x="242" y="124" width="40" height="40">
<rect x="242" y="124" width="40" height="40" fill="#D9D9D9"/>
</mask>
<g mask="url(#mask1_198_42)">
<path d="M269.5 150.667V137.333L262.833 144L269.5 150.667ZM250.333 159C249.417 159 248.632 158.674 247.979 158.021C247.326 157.368 247 156.583 247 155.667V132.333C247 131.417 247.326 130.632 247.979 129.979C248.632 129.326 249.417 129 250.333 129H273.667C274.583 129 275.368 129.326 276.021 129.979C276.674 130.632 277 131.417 277 132.333V155.667C277 156.583 276.674 157.368 276.021 158.021C275.368 158.674 274.583 159 273.667 159H250.333ZM255.333 155.667V132.333H250.333V155.667H255.333ZM258.667 155.667H273.667V132.333H258.667V155.667Z" fill="#1D2935"/>
</g>
</g>
</g>
<defs>
<filter id="filter0_d_198_42" x="8" y="8" width="116" height="848" filterUnits="userSpaceOnUse" color-interpolation-filters="sRGB">
<feFlood flood-opacity="0" result="BackgroundImageFix"/>
<feColorMatrix in="SourceAlpha" type="matrix" values="0 0 0 0 0 0 0 0 0 0 0 0 0 0 0 0 0 0 127 0" result="hardAlpha"/>
<feOffset/>
<feGaussianBlur stdDeviation="4"/>
<feComposite in2="hardAlpha" operator="out"/>
<feColorMatrix type="matrix" values="0 0 0 0 0.113725 0 0 0 0 0.160784 0 0 0 0 0.207843 0 0 0 0.25 0"/>
<feBlend mode="normal" in2="BackgroundImageFix" result="effect1_dropShadow_198_42"/>
<feBlend mode="normal" in="SourceGraphic" in2="effect1_dropShadow_198_42" result="shape"/>
</filter>
<filter id="filter1_d_198_42" x="63" y="127" width="34" height="34" filterUnits="userSpaceOnUse" color-interpolation-filters="sRGB">
<feFlood flood-opacity="0" result="BackgroundImageFix"/>
<feColorMatrix in="SourceAlpha" type="matrix" values="0 0 0 0 0 0 0 0 0 0 0 0 0 0 0 0 0 0 127 0" result="hardAlpha"/>
<feOffset/>
<feGaussianBlur stdDeviation="1"/>
<feComposite in2="hardAlpha" operator="out"/>
<feColorMatrix type="matrix" values="0 0 0 0 0.113725 0 0 0 0 0.160784 0 0 0 0 0.207843 0 0 0 0.5 0"/>
<feBlend mode="normal" in2="BackgroundImageFix" result="effect1_dropShadow_198_42"/>
<feBlend mode="normal" in="SourceGraphic" in2="effect1_dropShadow_198_42" result="shape"/>
</filter>
<filter id="filter2_d_198_42" x="140" y="8" width="166" height="848" filterUnits="userSpaceOnUse" color-interpolation-filters="sRGB">
<feFlood flood-opacity="0" result="BackgroundImageFix"/>
<feColorMatrix in="SourceAlpha" type="matrix" values="0 0 0 0 0 0 0 0 0 0 0 0 0 0 0 0 0 0 127 0" result="hardAlpha"/>
<feOffset/>
<feGaussianBlur stdDeviation="4"/>
<feComposite in2="hardAlpha" operator="out"/>
<feColorMatrix type="matrix" values="0 0 0 0 0.113725 0 0 0 0 0.160784 0 0 0 0 0.207843 0 0 0 0.25 0"/>
<feBlend mode="normal" in2="BackgroundImageFix" result="effect1_dropShadow_198_42"/>
<feBlend mode="normal" in="SourceGraphic" in2="effect1_dropShadow_198_42" result="shape"/>
</filter>
<filter id="filter3_d_198_42" x="245" y="127" width="34" height="34" filterUnits="userSpaceOnUse" color-interpolation-filters="sRGB">
<feFlood flood-opacity="0" result="BackgroundImageFix"/>
<feColorMatrix in="SourceAlpha" type="matrix" values="0 0 0 0 0 0 0 0 0 0 0 0 0 0 0 0 0 0 127 0" result="hardAlpha"/>
<feOffset/>
<feGaussianBlur stdDeviation="1"/>
<feComposite in2="hardAlpha" operator="out"/>
<feColorMatrix type="matrix" values="0 0 0 0 0.113725 0 0 0 0 0.160784 0 0 0 0 0.207843 0 0 0 0.5 0"/>
<feBlend mode="normal" in2="BackgroundImageFix" result="effect1_dropShadow_198_42"/>
<feBlend mode="normal" in="SourceGraphic" in2="effect1_dropShadow_198_42" result="shape"/>
</filter>
</defs>
</svg>
