<svg width="264" height="88" viewBox="0 0 264 88" fill="none" xmlns="http://www.w3.org/2000/svg">
<rect x="0.5" y="0.5" width="263" height="87" rx="4.5" stroke="#9747FF" stroke-dasharray="10 5"/>
<g filter="url(#filter0_d_232_197)">
<mask id="mask0_232_197" style="mask-type:alpha" maskUnits="userSpaceOnUse" x="24" y="24" width="40" height="40">
<rect x="24" y="24" width="40" height="40" fill="#D9D9D9"/>
</mask>
<g mask="url(#mask0_232_197)">
<path d="M44.8333 37.3333V50.6667L51.5 44L44.8333 37.3333ZM32.3333 59C31.4167 59 30.6319 58.6736 29.9792 58.0208C29.3264 57.3681 29 56.5833 29 55.6667V32.3333C29 31.4167 29.3264 30.6319 29.9792 29.9792C30.6319 29.3264 31.4167 29 32.3333 29H55.6667C56.5833 29 57.3681 29.3264 58.0208 29.9792C58.6736 30.6319 59 31.4167 59 32.3333V55.6667C59 56.5833 58.6736 57.3681 58.0208 58.0208C57.3681 58.6736 56.5833 59 55.6667 59H32.3333ZM37.3333 55.6667V32.3333H32.3333V55.6667H37.3333ZM40.6667 55.6667H55.6667V32.3333H40.6667V55.6667Z" fill="#1D2935"/>
</g>
</g>
<rect x="104" y="16" width="56" height="56" rx="28" fill="#1D2935" fill-opacity="0.1"/>
<g filter="url(#filter1_d_232_197)">
<mask id="mask1_232_197" style="mask-type:alpha" maskUnits="userSpaceOnUse" x="112" y="24" width="40" height="40">
<rect x="112" y="24" width="40" height="40" fill="#D9D9D9"/>
</mask>
<g mask="url(#mask1_232_197)">
<path d="M132.833 37.3333V50.6667L139.5 44L132.833 37.3333ZM120.333 59C119.417 59 118.632 58.6736 117.979 58.0208C117.326 57.3681 117 56.5833 117 55.6667V32.3333C117 31.4167 117.326 30.6319 117.979 29.9792C118.632 29.3264 119.417 29 120.333 29H143.667C144.583 29 145.368 29.3264 146.021 29.9792C146.674 30.6319 147 31.4167 147 32.3333V55.6667C147 56.5833 146.674 57.3681 146.021 58.0208C145.368 58.6736 144.583 59 143.667 59H120.333ZM125.333 55.6667V32.3333H120.333V55.6667H125.333ZM128.667 55.6667H143.667V32.3333H128.667V55.6667Z" fill="#1D2935"/>
</g>
</g>
<rect x="192" y="16" width="56" height="56" rx="28" fill="#1D2935" fill-opacity="0.1"/>
<g filter="url(#filter2_d_232_197)">
<mask id="mask2_232_197" style="mask-type:alpha" maskUnits="userSpaceOnUse" x="202" y="26" width="36" height="36">
<rect x="202" y="26" width="36" height="36" fill="#D9D9D9"/>
</mask>
<g mask="url(#mask2_232_197)">
<path d="M220.75 38V50L226.75 44L220.75 38ZM209.5 57.5C208.675 57.5 207.969 57.2063 207.381 56.6188C206.794 56.0312 206.5 55.325 206.5 54.5V33.5C206.5 32.675 206.794 31.9688 207.381 31.3813C207.969 30.7938 208.675 30.5 209.5 30.5H230.5C231.325 30.5 232.031 30.7938 232.619 31.3813C233.206 31.9688 233.5 32.675 233.5 33.5V54.5C233.5 55.325 233.206 56.0312 232.619 56.6188C232.031 57.2063 231.325 57.5 230.5 57.5H209.5ZM214 54.5V33.5H209.5V54.5H214ZM217 54.5H230.5V33.5H217V54.5Z" fill="#1D2935"/>
</g>
</g>
<defs>
<filter id="filter0_d_232_197" x="27" y="27" width="34" height="34" filterUnits="userSpaceOnUse" color-interpolation-filters="sRGB">
<feFlood flood-opacity="0" result="BackgroundImageFix"/>
<feColorMatrix in="SourceAlpha" type="matrix" values="0 0 0 0 0 0 0 0 0 0 0 0 0 0 0 0 0 0 127 0" result="hardAlpha"/>
<feOffset/>
<feGaussianBlur stdDeviation="1"/>
<feComposite in2="hardAlpha" operator="out"/>
<feColorMatrix type="matrix" values="0 0 0 0 0.113725 0 0 0 0 0.160784 0 0 0 0 0.207843 0 0 0 0.5 0"/>
<feBlend mode="normal" in2="BackgroundImageFix" result="effect1_dropShadow_232_197"/>
<feBlend mode="normal" in="SourceGraphic" in2="effect1_dropShadow_232_197" result="shape"/>
</filter>
<filter id="filter1_d_232_197" x="115" y="27" width="34" height="34" filterUnits="userSpaceOnUse" color-interpolation-filters="sRGB">
<feFlood flood-opacity="0" result="BackgroundImageFix"/>
<feColorMatrix in="SourceAlpha" type="matrix" values="0 0 0 0 0 0 0 0 0 0 0 0 0 0 0 0 0 0 127 0" result="hardAlpha"/>
<feOffset/>
<feGaussianBlur stdDeviation="1"/>
<feComposite in2="hardAlpha" operator="out"/>
<feColorMatrix type="matrix" values="0 0 0 0 0.113725 0 0 0 0 0.160784 0 0 0 0 0.207843 0 0 0 0.5 0"/>
<feBlend mode="normal" in2="BackgroundImageFix" result="effect1_dropShadow_232_197"/>
<feBlend mode="normal" in="SourceGraphic" in2="effect1_dropShadow_232_197" result="shape"/>
</filter>
<filter id="filter2_d_232_197" x="204.5" y="28.5" width="31" height="31" filterUnits="userSpaceOnUse" color-interpolation-filters="sRGB">
<feFlood flood-opacity="0" result="BackgroundImageFix"/>
<feColorMatrix in="SourceAlpha" type="matrix" values="0 0 0 0 0 0 0 0 0 0 0 0 0 0 0 0 0 0 127 0" result="hardAlpha"/>
<feOffset/>
<feGaussianBlur stdDeviation="1"/>
<feComposite in2="hardAlpha" operator="out"/>
<feColorMatrix type="matrix" values="0 0 0 0 0.113725 0 0 0 0 0.160784 0 0 0 0 0.207843 0 0 0 0.5 0"/>
<feBlend mode="normal" in2="BackgroundImageFix" result="effect1_dropShadow_232_197"/>
<feBlend mode="normal" in="SourceGraphic" in2="effect1_dropShadow_232_197" result="shape"/>
</filter>
</defs>
</svg>
