<svg width="288" height="96" viewBox="0 0 288 96" fill="none" xmlns="http://www.w3.org/2000/svg">
<rect x="0.5" y="0.5" width="287" height="95" rx="4.5" stroke="#9747FF" stroke-dasharray="10 5"/>
<g filter="url(#filter0_d_232_209)">
<mask id="mask0_232_209" style="mask-type:alpha" maskUnits="userSpaceOnUse" x="24" y="24" width="48" height="48">
<rect x="24" y="24" width="48" height="48" fill="#D9D9D9"/>
</mask>
<g mask="url(#mask0_232_209)">
<path d="M30 64V32L68 48L30 64ZM34 58L57.7 48L34 38V45L46 48L34 51V58Z" fill="#1D2935"/>
</g>
</g>
<rect x="112" y="16" width="64" height="64" rx="32" fill="#1D2935" fill-opacity="0.1"/>
<g filter="url(#filter1_d_232_209)">
<mask id="mask1_232_209" style="mask-type:alpha" maskUnits="userSpaceOnUse" x="120" y="24" width="48" height="48">
<rect x="120" y="24" width="48" height="48" fill="#D9D9D9"/>
</mask>
<g mask="url(#mask1_232_209)">
<path d="M126 64V32L164 48L126 64ZM130 58L153.7 48L130 38V45L142 48L130 51V58Z" fill="#1D2935"/>
</g>
</g>
<rect x="208" y="16" width="64" height="64" rx="32" fill="#1D2935" fill-opacity="0.1"/>
<g filter="url(#filter2_d_232_209)">
<mask id="mask2_232_209" style="mask-type:alpha" maskUnits="userSpaceOnUse" x="218" y="26" width="44" height="44">
<rect x="218" y="26" width="44" height="44" fill="#D9D9D9"/>
</mask>
<g mask="url(#mask2_232_209)">
<path d="M223.5 62.6667V33.3334L258.333 48L223.5 62.6667ZM227.167 57.1667L248.892 48L227.167 38.8334V45.25L238.167 48L227.167 50.75V57.1667Z" fill="#1D2935"/>
</g>
</g>
<defs>
<filter id="filter0_d_232_209" x="28" y="30" width="42" height="36" filterUnits="userSpaceOnUse" color-interpolation-filters="sRGB">
<feFlood flood-opacity="0" result="BackgroundImageFix"/>
<feColorMatrix in="SourceAlpha" type="matrix" values="0 0 0 0 0 0 0 0 0 0 0 0 0 0 0 0 0 0 127 0" result="hardAlpha"/>
<feOffset/>
<feGaussianBlur stdDeviation="1"/>
<feComposite in2="hardAlpha" operator="out"/>
<feColorMatrix type="matrix" values="0 0 0 0 0.113725 0 0 0 0 0.160784 0 0 0 0 0.207843 0 0 0 0.5 0"/>
<feBlend mode="normal" in2="BackgroundImageFix" result="effect1_dropShadow_232_209"/>
<feBlend mode="normal" in="SourceGraphic" in2="effect1_dropShadow_232_209" result="shape"/>
</filter>
<filter id="filter1_d_232_209" x="124" y="30" width="42" height="36" filterUnits="userSpaceOnUse" color-interpolation-filters="sRGB">
<feFlood flood-opacity="0" result="BackgroundImageFix"/>
<feColorMatrix in="SourceAlpha" type="matrix" values="0 0 0 0 0 0 0 0 0 0 0 0 0 0 0 0 0 0 127 0" result="hardAlpha"/>
<feOffset/>
<feGaussianBlur stdDeviation="1"/>
<feComposite in2="hardAlpha" operator="out"/>
<feColorMatrix type="matrix" values="0 0 0 0 0.113725 0 0 0 0 0.160784 0 0 0 0 0.207843 0 0 0 0.5 0"/>
<feBlend mode="normal" in2="BackgroundImageFix" result="effect1_dropShadow_232_209"/>
<feBlend mode="normal" in="SourceGraphic" in2="effect1_dropShadow_232_209" result="shape"/>
</filter>
<filter id="filter2_d_232_209" x="221.5" y="31.3334" width="38.8333" height="33.3333" filterUnits="userSpaceOnUse" color-interpolation-filters="sRGB">
<feFlood flood-opacity="0" result="BackgroundImageFix"/>
<feColorMatrix in="SourceAlpha" type="matrix" values="0 0 0 0 0 0 0 0 0 0 0 0 0 0 0 0 0 0 127 0" result="hardAlpha"/>
<feOffset/>
<feGaussianBlur stdDeviation="1"/>
<feComposite in2="hardAlpha" operator="out"/>
<feColorMatrix type="matrix" values="0 0 0 0 0.113725 0 0 0 0 0.160784 0 0 0 0 0.207843 0 0 0 0.5 0"/>
<feBlend mode="normal" in2="BackgroundImageFix" result="effect1_dropShadow_232_209"/>
<feBlend mode="normal" in="SourceGraphic" in2="effect1_dropShadow_232_209" result="shape"/>
</filter>
</defs>
</svg>
