<svg width="264" height="88" viewBox="0 0 264 88" fill="none" xmlns="http://www.w3.org/2000/svg">
<rect x="0.5" y="0.5" width="263" height="87" rx="4.5" stroke="#9747FF" stroke-dasharray="10 5"/>
<g filter="url(#filter0_d_242_1926)">
<mask id="mask0_242_1926" style="mask-type:alpha" maskUnits="userSpaceOnUse" x="24" y="24" width="40" height="40">
<rect x="24" y="24" width="40" height="40" fill="#D9D9D9"/>
</mask>
<g mask="url(#mask0_242_1926)">
<path d="M51.5 50.6667V37.3333L44.8333 44L51.5 50.6667ZM32.3333 59C31.4167 59 30.6319 58.6736 29.9792 58.0208C29.3264 57.3681 29 56.5833 29 55.6667V32.3333C29 31.4167 29.3264 30.6319 29.9792 29.9792C30.6319 29.3264 31.4167 29 32.3333 29H55.6667C56.5833 29 57.3681 29.3264 58.0208 29.9792C58.6736 30.6319 59 31.4167 59 32.3333V55.6667C59 56.5833 58.6736 57.3681 58.0208 58.0208C57.3681 58.6736 56.5833 59 55.6667 59H32.3333ZM37.3333 55.6667V32.3333H32.3333V55.6667H37.3333ZM40.6667 55.6667H55.6667V32.3333H40.6667V55.6667Z" fill="#1D2935"/>
</g>
</g>
<rect x="104" y="16" width="56" height="56" rx="28" fill="#1D2935" fill-opacity="0.1"/>
<g filter="url(#filter1_d_242_1926)">
<mask id="mask1_242_1926" style="mask-type:alpha" maskUnits="userSpaceOnUse" x="112" y="24" width="40" height="40">
<rect x="112" y="24" width="40" height="40" fill="#D9D9D9"/>
</mask>
<g mask="url(#mask1_242_1926)">
<path d="M139.5 50.6667V37.3333L132.833 44L139.5 50.6667ZM120.333 59C119.417 59 118.632 58.6736 117.979 58.0208C117.326 57.3681 117 56.5833 117 55.6667V32.3333C117 31.4167 117.326 30.6319 117.979 29.9792C118.632 29.3264 119.417 29 120.333 29H143.667C144.583 29 145.368 29.3264 146.021 29.9792C146.674 30.6319 147 31.4167 147 32.3333V55.6667C147 56.5833 146.674 57.3681 146.021 58.0208C145.368 58.6736 144.583 59 143.667 59H120.333ZM125.333 55.6667V32.3333H120.333V55.6667H125.333ZM128.667 55.6667H143.667V32.3333H128.667V55.6667Z" fill="#1D2935"/>
</g>
</g>
<rect x="192" y="16" width="56" height="56" rx="28" fill="#1D2935" fill-opacity="0.1"/>
<g filter="url(#filter2_d_242_1926)">
<mask id="mask2_242_1926" style="mask-type:alpha" maskUnits="userSpaceOnUse" x="200" y="24" width="40" height="40">
<rect x="200" y="24" width="40" height="40" fill="#D9D9D9"/>
</mask>
<g mask="url(#mask2_242_1926)">
<path d="M227.5 50.6667V37.3333L220.833 44L227.5 50.6667ZM208.333 59C207.417 59 206.632 58.6736 205.979 58.0208C205.326 57.3681 205 56.5833 205 55.6667V32.3333C205 31.4167 205.326 30.6319 205.979 29.9792C206.632 29.3264 207.417 29 208.333 29H231.667C232.583 29 233.368 29.3264 234.021 29.9792C234.674 30.6319 235 31.4167 235 32.3333V55.6667C235 56.5833 234.674 57.3681 234.021 58.0208C233.368 58.6736 232.583 59 231.667 59H208.333ZM213.333 55.6667V32.3333H208.333V55.6667H213.333ZM216.667 55.6667H231.667V32.3333H216.667V55.6667Z" fill="#1D2935"/>
</g>
</g>
<defs>
<filter id="filter0_d_242_1926" x="27" y="27" width="34" height="34" filterUnits="userSpaceOnUse" color-interpolation-filters="sRGB">
<feFlood flood-opacity="0" result="BackgroundImageFix"/>
<feColorMatrix in="SourceAlpha" type="matrix" values="0 0 0 0 0 0 0 0 0 0 0 0 0 0 0 0 0 0 127 0" result="hardAlpha"/>
<feOffset/>
<feGaussianBlur stdDeviation="1"/>
<feComposite in2="hardAlpha" operator="out"/>
<feColorMatrix type="matrix" values="0 0 0 0 0.113725 0 0 0 0 0.160784 0 0 0 0 0.207843 0 0 0 0.5 0"/>
<feBlend mode="normal" in2="BackgroundImageFix" result="effect1_dropShadow_242_1926"/>
<feBlend mode="normal" in="SourceGraphic" in2="effect1_dropShadow_242_1926" result="shape"/>
</filter>
<filter id="filter1_d_242_1926" x="115" y="27" width="34" height="34" filterUnits="userSpaceOnUse" color-interpolation-filters="sRGB">
<feFlood flood-opacity="0" result="BackgroundImageFix"/>
<feColorMatrix in="SourceAlpha" type="matrix" values="0 0 0 0 0 0 0 0 0 0 0 0 0 0 0 0 0 0 127 0" result="hardAlpha"/>
<feOffset/>
<feGaussianBlur stdDeviation="1"/>
<feComposite in2="hardAlpha" operator="out"/>
<feColorMatrix type="matrix" values="0 0 0 0 0.113725 0 0 0 0 0.160784 0 0 0 0 0.207843 0 0 0 0.5 0"/>
<feBlend mode="normal" in2="BackgroundImageFix" result="effect1_dropShadow_242_1926"/>
<feBlend mode="normal" in="SourceGraphic" in2="effect1_dropShadow_242_1926" result="shape"/>
</filter>
<filter id="filter2_d_242_1926" x="203" y="27" width="34" height="34" filterUnits="userSpaceOnUse" color-interpolation-filters="sRGB">
<feFlood flood-opacity="0" result="BackgroundImageFix"/>
<feColorMatrix in="SourceAlpha" type="matrix" values="0 0 0 0 0 0 0 0 0 0 0 0 0 0 0 0 0 0 127 0" result="hardAlpha"/>
<feOffset/>
<feGaussianBlur stdDeviation="1"/>
<feComposite in2="hardAlpha" operator="out"/>
<feColorMatrix type="matrix" values="0 0 0 0 0.113725 0 0 0 0 0.160784 0 0 0 0 0.207843 0 0 0 0.5 0"/>
<feBlend mode="normal" in2="BackgroundImageFix" result="effect1_dropShadow_242_1926"/>
<feBlend mode="normal" in="SourceGraphic" in2="effect1_dropShadow_242_1926" result="shape"/>
</filter>
</defs>
</svg>
