<svg width="248" height="88" viewBox="0 0 248 88" fill="none" xmlns="http://www.w3.org/2000/svg">
<rect x="0.5" y="0.5" width="247" height="87" stroke="#9747FF" stroke-dasharray="10 5"/>
<g filter="url(#filter0_d_198_98)">
<mask id="mask0_198_98" style="mask-type:alpha" maskUnits="userSpaceOnUse" x="24" y="24" width="40" height="40">
<rect x="24" y="24" width="40" height="40" fill="#F8F0EC"/>
</mask>
<g mask="url(#mask0_198_98)">
<g filter="url(#filter1_i_198_98)">
<path d="M44 49C45.3889 49 46.5695 48.5139 47.5417 47.5417C48.5139 46.5695 49 45.3889 49 44C49 42.6111 48.5139 41.4306 47.5417 40.4583C46.5695 39.4861 45.3889 39 44 39C42.6112 39 41.4306 39.4861 40.4584 40.4583C39.4862 41.4306 39 42.6111 39 44C39 45.3889 39.4862 46.5695 40.4584 47.5417C41.4306 48.5139 42.6112 49 44 49ZM44 60.6667C41.6945 60.6667 39.5278 60.2292 37.5 59.3542C35.4723 58.4792 33.7084 57.2917 32.2084 55.7917C30.7084 54.2917 29.5209 52.5278 28.6459 50.5C27.7709 48.4722 27.3334 46.3056 27.3334 44C27.3334 41.6945 27.7709 39.5278 28.6459 37.5C29.5209 35.4722 30.7084 33.7083 32.2084 32.2083C33.7084 30.7083 35.4723 29.5208 37.5 28.6458C39.5278 27.7708 41.6945 27.3333 44 27.3333C46.3056 27.3333 48.4723 27.7708 50.5 28.6458C52.5278 29.5208 54.2917 30.7083 55.7917 32.2083C57.2917 33.7083 58.4792 35.4722 59.3542 37.5C60.2292 39.5278 60.6667 41.6945 60.6667 44C60.6667 46.3056 60.2292 48.4722 59.3542 50.5C58.4792 52.5278 57.2917 54.2917 55.7917 55.7917C54.2917 57.2917 52.5278 58.4792 50.5 59.3542C48.4723 60.2292 46.3056 60.6667 44 60.6667Z" fill="#C94057"/>
</g>
</g>
</g>
<rect x="96" y="16" width="56" height="56" rx="28" fill="#1D2935" fill-opacity="0.1"/>
<g filter="url(#filter2_d_198_98)">
<mask id="mask1_198_98" style="mask-type:alpha" maskUnits="userSpaceOnUse" x="104" y="24" width="40" height="40">
<rect x="104" y="24" width="40" height="40" fill="#F8F0EC"/>
</mask>
<g mask="url(#mask1_198_98)">
<g filter="url(#filter3_i_198_98)">
<path d="M124 49C125.389 49 126.569 48.5139 127.542 47.5417C128.514 46.5695 129 45.3889 129 44C129 42.6111 128.514 41.4306 127.542 40.4583C126.569 39.4861 125.389 39 124 39C122.611 39 121.431 39.4861 120.458 40.4583C119.486 41.4306 119 42.6111 119 44C119 45.3889 119.486 46.5695 120.458 47.5417C121.431 48.5139 122.611 49 124 49ZM124 60.6667C121.694 60.6667 119.528 60.2292 117.5 59.3542C115.472 58.4792 113.708 57.2917 112.208 55.7917C110.708 54.2917 109.521 52.5278 108.646 50.5C107.771 48.4722 107.333 46.3056 107.333 44C107.333 41.6945 107.771 39.5278 108.646 37.5C109.521 35.4722 110.708 33.7083 112.208 32.2083C113.708 30.7083 115.472 29.5208 117.5 28.6458C119.528 27.7708 121.694 27.3333 124 27.3333C126.306 27.3333 128.472 27.7708 130.5 28.6458C132.528 29.5208 134.292 30.7083 135.792 32.2083C137.292 33.7083 138.479 35.4722 139.354 37.5C140.229 39.5278 140.667 41.6945 140.667 44C140.667 46.3056 140.229 48.4722 139.354 50.5C138.479 52.5278 137.292 54.2917 135.792 55.7917C134.292 57.2917 132.528 58.4792 130.5 59.3542C128.472 60.2292 126.306 60.6667 124 60.6667Z" fill="#C94057"/>
</g>
</g>
</g>
<rect x="176" y="16" width="56" height="56" rx="28" fill="#1D2935" fill-opacity="0.1"/>
<g filter="url(#filter4_d_198_98)">
<mask id="mask2_198_98" style="mask-type:alpha" maskUnits="userSpaceOnUse" x="186" y="26" width="36" height="36">
<rect x="186" y="26" width="36" height="36" fill="#F8F0EC"/>
</mask>
<g mask="url(#mask2_198_98)">
<g filter="url(#filter5_i_198_98)">
<path d="M204 48.5C205.25 48.5 206.313 48.0625 207.188 47.1875C208.063 46.3125 208.5 45.25 208.5 44C208.5 42.75 208.063 41.6875 207.188 40.8125C206.313 39.9375 205.25 39.5 204 39.5C202.75 39.5 201.688 39.9375 200.813 40.8125C199.938 41.6875 199.5 42.75 199.5 44C199.5 45.25 199.938 46.3125 200.813 47.1875C201.688 48.0625 202.75 48.5 204 48.5ZM204 59C201.925 59 199.975 58.6063 198.15 57.8188C196.325 57.0313 194.738 55.9625 193.388 54.6125C192.038 53.2625 190.969 51.675 190.181 49.85C189.394 48.025 189 46.075 189 44C189 41.925 189.394 39.975 190.181 38.15C190.969 36.325 192.038 34.7375 193.388 33.3875C194.738 32.0375 196.325 30.9688 198.15 30.1813C199.975 29.3938 201.925 29 204 29C206.075 29 208.025 29.3938 209.85 30.1813C211.675 30.9688 213.263 32.0375 214.613 33.3875C215.963 34.7375 217.031 36.325 217.819 38.15C218.606 39.975 219 41.925 219 44C219 46.075 218.606 48.025 217.819 49.85C217.031 51.675 215.963 53.2625 214.613 54.6125C213.263 55.9625 211.675 57.0313 209.85 57.8188C208.025 58.6063 206.075 59 204 59Z" fill="#C94057"/>
</g>
</g>
</g>
<defs>
<filter id="filter0_d_198_98" x="25.3334" y="25.3333" width="37.3334" height="37.3333" filterUnits="userSpaceOnUse" color-interpolation-filters="sRGB">
<feFlood flood-opacity="0" result="BackgroundImageFix"/>
<feColorMatrix in="SourceAlpha" type="matrix" values="0 0 0 0 0 0 0 0 0 0 0 0 0 0 0 0 0 0 127 0" result="hardAlpha"/>
<feOffset/>
<feGaussianBlur stdDeviation="1"/>
<feComposite in2="hardAlpha" operator="out"/>
<feColorMatrix type="matrix" values="0 0 0 0 0.113725 0 0 0 0 0.160784 0 0 0 0 0.207843 0 0 0 0.5 0"/>
<feBlend mode="normal" in2="BackgroundImageFix" result="effect1_dropShadow_198_98"/>
<feBlend mode="normal" in="SourceGraphic" in2="effect1_dropShadow_198_98" result="shape"/>
</filter>
<filter id="filter1_i_198_98" x="27.3334" y="27.3333" width="35.3334" height="35.3333" filterUnits="userSpaceOnUse" color-interpolation-filters="sRGB">
<feFlood flood-opacity="0" result="BackgroundImageFix"/>
<feBlend mode="normal" in="SourceGraphic" in2="BackgroundImageFix" result="shape"/>
<feColorMatrix in="SourceAlpha" type="matrix" values="0 0 0 0 0 0 0 0 0 0 0 0 0 0 0 0 0 0 127 0" result="hardAlpha"/>
<feOffset dx="2" dy="2"/>
<feGaussianBlur stdDeviation="1.5"/>
<feComposite in2="hardAlpha" operator="arithmetic" k2="-1" k3="1"/>
<feColorMatrix type="matrix" values="0 0 0 0 0 0 0 0 0 0 0 0 0 0 0 0 0 0 0.25 0"/>
<feBlend mode="normal" in2="shape" result="effect1_innerShadow_198_98"/>
</filter>
<filter id="filter2_d_198_98" x="105.333" y="25.3333" width="37.3334" height="37.3333" filterUnits="userSpaceOnUse" color-interpolation-filters="sRGB">
<feFlood flood-opacity="0" result="BackgroundImageFix"/>
<feColorMatrix in="SourceAlpha" type="matrix" values="0 0 0 0 0 0 0 0 0 0 0 0 0 0 0 0 0 0 127 0" result="hardAlpha"/>
<feOffset/>
<feGaussianBlur stdDeviation="1"/>
<feComposite in2="hardAlpha" operator="out"/>
<feColorMatrix type="matrix" values="0 0 0 0 0.113725 0 0 0 0 0.160784 0 0 0 0 0.207843 0 0 0 0.5 0"/>
<feBlend mode="normal" in2="BackgroundImageFix" result="effect1_dropShadow_198_98"/>
<feBlend mode="normal" in="SourceGraphic" in2="effect1_dropShadow_198_98" result="shape"/>
</filter>
<filter id="filter3_i_198_98" x="107.333" y="27.3333" width="35.3334" height="35.3333" filterUnits="userSpaceOnUse" color-interpolation-filters="sRGB">
<feFlood flood-opacity="0" result="BackgroundImageFix"/>
<feBlend mode="normal" in="SourceGraphic" in2="BackgroundImageFix" result="shape"/>
<feColorMatrix in="SourceAlpha" type="matrix" values="0 0 0 0 0 0 0 0 0 0 0 0 0 0 0 0 0 0 127 0" result="hardAlpha"/>
<feOffset dx="2" dy="2"/>
<feGaussianBlur stdDeviation="1.5"/>
<feComposite in2="hardAlpha" operator="arithmetic" k2="-1" k3="1"/>
<feColorMatrix type="matrix" values="0 0 0 0 0 0 0 0 0 0 0 0 0 0 0 0 0 0 0.25 0"/>
<feBlend mode="normal" in2="shape" result="effect1_innerShadow_198_98"/>
</filter>
<filter id="filter4_d_198_98" x="187" y="27" width="34" height="34" filterUnits="userSpaceOnUse" color-interpolation-filters="sRGB">
<feFlood flood-opacity="0" result="BackgroundImageFix"/>
<feColorMatrix in="SourceAlpha" type="matrix" values="0 0 0 0 0 0 0 0 0 0 0 0 0 0 0 0 0 0 127 0" result="hardAlpha"/>
<feOffset/>
<feGaussianBlur stdDeviation="1"/>
<feComposite in2="hardAlpha" operator="out"/>
<feColorMatrix type="matrix" values="0 0 0 0 0.113725 0 0 0 0 0.160784 0 0 0 0 0.207843 0 0 0 0.5 0"/>
<feBlend mode="normal" in2="BackgroundImageFix" result="effect1_dropShadow_198_98"/>
<feBlend mode="normal" in="SourceGraphic" in2="effect1_dropShadow_198_98" result="shape"/>
</filter>
<filter id="filter5_i_198_98" x="189" y="29" width="32" height="32" filterUnits="userSpaceOnUse" color-interpolation-filters="sRGB">
<feFlood flood-opacity="0" result="BackgroundImageFix"/>
<feBlend mode="normal" in="SourceGraphic" in2="BackgroundImageFix" result="shape"/>
<feColorMatrix in="SourceAlpha" type="matrix" values="0 0 0 0 0 0 0 0 0 0 0 0 0 0 0 0 0 0 127 0" result="hardAlpha"/>
<feOffset dx="2" dy="2"/>
<feGaussianBlur stdDeviation="1.5"/>
<feComposite in2="hardAlpha" operator="arithmetic" k2="-1" k3="1"/>
<feColorMatrix type="matrix" values="0 0 0 0 0 0 0 0 0 0 0 0 0 0 0 0 0 0 0.25 0"/>
<feBlend mode="normal" in2="shape" result="effect1_innerShadow_198_98"/>
</filter>
</defs>
</svg>
