<svg width="240" height="80" viewBox="0 0 240 80" fill="none" xmlns="http://www.w3.org/2000/svg">
<rect x="0.5" y="0.5" width="239" height="79" rx="4.5" stroke="#9747FF" stroke-dasharray="10 5"/>
<g filter="url(#filter0_d_232_201)">
<mask id="mask0_232_201" style="mask-type:alpha" maskUnits="userSpaceOnUse" x="20" y="20" width="40" height="40">
<rect x="20" y="20" width="40" height="40" fill="#D9D9D9"/>
</mask>
<g mask="url(#mask0_232_201)">
<path d="M40 55C36.1667 55 32.8264 53.7292 29.9792 51.1875C27.1319 48.6458 25.5 45.4722 25.0833 41.6667H28.5C28.8889 44.5556 30.1736 46.9444 32.3542 48.8333C34.5347 50.7222 37.0833 51.6667 40 51.6667C43.25 51.6667 46.0069 50.5347 48.2708 48.2708C50.5347 46.0069 51.6667 43.25 51.6667 40C51.6667 36.75 50.5347 33.9931 48.2708 31.7292C46.0069 29.4653 43.25 28.3333 40 28.3333C38.0833 28.3333 36.2917 28.7778 34.625 29.6667C32.9583 30.5556 31.5556 31.7778 30.4167 33.3333H35V36.6667H25V26.6667H28.3333V30.5833C29.75 28.8056 31.4792 27.4306 33.5208 26.4583C35.5625 25.4861 37.7222 25 40 25C42.0833 25 44.0347 25.3958 45.8542 26.1875C47.6736 26.9792 49.2569 28.0486 50.6042 29.3958C51.9514 30.7431 53.0208 32.3264 53.8125 34.1458C54.6042 35.9653 55 37.9167 55 40C55 42.0833 54.6042 44.0347 53.8125 45.8542C53.0208 47.6736 51.9514 49.2569 50.6042 50.6042C49.2569 51.9514 47.6736 53.0208 45.8542 53.8125C44.0347 54.6042 42.0833 55 40 55ZM44.6667 47L38.3333 40.6667V31.6667H41.6667V39.3333L47 44.6667L44.6667 47Z" fill="#1D2935"/>
</g>
</g>
<rect x="96" y="16" width="48" height="48" rx="24" fill="#1D2935" fill-opacity="0.1"/>
<g filter="url(#filter1_d_232_201)">
<mask id="mask1_232_201" style="mask-type:alpha" maskUnits="userSpaceOnUse" x="100" y="20" width="40" height="40">
<rect x="100" y="20" width="40" height="40" fill="#D9D9D9"/>
</mask>
<g mask="url(#mask1_232_201)">
<path d="M120 55C116.167 55 112.826 53.7292 109.979 51.1875C107.132 48.6458 105.5 45.4722 105.083 41.6667H108.5C108.889 44.5556 110.174 46.9444 112.354 48.8333C114.535 50.7222 117.083 51.6667 120 51.6667C123.25 51.6667 126.007 50.5347 128.271 48.2708C130.535 46.0069 131.667 43.25 131.667 40C131.667 36.75 130.535 33.9931 128.271 31.7292C126.007 29.4653 123.25 28.3333 120 28.3333C118.083 28.3333 116.292 28.7778 114.625 29.6667C112.958 30.5556 111.556 31.7778 110.417 33.3333H115V36.6667H105V26.6667H108.333V30.5833C109.75 28.8056 111.479 27.4306 113.521 26.4583C115.562 25.4861 117.722 25 120 25C122.083 25 124.035 25.3958 125.854 26.1875C127.674 26.9792 129.257 28.0486 130.604 29.3958C131.951 30.7431 133.021 32.3264 133.812 34.1458C134.604 35.9653 135 37.9167 135 40C135 42.0833 134.604 44.0347 133.812 45.8542C133.021 47.6736 131.951 49.2569 130.604 50.6042C129.257 51.9514 127.674 53.0208 125.854 53.8125C124.035 54.6042 122.083 55 120 55ZM124.667 47L118.333 40.6667V31.6667H121.667V39.3333L127 44.6667L124.667 47Z" fill="#1D2935"/>
</g>
</g>
<rect x="176" y="16" width="48" height="48" rx="24" fill="#1D2935" fill-opacity="0.1"/>
<g filter="url(#filter2_d_232_201)">
<mask id="mask2_232_201" style="mask-type:alpha" maskUnits="userSpaceOnUse" x="182" y="22" width="36" height="36">
<rect x="182" y="22" width="36" height="36" fill="#D9D9D9"/>
</mask>
<g mask="url(#mask2_232_201)">
<path d="M200 53.5C196.55 53.5 193.544 52.3563 190.981 50.0688C188.419 47.7812 186.95 44.925 186.575 41.5H189.65C190 44.1 191.156 46.25 193.119 47.95C195.081 49.65 197.375 50.5 200 50.5C202.925 50.5 205.406 49.4813 207.444 47.4438C209.481 45.4062 210.5 42.925 210.5 40C210.5 37.075 209.481 34.5938 207.444 32.5562C205.406 30.5187 202.925 29.5 200 29.5C198.275 29.5 196.663 29.9 195.163 30.7C193.663 31.5 192.4 32.6 191.375 34H195.5V37H186.5V28H189.5V31.525C190.775 29.925 192.331 28.6875 194.169 27.8125C196.006 26.9375 197.95 26.5 200 26.5C201.875 26.5 203.631 26.8563 205.269 27.5688C206.906 28.2812 208.331 29.2438 209.544 30.4563C210.756 31.6688 211.719 33.0938 212.431 34.7313C213.144 36.3688 213.5 38.125 213.5 40C213.5 41.875 213.144 43.6313 212.431 45.2687C211.719 46.9062 210.756 48.3313 209.544 49.5438C208.331 50.7563 206.906 51.7188 205.269 52.4313C203.631 53.1438 201.875 53.5 200 53.5ZM204.2 46.3L198.5 40.6V32.5H201.5V39.4L206.3 44.2L204.2 46.3Z" fill="#1D2935"/>
</g>
</g>
<defs>
<filter id="filter0_d_232_201" x="23" y="23" width="34" height="34" filterUnits="userSpaceOnUse" color-interpolation-filters="sRGB">
<feFlood flood-opacity="0" result="BackgroundImageFix"/>
<feColorMatrix in="SourceAlpha" type="matrix" values="0 0 0 0 0 0 0 0 0 0 0 0 0 0 0 0 0 0 127 0" result="hardAlpha"/>
<feOffset/>
<feGaussianBlur stdDeviation="1"/>
<feComposite in2="hardAlpha" operator="out"/>
<feColorMatrix type="matrix" values="0 0 0 0 0.113725 0 0 0 0 0.160784 0 0 0 0 0.207843 0 0 0 0.5 0"/>
<feBlend mode="normal" in2="BackgroundImageFix" result="effect1_dropShadow_232_201"/>
<feBlend mode="normal" in="SourceGraphic" in2="effect1_dropShadow_232_201" result="shape"/>
</filter>
<filter id="filter1_d_232_201" x="103" y="23" width="34" height="34" filterUnits="userSpaceOnUse" color-interpolation-filters="sRGB">
<feFlood flood-opacity="0" result="BackgroundImageFix"/>
<feColorMatrix in="SourceAlpha" type="matrix" values="0 0 0 0 0 0 0 0 0 0 0 0 0 0 0 0 0 0 127 0" result="hardAlpha"/>
<feOffset/>
<feGaussianBlur stdDeviation="1"/>
<feComposite in2="hardAlpha" operator="out"/>
<feColorMatrix type="matrix" values="0 0 0 0 0.113725 0 0 0 0 0.160784 0 0 0 0 0.207843 0 0 0 0.5 0"/>
<feBlend mode="normal" in2="BackgroundImageFix" result="effect1_dropShadow_232_201"/>
<feBlend mode="normal" in="SourceGraphic" in2="effect1_dropShadow_232_201" result="shape"/>
</filter>
<filter id="filter2_d_232_201" x="184.5" y="24.5" width="31" height="31" filterUnits="userSpaceOnUse" color-interpolation-filters="sRGB">
<feFlood flood-opacity="0" result="BackgroundImageFix"/>
<feColorMatrix in="SourceAlpha" type="matrix" values="0 0 0 0 0 0 0 0 0 0 0 0 0 0 0 0 0 0 127 0" result="hardAlpha"/>
<feOffset/>
<feGaussianBlur stdDeviation="1"/>
<feComposite in2="hardAlpha" operator="out"/>
<feColorMatrix type="matrix" values="0 0 0 0 0.113725 0 0 0 0 0.160784 0 0 0 0 0.207843 0 0 0 0.5 0"/>
<feBlend mode="normal" in2="BackgroundImageFix" result="effect1_dropShadow_232_201"/>
<feBlend mode="normal" in="SourceGraphic" in2="effect1_dropShadow_232_201" result="shape"/>
</filter>
</defs>
</svg>
