<svg width="216" height="72" viewBox="0 0 216 72" fill="none" xmlns="http://www.w3.org/2000/svg">
<rect x="0.5" y="0.5" width="215" height="71" rx="4.5" stroke="#9747FF" stroke-dasharray="10 5"/>
<mask id="mask0_242_1880" style="mask-type:alpha" maskUnits="userSpaceOnUse" x="24" y="24" width="24" height="24">
<rect x="24" y="24" width="24" height="24" fill="#D9D9D9"/>
</mask>
<g mask="url(#mask0_242_1880)">
<path d="M33 42C32.45 42 31.9792 41.8042 31.5875 41.4125C31.1958 41.0208 31 40.55 31 40V28C31 27.45 31.1958 26.9792 31.5875 26.5875C31.9792 26.1958 32.45 26 33 26H42C42.55 26 43.0208 26.1958 43.4125 26.5875C43.8042 26.9792 44 27.45 44 28V40C44 40.55 43.8042 41.0208 43.4125 41.4125C43.0208 41.8042 42.55 42 42 42H33ZM33 40H42V28H33V40ZM29 46C28.45 46 27.9792 45.8042 27.5875 45.4125C27.1958 45.0208 27 44.55 27 44V30H29V44H40V46H29Z" fill="#1D2935"/>
</g>
<rect x="88" y="16" width="40" height="40" rx="20" fill="#1D2935" fill-opacity="0.1"/>
<mask id="mask1_242_1880" style="mask-type:alpha" maskUnits="userSpaceOnUse" x="96" y="24" width="24" height="24">
<rect x="96" y="24" width="24" height="24" fill="#D9D9D9"/>
</mask>
<g mask="url(#mask1_242_1880)">
<path d="M105 42C104.45 42 103.979 41.8042 103.588 41.4125C103.196 41.0208 103 40.55 103 40V28C103 27.45 103.196 26.9792 103.588 26.5875C103.979 26.1958 104.45 26 105 26H114C114.55 26 115.021 26.1958 115.413 26.5875C115.804 26.9792 116 27.45 116 28V40C116 40.55 115.804 41.0208 115.413 41.4125C115.021 41.8042 114.55 42 114 42H105ZM105 40H114V28H105V40ZM101 46C100.45 46 99.9792 45.8042 99.5875 45.4125C99.1958 45.0208 99 44.55 99 44V30H101V44H112V46H101Z" fill="#1D2935"/>
</g>
<rect x="160" y="16" width="40" height="40" rx="20" fill="#1D2935" fill-opacity="0.1"/>
<mask id="mask2_242_1880" style="mask-type:alpha" maskUnits="userSpaceOnUse" x="169" y="25" width="22" height="22">
<rect x="169" y="25" width="22" height="22" fill="#D9D9D9"/>
</mask>
<g mask="url(#mask2_242_1880)">
<path d="M177.25 41.5C176.746 41.5 176.314 41.3205 175.955 40.9614C175.596 40.6024 175.417 40.1708 175.417 39.6666V28.6666C175.417 28.1625 175.596 27.7309 175.955 27.3719C176.314 27.0128 176.746 26.8333 177.25 26.8333H185.5C186.004 26.8333 186.436 27.0128 186.795 27.3719C187.154 27.7309 187.333 28.1625 187.333 28.6666V39.6666C187.333 40.1708 187.154 40.6024 186.795 40.9614C186.436 41.3205 186.004 41.5 185.5 41.5H177.25ZM177.25 39.6666H185.5V28.6666H177.25V39.6666ZM173.583 45.1666C173.079 45.1666 172.648 44.9871 172.289 44.6281C171.93 44.2691 171.75 43.8375 171.75 43.3333V30.5H173.583V43.3333H183.667V45.1666H173.583Z" fill="#1D2935"/>
</g>
</svg>
