<svg width="441" height="132" viewBox="0 0 441 132" fill="none" xmlns="http://www.w3.org/2000/svg">
<rect width="441" height="132" rx="8" fill="#1D2935"/>
<rect x="16.5" y="16.5" width="99" height="99" rx="7.5" fill="#F8F0EC"/>
<rect x="16.5" y="16.5" width="99" height="99" rx="7.5" stroke="#F8F0EC"/>
<path d="M49.142 70.5L46.7557 61.7727H47.8295L49.6534 68.8807H49.7386L51.5966 61.7727H52.7898L54.6477 68.8807H54.733L56.5568 61.7727H57.6307L55.2443 70.5H54.1534L52.2273 63.5455H52.1591L50.233 70.5H49.142ZM59.8168 66.5625V70.5H58.8111V61.7727H59.8168V64.9773H59.902C60.0554 64.6392 60.2855 64.3707 60.5923 64.1719C60.902 63.9702 61.3139 63.8693 61.8281 63.8693C62.2741 63.8693 62.6648 63.9588 63 64.1378C63.3352 64.3139 63.5952 64.5852 63.7798 64.9517C63.9673 65.3153 64.0611 65.7784 64.0611 66.3409V70.5H63.0554V66.4091C63.0554 65.8892 62.9205 65.4872 62.6506 65.2031C62.3835 64.9162 62.0128 64.7727 61.5384 64.7727C61.2088 64.7727 60.9134 64.8423 60.652 64.9815C60.3935 65.1207 60.1889 65.3239 60.0384 65.5909C59.8906 65.858 59.8168 66.1818 59.8168 66.5625ZM65.9009 70.5V63.9545H66.9066V70.5H65.9009ZM66.4123 62.8636C66.2163 62.8636 66.0472 62.7969 65.9052 62.6634C65.766 62.5298 65.6964 62.3693 65.6964 62.1818C65.6964 61.9943 65.766 61.8338 65.9052 61.7003C66.0472 61.5668 66.2163 61.5 66.4123 61.5C66.6083 61.5 66.7759 61.5668 66.9151 61.7003C67.0572 61.8338 67.1282 61.9943 67.1282 62.1818C67.1282 62.3693 67.0572 62.5298 66.9151 62.6634C66.7759 62.7969 66.6083 62.8636 66.4123 62.8636ZM71.5952 63.9545V64.8068H68.2031V63.9545H71.5952ZM69.1918 62.3864H70.1974V68.625C70.1974 68.9091 70.2386 69.1222 70.321 69.2642C70.4063 69.4034 70.5142 69.4972 70.6449 69.5455C70.7784 69.5909 70.919 69.6136 71.0668 69.6136C71.1776 69.6136 71.2685 69.608 71.3395 69.5966C71.4105 69.5824 71.4673 69.571 71.5099 69.5625L71.7145 70.4659C71.6463 70.4915 71.5511 70.517 71.429 70.5426C71.3068 70.571 71.152 70.5852 70.9645 70.5852C70.6804 70.5852 70.402 70.5241 70.1293 70.402C69.8594 70.2798 69.6349 70.0938 69.456 69.8438C69.2798 69.5938 69.1918 69.2784 69.1918 68.8977V62.3864ZM75.782 70.6364C75.1513 70.6364 74.6072 70.4972 74.1499 70.2188C73.6953 69.9375 73.3445 69.5455 73.0973 69.0426C72.853 68.5369 72.7308 67.9489 72.7308 67.2784C72.7308 66.608 72.853 66.017 73.0973 65.5057C73.3445 64.9915 73.6882 64.5909 74.1286 64.304C74.5717 64.0142 75.0888 63.8693 75.6797 63.8693C76.0206 63.8693 76.3572 63.9261 76.6896 64.0398C77.022 64.1534 77.3246 64.3381 77.5973 64.5938C77.87 64.8466 78.0874 65.1818 78.2493 65.5994C78.4112 66.017 78.4922 66.5312 78.4922 67.142V67.5682H73.4467V66.6989H77.4695C77.4695 66.3295 77.3956 66 77.2479 65.7102C77.103 65.4205 76.8956 65.1918 76.6257 65.0241C76.3587 64.8565 76.0433 64.7727 75.6797 64.7727C75.2791 64.7727 74.9325 64.8722 74.6399 65.071C74.3501 65.267 74.1271 65.5227 73.9709 65.8381C73.8146 66.1534 73.7365 66.4915 73.7365 66.8523V67.4318C73.7365 67.9261 73.8217 68.3452 73.9922 68.6889C74.1655 69.0298 74.4055 69.2898 74.7124 69.4688C75.0192 69.6449 75.3757 69.733 75.782 69.733C76.0462 69.733 76.2848 69.696 76.4979 69.6222C76.7138 69.5455 76.8999 69.4318 77.0561 69.2812C77.2124 69.1278 77.3331 68.9375 77.4183 68.7102L78.3899 68.983C78.2876 69.3125 78.1158 69.6023 77.8743 69.8523C77.6328 70.0994 77.3345 70.2926 76.9794 70.4318C76.6243 70.5682 76.2251 70.6364 75.782 70.6364ZM84.6584 65.4205L83.755 65.6761C83.6982 65.5256 83.6143 65.3793 83.5036 65.2372C83.3956 65.0923 83.2479 64.973 83.0604 64.8793C82.8729 64.7855 82.6328 64.7386 82.3402 64.7386C81.9396 64.7386 81.6058 64.831 81.3388 65.0156C81.0746 65.1974 80.9425 65.429 80.9425 65.7102C80.9425 65.9602 81.0334 66.1577 81.2152 66.3026C81.397 66.4474 81.6811 66.5682 82.0675 66.6648L83.0391 66.9034C83.6243 67.0455 84.0604 67.2628 84.3473 67.5554C84.6342 67.8452 84.7777 68.2187 84.7777 68.6761C84.7777 69.0511 84.6697 69.3864 84.4538 69.6818C84.2408 69.9773 83.9425 70.2102 83.5589 70.3807C83.1754 70.5511 82.7294 70.6364 82.2209 70.6364C81.5533 70.6364 81.0007 70.4915 80.5632 70.2017C80.1257 69.9119 79.8487 69.4886 79.7322 68.9318L80.6868 68.6932C80.7777 69.0455 80.9496 69.3097 81.2024 69.4858C81.4581 69.6619 81.7919 69.75 82.2038 69.75C82.6726 69.75 83.0447 69.6506 83.3203 69.4517C83.5987 69.25 83.7379 69.0085 83.7379 68.7273C83.7379 68.5 83.6584 68.3097 83.4993 68.1562C83.3402 68 83.0959 67.8835 82.7663 67.8068L81.6754 67.5511C81.076 67.4091 80.6357 67.1889 80.3544 66.8906C80.076 66.5895 79.9368 66.2131 79.9368 65.7614C79.9368 65.392 80.0405 65.0653 80.2479 64.7812C80.4581 64.4972 80.7436 64.2741 81.1044 64.1122C81.468 63.9503 81.88 63.8693 82.3402 63.8693C82.9879 63.8693 83.4964 64.0114 83.8658 64.2955C84.2379 64.5795 84.5021 64.9545 84.6584 65.4205Z" fill="#1D2935"/>
<rect x="132.5" y="41.5" width="82" height="74" rx="7.5" stroke="#F8F0EC"/>
<path d="M141.057 83V74.2727H146.29V75.2102H142.114V78.1591H145.898V79.0966H142.114V83H141.057ZM150.742 83.1193C150.157 83.1193 149.64 83.0156 149.191 82.8082C148.745 82.598 148.397 82.3097 148.147 81.9432C147.897 81.5739 147.773 81.1534 147.776 80.6818C147.773 80.3125 147.846 79.9716 147.993 79.6591C148.141 79.3437 148.343 79.081 148.598 78.8707C148.857 78.6577 149.145 78.5227 149.463 78.4659V78.4148C149.046 78.3068 148.713 78.0724 148.466 77.7116C148.219 77.348 148.097 76.9347 148.1 76.4716C148.097 76.0284 148.209 75.6321 148.436 75.2827C148.664 74.9332 148.976 74.6577 149.374 74.456C149.775 74.2543 150.23 74.1534 150.742 74.1534C151.248 74.1534 151.699 74.2543 152.097 74.456C152.495 74.6577 152.807 74.9332 153.034 75.2827C153.265 75.6321 153.381 76.0284 153.384 76.4716C153.381 76.9347 153.255 77.348 153.005 77.7116C152.757 78.0724 152.429 78.3068 152.02 78.4148V78.4659C152.336 78.5227 152.62 78.6577 152.873 78.8707C153.125 79.081 153.327 79.3437 153.478 79.6591C153.628 79.9716 153.705 80.3125 153.708 80.6818C153.705 81.1534 153.577 81.5739 153.324 81.9432C153.074 82.3097 152.726 82.598 152.28 82.8082C151.837 83.0156 151.324 83.1193 150.742 83.1193ZM150.742 82.1818C151.137 82.1818 151.478 82.1179 151.765 81.9901C152.051 81.8622 152.273 81.6818 152.429 81.4489C152.586 81.2159 152.665 80.9432 152.668 80.6307C152.665 80.3011 152.58 80.0099 152.412 79.7571C152.245 79.5043 152.016 79.3054 151.726 79.1605C151.439 79.0156 151.111 78.9432 150.742 78.9432C150.37 78.9432 150.037 79.0156 149.745 79.1605C149.455 79.3054 149.226 79.5043 149.059 79.7571C148.894 80.0099 148.813 80.3011 148.816 80.6307C148.813 80.9432 148.888 81.2159 149.042 81.4489C149.198 81.6818 149.421 81.8622 149.711 81.9901C150 82.1179 150.344 82.1818 150.742 82.1818ZM150.742 78.0398C151.054 78.0398 151.331 77.9773 151.573 77.8523C151.817 77.7273 152.009 77.5526 152.148 77.3281C152.287 77.1037 152.358 76.8409 152.361 76.5398C152.358 76.2443 152.289 75.9872 152.152 75.7685C152.016 75.5469 151.827 75.3764 151.586 75.2571C151.344 75.1349 151.063 75.0739 150.742 75.0739C150.415 75.0739 150.13 75.1349 149.885 75.2571C149.641 75.3764 149.452 75.5469 149.319 75.7685C149.185 75.9872 149.12 76.2443 149.123 76.5398C149.12 76.8409 149.186 77.1037 149.323 77.3281C149.462 77.5526 149.654 77.7273 149.898 77.8523C150.142 77.9773 150.424 78.0398 150.742 78.0398ZM155.494 83V74.2727H160.727V75.2102H156.551V78.1591H160.335V79.0966H156.551V83H155.494ZM165.23 83.1193C164.588 83.1193 164.042 82.9446 163.59 82.5952C163.138 82.2429 162.793 81.733 162.554 81.0653C162.316 80.3949 162.196 79.5852 162.196 78.6364C162.196 77.6932 162.316 76.8878 162.554 76.2202C162.796 75.5497 163.142 75.0384 163.594 74.6861C164.049 74.331 164.594 74.1534 165.23 74.1534C165.867 74.1534 166.411 74.331 166.863 74.6861C167.317 75.0384 167.664 75.5497 167.902 76.2202C168.144 76.8878 168.265 77.6932 168.265 78.6364C168.265 79.5852 168.145 80.3949 167.907 81.0653C167.668 81.733 167.323 82.2429 166.871 82.5952C166.419 82.9446 165.873 83.1193 165.23 83.1193ZM165.23 82.1818C165.867 82.1818 166.361 81.875 166.713 81.2614C167.066 80.6477 167.242 79.7727 167.242 78.6364C167.242 77.8807 167.161 77.2372 166.999 76.706C166.84 76.1747 166.61 75.7699 166.309 75.4915C166.01 75.2131 165.651 75.0739 165.23 75.0739C164.6 75.0739 164.107 75.3849 163.752 76.0071C163.397 76.6264 163.219 77.5028 163.219 78.6364C163.219 79.392 163.299 80.0341 163.458 80.5625C163.617 81.0909 163.846 81.4929 164.144 81.7685C164.445 82.044 164.807 82.1818 165.23 82.1818ZM170.037 83V74.2727H175.304V75.2102H171.094V78.1591H175.032V79.0966H171.094V82.0625H175.373V83H170.037ZM184.232 77H183.175C183.113 76.696 183.003 76.429 182.847 76.1989C182.694 75.9688 182.506 75.7756 182.284 75.6193C182.066 75.4602 181.823 75.3409 181.556 75.2614C181.289 75.1818 181.01 75.142 180.721 75.142C180.192 75.142 179.713 75.2756 179.284 75.5426C178.858 75.8097 178.519 76.2031 178.266 76.723C178.016 77.2429 177.891 77.8807 177.891 78.6364C177.891 79.392 178.016 80.0298 178.266 80.5497C178.519 81.0696 178.858 81.4631 179.284 81.7301C179.713 81.9972 180.192 82.1307 180.721 82.1307C181.01 82.1307 181.289 82.0909 181.556 82.0114C181.823 81.9318 182.066 81.8139 182.284 81.6577C182.506 81.4986 182.694 81.304 182.847 81.0739C183.003 80.8409 183.113 80.5739 183.175 80.2727H184.232C184.152 80.7187 184.007 81.1179 183.797 81.4702C183.587 81.8224 183.326 82.1222 183.013 82.3693C182.701 82.6136 182.35 82.7997 181.961 82.9276C181.574 83.0554 181.161 83.1193 180.721 83.1193C179.976 83.1193 179.314 82.9375 178.735 82.5739C178.155 82.2102 177.699 81.6932 177.367 81.0227C177.034 80.3523 176.868 79.5568 176.868 78.6364C176.868 77.7159 177.034 76.9205 177.367 76.25C177.699 75.5795 178.155 75.0625 178.735 74.6989C179.314 74.3352 179.976 74.1534 180.721 74.1534C181.161 74.1534 181.574 74.2173 181.961 74.3452C182.35 74.473 182.701 74.6605 183.013 74.9077C183.326 75.152 183.587 75.4503 183.797 75.8026C184.007 76.152 184.152 76.5511 184.232 77ZM187.269 71.4602V85.8125H186.417V71.4602H187.269ZM192.559 83.1193C191.917 83.1193 191.37 82.9446 190.918 82.5952C190.466 82.2429 190.121 81.733 189.882 81.0653C189.644 80.3949 189.525 79.5852 189.525 78.6364C189.525 77.6932 189.644 76.8878 189.882 76.2202C190.124 75.5497 190.471 75.0384 190.922 74.6861C191.377 74.331 191.922 74.1534 192.559 74.1534C193.195 74.1534 193.739 74.331 194.191 74.6861C194.645 75.0384 194.992 75.5497 195.23 76.2202C195.472 76.8878 195.593 77.6932 195.593 78.6364C195.593 79.5852 195.473 80.3949 195.235 81.0653C194.996 81.733 194.651 82.2429 194.199 82.5952C193.748 82.9446 193.201 83.1193 192.559 83.1193ZM192.559 82.1818C193.195 82.1818 193.689 81.875 194.042 81.2614C194.394 80.6477 194.57 79.7727 194.57 78.6364C194.57 77.8807 194.489 77.2372 194.327 76.706C194.168 76.1747 193.938 75.7699 193.637 75.4915C193.338 75.2131 192.979 75.0739 192.559 75.0739C191.928 75.0739 191.435 75.3849 191.08 76.0071C190.725 76.6264 190.547 77.5028 190.547 78.6364C190.547 79.392 190.627 80.0341 190.786 80.5625C190.945 81.0909 191.174 81.4929 191.472 81.7685C191.773 82.044 192.135 82.1818 192.559 82.1818ZM201.661 81.3636V80.9034C201.661 80.5852 201.726 80.294 201.857 80.0298C201.99 79.7628 202.184 79.5497 202.436 79.3906C202.692 79.2287 203.002 79.1477 203.365 79.1477C203.735 79.1477 204.044 79.2287 204.294 79.3906C204.544 79.5497 204.733 79.7628 204.861 80.0298C204.989 80.294 205.053 80.5852 205.053 80.9034V81.3636C205.053 81.6818 204.988 81.9744 204.857 82.2415C204.729 82.5057 204.539 82.7187 204.286 82.8807C204.036 83.0398 203.729 83.1193 203.365 83.1193C202.996 83.1193 202.685 83.0398 202.432 82.8807C202.179 82.7187 201.988 82.5057 201.857 82.2415C201.726 81.9744 201.661 81.6818 201.661 81.3636ZM202.53 80.9034V81.3636C202.53 81.6278 202.593 81.8651 202.718 82.0753C202.843 82.2827 203.059 82.3864 203.365 82.3864C203.664 82.3864 203.874 82.2827 203.996 82.0753C204.121 81.8651 204.184 81.6278 204.184 81.3636V80.9034C204.184 80.6392 204.124 80.4034 204.005 80.196C203.885 79.9858 203.672 79.8807 203.365 79.8807C203.067 79.8807 202.853 79.9858 202.722 80.196C202.594 80.4034 202.53 80.6392 202.53 80.9034ZM197.314 76.3693V75.9091C197.314 75.5909 197.38 75.2997 197.51 75.0355C197.644 74.7685 197.837 74.5554 198.09 74.3963C198.346 74.2344 198.655 74.1534 199.019 74.1534C199.388 74.1534 199.698 74.2344 199.948 74.3963C200.198 74.5554 200.387 74.7685 200.515 75.0355C200.642 75.2997 200.706 75.5909 200.706 75.9091V76.3693C200.706 76.6875 200.641 76.9801 200.51 77.2472C200.382 77.5114 200.192 77.7244 199.939 77.8864C199.689 78.0455 199.382 78.125 199.019 78.125C198.65 78.125 198.338 78.0455 198.086 77.8864C197.833 77.7244 197.641 77.5114 197.51 77.2472C197.38 76.9801 197.314 76.6875 197.314 76.3693ZM198.184 75.9091V76.3693C198.184 76.6335 198.246 76.8707 198.371 77.081C198.496 77.2884 198.712 77.392 199.019 77.392C199.317 77.392 199.527 77.2884 199.65 77.081C199.775 76.8707 199.837 76.6335 199.837 76.3693V75.9091C199.837 75.6449 199.777 75.4091 199.658 75.2017C199.539 74.9915 199.326 74.8864 199.019 74.8864C198.721 74.8864 198.506 74.9915 198.375 75.2017C198.248 75.4091 198.184 75.6449 198.184 75.9091ZM197.638 83L203.638 74.2727H204.61L198.61 83H197.638Z" fill="#F8F0EC"/>
<rect x="231.5" y="41.5" width="87" height="74" rx="7.5" fill="#F8F0EC" fill-opacity="0.1"/>
<rect x="231.5" y="41.5" width="87" height="74" rx="7.5" stroke="#F8F0EC"/>
<path d="M240.057 83V74.2727H245.29V75.2102H241.114V78.1591H244.898V79.0966H241.114V83H240.057ZM249.742 83.1193C249.157 83.1193 248.64 83.0156 248.191 82.8082C247.745 82.598 247.397 82.3097 247.147 81.9432C246.897 81.5739 246.773 81.1534 246.776 80.6818C246.773 80.3125 246.846 79.9716 246.993 79.6591C247.141 79.3437 247.343 79.081 247.598 78.8707C247.857 78.6577 248.145 78.5227 248.463 78.4659V78.4148C248.046 78.3068 247.713 78.0724 247.466 77.7116C247.219 77.348 247.097 76.9347 247.1 76.4716C247.097 76.0284 247.209 75.6321 247.436 75.2827C247.664 74.9332 247.976 74.6577 248.374 74.456C248.775 74.2543 249.23 74.1534 249.742 74.1534C250.248 74.1534 250.699 74.2543 251.097 74.456C251.495 74.6577 251.807 74.9332 252.034 75.2827C252.265 75.6321 252.381 76.0284 252.384 76.4716C252.381 76.9347 252.255 77.348 252.005 77.7116C251.757 78.0724 251.429 78.3068 251.02 78.4148V78.4659C251.336 78.5227 251.62 78.6577 251.873 78.8707C252.125 79.081 252.327 79.3437 252.478 79.6591C252.628 79.9716 252.705 80.3125 252.708 80.6818C252.705 81.1534 252.577 81.5739 252.324 81.9432C252.074 82.3097 251.726 82.598 251.28 82.8082C250.837 83.0156 250.324 83.1193 249.742 83.1193ZM249.742 82.1818C250.137 82.1818 250.478 82.1179 250.765 81.9901C251.051 81.8622 251.273 81.6818 251.429 81.4489C251.586 81.2159 251.665 80.9432 251.668 80.6307C251.665 80.3011 251.58 80.0099 251.412 79.7571C251.245 79.5043 251.016 79.3054 250.726 79.1605C250.439 79.0156 250.111 78.9432 249.742 78.9432C249.37 78.9432 249.037 79.0156 248.745 79.1605C248.455 79.3054 248.226 79.5043 248.059 79.7571C247.894 80.0099 247.813 80.3011 247.816 80.6307C247.813 80.9432 247.888 81.2159 248.042 81.4489C248.198 81.6818 248.421 81.8622 248.711 81.9901C249 82.1179 249.344 82.1818 249.742 82.1818ZM249.742 78.0398C250.054 78.0398 250.331 77.9773 250.573 77.8523C250.817 77.7273 251.009 77.5526 251.148 77.3281C251.287 77.1037 251.358 76.8409 251.361 76.5398C251.358 76.2443 251.289 75.9872 251.152 75.7685C251.016 75.5469 250.827 75.3764 250.586 75.2571C250.344 75.1349 250.063 75.0739 249.742 75.0739C249.415 75.0739 249.13 75.1349 248.885 75.2571C248.641 75.3764 248.452 75.5469 248.319 75.7685C248.185 75.9872 248.12 76.2443 248.123 76.5398C248.12 76.8409 248.186 77.1037 248.323 77.3281C248.462 77.5526 248.654 77.7273 248.898 77.8523C249.142 77.9773 249.424 78.0398 249.742 78.0398ZM254.494 83V74.2727H259.727V75.2102H255.551V78.1591H259.335V79.0966H255.551V83H254.494ZM264.23 83.1193C263.588 83.1193 263.042 82.9446 262.59 82.5952C262.138 82.2429 261.793 81.733 261.554 81.0653C261.316 80.3949 261.196 79.5852 261.196 78.6364C261.196 77.6932 261.316 76.8878 261.554 76.2202C261.796 75.5497 262.142 75.0384 262.594 74.6861C263.049 74.331 263.594 74.1534 264.23 74.1534C264.867 74.1534 265.411 74.331 265.863 74.6861C266.317 75.0384 266.664 75.5497 266.902 76.2202C267.144 76.8878 267.265 77.6932 267.265 78.6364C267.265 79.5852 267.145 80.3949 266.907 81.0653C266.668 81.733 266.323 82.2429 265.871 82.5952C265.419 82.9446 264.873 83.1193 264.23 83.1193ZM264.23 82.1818C264.867 82.1818 265.361 81.875 265.713 81.2614C266.066 80.6477 266.242 79.7727 266.242 78.6364C266.242 77.8807 266.161 77.2372 265.999 76.706C265.84 76.1747 265.61 75.7699 265.309 75.4915C265.01 75.2131 264.651 75.0739 264.23 75.0739C263.6 75.0739 263.107 75.3849 262.752 76.0071C262.397 76.6264 262.219 77.5028 262.219 78.6364C262.219 79.392 262.299 80.0341 262.458 80.5625C262.617 81.0909 262.846 81.4929 263.144 81.7685C263.445 82.044 263.807 82.1818 264.23 82.1818ZM269.037 83V74.2727H274.304V75.2102H270.094V78.1591H274.032V79.0966H270.094V82.0625H274.373V83H269.037ZM283.232 77H282.175C282.113 76.696 282.003 76.429 281.847 76.1989C281.694 75.9688 281.506 75.7756 281.284 75.6193C281.066 75.4602 280.823 75.3409 280.556 75.2614C280.289 75.1818 280.01 75.142 279.721 75.142C279.192 75.142 278.713 75.2756 278.284 75.5426C277.858 75.8097 277.519 76.2031 277.266 76.723C277.016 77.2429 276.891 77.8807 276.891 78.6364C276.891 79.392 277.016 80.0298 277.266 80.5497C277.519 81.0696 277.858 81.4631 278.284 81.7301C278.713 81.9972 279.192 82.1307 279.721 82.1307C280.01 82.1307 280.289 82.0909 280.556 82.0114C280.823 81.9318 281.066 81.8139 281.284 81.6577C281.506 81.4986 281.694 81.304 281.847 81.0739C282.003 80.8409 282.113 80.5739 282.175 80.2727H283.232C283.152 80.7187 283.007 81.1179 282.797 81.4702C282.587 81.8224 282.326 82.1222 282.013 82.3693C281.701 82.6136 281.35 82.7997 280.961 82.9276C280.574 83.0554 280.161 83.1193 279.721 83.1193C278.976 83.1193 278.314 82.9375 277.735 82.5739C277.155 82.2102 276.699 81.6932 276.367 81.0227C276.034 80.3523 275.868 79.5568 275.868 78.6364C275.868 77.7159 276.034 76.9205 276.367 76.25C276.699 75.5795 277.155 75.0625 277.735 74.6989C278.314 74.3352 278.976 74.1534 279.721 74.1534C280.161 74.1534 280.574 74.2173 280.961 74.3452C281.35 74.473 281.701 74.6605 282.013 74.9077C282.326 75.152 282.587 75.4503 282.797 75.8026C283.007 76.152 283.152 76.5511 283.232 77ZM286.269 71.4602V85.8125H285.417V71.4602H286.269ZM291.78 74.2727V83H290.723V75.3807H290.672L288.542 76.7955V75.7216L290.723 74.2727H291.78ZM297.137 83.1193C296.495 83.1193 295.948 82.9446 295.496 82.5952C295.044 82.2429 294.699 81.733 294.461 81.0653C294.222 80.3949 294.103 79.5852 294.103 78.6364C294.103 77.6932 294.222 76.8878 294.461 76.2202C294.702 75.5497 295.049 75.0384 295.5 74.6861C295.955 74.331 296.5 74.1534 297.137 74.1534C297.773 74.1534 298.317 74.331 298.769 74.6861C299.223 75.0384 299.57 75.5497 299.809 76.2202C300.05 76.8878 300.171 77.6932 300.171 78.6364C300.171 79.5852 300.051 80.3949 299.813 81.0653C299.574 81.733 299.229 82.2429 298.777 82.5952C298.326 82.9446 297.779 83.1193 297.137 83.1193ZM297.137 82.1818C297.773 82.1818 298.267 81.875 298.62 81.2614C298.972 80.6477 299.148 79.7727 299.148 78.6364C299.148 77.8807 299.067 77.2372 298.905 76.706C298.746 76.1747 298.516 75.7699 298.215 75.4915C297.917 75.2131 297.557 75.0739 297.137 75.0739C296.506 75.0739 296.013 75.3849 295.658 76.0071C295.303 76.6264 295.125 77.5028 295.125 78.6364C295.125 79.392 295.205 80.0341 295.364 80.5625C295.523 81.0909 295.752 81.4929 296.05 81.7685C296.351 82.044 296.713 82.1818 297.137 82.1818ZM306.239 81.3636V80.9034C306.239 80.5852 306.304 80.294 306.435 80.0298C306.569 79.7628 306.762 79.5497 307.015 79.3906C307.27 79.2287 307.58 79.1477 307.944 79.1477C308.313 79.1477 308.623 79.2287 308.873 79.3906C309.123 79.5497 309.311 79.7628 309.439 80.0298C309.567 80.294 309.631 80.5852 309.631 80.9034V81.3636C309.631 81.6818 309.566 81.9744 309.435 82.2415C309.307 82.5057 309.117 82.7187 308.864 82.8807C308.614 83.0398 308.307 83.1193 307.944 83.1193C307.574 83.1193 307.263 83.0398 307.01 82.8807C306.757 82.7187 306.566 82.5057 306.435 82.2415C306.304 81.9744 306.239 81.6818 306.239 81.3636ZM307.108 80.9034V81.3636C307.108 81.6278 307.171 81.8651 307.296 82.0753C307.421 82.2827 307.637 82.3864 307.944 82.3864C308.242 82.3864 308.452 82.2827 308.574 82.0753C308.699 81.8651 308.762 81.6278 308.762 81.3636V80.9034C308.762 80.6392 308.702 80.4034 308.583 80.196C308.463 79.9858 308.25 79.8807 307.944 79.8807C307.645 79.8807 307.431 79.9858 307.3 80.196C307.172 80.4034 307.108 80.6392 307.108 80.9034ZM301.892 76.3693V75.9091C301.892 75.5909 301.958 75.2997 302.088 75.0355C302.222 74.7685 302.415 74.5554 302.668 74.3963C302.924 74.2344 303.233 74.1534 303.597 74.1534C303.966 74.1534 304.276 74.2344 304.526 74.3963C304.776 74.5554 304.965 74.7685 305.093 75.0355C305.221 75.2997 305.284 75.5909 305.284 75.9091V76.3693C305.284 76.6875 305.219 76.9801 305.088 77.2472C304.961 77.5114 304.77 77.7244 304.517 77.8864C304.267 78.0455 303.961 78.125 303.597 78.125C303.228 78.125 302.917 78.0455 302.664 77.8864C302.411 77.7244 302.219 77.5114 302.088 77.2472C301.958 76.9801 301.892 76.6875 301.892 76.3693ZM302.762 75.9091V76.3693C302.762 76.6335 302.824 76.8707 302.949 77.081C303.074 77.2884 303.29 77.392 303.597 77.392C303.895 77.392 304.105 77.2884 304.228 77.081C304.353 76.8707 304.415 76.6335 304.415 76.3693V75.9091C304.415 75.6449 304.355 75.4091 304.236 75.2017C304.117 74.9915 303.904 74.8864 303.597 74.8864C303.299 74.8864 303.084 74.9915 302.953 75.2017C302.826 75.4091 302.762 75.6449 302.762 75.9091ZM302.216 83L308.216 74.2727H309.188L303.188 83H302.216Z" fill="#F8F0EC"/>
<rect x="335.5" y="41.5" width="89" height="74" rx="7.5" fill="#F8F0EC" fill-opacity="0.25"/>
<rect x="335.5" y="41.5" width="89" height="74" rx="7.5" stroke="#F8F0EC"/>
<path d="M344.057 83V74.2727H349.29V75.2102H345.114V78.1591H348.898V79.0966H345.114V83H344.057ZM353.742 83.1193C353.157 83.1193 352.64 83.0156 352.191 82.8082C351.745 82.598 351.397 82.3097 351.147 81.9432C350.897 81.5739 350.773 81.1534 350.776 80.6818C350.773 80.3125 350.846 79.9716 350.993 79.6591C351.141 79.3437 351.343 79.081 351.598 78.8707C351.857 78.6577 352.145 78.5227 352.463 78.4659V78.4148C352.046 78.3068 351.713 78.0724 351.466 77.7116C351.219 77.348 351.097 76.9347 351.1 76.4716C351.097 76.0284 351.209 75.6321 351.436 75.2827C351.664 74.9332 351.976 74.6577 352.374 74.456C352.775 74.2543 353.23 74.1534 353.742 74.1534C354.248 74.1534 354.699 74.2543 355.097 74.456C355.495 74.6577 355.807 74.9332 356.034 75.2827C356.265 75.6321 356.381 76.0284 356.384 76.4716C356.381 76.9347 356.255 77.348 356.005 77.7116C355.757 78.0724 355.429 78.3068 355.02 78.4148V78.4659C355.336 78.5227 355.62 78.6577 355.873 78.8707C356.125 79.081 356.327 79.3437 356.478 79.6591C356.628 79.9716 356.705 80.3125 356.708 80.6818C356.705 81.1534 356.577 81.5739 356.324 81.9432C356.074 82.3097 355.726 82.598 355.28 82.8082C354.837 83.0156 354.324 83.1193 353.742 83.1193ZM353.742 82.1818C354.137 82.1818 354.478 82.1179 354.765 81.9901C355.051 81.8622 355.273 81.6818 355.429 81.4489C355.586 81.2159 355.665 80.9432 355.668 80.6307C355.665 80.3011 355.58 80.0099 355.412 79.7571C355.245 79.5043 355.016 79.3054 354.726 79.1605C354.439 79.0156 354.111 78.9432 353.742 78.9432C353.37 78.9432 353.037 79.0156 352.745 79.1605C352.455 79.3054 352.226 79.5043 352.059 79.7571C351.894 80.0099 351.813 80.3011 351.816 80.6307C351.813 80.9432 351.888 81.2159 352.042 81.4489C352.198 81.6818 352.421 81.8622 352.711 81.9901C353 82.1179 353.344 82.1818 353.742 82.1818ZM353.742 78.0398C354.054 78.0398 354.331 77.9773 354.573 77.8523C354.817 77.7273 355.009 77.5526 355.148 77.3281C355.287 77.1037 355.358 76.8409 355.361 76.5398C355.358 76.2443 355.289 75.9872 355.152 75.7685C355.016 75.5469 354.827 75.3764 354.586 75.2571C354.344 75.1349 354.063 75.0739 353.742 75.0739C353.415 75.0739 353.13 75.1349 352.885 75.2571C352.641 75.3764 352.452 75.5469 352.319 75.7685C352.185 75.9872 352.12 76.2443 352.123 76.5398C352.12 76.8409 352.186 77.1037 352.323 77.3281C352.462 77.5526 352.654 77.7273 352.898 77.8523C353.142 77.9773 353.424 78.0398 353.742 78.0398ZM358.494 83V74.2727H363.727V75.2102H359.551V78.1591H363.335V79.0966H359.551V83H358.494ZM368.23 83.1193C367.588 83.1193 367.042 82.9446 366.59 82.5952C366.138 82.2429 365.793 81.733 365.554 81.0653C365.316 80.3949 365.196 79.5852 365.196 78.6364C365.196 77.6932 365.316 76.8878 365.554 76.2202C365.796 75.5497 366.142 75.0384 366.594 74.6861C367.049 74.331 367.594 74.1534 368.23 74.1534C368.867 74.1534 369.411 74.331 369.863 74.6861C370.317 75.0384 370.664 75.5497 370.902 76.2202C371.144 76.8878 371.265 77.6932 371.265 78.6364C371.265 79.5852 371.145 80.3949 370.907 81.0653C370.668 81.733 370.323 82.2429 369.871 82.5952C369.419 82.9446 368.873 83.1193 368.23 83.1193ZM368.23 82.1818C368.867 82.1818 369.361 81.875 369.713 81.2614C370.066 80.6477 370.242 79.7727 370.242 78.6364C370.242 77.8807 370.161 77.2372 369.999 76.706C369.84 76.1747 369.61 75.7699 369.309 75.4915C369.01 75.2131 368.651 75.0739 368.23 75.0739C367.6 75.0739 367.107 75.3849 366.752 76.0071C366.397 76.6264 366.219 77.5028 366.219 78.6364C366.219 79.392 366.299 80.0341 366.458 80.5625C366.617 81.0909 366.846 81.4929 367.144 81.7685C367.445 82.044 367.807 82.1818 368.23 82.1818ZM373.037 83V74.2727H378.304V75.2102H374.094V78.1591H378.032V79.0966H374.094V82.0625H378.373V83H373.037ZM387.232 77H386.175C386.113 76.696 386.003 76.429 385.847 76.1989C385.694 75.9688 385.506 75.7756 385.284 75.6193C385.066 75.4602 384.823 75.3409 384.556 75.2614C384.289 75.1818 384.01 75.142 383.721 75.142C383.192 75.142 382.713 75.2756 382.284 75.5426C381.858 75.8097 381.519 76.2031 381.266 76.723C381.016 77.2429 380.891 77.8807 380.891 78.6364C380.891 79.392 381.016 80.0298 381.266 80.5497C381.519 81.0696 381.858 81.4631 382.284 81.7301C382.713 81.9972 383.192 82.1307 383.721 82.1307C384.01 82.1307 384.289 82.0909 384.556 82.0114C384.823 81.9318 385.066 81.8139 385.284 81.6577C385.506 81.4986 385.694 81.304 385.847 81.0739C386.003 80.8409 386.113 80.5739 386.175 80.2727H387.232C387.152 80.7187 387.007 81.1179 386.797 81.4702C386.587 81.8224 386.326 82.1222 386.013 82.3693C385.701 82.6136 385.35 82.7997 384.961 82.9276C384.574 83.0554 384.161 83.1193 383.721 83.1193C382.976 83.1193 382.314 82.9375 381.735 82.5739C381.155 82.2102 380.699 81.6932 380.367 81.0227C380.034 80.3523 379.868 79.5568 379.868 78.6364C379.868 77.7159 380.034 76.9205 380.367 76.25C380.699 75.5795 381.155 75.0625 381.735 74.6989C382.314 74.3352 382.976 74.1534 383.721 74.1534C384.161 74.1534 384.574 74.2173 384.961 74.3452C385.35 74.473 385.701 74.6605 386.013 74.9077C386.326 75.152 386.587 75.4503 386.797 75.8026C387.007 76.152 387.152 76.5511 387.232 77ZM390.269 71.4602V85.8125H389.417V71.4602H390.269ZM392.712 83V82.233L395.593 79.0795C395.931 78.7102 396.209 78.3892 396.428 78.1165C396.647 77.8409 396.809 77.5824 396.914 77.3409C397.022 77.0966 397.076 76.8409 397.076 76.5739C397.076 76.267 397.002 76.0014 396.854 75.777C396.709 75.5526 396.51 75.3793 396.257 75.2571C396.005 75.1349 395.721 75.0739 395.405 75.0739C395.07 75.0739 394.777 75.1435 394.527 75.2827C394.28 75.419 394.088 75.6108 393.952 75.858C393.819 76.1051 393.752 76.3949 393.752 76.7273H392.746C392.746 76.2159 392.864 75.767 393.1 75.3807C393.336 74.9943 393.657 74.6932 394.063 74.4773C394.472 74.2614 394.931 74.1534 395.439 74.1534C395.951 74.1534 396.404 74.2614 396.799 74.4773C397.194 74.6932 397.503 74.9844 397.728 75.3509C397.952 75.7173 398.064 76.125 398.064 76.5739C398.064 76.8949 398.006 77.2088 397.89 77.5156C397.776 77.8196 397.577 78.1591 397.293 78.5341C397.012 78.9062 396.621 79.3608 396.121 79.8977L394.161 81.9943V82.0625H398.218V83H392.712ZM402.705 83.1193C402.205 83.1193 401.755 83.0199 401.354 82.821C400.953 82.6222 400.632 82.3494 400.391 82.0028C400.15 81.6562 400.017 81.2614 399.995 80.8182H401.017C401.057 81.2131 401.236 81.5398 401.554 81.7983C401.875 82.054 402.259 82.1818 402.705 82.1818C403.063 82.1818 403.381 82.098 403.659 81.9304C403.941 81.7628 404.161 81.5327 404.32 81.2401C404.482 80.9446 404.563 80.6108 404.563 80.2386C404.563 79.858 404.479 79.5185 404.311 79.2202C404.147 78.919 403.919 78.6818 403.63 78.5085C403.34 78.3352 403.009 78.2472 402.637 78.2443C402.37 78.2415 402.096 78.2827 401.814 78.3679C401.533 78.4503 401.301 78.5568 401.12 78.6875L400.131 78.5682L400.659 74.2727H405.194V75.2102H401.546L401.239 77.7841H401.29C401.469 77.642 401.694 77.5241 401.963 77.4304C402.233 77.3366 402.515 77.2898 402.807 77.2898C403.341 77.2898 403.817 77.4176 404.235 77.6733C404.655 77.9261 404.985 78.2727 405.223 78.7131C405.465 79.1534 405.586 79.6562 405.586 80.2216C405.586 80.7784 405.461 81.2756 405.211 81.7131C404.963 82.1477 404.623 82.4915 404.188 82.7443C403.753 82.9943 403.259 83.1193 402.705 83.1193ZM411.727 81.3636V80.9034C411.727 80.5852 411.793 80.294 411.923 80.0298C412.057 79.7628 412.25 79.5497 412.503 79.3906C412.759 79.2287 413.068 79.1477 413.432 79.1477C413.801 79.1477 414.111 79.2287 414.361 79.3906C414.611 79.5497 414.8 79.7628 414.928 80.0298C415.055 80.294 415.119 80.5852 415.119 80.9034V81.3636C415.119 81.6818 415.054 81.9744 414.923 82.2415C414.795 82.5057 414.605 82.7187 414.352 82.8807C414.102 83.0398 413.795 83.1193 413.432 83.1193C413.063 83.1193 412.751 83.0398 412.499 82.8807C412.246 82.7187 412.054 82.5057 411.923 82.2415C411.793 81.9744 411.727 81.6818 411.727 81.3636ZM412.597 80.9034V81.3636C412.597 81.6278 412.659 81.8651 412.784 82.0753C412.909 82.2827 413.125 82.3864 413.432 82.3864C413.73 82.3864 413.94 82.2827 414.062 82.0753C414.188 81.8651 414.25 81.6278 414.25 81.3636V80.9034C414.25 80.6392 414.19 80.4034 414.071 80.196C413.952 79.9858 413.739 79.8807 413.432 79.8807C413.134 79.8807 412.919 79.9858 412.788 80.196C412.661 80.4034 412.597 80.6392 412.597 80.9034ZM407.381 76.3693V75.9091C407.381 75.5909 407.446 75.2997 407.577 75.0355C407.71 74.7685 407.903 74.5554 408.156 74.3963C408.412 74.2344 408.722 74.1534 409.085 74.1534C409.455 74.1534 409.764 74.2344 410.014 74.3963C410.264 74.5554 410.453 74.7685 410.581 75.0355C410.709 75.2997 410.773 75.5909 410.773 75.9091V76.3693C410.773 76.6875 410.707 76.9801 410.577 77.2472C410.449 77.5114 410.259 77.7244 410.006 77.8864C409.756 78.0455 409.449 78.125 409.085 78.125C408.716 78.125 408.405 78.0455 408.152 77.8864C407.899 77.7244 407.707 77.5114 407.577 77.2472C407.446 76.9801 407.381 76.6875 407.381 76.3693ZM408.25 75.9091V76.3693C408.25 76.6335 408.312 76.8707 408.438 77.081C408.562 77.2884 408.778 77.392 409.085 77.392C409.384 77.392 409.594 77.2884 409.716 77.081C409.841 76.8707 409.903 76.6335 409.903 76.3693V75.9091C409.903 75.6449 409.844 75.4091 409.724 75.2017C409.605 74.9915 409.392 74.8864 409.085 74.8864C408.787 74.8864 408.572 74.9915 408.442 75.2017C408.314 75.4091 408.25 75.6449 408.25 75.9091ZM407.705 83L413.705 74.2727H414.676L408.676 83H407.705Z" fill="#F8F0EC"/>
</svg>
