<svg width="438" height="132" viewBox="0 0 438 132" fill="none" xmlns="http://www.w3.org/2000/svg">
<rect width="438" height="132" rx="8" fill="#F8F0EC"/>
<rect x="16.5" y="16.5" width="99" height="99" rx="7.5" fill="#1D2935"/>
<rect x="16.5" y="16.5" width="99" height="99" rx="7.5" stroke="#1D2935"/>
<path d="M48.5568 70.5V61.7727H51.608C52.2159 61.7727 52.7173 61.8778 53.1122 62.0881C53.5071 62.2955 53.8011 62.5753 53.9943 62.9276C54.1875 63.277 54.2841 63.6648 54.2841 64.0909C54.2841 64.4659 54.2173 64.7756 54.0838 65.0199C53.9531 65.2642 53.7798 65.4574 53.5639 65.5994C53.3509 65.7415 53.1193 65.8466 52.8693 65.9148V66C53.1364 66.017 53.4048 66.1108 53.6747 66.2812C53.9446 66.4517 54.1705 66.696 54.3523 67.0142C54.5341 67.3324 54.625 67.7216 54.625 68.1818C54.625 68.6193 54.5256 69.0128 54.3267 69.3622C54.1278 69.7116 53.8139 69.9886 53.3849 70.1932C52.956 70.3977 52.3977 70.5 51.7102 70.5H48.5568ZM49.6136 69.5625H51.7102C52.4006 69.5625 52.8906 69.429 53.1804 69.1619C53.473 68.892 53.6193 68.5653 53.6193 68.1818C53.6193 67.8864 53.544 67.6136 53.3935 67.3636C53.2429 67.1108 53.0284 66.9091 52.75 66.7585C52.4716 66.6051 52.142 66.5284 51.7614 66.5284H49.6136V69.5625ZM49.6136 65.608H51.5739C51.892 65.608 52.179 65.5455 52.4347 65.4205C52.6932 65.2955 52.8977 65.1193 53.0483 64.892C53.2017 64.6648 53.2784 64.3977 53.2784 64.0909C53.2784 63.7074 53.1449 63.3821 52.8778 63.1151C52.6108 62.8452 52.1875 62.7102 51.608 62.7102H49.6136V65.608ZM57.2308 61.7727V70.5H56.2251V61.7727H57.2308ZM60.9989 70.6534C60.5842 70.6534 60.2077 70.5753 59.8697 70.419C59.5316 70.2599 59.2631 70.0312 59.0643 69.733C58.8654 69.4318 58.766 69.0682 58.766 68.642C58.766 68.267 58.8398 67.9631 58.9876 67.7301C59.1353 67.4943 59.3327 67.3097 59.5799 67.1761C59.8271 67.0426 60.0998 66.9432 60.3981 66.8778C60.6992 66.8097 61.0018 66.7557 61.3058 66.7159C61.7035 66.6648 62.0259 66.6264 62.2731 66.6009C62.5231 66.5724 62.7049 66.5256 62.8185 66.4602C62.935 66.3949 62.9933 66.2812 62.9933 66.1193V66.0852C62.9933 65.6648 62.8782 65.3381 62.6481 65.1051C62.4208 64.8722 62.0756 64.7557 61.6126 64.7557C61.1325 64.7557 60.756 64.8608 60.4833 65.071C60.2106 65.2812 60.0188 65.5057 59.908 65.7443L58.9535 65.4034C59.1239 65.0057 59.3512 64.696 59.6353 64.4744C59.9222 64.25 60.2347 64.0937 60.5728 64.0057C60.9137 63.9148 61.2489 63.8693 61.5785 63.8693C61.7887 63.8693 62.0302 63.8949 62.3029 63.946C62.5785 63.9943 62.8441 64.0952 63.0998 64.2486C63.3583 64.402 63.5728 64.6335 63.7433 64.9432C63.9137 65.2528 63.9989 65.6676 63.9989 66.1875V70.5H62.9933V69.6136H62.9421C62.8739 69.7557 62.7603 69.9077 62.6012 70.0696C62.4421 70.2315 62.2305 70.3693 61.9663 70.483C61.7021 70.5966 61.3796 70.6534 60.9989 70.6534ZM61.1523 69.75C61.5501 69.75 61.8853 69.6719 62.158 69.5156C62.4336 69.3594 62.641 69.1577 62.7802 68.9105C62.9222 68.6634 62.9933 68.4034 62.9933 68.1307V67.2102C62.9506 67.2614 62.8569 67.3082 62.712 67.3509C62.57 67.3906 62.4052 67.4261 62.2177 67.4574C62.033 67.4858 61.8526 67.5114 61.6765 67.5341C61.5032 67.554 61.3626 67.571 61.2546 67.5852C60.9933 67.6193 60.7489 67.6747 60.5217 67.7514C60.2972 67.8253 60.1154 67.9375 59.9762 68.0881C59.8398 68.2358 59.7717 68.4375 59.7717 68.6932C59.7717 69.0426 59.9009 69.3068 60.1594 69.4858C60.4208 69.6619 60.7518 69.75 61.1523 69.75ZM68.4936 70.6364C67.88 70.6364 67.3516 70.4915 66.9084 70.2017C66.4652 69.9119 66.1243 69.5128 65.8857 69.0043C65.647 68.4957 65.5277 67.9148 65.5277 67.2614C65.5277 66.5966 65.6499 66.0099 65.8942 65.5014C66.1413 64.9901 66.4851 64.5909 66.9254 64.304C67.3686 64.0142 67.8857 63.8693 68.4766 63.8693C68.9368 63.8693 69.3516 63.9545 69.7209 64.125C70.0902 64.2955 70.3928 64.5341 70.6286 64.8409C70.8643 65.1477 71.0107 65.5057 71.0675 65.9148H70.0618C69.9851 65.6165 69.8146 65.3523 69.5504 65.1222C69.2891 64.8892 68.9368 64.7727 68.4936 64.7727C68.1016 64.7727 67.7578 64.875 67.4624 65.0795C67.1697 65.2812 66.9411 65.5668 66.7763 65.9361C66.6143 66.3026 66.5334 66.733 66.5334 67.2273C66.5334 67.733 66.6129 68.1733 66.772 68.5483C66.9339 68.9233 67.1612 69.2145 67.4538 69.4219C67.7493 69.6293 68.0959 69.733 68.4936 69.733C68.755 69.733 68.9922 69.6875 69.2053 69.5966C69.4183 69.5057 69.5987 69.375 69.7464 69.2045C69.8942 69.0341 69.9993 68.8295 70.0618 68.5909H71.0675C71.0107 68.9773 70.87 69.3253 70.6456 69.6349C70.424 69.9418 70.13 70.1861 69.7635 70.3679C69.3999 70.5469 68.9766 70.6364 68.4936 70.6364ZM73.4751 68.1136L73.4581 66.8693H73.6626L76.5263 63.9545H77.7706L74.7195 67.0398H74.6342L73.4751 68.1136ZM72.5376 70.5V61.7727H73.5433V70.5H72.5376ZM76.6967 70.5L74.1399 67.2614L74.8558 66.5625L77.9751 70.5H76.6967ZM83.7013 65.4205L82.7979 65.6761C82.7411 65.5256 82.6573 65.3793 82.5465 65.2372C82.4386 65.0923 82.2908 64.973 82.1033 64.8793C81.9158 64.7855 81.6758 64.7386 81.3832 64.7386C80.9826 64.7386 80.6488 64.831 80.3817 65.0156C80.1175 65.1974 79.9854 65.429 79.9854 65.7102C79.9854 65.9602 80.0763 66.1577 80.2582 66.3026C80.44 66.4474 80.7241 66.5682 81.1104 66.6648L82.082 66.9034C82.6673 67.0455 83.1033 67.2628 83.3903 67.5554C83.6772 67.8452 83.8207 68.2187 83.8207 68.6761C83.8207 69.0511 83.7127 69.3864 83.4968 69.6818C83.2837 69.9773 82.9854 70.2102 82.6019 70.3807C82.2184 70.5511 81.7724 70.6364 81.2638 70.6364C80.5962 70.6364 80.0437 70.4915 79.6062 70.2017C79.1687 69.9119 78.8917 69.4886 78.7752 68.9318L79.7298 68.6932C79.8207 69.0455 79.9925 69.3097 80.2454 69.4858C80.5011 69.6619 80.8349 69.75 81.2468 69.75C81.7156 69.75 82.0877 69.6506 82.3633 69.4517C82.6417 69.25 82.7809 69.0085 82.7809 68.7273C82.7809 68.5 82.7013 68.3097 82.5423 68.1562C82.3832 68 82.1388 67.8835 81.8093 67.8068L80.7184 67.5511C80.119 67.4091 79.6786 67.1889 79.3974 66.8906C79.119 66.5895 78.9798 66.2131 78.9798 65.7614C78.9798 65.392 79.0835 65.0653 79.2908 64.7812C79.5011 64.4972 79.7866 64.2741 80.1474 64.1122C80.511 63.9503 80.9229 63.8693 81.3832 63.8693C82.0309 63.8693 82.5394 64.0114 82.9087 64.2955C83.2809 64.5795 83.5451 64.9545 83.7013 65.4205Z" fill="#F8F0EC"/>
<rect x="132.5" y="41.5" width="81" height="74" rx="7.5" stroke="#1D2935"/>
<path d="M143.972 74.2727V83H142.915V75.3807H142.864L140.733 76.7955V75.7216L142.915 74.2727H143.972ZM149.328 83H146.635V74.2727H149.447C150.294 74.2727 151.018 74.4474 151.621 74.7969C152.223 75.1435 152.685 75.642 153.006 76.2926C153.327 76.9403 153.487 77.7159 153.487 78.6193C153.487 79.5284 153.325 80.3111 153.001 80.9673C152.678 81.6207 152.206 82.1236 151.587 82.4759C150.967 82.8253 150.214 83 149.328 83ZM147.692 82.0625H149.26C149.982 82.0625 150.58 81.9233 151.054 81.6449C151.528 81.3665 151.882 80.9702 152.115 80.456C152.348 79.9418 152.464 79.3295 152.464 78.6193C152.464 77.9148 152.349 77.3082 152.119 76.7997C151.889 76.2884 151.545 75.8963 151.088 75.6236C150.631 75.348 150.061 75.2102 149.379 75.2102H147.692V82.0625ZM155.107 83V82.233L157.987 79.0795C158.325 78.7102 158.604 78.3892 158.822 78.1165C159.041 77.8409 159.203 77.5824 159.308 77.3409C159.416 77.0966 159.47 76.8409 159.47 76.5739C159.47 76.267 159.396 76.0014 159.249 75.777C159.104 75.5526 158.905 75.3793 158.652 75.2571C158.399 75.1349 158.115 75.0739 157.8 75.0739C157.464 75.0739 157.172 75.1435 156.922 75.2827C156.675 75.419 156.483 75.6108 156.347 75.858C156.213 76.1051 156.146 76.3949 156.146 76.7273H155.141C155.141 76.2159 155.259 75.767 155.494 75.3807C155.73 74.9943 156.051 74.6932 156.457 74.4773C156.866 74.2614 157.325 74.1534 157.834 74.1534C158.345 74.1534 158.798 74.2614 159.193 74.4773C159.588 74.6932 159.898 74.9844 160.122 75.3509C160.347 75.7173 160.459 76.125 160.459 76.5739C160.459 76.8949 160.401 77.2088 160.284 77.5156C160.17 77.8196 159.972 78.1591 159.688 78.5341C159.406 78.9062 159.016 79.3608 158.516 79.8977L156.555 81.9943V82.0625H160.612V83H155.107ZM165.151 74.1534C165.509 74.1562 165.866 74.2244 166.224 74.358C166.582 74.4915 166.909 74.7131 167.205 75.0227C167.5 75.3295 167.737 75.7486 167.916 76.2798C168.095 76.8111 168.185 77.4773 168.185 78.2784C168.185 79.054 168.111 79.7429 167.963 80.3452C167.818 80.9446 167.608 81.4503 167.332 81.8622C167.06 82.2741 166.727 82.5866 166.335 82.7997C165.946 83.0128 165.506 83.1193 165.014 83.1193C164.526 83.1193 164.089 83.0227 163.706 82.8295C163.325 82.6335 163.013 82.3622 162.768 82.0156C162.527 81.6662 162.372 81.2614 162.304 80.8011H163.344C163.438 81.2017 163.624 81.5327 163.902 81.794C164.183 82.0526 164.554 82.1818 165.014 82.1818C165.688 82.1818 166.219 81.8878 166.608 81.2997C167 80.7116 167.196 79.8807 167.196 78.8068H167.128C166.969 79.0455 166.78 79.2514 166.561 79.4247C166.342 79.598 166.099 79.7315 165.832 79.8253C165.565 79.919 165.281 79.9659 164.98 79.9659C164.48 79.9659 164.021 79.8423 163.604 79.5952C163.189 79.3452 162.857 79.0028 162.607 78.5682C162.359 78.1307 162.236 77.6307 162.236 77.0682C162.236 76.5341 162.355 76.0455 162.594 75.6023C162.835 75.1562 163.173 74.8011 163.608 74.5369C164.045 74.2727 164.56 74.1449 165.151 74.1534ZM165.151 75.0909C164.793 75.0909 164.47 75.1804 164.183 75.3594C163.899 75.5355 163.673 75.7741 163.506 76.0753C163.341 76.3736 163.259 76.7045 163.259 77.0682C163.259 77.4318 163.338 77.7628 163.497 78.0611C163.659 78.3565 163.879 78.5923 164.158 78.7685C164.439 78.9418 164.759 79.0284 165.116 79.0284C165.386 79.0284 165.638 78.9759 165.871 78.8707C166.104 78.7628 166.307 78.6165 166.48 78.4318C166.656 78.2443 166.794 78.0327 166.893 77.7969C166.993 77.5582 167.043 77.3097 167.043 77.0511C167.043 76.7102 166.96 76.3906 166.795 76.0923C166.634 75.794 166.409 75.5526 166.122 75.3679C165.838 75.1832 165.514 75.0909 165.151 75.0909ZM172.809 83.1193C172.247 83.1193 171.745 83.0227 171.305 82.8295C170.868 82.6364 170.52 82.3679 170.261 82.0241C170.005 81.6776 169.866 81.2756 169.843 80.8182H170.917C170.94 81.0994 171.037 81.3423 171.207 81.5469C171.377 81.7486 171.6 81.9048 171.876 82.0156C172.152 82.1264 172.457 82.1818 172.792 82.1818C173.167 82.1818 173.5 82.1165 173.789 81.9858C174.079 81.8551 174.306 81.6733 174.471 81.4403C174.636 81.2074 174.718 80.9375 174.718 80.6307C174.718 80.3097 174.639 80.027 174.48 79.7827C174.321 79.5355 174.088 79.3423 173.781 79.2031C173.474 79.0639 173.099 78.9943 172.656 78.9943H171.957V78.0568H172.656C173.002 78.0568 173.306 77.9943 173.568 77.8693C173.832 77.7443 174.038 77.5682 174.186 77.3409C174.336 77.1136 174.412 76.8466 174.412 76.5398C174.412 76.2443 174.346 75.9872 174.216 75.7685C174.085 75.5497 173.9 75.3793 173.662 75.2571C173.426 75.1349 173.147 75.0739 172.826 75.0739C172.525 75.0739 172.241 75.1293 171.974 75.2401C171.71 75.348 171.494 75.5057 171.326 75.7131C171.159 75.9176 171.068 76.1648 171.054 76.4545H170.031C170.048 75.9972 170.186 75.5966 170.444 75.2528C170.703 74.9062 171.041 74.6364 171.458 74.4432C171.879 74.25 172.341 74.1534 172.843 74.1534C173.383 74.1534 173.846 74.2628 174.233 74.4815C174.619 74.6974 174.916 74.983 175.123 75.3381C175.331 75.6932 175.434 76.0767 175.434 76.4886C175.434 76.9801 175.305 77.3991 175.047 77.7457C174.791 78.0923 174.443 78.3324 174.002 78.4659V78.5341C174.554 78.625 174.984 78.8594 175.294 79.2372C175.603 79.6122 175.758 80.0767 175.758 80.6307C175.758 81.1051 175.629 81.5312 175.37 81.9091C175.115 82.2841 174.765 82.5795 174.322 82.7955C173.879 83.0114 173.375 83.1193 172.809 83.1193ZM180.228 83.1193C179.728 83.1193 179.278 83.0199 178.877 82.821C178.477 82.6222 178.156 82.3494 177.914 82.0028C177.673 81.6562 177.541 81.2614 177.518 80.8182H178.541C178.581 81.2131 178.76 81.5398 179.078 81.7983C179.399 82.054 179.782 82.1818 180.228 82.1818C180.586 82.1818 180.904 82.098 181.183 81.9304C181.464 81.7628 181.684 81.5327 181.843 81.2401C182.005 80.9446 182.086 80.6108 182.086 80.2386C182.086 79.858 182.002 79.5185 181.835 79.2202C181.67 78.919 181.443 78.6818 181.153 78.5085C180.863 78.3352 180.532 78.2472 180.16 78.2443C179.893 78.2415 179.619 78.2827 179.338 78.3679C179.056 78.4503 178.825 78.5568 178.643 78.6875L177.654 78.5682L178.183 74.2727H182.717V75.2102H179.069L178.762 77.7841H178.814C178.993 77.642 179.217 77.5241 179.487 77.4304C179.757 77.3366 180.038 77.2898 180.331 77.2898C180.865 77.2898 181.341 77.4176 181.758 77.6733C182.179 77.9261 182.508 78.2727 182.747 78.7131C182.988 79.1534 183.109 79.6562 183.109 80.2216C183.109 80.7784 182.984 81.2756 182.734 81.7131C182.487 82.1477 182.146 82.4915 181.711 82.7443C181.277 82.9943 180.782 83.1193 180.228 83.1193ZM186.285 71.4602V85.8125H185.433V71.4602H186.285ZM191.574 83.1193C190.932 83.1193 190.385 82.9446 189.934 82.5952C189.482 82.2429 189.137 81.733 188.898 81.0653C188.659 80.3949 188.54 79.5852 188.54 78.6364C188.54 77.6932 188.659 76.8878 188.898 76.2202C189.14 75.5497 189.486 75.0384 189.938 74.6861C190.392 74.331 190.938 74.1534 191.574 74.1534C192.211 74.1534 192.755 74.331 193.206 74.6861C193.661 75.0384 194.007 75.5497 194.246 76.2202C194.488 76.8878 194.608 77.6932 194.608 78.6364C194.608 79.5852 194.489 80.3949 194.25 81.0653C194.012 81.733 193.667 82.2429 193.215 82.5952C192.763 82.9446 192.216 83.1193 191.574 83.1193ZM191.574 82.1818C192.211 82.1818 192.705 81.875 193.057 81.2614C193.409 80.6477 193.586 79.7727 193.586 78.6364C193.586 77.8807 193.505 77.2372 193.343 76.706C193.184 76.1747 192.953 75.7699 192.652 75.4915C192.354 75.2131 191.995 75.0739 191.574 75.0739C190.944 75.0739 190.451 75.3849 190.096 76.0071C189.74 76.6264 189.563 77.5028 189.563 78.6364C189.563 79.392 189.642 80.0341 189.801 80.5625C189.961 81.0909 190.189 81.4929 190.488 81.7685C190.789 82.044 191.151 82.1818 191.574 82.1818ZM200.676 81.3636V80.9034C200.676 80.5852 200.742 80.294 200.873 80.0298C201.006 79.7628 201.199 79.5497 201.452 79.3906C201.708 79.2287 202.017 79.1477 202.381 79.1477C202.75 79.1477 203.06 79.2287 203.31 79.3906C203.56 79.5497 203.749 79.7628 203.877 80.0298C204.005 80.294 204.069 80.5852 204.069 80.9034V81.3636C204.069 81.6818 204.003 81.9744 203.873 82.2415C203.745 82.5057 203.554 82.7187 203.301 82.8807C203.051 83.0398 202.745 83.1193 202.381 83.1193C202.012 83.1193 201.701 83.0398 201.448 82.8807C201.195 82.7187 201.003 82.5057 200.873 82.2415C200.742 81.9744 200.676 81.6818 200.676 81.3636ZM201.546 80.9034V81.3636C201.546 81.6278 201.608 81.8651 201.733 82.0753C201.858 82.2827 202.074 82.3864 202.381 82.3864C202.679 82.3864 202.89 82.2827 203.012 82.0753C203.137 81.8651 203.199 81.6278 203.199 81.3636V80.9034C203.199 80.6392 203.14 80.4034 203.02 80.196C202.901 79.9858 202.688 79.8807 202.381 79.8807C202.083 79.8807 201.868 79.9858 201.738 80.196C201.61 80.4034 201.546 80.6392 201.546 80.9034ZM196.33 76.3693V75.9091C196.33 75.5909 196.395 75.2997 196.526 75.0355C196.659 74.7685 196.853 74.5554 197.105 74.3963C197.361 74.2344 197.671 74.1534 198.034 74.1534C198.404 74.1534 198.713 74.2344 198.963 74.3963C199.213 74.5554 199.402 74.7685 199.53 75.0355C199.658 75.2997 199.722 75.5909 199.722 75.9091V76.3693C199.722 76.6875 199.657 76.9801 199.526 77.2472C199.398 77.5114 199.208 77.7244 198.955 77.8864C198.705 78.0455 198.398 78.125 198.034 78.125C197.665 78.125 197.354 78.0455 197.101 77.8864C196.848 77.7244 196.657 77.5114 196.526 77.2472C196.395 76.9801 196.33 76.6875 196.33 76.3693ZM197.199 75.9091V76.3693C197.199 76.6335 197.262 76.8707 197.387 77.081C197.512 77.2884 197.728 77.392 198.034 77.392C198.333 77.392 198.543 77.2884 198.665 77.081C198.79 76.8707 198.853 76.6335 198.853 76.3693V75.9091C198.853 75.6449 198.793 75.4091 198.674 75.2017C198.554 74.9915 198.341 74.8864 198.034 74.8864C197.736 74.8864 197.522 74.9915 197.391 75.2017C197.263 75.4091 197.199 75.6449 197.199 75.9091ZM196.654 83L202.654 74.2727H203.625L197.625 83H196.654Z" fill="#1D2935"/>
<rect x="230.5" y="41.5" width="86" height="74" rx="7.5" fill="#1D2935" fill-opacity="0.1"/>
<rect x="230.5" y="41.5" width="86" height="74" rx="7.5" stroke="#1D2935"/>
<path d="M241.972 74.2727V83H240.915V75.3807H240.864L238.733 76.7955V75.7216L240.915 74.2727H241.972ZM247.328 83H244.635V74.2727H247.447C248.294 74.2727 249.018 74.4474 249.621 74.7969C250.223 75.1435 250.685 75.642 251.006 76.2926C251.327 76.9403 251.487 77.7159 251.487 78.6193C251.487 79.5284 251.325 80.3111 251.001 80.9673C250.678 81.6207 250.206 82.1236 249.587 82.4759C248.967 82.8253 248.214 83 247.328 83ZM245.692 82.0625H247.26C247.982 82.0625 248.58 81.9233 249.054 81.6449C249.528 81.3665 249.882 80.9702 250.115 80.456C250.348 79.9418 250.464 79.3295 250.464 78.6193C250.464 77.9148 250.349 77.3082 250.119 76.7997C249.889 76.2884 249.545 75.8963 249.088 75.6236C248.631 75.348 248.061 75.2102 247.379 75.2102H245.692V82.0625ZM253.107 83V82.233L255.987 79.0795C256.325 78.7102 256.604 78.3892 256.822 78.1165C257.041 77.8409 257.203 77.5824 257.308 77.3409C257.416 77.0966 257.47 76.8409 257.47 76.5739C257.47 76.267 257.396 76.0014 257.249 75.777C257.104 75.5526 256.905 75.3793 256.652 75.2571C256.399 75.1349 256.115 75.0739 255.8 75.0739C255.464 75.0739 255.172 75.1435 254.922 75.2827C254.675 75.419 254.483 75.6108 254.347 75.858C254.213 76.1051 254.146 76.3949 254.146 76.7273H253.141C253.141 76.2159 253.259 75.767 253.494 75.3807C253.73 74.9943 254.051 74.6932 254.457 74.4773C254.866 74.2614 255.325 74.1534 255.834 74.1534C256.345 74.1534 256.798 74.2614 257.193 74.4773C257.588 74.6932 257.898 74.9844 258.122 75.3509C258.347 75.7173 258.459 76.125 258.459 76.5739C258.459 76.8949 258.401 77.2088 258.284 77.5156C258.17 77.8196 257.972 78.1591 257.688 78.5341C257.406 78.9062 257.016 79.3608 256.516 79.8977L254.555 81.9943V82.0625H258.612V83H253.107ZM263.151 74.1534C263.509 74.1562 263.866 74.2244 264.224 74.358C264.582 74.4915 264.909 74.7131 265.205 75.0227C265.5 75.3295 265.737 75.7486 265.916 76.2798C266.095 76.8111 266.185 77.4773 266.185 78.2784C266.185 79.054 266.111 79.7429 265.963 80.3452C265.818 80.9446 265.608 81.4503 265.332 81.8622C265.06 82.2741 264.727 82.5866 264.335 82.7997C263.946 83.0128 263.506 83.1193 263.014 83.1193C262.526 83.1193 262.089 83.0227 261.706 82.8295C261.325 82.6335 261.013 82.3622 260.768 82.0156C260.527 81.6662 260.372 81.2614 260.304 80.8011H261.344C261.438 81.2017 261.624 81.5327 261.902 81.794C262.183 82.0526 262.554 82.1818 263.014 82.1818C263.688 82.1818 264.219 81.8878 264.608 81.2997C265 80.7116 265.196 79.8807 265.196 78.8068H265.128C264.969 79.0455 264.78 79.2514 264.561 79.4247C264.342 79.598 264.099 79.7315 263.832 79.8253C263.565 79.919 263.281 79.9659 262.98 79.9659C262.48 79.9659 262.021 79.8423 261.604 79.5952C261.189 79.3452 260.857 79.0028 260.607 78.5682C260.359 78.1307 260.236 77.6307 260.236 77.0682C260.236 76.5341 260.355 76.0455 260.594 75.6023C260.835 75.1562 261.173 74.8011 261.608 74.5369C262.045 74.2727 262.56 74.1449 263.151 74.1534ZM263.151 75.0909C262.793 75.0909 262.47 75.1804 262.183 75.3594C261.899 75.5355 261.673 75.7741 261.506 76.0753C261.341 76.3736 261.259 76.7045 261.259 77.0682C261.259 77.4318 261.338 77.7628 261.497 78.0611C261.659 78.3565 261.879 78.5923 262.158 78.7685C262.439 78.9418 262.759 79.0284 263.116 79.0284C263.386 79.0284 263.638 78.9759 263.871 78.8707C264.104 78.7628 264.307 78.6165 264.48 78.4318C264.656 78.2443 264.794 78.0327 264.893 77.7969C264.993 77.5582 265.043 77.3097 265.043 77.0511C265.043 76.7102 264.96 76.3906 264.795 76.0923C264.634 75.794 264.409 75.5526 264.122 75.3679C263.838 75.1832 263.514 75.0909 263.151 75.0909ZM270.809 83.1193C270.247 83.1193 269.745 83.0227 269.305 82.8295C268.868 82.6364 268.52 82.3679 268.261 82.0241C268.005 81.6776 267.866 81.2756 267.843 80.8182H268.917C268.94 81.0994 269.037 81.3423 269.207 81.5469C269.377 81.7486 269.6 81.9048 269.876 82.0156C270.152 82.1264 270.457 82.1818 270.792 82.1818C271.167 82.1818 271.5 82.1165 271.789 81.9858C272.079 81.8551 272.306 81.6733 272.471 81.4403C272.636 81.2074 272.718 80.9375 272.718 80.6307C272.718 80.3097 272.639 80.027 272.48 79.7827C272.321 79.5355 272.088 79.3423 271.781 79.2031C271.474 79.0639 271.099 78.9943 270.656 78.9943H269.957V78.0568H270.656C271.002 78.0568 271.306 77.9943 271.568 77.8693C271.832 77.7443 272.038 77.5682 272.186 77.3409C272.336 77.1136 272.412 76.8466 272.412 76.5398C272.412 76.2443 272.346 75.9872 272.216 75.7685C272.085 75.5497 271.9 75.3793 271.662 75.2571C271.426 75.1349 271.147 75.0739 270.826 75.0739C270.525 75.0739 270.241 75.1293 269.974 75.2401C269.71 75.348 269.494 75.5057 269.326 75.7131C269.159 75.9176 269.068 76.1648 269.054 76.4545H268.031C268.048 75.9972 268.186 75.5966 268.444 75.2528C268.703 74.9062 269.041 74.6364 269.458 74.4432C269.879 74.25 270.341 74.1534 270.843 74.1534C271.383 74.1534 271.846 74.2628 272.233 74.4815C272.619 74.6974 272.916 74.983 273.123 75.3381C273.331 75.6932 273.434 76.0767 273.434 76.4886C273.434 76.9801 273.305 77.3991 273.047 77.7457C272.791 78.0923 272.443 78.3324 272.002 78.4659V78.5341C272.554 78.625 272.984 78.8594 273.294 79.2372C273.603 79.6122 273.758 80.0767 273.758 80.6307C273.758 81.1051 273.629 81.5312 273.37 81.9091C273.115 82.2841 272.765 82.5795 272.322 82.7955C271.879 83.0114 271.375 83.1193 270.809 83.1193ZM278.228 83.1193C277.728 83.1193 277.278 83.0199 276.877 82.821C276.477 82.6222 276.156 82.3494 275.914 82.0028C275.673 81.6562 275.541 81.2614 275.518 80.8182H276.541C276.581 81.2131 276.76 81.5398 277.078 81.7983C277.399 82.054 277.782 82.1818 278.228 82.1818C278.586 82.1818 278.904 82.098 279.183 81.9304C279.464 81.7628 279.684 81.5327 279.843 81.2401C280.005 80.9446 280.086 80.6108 280.086 80.2386C280.086 79.858 280.002 79.5185 279.835 79.2202C279.67 78.919 279.443 78.6818 279.153 78.5085C278.863 78.3352 278.532 78.2472 278.16 78.2443C277.893 78.2415 277.619 78.2827 277.338 78.3679C277.056 78.4503 276.825 78.5568 276.643 78.6875L275.654 78.5682L276.183 74.2727H280.717V75.2102H277.069L276.762 77.7841H276.814C276.993 77.642 277.217 77.5241 277.487 77.4304C277.757 77.3366 278.038 77.2898 278.331 77.2898C278.865 77.2898 279.341 77.4176 279.758 77.6733C280.179 77.9261 280.508 78.2727 280.747 78.7131C280.988 79.1534 281.109 79.6562 281.109 80.2216C281.109 80.7784 280.984 81.2756 280.734 81.7131C280.487 82.1477 280.146 82.4915 279.711 82.7443C279.277 82.9943 278.782 83.1193 278.228 83.1193ZM284.285 71.4602V85.8125H283.433V71.4602H284.285ZM289.796 74.2727V83H288.739V75.3807H288.688L286.557 76.7955V75.7216L288.739 74.2727H289.796ZM295.152 83.1193C294.51 83.1193 293.963 82.9446 293.512 82.5952C293.06 82.2429 292.715 81.733 292.476 81.0653C292.238 80.3949 292.118 79.5852 292.118 78.6364C292.118 77.6932 292.238 76.8878 292.476 76.2202C292.718 75.5497 293.064 75.0384 293.516 74.6861C293.971 74.331 294.516 74.1534 295.152 74.1534C295.789 74.1534 296.333 74.331 296.784 74.6861C297.239 75.0384 297.586 75.5497 297.824 76.2202C298.066 76.8878 298.186 77.6932 298.186 78.6364C298.186 79.5852 298.067 80.3949 297.828 81.0653C297.59 81.733 297.245 82.2429 296.793 82.5952C296.341 82.9446 295.794 83.1193 295.152 83.1193ZM295.152 82.1818C295.789 82.1818 296.283 81.875 296.635 81.2614C296.988 80.6477 297.164 79.7727 297.164 78.6364C297.164 77.8807 297.083 77.2372 296.921 76.706C296.762 76.1747 296.532 75.7699 296.23 75.4915C295.932 75.2131 295.573 75.0739 295.152 75.0739C294.522 75.0739 294.029 75.3849 293.674 76.0071C293.319 76.6264 293.141 77.5028 293.141 78.6364C293.141 79.392 293.221 80.0341 293.38 80.5625C293.539 81.0909 293.767 81.4929 294.066 81.7685C294.367 82.044 294.729 82.1818 295.152 82.1818ZM304.255 81.3636V80.9034C304.255 80.5852 304.32 80.294 304.451 80.0298C304.584 79.7628 304.777 79.5497 305.03 79.3906C305.286 79.2287 305.596 79.1477 305.959 79.1477C306.328 79.1477 306.638 79.2287 306.888 79.3906C307.138 79.5497 307.327 79.7628 307.455 80.0298C307.583 80.294 307.647 80.5852 307.647 80.9034V81.3636C307.647 81.6818 307.581 81.9744 307.451 82.2415C307.323 82.5057 307.132 82.7187 306.88 82.8807C306.63 83.0398 306.323 83.1193 305.959 83.1193C305.59 83.1193 305.279 83.0398 305.026 82.8807C304.773 82.7187 304.581 82.5057 304.451 82.2415C304.32 81.9744 304.255 81.6818 304.255 81.3636ZM305.124 80.9034V81.3636C305.124 81.6278 305.186 81.8651 305.311 82.0753C305.436 82.2827 305.652 82.3864 305.959 82.3864C306.257 82.3864 306.468 82.2827 306.59 82.0753C306.715 81.8651 306.777 81.6278 306.777 81.3636V80.9034C306.777 80.6392 306.718 80.4034 306.598 80.196C306.479 79.9858 306.266 79.8807 305.959 79.8807C305.661 79.8807 305.446 79.9858 305.316 80.196C305.188 80.4034 305.124 80.6392 305.124 80.9034ZM299.908 76.3693V75.9091C299.908 75.5909 299.973 75.2997 300.104 75.0355C300.238 74.7685 300.431 74.5554 300.684 74.3963C300.939 74.2344 301.249 74.1534 301.613 74.1534C301.982 74.1534 302.292 74.2344 302.542 74.3963C302.792 74.5554 302.98 74.7685 303.108 75.0355C303.236 75.2997 303.3 75.5909 303.3 75.9091V76.3693C303.3 76.6875 303.235 76.9801 303.104 77.2472C302.976 77.5114 302.786 77.7244 302.533 77.8864C302.283 78.0455 301.976 78.125 301.613 78.125C301.243 78.125 300.932 78.0455 300.679 77.8864C300.426 77.7244 300.235 77.5114 300.104 77.2472C299.973 76.9801 299.908 76.6875 299.908 76.3693ZM300.777 75.9091V76.3693C300.777 76.6335 300.84 76.8707 300.965 77.081C301.09 77.2884 301.306 77.392 301.613 77.392C301.911 77.392 302.121 77.2884 302.243 77.081C302.368 76.8707 302.431 76.6335 302.431 76.3693V75.9091C302.431 75.6449 302.371 75.4091 302.252 75.2017C302.132 74.9915 301.919 74.8864 301.613 74.8864C301.314 74.8864 301.1 74.9915 300.969 75.2017C300.841 75.4091 300.777 75.6449 300.777 75.9091ZM300.232 83L306.232 74.2727H307.203L301.203 83H300.232Z" fill="#1D2935"/>
<rect x="333.5" y="41.5" width="88" height="74" rx="7.5" fill="#1D2935" fill-opacity="0.25"/>
<rect x="333.5" y="41.5" width="88" height="74" rx="7.5" stroke="#1D2935"/>
<path d="M344.972 74.2727V83H343.915V75.3807H343.864L341.733 76.7955V75.7216L343.915 74.2727H344.972ZM350.328 83H347.635V74.2727H350.447C351.294 74.2727 352.018 74.4474 352.621 74.7969C353.223 75.1435 353.685 75.642 354.006 76.2926C354.327 76.9403 354.487 77.7159 354.487 78.6193C354.487 79.5284 354.325 80.3111 354.001 80.9673C353.678 81.6207 353.206 82.1236 352.587 82.4759C351.967 82.8253 351.214 83 350.328 83ZM348.692 82.0625H350.26C350.982 82.0625 351.58 81.9233 352.054 81.6449C352.528 81.3665 352.882 80.9702 353.115 80.456C353.348 79.9418 353.464 79.3295 353.464 78.6193C353.464 77.9148 353.349 77.3082 353.119 76.7997C352.889 76.2884 352.545 75.8963 352.088 75.6236C351.631 75.348 351.061 75.2102 350.379 75.2102H348.692V82.0625ZM356.107 83V82.233L358.987 79.0795C359.325 78.7102 359.604 78.3892 359.822 78.1165C360.041 77.8409 360.203 77.5824 360.308 77.3409C360.416 77.0966 360.47 76.8409 360.47 76.5739C360.47 76.267 360.396 76.0014 360.249 75.777C360.104 75.5526 359.905 75.3793 359.652 75.2571C359.399 75.1349 359.115 75.0739 358.8 75.0739C358.464 75.0739 358.172 75.1435 357.922 75.2827C357.675 75.419 357.483 75.6108 357.347 75.858C357.213 76.1051 357.146 76.3949 357.146 76.7273H356.141C356.141 76.2159 356.259 75.767 356.494 75.3807C356.73 74.9943 357.051 74.6932 357.457 74.4773C357.866 74.2614 358.325 74.1534 358.834 74.1534C359.345 74.1534 359.798 74.2614 360.193 74.4773C360.588 74.6932 360.898 74.9844 361.122 75.3509C361.347 75.7173 361.459 76.125 361.459 76.5739C361.459 76.8949 361.401 77.2088 361.284 77.5156C361.17 77.8196 360.972 78.1591 360.688 78.5341C360.406 78.9062 360.016 79.3608 359.516 79.8977L357.555 81.9943V82.0625H361.612V83H356.107ZM366.151 74.1534C366.509 74.1562 366.866 74.2244 367.224 74.358C367.582 74.4915 367.909 74.7131 368.205 75.0227C368.5 75.3295 368.737 75.7486 368.916 76.2798C369.095 76.8111 369.185 77.4773 369.185 78.2784C369.185 79.054 369.111 79.7429 368.963 80.3452C368.818 80.9446 368.608 81.4503 368.332 81.8622C368.06 82.2741 367.727 82.5866 367.335 82.7997C366.946 83.0128 366.506 83.1193 366.014 83.1193C365.526 83.1193 365.089 83.0227 364.706 82.8295C364.325 82.6335 364.013 82.3622 363.768 82.0156C363.527 81.6662 363.372 81.2614 363.304 80.8011H364.344C364.438 81.2017 364.624 81.5327 364.902 81.794C365.183 82.0526 365.554 82.1818 366.014 82.1818C366.688 82.1818 367.219 81.8878 367.608 81.2997C368 80.7116 368.196 79.8807 368.196 78.8068H368.128C367.969 79.0455 367.78 79.2514 367.561 79.4247C367.342 79.598 367.099 79.7315 366.832 79.8253C366.565 79.919 366.281 79.9659 365.98 79.9659C365.48 79.9659 365.021 79.8423 364.604 79.5952C364.189 79.3452 363.857 79.0028 363.607 78.5682C363.359 78.1307 363.236 77.6307 363.236 77.0682C363.236 76.5341 363.355 76.0455 363.594 75.6023C363.835 75.1562 364.173 74.8011 364.608 74.5369C365.045 74.2727 365.56 74.1449 366.151 74.1534ZM366.151 75.0909C365.793 75.0909 365.47 75.1804 365.183 75.3594C364.899 75.5355 364.673 75.7741 364.506 76.0753C364.341 76.3736 364.259 76.7045 364.259 77.0682C364.259 77.4318 364.338 77.7628 364.497 78.0611C364.659 78.3565 364.879 78.5923 365.158 78.7685C365.439 78.9418 365.759 79.0284 366.116 79.0284C366.386 79.0284 366.638 78.9759 366.871 78.8707C367.104 78.7628 367.307 78.6165 367.48 78.4318C367.656 78.2443 367.794 78.0327 367.893 77.7969C367.993 77.5582 368.043 77.3097 368.043 77.0511C368.043 76.7102 367.96 76.3906 367.795 76.0923C367.634 75.794 367.409 75.5526 367.122 75.3679C366.838 75.1832 366.514 75.0909 366.151 75.0909ZM373.809 83.1193C373.247 83.1193 372.745 83.0227 372.305 82.8295C371.868 82.6364 371.52 82.3679 371.261 82.0241C371.005 81.6776 370.866 81.2756 370.843 80.8182H371.917C371.94 81.0994 372.037 81.3423 372.207 81.5469C372.377 81.7486 372.6 81.9048 372.876 82.0156C373.152 82.1264 373.457 82.1818 373.792 82.1818C374.167 82.1818 374.5 82.1165 374.789 81.9858C375.079 81.8551 375.306 81.6733 375.471 81.4403C375.636 81.2074 375.718 80.9375 375.718 80.6307C375.718 80.3097 375.639 80.027 375.48 79.7827C375.321 79.5355 375.088 79.3423 374.781 79.2031C374.474 79.0639 374.099 78.9943 373.656 78.9943H372.957V78.0568H373.656C374.002 78.0568 374.306 77.9943 374.568 77.8693C374.832 77.7443 375.038 77.5682 375.186 77.3409C375.336 77.1136 375.412 76.8466 375.412 76.5398C375.412 76.2443 375.346 75.9872 375.216 75.7685C375.085 75.5497 374.9 75.3793 374.662 75.2571C374.426 75.1349 374.147 75.0739 373.826 75.0739C373.525 75.0739 373.241 75.1293 372.974 75.2401C372.71 75.348 372.494 75.5057 372.326 75.7131C372.159 75.9176 372.068 76.1648 372.054 76.4545H371.031C371.048 75.9972 371.186 75.5966 371.444 75.2528C371.703 74.9062 372.041 74.6364 372.458 74.4432C372.879 74.25 373.341 74.1534 373.843 74.1534C374.383 74.1534 374.846 74.2628 375.233 74.4815C375.619 74.6974 375.916 74.983 376.123 75.3381C376.331 75.6932 376.434 76.0767 376.434 76.4886C376.434 76.9801 376.305 77.3991 376.047 77.7457C375.791 78.0923 375.443 78.3324 375.002 78.4659V78.5341C375.554 78.625 375.984 78.8594 376.294 79.2372C376.603 79.6122 376.758 80.0767 376.758 80.6307C376.758 81.1051 376.629 81.5312 376.37 81.9091C376.115 82.2841 375.765 82.5795 375.322 82.7955C374.879 83.0114 374.375 83.1193 373.809 83.1193ZM381.228 83.1193C380.728 83.1193 380.278 83.0199 379.877 82.821C379.477 82.6222 379.156 82.3494 378.914 82.0028C378.673 81.6562 378.541 81.2614 378.518 80.8182H379.541C379.581 81.2131 379.76 81.5398 380.078 81.7983C380.399 82.054 380.782 82.1818 381.228 82.1818C381.586 82.1818 381.904 82.098 382.183 81.9304C382.464 81.7628 382.684 81.5327 382.843 81.2401C383.005 80.9446 383.086 80.6108 383.086 80.2386C383.086 79.858 383.002 79.5185 382.835 79.2202C382.67 78.919 382.443 78.6818 382.153 78.5085C381.863 78.3352 381.532 78.2472 381.16 78.2443C380.893 78.2415 380.619 78.2827 380.338 78.3679C380.056 78.4503 379.825 78.5568 379.643 78.6875L378.654 78.5682L379.183 74.2727H383.717V75.2102H380.069L379.762 77.7841H379.814C379.993 77.642 380.217 77.5241 380.487 77.4304C380.757 77.3366 381.038 77.2898 381.331 77.2898C381.865 77.2898 382.341 77.4176 382.758 77.6733C383.179 77.9261 383.508 78.2727 383.747 78.7131C383.988 79.1534 384.109 79.6562 384.109 80.2216C384.109 80.7784 383.984 81.2756 383.734 81.7131C383.487 82.1477 383.146 82.4915 382.711 82.7443C382.277 82.9943 381.782 83.1193 381.228 83.1193ZM387.285 71.4602V85.8125H386.433V71.4602H387.285ZM389.728 83V82.233L392.608 79.0795C392.946 78.7102 393.225 78.3892 393.444 78.1165C393.662 77.8409 393.824 77.5824 393.929 77.3409C394.037 77.0966 394.091 76.8409 394.091 76.5739C394.091 76.267 394.017 76.0014 393.87 75.777C393.725 75.5526 393.526 75.3793 393.273 75.2571C393.02 75.1349 392.736 75.0739 392.421 75.0739C392.086 75.0739 391.793 75.1435 391.543 75.2827C391.296 75.419 391.104 75.6108 390.968 75.858C390.834 76.1051 390.767 76.3949 390.767 76.7273H389.762C389.762 76.2159 389.88 75.767 390.115 75.3807C390.351 74.9943 390.672 74.6932 391.078 74.4773C391.488 74.2614 391.946 74.1534 392.455 74.1534C392.966 74.1534 393.419 74.2614 393.814 74.4773C394.209 74.6932 394.519 74.9844 394.743 75.3509C394.968 75.7173 395.08 76.125 395.08 76.5739C395.08 76.8949 395.022 77.2088 394.905 77.5156C394.792 77.8196 394.593 78.1591 394.309 78.5341C394.027 78.9062 393.637 79.3608 393.137 79.8977L391.176 81.9943V82.0625H395.233V83H389.728ZM399.721 83.1193C399.221 83.1193 398.77 83.0199 398.37 82.821C397.969 82.6222 397.648 82.3494 397.407 82.0028C397.165 81.6562 397.033 81.2614 397.01 80.8182H398.033C398.073 81.2131 398.252 81.5398 398.57 81.7983C398.891 82.054 399.275 82.1818 399.721 82.1818C400.078 82.1818 400.397 82.098 400.675 81.9304C400.956 81.7628 401.176 81.5327 401.336 81.2401C401.498 80.9446 401.578 80.6108 401.578 80.2386C401.578 79.858 401.495 79.5185 401.327 79.2202C401.162 78.919 400.935 78.6818 400.645 78.5085C400.355 78.3352 400.025 78.2472 399.652 78.2443C399.385 78.2415 399.111 78.2827 398.83 78.3679C398.549 78.4503 398.317 78.5568 398.135 78.6875L397.147 78.5682L397.675 74.2727H402.209V75.2102H398.561L398.255 77.7841H398.306C398.485 77.642 398.709 77.5241 398.979 77.4304C399.249 77.3366 399.53 77.2898 399.823 77.2898C400.357 77.2898 400.833 77.4176 401.25 77.6733C401.671 77.9261 402 78.2727 402.239 78.7131C402.48 79.1534 402.601 79.6562 402.601 80.2216C402.601 80.7784 402.476 81.2756 402.226 81.7131C401.979 82.1477 401.638 82.4915 401.203 82.7443C400.769 82.9943 400.275 83.1193 399.721 83.1193ZM408.743 81.3636V80.9034C408.743 80.5852 408.808 80.294 408.939 80.0298C409.072 79.7628 409.266 79.5497 409.518 79.3906C409.774 79.2287 410.084 79.1477 410.447 79.1477C410.817 79.1477 411.126 79.2287 411.376 79.3906C411.626 79.5497 411.815 79.7628 411.943 80.0298C412.071 80.294 412.135 80.5852 412.135 80.9034V81.3636C412.135 81.6818 412.07 81.9744 411.939 82.2415C411.811 82.5057 411.621 82.7187 411.368 82.8807C411.118 83.0398 410.811 83.1193 410.447 83.1193C410.078 83.1193 409.767 83.0398 409.514 82.8807C409.261 82.7187 409.07 82.5057 408.939 82.2415C408.808 81.9744 408.743 81.6818 408.743 81.3636ZM409.612 80.9034V81.3636C409.612 81.6278 409.675 81.8651 409.8 82.0753C409.925 82.2827 410.141 82.3864 410.447 82.3864C410.746 82.3864 410.956 82.2827 411.078 82.0753C411.203 81.8651 411.266 81.6278 411.266 81.3636V80.9034C411.266 80.6392 411.206 80.4034 411.087 80.196C410.967 79.9858 410.754 79.8807 410.447 79.8807C410.149 79.8807 409.935 79.9858 409.804 80.196C409.676 80.4034 409.612 80.6392 409.612 80.9034ZM404.396 76.3693V75.9091C404.396 75.5909 404.462 75.2997 404.592 75.0355C404.726 74.7685 404.919 74.5554 405.172 74.3963C405.428 74.2344 405.737 74.1534 406.101 74.1534C406.47 74.1534 406.78 74.2344 407.03 74.3963C407.28 74.5554 407.469 74.7685 407.597 75.0355C407.724 75.2997 407.788 75.5909 407.788 75.9091V76.3693C407.788 76.6875 407.723 76.9801 407.592 77.2472C407.464 77.5114 407.274 77.7244 407.021 77.8864C406.771 78.0455 406.464 78.125 406.101 78.125C405.732 78.125 405.42 78.0455 405.168 77.8864C404.915 77.7244 404.723 77.5114 404.592 77.2472C404.462 76.9801 404.396 76.6875 404.396 76.3693ZM405.266 75.9091V76.3693C405.266 76.6335 405.328 76.8707 405.453 77.081C405.578 77.2884 405.794 77.392 406.101 77.392C406.399 77.392 406.609 77.2884 406.732 77.081C406.857 76.8707 406.919 76.6335 406.919 76.3693V75.9091C406.919 75.6449 406.859 75.4091 406.74 75.2017C406.621 74.9915 406.408 74.8864 406.101 74.8864C405.803 74.8864 405.588 74.9915 405.457 75.2017C405.33 75.4091 405.266 75.6449 405.266 75.9091ZM404.72 83L410.72 74.2727H411.692L405.692 83H404.72Z" fill="#1D2935"/>
</svg>
