<svg width="239" height="132" viewBox="0 0 239 132" fill="none" xmlns="http://www.w3.org/2000/svg">
<rect width="239" height="132" rx="8" fill="#F8F0EC"/>
<rect x="16.5" y="16.5" width="99" height="99" rx="7.5" fill="#C94057"/>
<rect x="16.5" y="16.5" width="99" height="99" rx="7.5" stroke="#1D2935"/>
<path d="M50.0568 70.5V61.7727H53.108C53.7159 61.7727 54.2173 61.8778 54.6122 62.0881C55.0071 62.2955 55.3011 62.5753 55.4943 62.9276C55.6875 63.277 55.7841 63.6648 55.7841 64.0909C55.7841 64.4659 55.7173 64.7756 55.5838 65.0199C55.4531 65.2642 55.2798 65.4574 55.0639 65.5994C54.8509 65.7415 54.6193 65.8466 54.3693 65.9148V66C54.6364 66.017 54.9048 66.1108 55.1747 66.2812C55.4446 66.4517 55.6705 66.696 55.8523 67.0142C56.0341 67.3324 56.125 67.7216 56.125 68.1818C56.125 68.6193 56.0256 69.0128 55.8267 69.3622C55.6278 69.7116 55.3139 69.9886 54.8849 70.1932C54.456 70.3977 53.8977 70.5 53.2102 70.5H50.0568ZM51.1136 69.5625H53.2102C53.9006 69.5625 54.3906 69.429 54.6804 69.1619C54.973 68.892 55.1193 68.5653 55.1193 68.1818C55.1193 67.8864 55.044 67.6136 54.8935 67.3636C54.7429 67.1108 54.5284 66.9091 54.25 66.7585C53.9716 66.6051 53.642 66.5284 53.2614 66.5284H51.1136V69.5625ZM51.1136 65.608H53.0739C53.392 65.608 53.679 65.5455 53.9347 65.4205C54.1932 65.2955 54.3977 65.1193 54.5483 64.892C54.7017 64.6648 54.7784 64.3977 54.7784 64.0909C54.7784 63.7074 54.6449 63.3821 54.3778 63.1151C54.1108 62.8452 53.6875 62.7102 53.108 62.7102H51.1136V65.608ZM57.7251 70.5V63.9545H58.6967V64.9432H58.7649C58.8842 64.6193 59.1001 64.3565 59.4126 64.1548C59.7251 63.9531 60.0774 63.8523 60.4695 63.8523C60.5433 63.8523 60.6357 63.8537 60.7464 63.8565C60.8572 63.8594 60.9411 63.8636 60.9979 63.8693V64.892C60.9638 64.8835 60.8857 64.8707 60.7635 64.8537C60.6442 64.8338 60.5178 64.8239 60.3842 64.8239C60.0661 64.8239 59.782 64.8906 59.532 65.0241C59.2848 65.1548 59.0888 65.3366 58.9439 65.5696C58.8018 65.7997 58.7308 66.0625 58.7308 66.358V70.5H57.7251ZM64.1161 70.6534C63.7013 70.6534 63.3249 70.5753 62.9869 70.419C62.6488 70.2599 62.3803 70.0312 62.1815 69.733C61.9826 69.4318 61.8832 69.0682 61.8832 68.642C61.8832 68.267 61.957 67.9631 62.1048 67.7301C62.2525 67.4943 62.4499 67.3097 62.6971 67.1761C62.9442 67.0426 63.217 66.9432 63.5153 66.8778C63.8164 66.8097 64.119 66.7557 64.4229 66.7159C64.8207 66.6648 65.1431 66.6264 65.3903 66.6009C65.6403 66.5724 65.8221 66.5256 65.9357 66.4602C66.0522 66.3949 66.1104 66.2812 66.1104 66.1193V66.0852C66.1104 65.6648 65.9954 65.3381 65.7653 65.1051C65.538 64.8722 65.1928 64.7557 64.7298 64.7557C64.2496 64.7557 63.8732 64.8608 63.6005 65.071C63.3278 65.2812 63.136 65.5057 63.0252 65.7443L62.0707 65.4034C62.2411 65.0057 62.4684 64.696 62.7525 64.4744C63.0394 64.25 63.3519 64.0937 63.69 64.0057C64.0309 63.9148 64.3661 63.8693 64.6957 63.8693C64.9059 63.8693 65.1474 63.8949 65.4201 63.946C65.6957 63.9943 65.9613 64.0952 66.217 64.2486C66.4755 64.402 66.69 64.6335 66.8604 64.9432C67.0309 65.2528 67.1161 65.6676 67.1161 66.1875V70.5H66.1104V69.6136H66.0593C65.9911 69.7557 65.8775 69.9077 65.7184 70.0696C65.5593 70.2315 65.3477 70.3693 65.0835 70.483C64.8192 70.5966 64.4968 70.6534 64.1161 70.6534ZM64.2695 69.75C64.6673 69.75 65.0025 69.6719 65.2752 69.5156C65.5508 69.3594 65.7582 69.1577 65.8974 68.9105C66.0394 68.6634 66.1104 68.4034 66.1104 68.1307V67.2102C66.0678 67.2614 65.9741 67.3082 65.8292 67.3509C65.6871 67.3906 65.5224 67.4261 65.3349 67.4574C65.1502 67.4858 64.9698 67.5114 64.7937 67.5341C64.6204 67.554 64.4798 67.571 64.3718 67.5852C64.1104 67.6193 63.8661 67.6747 63.6388 67.7514C63.4144 67.8253 63.2326 67.9375 63.0934 68.0881C62.957 68.2358 62.8888 68.4375 62.8888 68.6932C62.8888 69.0426 63.0181 69.3068 63.2766 69.4858C63.538 69.6619 63.869 69.75 64.2695 69.75ZM69.9574 66.5625V70.5H68.9517V63.9545H69.9233V64.9773H70.0085C70.1619 64.6449 70.3949 64.3778 70.7074 64.1761C71.0199 63.9716 71.4233 63.8693 71.9176 63.8693C72.3608 63.8693 72.7486 63.9602 73.081 64.142C73.4134 64.321 73.6719 64.5938 73.8565 64.9602C74.0412 65.3239 74.1335 65.7841 74.1335 66.3409V70.5H73.1278V66.4091C73.1278 65.8949 72.9943 65.4943 72.7273 65.2074C72.4602 64.9176 72.0938 64.7727 71.6278 64.7727C71.3068 64.7727 71.0199 64.8423 70.767 64.9815C70.517 65.1207 70.3196 65.3239 70.1747 65.5909C70.0298 65.858 69.9574 66.1818 69.9574 66.5625ZM78.4428 70.6364C77.8974 70.6364 77.4158 70.4986 76.9982 70.223C76.5806 69.9446 76.2539 69.5526 76.0181 69.0469C75.7823 68.5384 75.6644 67.9375 75.6644 67.2443C75.6644 66.5568 75.7823 65.9602 76.0181 65.4545C76.2539 64.9489 76.582 64.5582 77.0025 64.2827C77.4229 64.0071 77.9087 63.8693 78.4599 63.8693C78.886 63.8693 79.2227 63.9403 79.4698 64.0824C79.7198 64.2216 79.9102 64.3807 80.0408 64.5597C80.1744 64.7358 80.2781 64.8807 80.3519 64.9943H80.4371V61.7727H81.4428V70.5H80.4712V69.4943H80.3519C80.2781 69.6136 80.1729 69.7642 80.0366 69.946C79.9002 70.125 79.7056 70.2855 79.4528 70.4276C79.1999 70.5668 78.8633 70.6364 78.4428 70.6364ZM78.5792 69.733C78.9826 69.733 79.3235 69.6278 79.6019 69.4176C79.8803 69.2045 80.092 68.9105 80.2369 68.5355C80.3817 68.1577 80.4542 67.7216 80.4542 67.2273C80.4542 66.7386 80.3832 66.3111 80.2411 65.9446C80.0991 65.5753 79.8888 65.2884 79.6104 65.0838C79.332 64.8764 78.9883 64.7727 78.5792 64.7727C78.1531 64.7727 77.7979 64.8821 77.5138 65.1009C77.2326 65.3168 77.021 65.6108 76.8789 65.983C76.7397 66.3523 76.6701 66.767 76.6701 67.2273C76.6701 67.6932 76.7411 68.1165 76.8832 68.4972C77.0281 68.875 77.2411 69.1761 77.5224 69.4006C77.8065 69.6222 78.1587 69.733 78.5792 69.733Z" fill="#F8F0EC"/>
<rect x="132.5" y="41.5" width="90" height="74" rx="7.5" fill="#C94057" fill-opacity="0.6"/>
<rect x="132.5" y="41.5" width="90" height="74" rx="7.5" stroke="#1D2935"/>
<path d="M148.08 77H147.023C146.96 76.696 146.851 76.429 146.695 76.1989C146.541 75.9688 146.354 75.7756 146.132 75.6193C145.913 75.4602 145.67 75.3409 145.403 75.2614C145.136 75.1818 144.858 75.142 144.568 75.142C144.04 75.142 143.561 75.2756 143.132 75.5426C142.706 75.8097 142.366 76.2031 142.114 76.723C141.864 77.2429 141.739 77.8807 141.739 78.6364C141.739 79.392 141.864 80.0298 142.114 80.5497C142.366 81.0696 142.706 81.4631 143.132 81.7301C143.561 81.9972 144.04 82.1307 144.568 82.1307C144.858 82.1307 145.136 82.0909 145.403 82.0114C145.67 81.9318 145.913 81.8139 146.132 81.6577C146.354 81.4986 146.541 81.304 146.695 81.0739C146.851 80.8409 146.96 80.5739 147.023 80.2727H148.08C148 80.7187 147.855 81.1179 147.645 81.4702C147.435 81.8224 147.173 82.1222 146.861 82.3693C146.548 82.6136 146.197 82.7997 145.808 82.9276C145.422 83.0554 145.009 83.1193 144.568 83.1193C143.824 83.1193 143.162 82.9375 142.582 82.5739C142.003 82.2102 141.547 81.6932 141.214 81.0227C140.882 80.3523 140.716 79.5568 140.716 78.6364C140.716 77.7159 140.882 76.9205 141.214 76.25C141.547 75.5795 142.003 75.0625 142.582 74.6989C143.162 74.3352 143.824 74.1534 144.568 74.1534C145.009 74.1534 145.422 74.2173 145.808 74.3452C146.197 74.473 146.548 74.6605 146.861 74.9077C147.173 75.152 147.435 75.4503 147.645 75.8026C147.855 76.152 148 76.5511 148.08 77ZM152.412 74.1534C152.77 74.1562 153.128 74.2244 153.486 74.358C153.844 74.4915 154.171 74.7131 154.466 75.0227C154.762 75.3295 154.999 75.7486 155.178 76.2798C155.357 76.8111 155.446 77.4773 155.446 78.2784C155.446 79.054 155.373 79.7429 155.225 80.3452C155.08 80.9446 154.87 81.4503 154.594 81.8622C154.321 82.2741 153.989 82.5866 153.597 82.7997C153.208 83.0128 152.767 83.1193 152.276 83.1193C151.787 83.1193 151.351 83.0227 150.968 82.8295C150.587 82.6335 150.275 82.3622 150.03 82.0156C149.789 81.6662 149.634 81.2614 149.566 80.8011H150.605C150.699 81.2017 150.885 81.5327 151.164 81.794C151.445 82.0526 151.816 82.1818 152.276 82.1818C152.949 82.1818 153.48 81.8878 153.87 81.2997C154.262 80.7116 154.458 79.8807 154.458 78.8068H154.39C154.23 79.0455 154.042 79.2514 153.823 79.4247C153.604 79.598 153.361 79.7315 153.094 79.8253C152.827 79.919 152.543 79.9659 152.242 79.9659C151.742 79.9659 151.283 79.8423 150.865 79.5952C150.451 79.3452 150.118 79.0028 149.868 78.5682C149.621 78.1307 149.498 77.6307 149.498 77.0682C149.498 76.5341 149.617 76.0455 149.855 75.6023C150.097 75.1562 150.435 74.8011 150.87 74.5369C151.307 74.2727 151.821 74.1449 152.412 74.1534ZM152.412 75.0909C152.054 75.0909 151.732 75.1804 151.445 75.3594C151.161 75.5355 150.935 75.7741 150.767 76.0753C150.603 76.3736 150.52 76.7045 150.52 77.0682C150.52 77.4318 150.6 77.7628 150.759 78.0611C150.921 78.3565 151.141 78.5923 151.419 78.7685C151.701 78.9418 152.02 79.0284 152.378 79.0284C152.648 79.0284 152.9 78.9759 153.132 78.8707C153.365 78.7628 153.569 78.6165 153.742 78.4318C153.918 78.2443 154.056 78.0327 154.155 77.7969C154.255 77.5582 154.304 77.3097 154.304 77.0511C154.304 76.7102 154.222 76.3906 154.057 76.0923C153.895 75.794 153.671 75.5526 153.384 75.3679C153.1 75.1832 152.776 75.0909 152.412 75.0909ZM156.918 81.2102V80.3409L160.753 74.2727H161.384V75.6193H160.957L158.06 80.2045V80.2727H163.224V81.2102H156.918ZM161.026 83V80.946V80.5412V74.2727H162.031V83H161.026ZM167.668 83.1193C167.026 83.1193 166.479 82.9446 166.027 82.5952C165.576 82.2429 165.23 81.733 164.992 81.0653C164.753 80.3949 164.634 79.5852 164.634 78.6364C164.634 77.6932 164.753 76.8878 164.992 76.2202C165.233 75.5497 165.58 75.0384 166.032 74.6861C166.486 74.331 167.032 74.1534 167.668 74.1534C168.304 74.1534 168.848 74.331 169.3 74.6861C169.755 75.0384 170.101 75.5497 170.34 76.2202C170.581 76.8878 170.702 77.6932 170.702 78.6364C170.702 79.5852 170.583 80.3949 170.344 81.0653C170.105 81.733 169.76 82.2429 169.309 82.5952C168.857 82.9446 168.31 83.1193 167.668 83.1193ZM167.668 82.1818C168.304 82.1818 168.799 81.875 169.151 81.2614C169.503 80.6477 169.679 79.7727 169.679 78.6364C169.679 77.8807 169.598 77.2372 169.436 76.706C169.277 76.1747 169.047 75.7699 168.746 75.4915C168.448 75.2131 168.088 75.0739 167.668 75.0739C167.037 75.0739 166.544 75.3849 166.189 76.0071C165.834 76.6264 165.657 77.5028 165.657 78.6364C165.657 79.392 165.736 80.0341 165.895 80.5625C166.054 81.0909 166.283 81.4929 166.581 81.7685C166.882 82.044 167.245 82.1818 167.668 82.1818ZM175.049 83.1193C174.549 83.1193 174.098 83.0199 173.698 82.821C173.297 82.6222 172.976 82.3494 172.735 82.0028C172.493 81.6562 172.361 81.2614 172.338 80.8182H173.361C173.401 81.2131 173.58 81.5398 173.898 81.7983C174.219 82.054 174.603 82.1818 175.049 82.1818C175.407 82.1818 175.725 82.098 176.003 81.9304C176.284 81.7628 176.505 81.5327 176.664 81.2401C176.826 80.9446 176.907 80.6108 176.907 80.2386C176.907 79.858 176.823 79.5185 176.655 79.2202C176.49 78.919 176.263 78.6818 175.973 78.5085C175.684 78.3352 175.353 78.2472 174.98 78.2443C174.713 78.2415 174.439 78.2827 174.158 78.3679C173.877 78.4503 173.645 78.5568 173.463 78.6875L172.475 78.5682L173.003 74.2727H177.537V75.2102H173.89L173.583 77.7841H173.634C173.813 77.642 174.037 77.5241 174.307 77.4304C174.577 77.3366 174.858 77.2898 175.151 77.2898C175.685 77.2898 176.161 77.4176 176.578 77.6733C176.999 77.9261 177.328 78.2727 177.567 78.7131C177.809 79.1534 177.929 79.6562 177.929 80.2216C177.929 80.7784 177.804 81.2756 177.554 81.7131C177.307 82.1477 176.966 82.4915 176.532 82.7443C176.097 82.9943 175.603 83.1193 175.049 83.1193ZM179.895 83L183.798 75.2784V75.2102H179.298V74.2727H184.889V75.2614L181.003 83H179.895ZM187.961 71.4602V85.8125H187.108V71.4602H187.961ZM193.301 83.1193C192.943 83.1136 192.585 83.0455 192.227 82.9148C191.869 82.7841 191.543 82.5639 191.247 82.2543C190.952 81.9418 190.714 81.5199 190.536 80.9886C190.357 80.4545 190.267 79.7841 190.267 78.9773C190.267 78.2045 190.339 77.5199 190.484 76.9233C190.629 76.3239 190.839 75.8196 191.115 75.4105C191.391 74.9986 191.723 74.6861 192.112 74.473C192.504 74.2599 192.946 74.1534 193.438 74.1534C193.926 74.1534 194.361 74.2514 194.741 74.4474C195.125 74.6406 195.438 74.9105 195.679 75.2571C195.92 75.6037 196.077 76.0028 196.148 76.4545H195.108C195.011 76.0625 194.824 75.7372 194.545 75.4787C194.267 75.2202 193.898 75.0909 193.438 75.0909C192.761 75.0909 192.229 75.3849 191.839 75.973C191.453 76.5611 191.259 77.3864 191.256 78.4489H191.324C191.483 78.2074 191.672 78.0014 191.891 77.831C192.112 77.6577 192.357 77.5241 192.624 77.4304C192.891 77.3366 193.173 77.2898 193.472 77.2898C193.972 77.2898 194.429 77.4148 194.844 77.6648C195.259 77.9119 195.591 78.2543 195.841 78.6918C196.091 79.1264 196.216 79.625 196.216 80.1875C196.216 80.7273 196.095 81.2216 195.854 81.6705C195.612 82.1165 195.273 82.4716 194.835 82.7358C194.401 82.9972 193.889 83.125 193.301 83.1193ZM193.301 82.1818C193.659 82.1818 193.98 82.0923 194.264 81.9134C194.551 81.7344 194.777 81.4943 194.942 81.1932C195.109 80.892 195.193 80.5568 195.193 80.1875C195.193 79.8267 195.112 79.4986 194.95 79.2031C194.791 78.9048 194.571 78.6676 194.29 78.4915C194.011 78.3153 193.693 78.2273 193.335 78.2273C193.065 78.2273 192.814 78.2812 192.581 78.3892C192.348 78.4943 192.143 78.6392 191.967 78.8239C191.794 79.0085 191.658 79.2202 191.558 79.4588C191.459 79.6946 191.409 79.9432 191.409 80.2045C191.409 80.5511 191.49 80.875 191.652 81.1761C191.817 81.4773 192.041 81.7202 192.325 81.9048C192.612 82.0895 192.938 82.1818 193.301 82.1818ZM200.738 83.1193C200.096 83.1193 199.549 82.9446 199.098 82.5952C198.646 82.2429 198.301 81.733 198.062 81.0653C197.824 80.3949 197.704 79.5852 197.704 78.6364C197.704 77.6932 197.824 76.8878 198.062 76.2202C198.304 75.5497 198.65 75.0384 199.102 74.6861C199.556 74.331 200.102 74.1534 200.738 74.1534C201.375 74.1534 201.919 74.331 202.37 74.6861C202.825 75.0384 203.172 75.5497 203.41 76.2202C203.652 76.8878 203.772 77.6932 203.772 78.6364C203.772 79.5852 203.653 80.3949 203.414 81.0653C203.176 81.733 202.831 82.2429 202.379 82.5952C201.927 82.9446 201.38 83.1193 200.738 83.1193ZM200.738 82.1818C201.375 82.1818 201.869 81.875 202.221 81.2614C202.574 80.6477 202.75 79.7727 202.75 78.6364C202.75 77.8807 202.669 77.2372 202.507 76.706C202.348 76.1747 202.118 75.7699 201.816 75.4915C201.518 75.2131 201.159 75.0739 200.738 75.0739C200.108 75.0739 199.615 75.3849 199.26 76.0071C198.904 76.6264 198.727 77.5028 198.727 78.6364C198.727 79.392 198.806 80.0341 198.966 80.5625C199.125 81.0909 199.353 81.4929 199.652 81.7685C199.953 82.044 200.315 82.1818 200.738 82.1818ZM209.841 81.3636V80.9034C209.841 80.5852 209.906 80.294 210.037 80.0298C210.17 79.7628 210.363 79.5497 210.616 79.3906C210.872 79.2287 211.181 79.1477 211.545 79.1477C211.914 79.1477 212.224 79.2287 212.474 79.3906C212.724 79.5497 212.913 79.7628 213.041 80.0298C213.169 80.294 213.233 80.5852 213.233 80.9034V81.3636C213.233 81.6818 213.167 81.9744 213.037 82.2415C212.909 82.5057 212.718 82.7187 212.466 82.8807C212.216 83.0398 211.909 83.1193 211.545 83.1193C211.176 83.1193 210.865 83.0398 210.612 82.8807C210.359 82.7187 210.167 82.5057 210.037 82.2415C209.906 81.9744 209.841 81.6818 209.841 81.3636ZM210.71 80.9034V81.3636C210.71 81.6278 210.772 81.8651 210.897 82.0753C211.022 82.2827 211.238 82.3864 211.545 82.3864C211.843 82.3864 212.054 82.2827 212.176 82.0753C212.301 81.8651 212.363 81.6278 212.363 81.3636V80.9034C212.363 80.6392 212.304 80.4034 212.184 80.196C212.065 79.9858 211.852 79.8807 211.545 79.8807C211.247 79.8807 211.032 79.9858 210.902 80.196C210.774 80.4034 210.71 80.6392 210.71 80.9034ZM205.494 76.3693V75.9091C205.494 75.5909 205.559 75.2997 205.69 75.0355C205.824 74.7685 206.017 74.5554 206.27 74.3963C206.525 74.2344 206.835 74.1534 207.199 74.1534C207.568 74.1534 207.877 74.2344 208.127 74.3963C208.377 74.5554 208.566 74.7685 208.694 75.0355C208.822 75.2997 208.886 75.5909 208.886 75.9091V76.3693C208.886 76.6875 208.821 76.9801 208.69 77.2472C208.562 77.5114 208.372 77.7244 208.119 77.8864C207.869 78.0455 207.562 78.125 207.199 78.125C206.829 78.125 206.518 78.0455 206.265 77.8864C206.012 77.7244 205.821 77.5114 205.69 77.2472C205.559 76.9801 205.494 76.6875 205.494 76.3693ZM206.363 75.9091V76.3693C206.363 76.6335 206.426 76.8707 206.551 77.081C206.676 77.2884 206.892 77.392 207.199 77.392C207.497 77.392 207.707 77.2884 207.829 77.081C207.954 76.8707 208.017 76.6335 208.017 76.3693V75.9091C208.017 75.6449 207.957 75.4091 207.838 75.2017C207.718 74.9915 207.505 74.8864 207.199 74.8864C206.9 74.8864 206.686 74.9915 206.555 75.2017C206.427 75.4091 206.363 75.6449 206.363 75.9091ZM205.818 83L211.818 74.2727H212.789L206.789 83H205.818Z" fill="#F8F0EC"/>
</svg>
