<svg width="1280" height="832" viewBox="0 0 1280 832" fill="none" xmlns="http://www.w3.org/2000/svg">
<rect width="1280" height="832" fill="#C8C8C8"/>
<rect width="1280" height="118" transform="translate(0 714)" fill="#282828"/>
<path d="M65.598 782V767.455H67.7926V780.111H74.3835V782H65.598ZM81.4183 782.22C80.3435 782.22 79.4179 781.991 78.6413 781.531C77.8696 781.067 77.273 780.416 76.8516 779.578C76.4349 778.735 76.2266 777.748 76.2266 776.616C76.2266 775.499 76.4349 774.514 76.8516 773.662C77.273 772.81 77.8601 772.144 78.6129 771.666C79.3705 771.188 80.2559 770.949 81.2692 770.949C81.8847 770.949 82.4813 771.051 83.0589 771.254C83.6366 771.458 84.1551 771.777 84.6143 772.213C85.0736 772.649 85.4358 773.214 85.701 773.911C85.9661 774.602 86.0987 775.442 86.0987 776.432V777.185H77.4268V775.594H84.0178C84.0178 775.035 83.9041 774.54 83.6768 774.109C83.4496 773.674 83.13 773.33 82.718 773.08C82.3108 772.829 81.8326 772.703 81.2834 772.703C80.6868 772.703 80.166 772.85 79.7209 773.143C79.2805 773.432 78.9396 773.811 78.6982 774.28C78.4614 774.744 78.343 775.248 78.343 775.793V777.036C78.343 777.765 78.4709 778.385 78.7266 778.896C78.987 779.408 79.3492 779.798 79.8132 780.068C80.2772 780.333 80.8194 780.466 81.4396 780.466C81.8421 780.466 82.209 780.409 82.5405 780.295C82.8719 780.177 83.1584 780.002 83.3999 779.77C83.6413 779.538 83.826 779.251 83.9538 778.911L85.9638 779.273C85.8028 779.865 85.514 780.383 85.0973 780.828C84.6854 781.268 84.1669 781.612 83.5419 781.858C82.9216 782.099 82.2138 782.22 81.4183 782.22ZM93.5472 771.091V772.795H87.5884V771.091H93.5472ZM89.1864 768.477H91.31V778.797C91.31 779.209 91.3716 779.519 91.4947 779.727C91.6178 779.931 91.7764 780.071 91.9705 780.146C92.1694 780.217 92.3848 780.253 92.6168 780.253C92.7873 780.253 92.9364 780.241 93.0643 780.217C93.1921 780.194 93.2915 780.175 93.3626 780.161L93.7461 781.915C93.623 781.962 93.4478 782.009 93.2205 782.057C92.9933 782.109 92.7092 782.137 92.3683 782.142C91.8095 782.152 91.2887 782.052 90.8058 781.844C90.3228 781.635 89.9322 781.313 89.6339 780.878C89.3356 780.442 89.1864 779.895 89.1864 779.237V768.477ZM98.2685 767.455V768.818C98.2685 769.221 98.1927 769.644 98.0412 770.089C97.8944 770.53 97.6861 770.954 97.4162 771.361C97.1463 771.768 96.8291 772.118 96.4645 772.412L95.4134 771.659C95.6927 771.252 95.9342 770.819 96.1378 770.359C96.3461 769.9 96.4503 769.393 96.4503 768.839V767.455H98.2685ZM107.118 773.754L105.193 774.095C105.113 773.849 104.985 773.615 104.81 773.392C104.639 773.17 104.407 772.987 104.114 772.845C103.82 772.703 103.453 772.632 103.013 772.632C102.411 772.632 101.91 772.767 101.507 773.037C101.105 773.302 100.903 773.645 100.903 774.067C100.903 774.431 101.038 774.725 101.308 774.947C101.578 775.17 102.014 775.352 102.615 775.494L104.348 775.892C105.352 776.124 106.1 776.482 106.592 776.964C107.085 777.447 107.331 778.075 107.331 778.847C107.331 779.5 107.142 780.082 106.763 780.594C106.389 781.1 105.866 781.498 105.193 781.787C104.526 782.076 103.751 782.22 102.871 782.22C101.649 782.22 100.652 781.96 99.8807 781.439C99.1089 780.913 98.6354 780.168 98.4602 779.202L100.513 778.889C100.641 779.424 100.903 779.829 101.301 780.104C101.699 780.374 102.217 780.509 102.857 780.509C103.553 780.509 104.109 780.364 104.526 780.075C104.942 779.782 105.151 779.424 105.151 779.003C105.151 778.662 105.023 778.375 104.767 778.143C104.516 777.911 104.13 777.736 103.609 777.618L101.763 777.213C100.745 776.981 99.992 776.612 99.5043 776.105C99.0213 775.598 98.7798 774.957 98.7798 774.18C98.7798 773.536 98.9598 772.973 99.3196 772.49C99.6795 772.007 100.177 771.631 100.811 771.361C101.446 771.086 102.172 770.949 102.991 770.949C104.17 770.949 105.098 771.205 105.776 771.716C106.453 772.223 106.9 772.902 107.118 773.754ZM114.959 782V771.091H117.011V772.824H117.125C117.324 772.237 117.674 771.775 118.176 771.439C118.683 771.098 119.256 770.928 119.895 770.928C120.027 770.928 120.184 770.932 120.364 770.942C120.548 770.951 120.693 770.963 120.797 770.977V773.009C120.712 772.985 120.56 772.959 120.342 772.93C120.125 772.897 119.907 772.881 119.689 772.881C119.187 772.881 118.74 772.987 118.347 773.2C117.958 773.409 117.651 773.7 117.423 774.074C117.196 774.443 117.082 774.865 117.082 775.338V782H114.959ZM126.946 782.22C125.871 782.22 124.945 781.991 124.169 781.531C123.397 781.067 122.8 780.416 122.379 779.578C121.962 778.735 121.754 777.748 121.754 776.616C121.754 775.499 121.962 774.514 122.379 773.662C122.8 772.81 123.387 772.144 124.14 771.666C124.898 771.188 125.783 770.949 126.797 770.949C127.412 770.949 128.009 771.051 128.586 771.254C129.164 771.458 129.682 771.777 130.142 772.213C130.601 772.649 130.963 773.214 131.228 773.911C131.493 774.602 131.626 775.442 131.626 776.432V777.185H122.954V775.594H129.545C129.545 775.035 129.431 774.54 129.204 774.109C128.977 773.674 128.657 773.33 128.245 773.08C127.838 772.829 127.36 772.703 126.811 772.703C126.214 772.703 125.693 772.85 125.248 773.143C124.808 773.432 124.467 773.811 124.225 774.28C123.989 774.744 123.87 775.248 123.87 775.793V777.036C123.87 777.765 123.998 778.385 124.254 778.896C124.514 779.408 124.877 779.798 125.341 780.068C125.805 780.333 126.347 780.466 126.967 780.466C127.369 780.466 127.736 780.409 128.068 780.295C128.399 780.177 128.686 780.002 128.927 779.77C129.169 779.538 129.353 779.251 129.481 778.911L131.491 779.273C131.33 779.865 131.041 780.383 130.625 780.828C130.213 781.268 129.694 781.612 129.069 781.858C128.449 782.099 127.741 782.22 126.946 782.22ZM142.157 773.754L140.232 774.095C140.152 773.849 140.024 773.615 139.849 773.392C139.678 773.17 139.446 772.987 139.153 772.845C138.859 772.703 138.492 772.632 138.052 772.632C137.451 772.632 136.949 772.767 136.546 773.037C136.144 773.302 135.942 773.645 135.942 774.067C135.942 774.431 136.077 774.725 136.347 774.947C136.617 775.17 137.053 775.352 137.654 775.494L139.387 775.892C140.391 776.124 141.139 776.482 141.631 776.964C142.124 777.447 142.37 778.075 142.37 778.847C142.37 779.5 142.181 780.082 141.802 780.594C141.428 781.1 140.905 781.498 140.232 781.787C139.565 782.076 138.79 782.22 137.91 782.22C136.688 782.22 135.692 781.96 134.92 781.439C134.148 780.913 133.674 780.168 133.499 779.202L135.552 778.889C135.68 779.424 135.942 779.829 136.34 780.104C136.738 780.374 137.256 780.509 137.896 780.509C138.592 780.509 139.148 780.364 139.565 780.075C139.981 779.782 140.19 779.424 140.19 779.003C140.19 778.662 140.062 778.375 139.806 778.143C139.555 777.911 139.169 777.736 138.648 777.618L136.802 777.213C135.784 776.981 135.031 776.612 134.543 776.105C134.06 775.598 133.819 774.957 133.819 774.18C133.819 773.536 133.999 772.973 134.359 772.49C134.719 772.007 135.216 771.631 135.85 771.361C136.485 771.086 137.211 770.949 138.031 770.949C139.21 770.949 140.138 771.205 140.815 771.716C141.492 772.223 141.939 772.902 142.157 773.754ZM149.407 782.22C148.332 782.22 147.406 781.991 146.63 781.531C145.858 781.067 145.261 780.416 144.84 779.578C144.423 778.735 144.215 777.748 144.215 776.616C144.215 775.499 144.423 774.514 144.84 773.662C145.261 772.81 145.848 772.144 146.601 771.666C147.359 771.188 148.244 770.949 149.257 770.949C149.873 770.949 150.47 771.051 151.047 771.254C151.625 771.458 152.143 771.777 152.603 772.213C153.062 772.649 153.424 773.214 153.689 773.911C153.954 774.602 154.087 775.442 154.087 776.432V777.185H145.415V775.594H152.006C152.006 775.035 151.892 774.54 151.665 774.109C151.438 773.674 151.118 773.33 150.706 773.08C150.299 772.829 149.821 772.703 149.272 772.703C148.675 772.703 148.154 772.85 147.709 773.143C147.269 773.432 146.928 773.811 146.686 774.28C146.45 774.744 146.331 775.248 146.331 775.793V777.036C146.331 777.765 146.459 778.385 146.715 778.896C146.975 779.408 147.337 779.798 147.801 780.068C148.266 780.333 148.808 780.466 149.428 780.466C149.83 780.466 150.197 780.409 150.529 780.295C150.86 780.177 151.147 780.002 151.388 779.77C151.63 779.538 151.814 779.251 151.942 778.911L153.952 779.273C153.791 779.865 153.502 780.383 153.086 780.828C152.674 781.268 152.155 781.612 151.53 781.858C150.91 782.099 150.202 782.22 149.407 782.22ZM159.618 782.241C158.927 782.241 158.302 782.114 157.743 781.858C157.184 781.598 156.741 781.221 156.415 780.729C156.093 780.236 155.932 779.633 155.932 778.918C155.932 778.302 156.05 777.795 156.287 777.398C156.524 777 156.843 776.685 157.246 776.453C157.648 776.221 158.098 776.046 158.595 775.928C159.092 775.809 159.599 775.719 160.115 775.658C160.768 775.582 161.299 775.52 161.706 775.473C162.113 775.421 162.409 775.338 162.594 775.224C162.778 775.111 162.871 774.926 162.871 774.67V774.621C162.871 774 162.696 773.52 162.345 773.179C162 772.838 161.483 772.668 160.797 772.668C160.082 772.668 159.518 772.826 159.107 773.143C158.699 773.456 158.418 773.804 158.261 774.188L156.266 773.733C156.502 773.07 156.848 772.535 157.303 772.128C157.762 771.716 158.29 771.418 158.886 771.233C159.483 771.044 160.11 770.949 160.768 770.949C161.204 770.949 161.666 771.001 162.153 771.105C162.646 771.205 163.105 771.389 163.531 771.659C163.962 771.929 164.315 772.315 164.589 772.817C164.864 773.314 165.001 773.96 165.001 774.756V782H162.928V780.509H162.842C162.705 780.783 162.499 781.053 162.224 781.318C161.95 781.583 161.597 781.804 161.166 781.979C160.735 782.154 160.219 782.241 159.618 782.241ZM160.08 780.537C160.667 780.537 161.169 780.421 161.585 780.189C162.007 779.957 162.326 779.654 162.544 779.28C162.767 778.901 162.878 778.496 162.878 778.065V776.659C162.802 776.735 162.655 776.806 162.438 776.872C162.224 776.934 161.981 776.988 161.706 777.036C161.431 777.078 161.164 777.118 160.903 777.156C160.643 777.189 160.425 777.218 160.25 777.241C159.838 777.294 159.462 777.381 159.121 777.504C158.785 777.627 158.515 777.805 158.311 778.037C158.112 778.264 158.013 778.567 158.013 778.946C158.013 779.472 158.207 779.869 158.595 780.139C158.983 780.404 159.478 780.537 160.08 780.537ZM167.83 782V771.091H169.882V772.824H169.996C170.195 772.237 170.545 771.775 171.047 771.439C171.554 771.098 172.127 770.928 172.766 770.928C172.899 770.928 173.055 770.932 173.235 770.942C173.419 770.951 173.564 770.963 173.668 770.977V773.009C173.583 772.985 173.431 772.959 173.213 772.93C172.996 772.897 172.778 772.881 172.56 772.881C172.058 772.881 171.611 772.987 171.218 773.2C170.829 773.409 170.522 773.7 170.294 774.074C170.067 774.443 169.953 774.865 169.953 775.338V782H167.83ZM179.71 782.22C178.654 782.22 177.745 781.981 176.983 781.503C176.225 781.02 175.643 780.355 175.236 779.507C174.829 778.66 174.625 777.689 174.625 776.595C174.625 775.487 174.833 774.509 175.25 773.662C175.667 772.81 176.254 772.144 177.011 771.666C177.769 771.188 178.661 770.949 179.689 770.949C180.518 770.949 181.256 771.103 181.905 771.411C182.554 771.714 183.077 772.14 183.474 772.689C183.877 773.238 184.116 773.88 184.192 774.614H182.125C182.011 774.102 181.751 773.662 181.344 773.293C180.941 772.923 180.402 772.739 179.724 772.739C179.133 772.739 178.614 772.895 178.169 773.207C177.729 773.515 177.385 773.955 177.139 774.528C176.893 775.097 176.77 775.769 176.77 776.545C176.77 777.341 176.891 778.027 177.132 778.605C177.374 779.183 177.714 779.63 178.155 779.947C178.6 780.265 179.123 780.423 179.724 780.423C180.127 780.423 180.491 780.35 180.818 780.203C181.15 780.052 181.427 779.836 181.649 779.557C181.876 779.277 182.035 778.941 182.125 778.548H184.192C184.116 779.254 183.886 779.884 183.503 780.438C183.119 780.991 182.606 781.427 181.962 781.744C181.322 782.062 180.572 782.22 179.71 782.22ZM188.586 775.523V782H186.463V767.455H188.558V772.866H188.693C188.949 772.279 189.339 771.813 189.865 771.467C190.39 771.122 191.077 770.949 191.924 770.949C192.672 770.949 193.326 771.103 193.885 771.411C194.448 771.718 194.884 772.178 195.191 772.788C195.504 773.394 195.66 774.152 195.66 775.061V782H193.537V775.317C193.537 774.517 193.331 773.896 192.919 773.456C192.507 773.011 191.934 772.788 191.2 772.788C190.698 772.788 190.248 772.895 189.85 773.108C189.458 773.321 189.147 773.634 188.92 774.045C188.698 774.453 188.586 774.945 188.586 775.523ZM199.893 782.135C199.505 782.135 199.171 781.998 198.892 781.723C198.612 781.444 198.473 781.107 198.473 780.714C198.473 780.326 198.612 779.995 198.892 779.72C199.171 779.441 199.505 779.301 199.893 779.301C200.281 779.301 200.615 779.441 200.895 779.72C201.174 779.995 201.314 780.326 201.314 780.714C201.314 780.975 201.247 781.214 201.115 781.432C200.987 781.645 200.816 781.815 200.603 781.943C200.39 782.071 200.154 782.135 199.893 782.135ZM205.557 782.135C205.169 782.135 204.835 781.998 204.556 781.723C204.276 781.444 204.137 781.107 204.137 780.714C204.137 780.326 204.276 779.995 204.556 779.72C204.835 779.441 205.169 779.301 205.557 779.301C205.945 779.301 206.279 779.441 206.559 779.72C206.838 779.995 206.978 780.326 206.978 780.714C206.978 780.975 206.911 781.214 206.779 781.432C206.651 781.645 206.48 781.815 206.267 781.943C206.054 782.071 205.818 782.135 205.557 782.135ZM211.221 782.135C210.833 782.135 210.499 781.998 210.22 781.723C209.94 781.444 209.801 781.107 209.801 780.714C209.801 780.326 209.94 779.995 210.22 779.72C210.499 779.441 210.833 779.301 211.221 779.301C211.609 779.301 211.943 779.441 212.223 779.72C212.502 779.995 212.642 780.326 212.642 780.714C212.642 780.975 212.575 781.214 212.443 781.432C212.315 781.645 212.145 781.815 211.931 781.943C211.718 782.071 211.482 782.135 211.221 782.135Z" fill="#C8C8C8"/>
<rect x="1152" y="741" width="64" height="64" fill="#C8C8C8"/>
<rect width="560" height="249" transform="translate(64 135)" fill="#282828"/>
<path d="M97.4347 186V171.455H100.07V183.791H106.476V186H97.4347ZM113.408 186.213C112.342 186.213 111.419 185.979 110.638 185.51C109.857 185.041 109.25 184.385 108.82 183.543C108.393 182.7 108.18 181.715 108.18 180.588C108.18 179.461 108.393 178.474 108.82 177.626C109.25 176.779 109.857 176.121 110.638 175.652C111.419 175.183 112.342 174.949 113.408 174.949C114.473 174.949 115.396 175.183 116.178 175.652C116.959 176.121 117.563 176.779 117.989 177.626C118.42 178.474 118.635 179.461 118.635 180.588C118.635 181.715 118.42 182.7 117.989 183.543C117.563 184.385 116.959 185.041 116.178 185.51C115.396 185.979 114.473 186.213 113.408 186.213ZM113.422 184.153C114 184.153 114.482 183.995 114.871 183.678C115.259 183.356 115.548 182.925 115.737 182.385C115.931 181.845 116.028 181.244 116.028 180.581C116.028 179.913 115.931 179.31 115.737 178.77C115.548 178.225 115.259 177.792 114.871 177.47C114.482 177.148 114 176.987 113.422 176.987C112.83 176.987 112.338 177.148 111.945 177.47C111.556 177.792 111.265 178.225 111.071 178.77C110.882 179.31 110.787 179.913 110.787 180.581C110.787 181.244 110.882 181.845 111.071 182.385C111.265 182.925 111.556 183.356 111.945 183.678C112.338 183.995 112.83 184.153 113.422 184.153ZM120.817 186V175.091H123.31V176.909H123.424C123.623 176.279 123.963 175.794 124.446 175.453C124.934 175.107 125.49 174.935 126.115 174.935C126.257 174.935 126.416 174.942 126.591 174.956C126.771 174.965 126.92 174.982 127.039 175.006V177.371C126.93 177.333 126.757 177.3 126.52 177.271C126.288 177.238 126.063 177.222 125.846 177.222C125.377 177.222 124.955 177.323 124.581 177.527C124.212 177.726 123.921 178.003 123.708 178.358C123.495 178.713 123.388 179.123 123.388 179.587V186H120.817ZM133.127 186.213C132.033 186.213 131.089 185.986 130.293 185.531C129.503 185.072 128.894 184.423 128.468 183.585C128.042 182.742 127.829 181.75 127.829 180.609C127.829 179.487 128.042 178.502 128.468 177.655C128.899 176.803 129.5 176.14 130.272 175.666C131.044 175.188 131.951 174.949 132.992 174.949C133.665 174.949 134.299 175.058 134.896 175.276C135.497 175.489 136.027 175.82 136.487 176.27C136.951 176.72 137.315 177.293 137.58 177.989C137.845 178.68 137.978 179.504 137.978 180.46V181.249H129.036V179.516H135.513C135.509 179.023 135.402 178.585 135.194 178.202C134.986 177.813 134.694 177.508 134.32 177.286C133.951 177.063 133.52 176.952 133.028 176.952C132.502 176.952 132.04 177.08 131.643 177.335C131.245 177.586 130.935 177.918 130.712 178.33C130.495 178.737 130.383 179.184 130.379 179.672V181.185C130.379 181.819 130.495 182.364 130.727 182.818C130.959 183.268 131.283 183.614 131.7 183.855C132.116 184.092 132.604 184.21 133.163 184.21C133.537 184.21 133.875 184.158 134.178 184.054C134.481 183.945 134.744 183.786 134.967 183.578C135.189 183.37 135.357 183.112 135.471 182.804L137.871 183.074C137.72 183.708 137.431 184.262 137.005 184.736C136.584 185.205 136.044 185.569 135.386 185.83C134.728 186.085 133.975 186.213 133.127 186.213ZM140.153 186V175.091H142.61V176.945H142.738C142.966 176.32 143.342 175.832 143.868 175.482C144.393 175.126 145.02 174.949 145.75 174.949C146.488 174.949 147.111 175.129 147.618 175.489C148.129 175.844 148.489 176.329 148.697 176.945H148.811C149.052 176.339 149.459 175.856 150.032 175.496C150.61 175.131 151.294 174.949 152.085 174.949C153.089 174.949 153.908 175.266 154.542 175.901C155.177 176.535 155.494 177.461 155.494 178.678V186H152.916V179.075C152.916 178.398 152.736 177.903 152.376 177.591C152.016 177.274 151.576 177.115 151.055 177.115C150.435 177.115 149.949 177.309 149.599 177.697C149.253 178.081 149.081 178.58 149.081 179.196V186H146.559V178.969C146.559 178.405 146.389 177.955 146.048 177.619C145.712 177.283 145.271 177.115 144.727 177.115C144.358 177.115 144.021 177.21 143.718 177.399C143.415 177.584 143.174 177.847 142.994 178.188C142.814 178.524 142.724 178.917 142.724 179.366V186H140.153ZM163.063 186V175.091H165.634V186H163.063ZM164.356 173.543C163.949 173.543 163.598 173.408 163.305 173.138C163.011 172.863 162.864 172.534 162.864 172.151C162.864 171.762 163.011 171.433 163.305 171.163C163.598 170.889 163.949 170.751 164.356 170.751C164.768 170.751 165.118 170.889 165.407 171.163C165.701 171.433 165.847 171.762 165.847 172.151C165.847 172.534 165.701 172.863 165.407 173.138C165.118 173.408 164.768 173.543 164.356 173.543ZM168.278 190.091V175.091H170.806V176.895H170.956C171.088 176.63 171.275 176.348 171.517 176.05C171.758 175.747 172.085 175.489 172.497 175.276C172.909 175.058 173.434 174.949 174.074 174.949C174.916 174.949 175.676 175.164 176.353 175.595C177.035 176.021 177.575 176.653 177.973 177.491C178.375 178.325 178.576 179.348 178.576 180.56C178.576 181.758 178.38 182.776 177.987 183.614C177.594 184.452 177.059 185.091 176.382 185.531C175.705 185.972 174.938 186.192 174.081 186.192C173.456 186.192 172.937 186.088 172.525 185.879C172.113 185.671 171.782 185.42 171.531 185.126C171.285 184.828 171.093 184.546 170.956 184.281H170.849V190.091H168.278ZM170.799 180.545C170.799 181.251 170.899 181.869 171.098 182.399C171.301 182.929 171.592 183.344 171.971 183.642C172.355 183.936 172.819 184.082 173.363 184.082C173.931 184.082 174.407 183.931 174.791 183.628C175.174 183.32 175.463 182.901 175.657 182.371C175.856 181.836 175.956 181.227 175.956 180.545C175.956 179.868 175.859 179.267 175.664 178.741C175.47 178.216 175.181 177.804 174.798 177.506C174.414 177.207 173.936 177.058 173.363 177.058C172.814 177.058 172.348 177.203 171.964 177.491C171.581 177.78 171.289 178.185 171.091 178.706C170.896 179.227 170.799 179.84 170.799 180.545ZM189.4 177.974L187.056 178.23C186.99 177.993 186.874 177.771 186.708 177.562C186.547 177.354 186.33 177.186 186.055 177.058C185.78 176.93 185.444 176.866 185.047 176.866C184.511 176.866 184.062 176.982 183.697 177.214C183.337 177.446 183.16 177.747 183.164 178.116C183.16 178.434 183.276 178.692 183.512 178.891C183.754 179.089 184.152 179.253 184.706 179.381L186.566 179.778C187.599 180.001 188.366 180.354 188.868 180.837C189.374 181.32 189.63 181.952 189.635 182.733C189.63 183.42 189.429 184.026 189.031 184.551C188.638 185.072 188.091 185.479 187.39 185.773C186.69 186.066 185.885 186.213 184.975 186.213C183.64 186.213 182.565 185.934 181.751 185.375C180.937 184.812 180.451 184.028 180.295 183.024L182.802 182.783C182.916 183.275 183.157 183.647 183.527 183.898C183.896 184.149 184.377 184.274 184.968 184.274C185.579 184.274 186.069 184.149 186.439 183.898C186.813 183.647 187 183.337 187 182.967C187 182.655 186.879 182.397 186.637 182.193C186.401 181.99 186.031 181.833 185.529 181.724L183.669 181.334C182.622 181.116 181.848 180.749 181.346 180.233C180.844 179.712 180.596 179.054 180.6 178.259C180.596 177.586 180.778 177.004 181.147 176.511C181.521 176.014 182.04 175.631 182.703 175.361C183.37 175.086 184.14 174.949 185.011 174.949C186.289 174.949 187.296 175.221 188.029 175.766C188.768 176.31 189.225 177.046 189.4 177.974ZM198.708 181.412V175.091H201.279V186H198.786V184.061H198.672C198.426 184.672 198.021 185.171 197.458 185.56C196.899 185.948 196.21 186.142 195.391 186.142C194.676 186.142 194.044 185.983 193.495 185.666C192.95 185.344 192.524 184.878 192.216 184.267C191.908 183.652 191.755 182.908 191.755 182.037V175.091H194.326V181.639C194.326 182.33 194.515 182.88 194.894 183.287C195.273 183.694 195.77 183.898 196.385 183.898C196.764 183.898 197.131 183.805 197.486 183.621C197.841 183.436 198.132 183.161 198.36 182.797C198.592 182.428 198.708 181.966 198.708 181.412ZM203.923 186V175.091H206.38V176.945H206.508C206.735 176.32 207.112 175.832 207.637 175.482C208.163 175.126 208.79 174.949 209.519 174.949C210.258 174.949 210.88 175.129 211.387 175.489C211.898 175.844 212.258 176.329 212.467 176.945H212.58C212.822 176.339 213.229 175.856 213.802 175.496C214.379 175.131 215.064 174.949 215.854 174.949C216.858 174.949 217.677 175.266 218.312 175.901C218.946 176.535 219.263 177.461 219.263 178.678V186H216.685V179.075C216.685 178.398 216.505 177.903 216.146 177.591C215.786 177.274 215.345 177.115 214.825 177.115C214.204 177.115 213.719 177.309 213.369 177.697C213.023 178.081 212.85 178.58 212.85 179.196V186H210.329V178.969C210.329 178.405 210.158 177.955 209.817 177.619C209.481 177.283 209.041 177.115 208.496 177.115C208.127 177.115 207.791 177.21 207.488 177.399C207.185 177.584 206.943 177.847 206.763 178.188C206.584 178.524 206.494 178.917 206.494 179.366V186H203.923Z" fill="white"/>
<rect width="560" height="249" transform="translate(64 416)" fill="#282828"/>
<path d="M97.4347 467V452.455H100.07V464.791H106.476V467H97.4347ZM113.408 467.213C112.342 467.213 111.419 466.979 110.638 466.51C109.857 466.041 109.25 465.385 108.82 464.543C108.393 463.7 108.18 462.715 108.18 461.588C108.18 460.461 108.393 459.474 108.82 458.626C109.25 457.779 109.857 457.121 110.638 456.652C111.419 456.183 112.342 455.949 113.408 455.949C114.473 455.949 115.396 456.183 116.178 456.652C116.959 457.121 117.563 457.779 117.989 458.626C118.42 459.474 118.635 460.461 118.635 461.588C118.635 462.715 118.42 463.7 117.989 464.543C117.563 465.385 116.959 466.041 116.178 466.51C115.396 466.979 114.473 467.213 113.408 467.213ZM113.422 465.153C114 465.153 114.482 464.995 114.871 464.678C115.259 464.356 115.548 463.925 115.737 463.385C115.931 462.845 116.028 462.244 116.028 461.581C116.028 460.913 115.931 460.31 115.737 459.77C115.548 459.225 115.259 458.792 114.871 458.47C114.482 458.148 114 457.987 113.422 457.987C112.83 457.987 112.338 458.148 111.945 458.47C111.556 458.792 111.265 459.225 111.071 459.77C110.882 460.31 110.787 460.913 110.787 461.581C110.787 462.244 110.882 462.845 111.071 463.385C111.265 463.925 111.556 464.356 111.945 464.678C112.338 464.995 112.83 465.153 113.422 465.153ZM120.817 467V456.091H123.31V457.909H123.424C123.623 457.279 123.963 456.794 124.446 456.453C124.934 456.107 125.49 455.935 126.115 455.935C126.257 455.935 126.416 455.942 126.591 455.956C126.771 455.965 126.92 455.982 127.039 456.006V458.371C126.93 458.333 126.757 458.3 126.52 458.271C126.288 458.238 126.063 458.222 125.846 458.222C125.377 458.222 124.955 458.323 124.581 458.527C124.212 458.726 123.921 459.003 123.708 459.358C123.495 459.713 123.388 460.123 123.388 460.587V467H120.817ZM133.127 467.213C132.033 467.213 131.089 466.986 130.293 466.531C129.503 466.072 128.894 465.423 128.468 464.585C128.042 463.742 127.829 462.75 127.829 461.609C127.829 460.487 128.042 459.502 128.468 458.655C128.899 457.803 129.5 457.14 130.272 456.666C131.044 456.188 131.951 455.949 132.992 455.949C133.665 455.949 134.299 456.058 134.896 456.276C135.497 456.489 136.027 456.82 136.487 457.27C136.951 457.72 137.315 458.293 137.58 458.989C137.845 459.68 137.978 460.504 137.978 461.46V462.249H129.036V460.516H135.513C135.509 460.023 135.402 459.585 135.194 459.202C134.986 458.813 134.694 458.508 134.32 458.286C133.951 458.063 133.52 457.952 133.028 457.952C132.502 457.952 132.04 458.08 131.643 458.335C131.245 458.586 130.935 458.918 130.712 459.33C130.495 459.737 130.383 460.184 130.379 460.672V462.185C130.379 462.819 130.495 463.364 130.727 463.818C130.959 464.268 131.283 464.614 131.7 464.855C132.116 465.092 132.604 465.21 133.163 465.21C133.537 465.21 133.875 465.158 134.178 465.054C134.481 464.945 134.744 464.786 134.967 464.578C135.189 464.37 135.357 464.112 135.471 463.804L137.871 464.074C137.72 464.708 137.431 465.262 137.005 465.736C136.584 466.205 136.044 466.569 135.386 466.83C134.728 467.085 133.975 467.213 133.127 467.213ZM140.153 467V456.091H142.61V457.945H142.738C142.966 457.32 143.342 456.832 143.868 456.482C144.393 456.126 145.02 455.949 145.75 455.949C146.488 455.949 147.111 456.129 147.618 456.489C148.129 456.844 148.489 457.329 148.697 457.945H148.811C149.052 457.339 149.459 456.856 150.032 456.496C150.61 456.131 151.294 455.949 152.085 455.949C153.089 455.949 153.908 456.266 154.542 456.901C155.177 457.535 155.494 458.461 155.494 459.678V467H152.916V460.075C152.916 459.398 152.736 458.903 152.376 458.591C152.016 458.274 151.576 458.115 151.055 458.115C150.435 458.115 149.949 458.309 149.599 458.697C149.253 459.081 149.081 459.58 149.081 460.196V467H146.559V459.969C146.559 459.405 146.389 458.955 146.048 458.619C145.712 458.283 145.271 458.115 144.727 458.115C144.358 458.115 144.021 458.21 143.718 458.399C143.415 458.584 143.174 458.847 142.994 459.188C142.814 459.524 142.724 459.917 142.724 460.366V467H140.153ZM163.063 467V456.091H165.634V467H163.063ZM164.356 454.543C163.949 454.543 163.598 454.408 163.305 454.138C163.011 453.863 162.864 453.534 162.864 453.151C162.864 452.762 163.011 452.433 163.305 452.163C163.598 451.889 163.949 451.751 164.356 451.751C164.768 451.751 165.118 451.889 165.407 452.163C165.701 452.433 165.847 452.762 165.847 453.151C165.847 453.534 165.701 453.863 165.407 454.138C165.118 454.408 164.768 454.543 164.356 454.543ZM168.278 471.091V456.091H170.806V457.895H170.956C171.088 457.63 171.275 457.348 171.517 457.05C171.758 456.747 172.085 456.489 172.497 456.276C172.909 456.058 173.434 455.949 174.074 455.949C174.916 455.949 175.676 456.164 176.353 456.595C177.035 457.021 177.575 457.653 177.973 458.491C178.375 459.325 178.576 460.348 178.576 461.56C178.576 462.758 178.38 463.776 177.987 464.614C177.594 465.452 177.059 466.091 176.382 466.531C175.705 466.972 174.938 467.192 174.081 467.192C173.456 467.192 172.937 467.088 172.525 466.879C172.113 466.671 171.782 466.42 171.531 466.126C171.285 465.828 171.093 465.546 170.956 465.281H170.849V471.091H168.278ZM170.799 461.545C170.799 462.251 170.899 462.869 171.098 463.399C171.301 463.929 171.592 464.344 171.971 464.642C172.355 464.936 172.819 465.082 173.363 465.082C173.931 465.082 174.407 464.931 174.791 464.628C175.174 464.32 175.463 463.901 175.657 463.371C175.856 462.836 175.956 462.227 175.956 461.545C175.956 460.868 175.859 460.267 175.664 459.741C175.47 459.216 175.181 458.804 174.798 458.506C174.414 458.207 173.936 458.058 173.363 458.058C172.814 458.058 172.348 458.203 171.964 458.491C171.581 458.78 171.289 459.185 171.091 459.706C170.896 460.227 170.799 460.84 170.799 461.545ZM189.4 458.974L187.056 459.23C186.99 458.993 186.874 458.771 186.708 458.562C186.547 458.354 186.33 458.186 186.055 458.058C185.78 457.93 185.444 457.866 185.047 457.866C184.511 457.866 184.062 457.982 183.697 458.214C183.337 458.446 183.16 458.747 183.164 459.116C183.16 459.434 183.276 459.692 183.512 459.891C183.754 460.089 184.152 460.253 184.706 460.381L186.566 460.778C187.599 461.001 188.366 461.354 188.868 461.837C189.374 462.32 189.63 462.952 189.635 463.733C189.63 464.42 189.429 465.026 189.031 465.551C188.638 466.072 188.091 466.479 187.39 466.773C186.69 467.066 185.885 467.213 184.975 467.213C183.64 467.213 182.565 466.934 181.751 466.375C180.937 465.812 180.451 465.028 180.295 464.024L182.802 463.783C182.916 464.275 183.157 464.647 183.527 464.898C183.896 465.149 184.377 465.274 184.968 465.274C185.579 465.274 186.069 465.149 186.439 464.898C186.813 464.647 187 464.337 187 463.967C187 463.655 186.879 463.397 186.637 463.193C186.401 462.99 186.031 462.833 185.529 462.724L183.669 462.334C182.622 462.116 181.848 461.749 181.346 461.233C180.844 460.712 180.596 460.054 180.6 459.259C180.596 458.586 180.778 458.004 181.147 457.511C181.521 457.014 182.04 456.631 182.703 456.361C183.37 456.086 184.14 455.949 185.011 455.949C186.289 455.949 187.296 456.221 188.029 456.766C188.768 457.31 189.225 458.046 189.4 458.974ZM198.708 462.412V456.091H201.279V467H198.786V465.061H198.672C198.426 465.672 198.021 466.171 197.458 466.56C196.899 466.948 196.21 467.142 195.391 467.142C194.676 467.142 194.044 466.983 193.495 466.666C192.95 466.344 192.524 465.878 192.216 465.267C191.908 464.652 191.755 463.908 191.755 463.037V456.091H194.326V462.639C194.326 463.33 194.515 463.88 194.894 464.287C195.273 464.694 195.77 464.898 196.385 464.898C196.764 464.898 197.131 464.805 197.486 464.621C197.841 464.436 198.132 464.161 198.36 463.797C198.592 463.428 198.708 462.966 198.708 462.412ZM203.923 467V456.091H206.38V457.945H206.508C206.735 457.32 207.112 456.832 207.637 456.482C208.163 456.126 208.79 455.949 209.519 455.949C210.258 455.949 210.88 456.129 211.387 456.489C211.898 456.844 212.258 457.329 212.467 457.945H212.58C212.822 457.339 213.229 456.856 213.802 456.496C214.379 456.131 215.064 455.949 215.854 455.949C216.858 455.949 217.677 456.266 218.312 456.901C218.946 457.535 219.263 458.461 219.263 459.678V467H216.685V460.075C216.685 459.398 216.505 458.903 216.146 458.591C215.786 458.274 215.345 458.115 214.825 458.115C214.204 458.115 213.719 458.309 213.369 458.697C213.023 459.081 212.85 459.58 212.85 460.196V467H210.329V459.969C210.329 459.405 210.158 458.955 209.817 458.619C209.481 458.283 209.041 458.115 208.496 458.115C208.127 458.115 207.791 458.21 207.488 458.399C207.185 458.584 206.943 458.847 206.763 459.188C206.584 459.524 206.494 459.917 206.494 460.366V467H203.923Z" fill="white"/>
<rect width="560" height="249" transform="translate(656 135)" fill="#282828"/>
<path d="M689.435 186V171.455H692.07V183.791H698.476V186H689.435ZM705.408 186.213C704.342 186.213 703.419 185.979 702.638 185.51C701.857 185.041 701.25 184.385 700.82 183.543C700.393 182.7 700.18 181.715 700.18 180.588C700.18 179.461 700.393 178.474 700.82 177.626C701.25 176.779 701.857 176.121 702.638 175.652C703.419 175.183 704.342 174.949 705.408 174.949C706.473 174.949 707.396 175.183 708.178 175.652C708.959 176.121 709.563 176.779 709.989 177.626C710.42 178.474 710.635 179.461 710.635 180.588C710.635 181.715 710.42 182.7 709.989 183.543C709.563 184.385 708.959 185.041 708.178 185.51C707.396 185.979 706.473 186.213 705.408 186.213ZM705.422 184.153C706 184.153 706.482 183.995 706.871 183.678C707.259 183.356 707.548 182.925 707.737 182.385C707.931 181.845 708.028 181.244 708.028 180.581C708.028 179.913 707.931 179.31 707.737 178.77C707.548 178.225 707.259 177.792 706.871 177.47C706.482 177.148 706 176.987 705.422 176.987C704.83 176.987 704.338 177.148 703.945 177.47C703.556 177.792 703.265 178.225 703.071 178.77C702.882 179.31 702.787 179.913 702.787 180.581C702.787 181.244 702.882 181.845 703.071 182.385C703.265 182.925 703.556 183.356 703.945 183.678C704.338 183.995 704.83 184.153 705.422 184.153ZM712.817 186V175.091H715.31V176.909H715.424C715.623 176.279 715.963 175.794 716.446 175.453C716.934 175.107 717.49 174.935 718.115 174.935C718.257 174.935 718.416 174.942 718.591 174.956C718.771 174.965 718.92 174.982 719.039 175.006V177.371C718.93 177.333 718.757 177.3 718.52 177.271C718.288 177.238 718.063 177.222 717.846 177.222C717.377 177.222 716.955 177.323 716.581 177.527C716.212 177.726 715.921 178.003 715.708 178.358C715.495 178.713 715.388 179.123 715.388 179.587V186H712.817ZM725.127 186.213C724.033 186.213 723.089 185.986 722.293 185.531C721.503 185.072 720.894 184.423 720.468 183.585C720.042 182.742 719.829 181.75 719.829 180.609C719.829 179.487 720.042 178.502 720.468 177.655C720.899 176.803 721.5 176.14 722.272 175.666C723.044 175.188 723.951 174.949 724.992 174.949C725.665 174.949 726.299 175.058 726.896 175.276C727.497 175.489 728.027 175.82 728.487 176.27C728.951 176.72 729.315 177.293 729.58 177.989C729.845 178.68 729.978 179.504 729.978 180.46V181.249H721.036V179.516H727.513C727.509 179.023 727.402 178.585 727.194 178.202C726.986 177.813 726.694 177.508 726.32 177.286C725.951 177.063 725.52 176.952 725.028 176.952C724.502 176.952 724.04 177.08 723.643 177.335C723.245 177.586 722.935 177.918 722.712 178.33C722.495 178.737 722.383 179.184 722.379 179.672V181.185C722.379 181.819 722.495 182.364 722.727 182.818C722.959 183.268 723.283 183.614 723.7 183.855C724.116 184.092 724.604 184.21 725.163 184.21C725.537 184.21 725.875 184.158 726.178 184.054C726.481 183.945 726.744 183.786 726.967 183.578C727.189 183.37 727.357 183.112 727.471 182.804L729.871 183.074C729.72 183.708 729.431 184.262 729.005 184.736C728.584 185.205 728.044 185.569 727.386 185.83C726.728 186.085 725.975 186.213 725.127 186.213ZM732.153 186V175.091H734.61V176.945H734.738C734.966 176.32 735.342 175.832 735.868 175.482C736.393 175.126 737.02 174.949 737.75 174.949C738.488 174.949 739.111 175.129 739.618 175.489C740.129 175.844 740.489 176.329 740.697 176.945H740.811C741.052 176.339 741.459 175.856 742.032 175.496C742.61 175.131 743.294 174.949 744.085 174.949C745.089 174.949 745.908 175.266 746.542 175.901C747.177 176.535 747.494 177.461 747.494 178.678V186H744.916V179.075C744.916 178.398 744.736 177.903 744.376 177.591C744.016 177.274 743.576 177.115 743.055 177.115C742.435 177.115 741.949 177.309 741.599 177.697C741.253 178.081 741.081 178.58 741.081 179.196V186H738.559V178.969C738.559 178.405 738.389 177.955 738.048 177.619C737.712 177.283 737.271 177.115 736.727 177.115C736.358 177.115 736.021 177.21 735.718 177.399C735.415 177.584 735.174 177.847 734.994 178.188C734.814 178.524 734.724 178.917 734.724 179.366V186H732.153ZM755.063 186V175.091H757.634V186H755.063ZM756.356 173.543C755.949 173.543 755.598 173.408 755.305 173.138C755.011 172.863 754.864 172.534 754.864 172.151C754.864 171.762 755.011 171.433 755.305 171.163C755.598 170.889 755.949 170.751 756.356 170.751C756.768 170.751 757.118 170.889 757.407 171.163C757.701 171.433 757.847 171.762 757.847 172.151C757.847 172.534 757.701 172.863 757.407 173.138C757.118 173.408 756.768 173.543 756.356 173.543ZM760.278 190.091V175.091H762.806V176.895H762.956C763.088 176.63 763.275 176.348 763.517 176.05C763.758 175.747 764.085 175.489 764.497 175.276C764.909 175.058 765.434 174.949 766.074 174.949C766.916 174.949 767.676 175.164 768.353 175.595C769.035 176.021 769.575 176.653 769.973 177.491C770.375 178.325 770.576 179.348 770.576 180.56C770.576 181.758 770.38 182.776 769.987 183.614C769.594 184.452 769.059 185.091 768.382 185.531C767.705 185.972 766.938 186.192 766.081 186.192C765.456 186.192 764.937 186.088 764.525 185.879C764.113 185.671 763.782 185.42 763.531 185.126C763.285 184.828 763.093 184.546 762.956 184.281H762.849V190.091H760.278ZM762.799 180.545C762.799 181.251 762.899 181.869 763.098 182.399C763.301 182.929 763.592 183.344 763.971 183.642C764.355 183.936 764.819 184.082 765.363 184.082C765.931 184.082 766.407 183.931 766.791 183.628C767.174 183.32 767.463 182.901 767.657 182.371C767.856 181.836 767.956 181.227 767.956 180.545C767.956 179.868 767.859 179.267 767.664 178.741C767.47 178.216 767.181 177.804 766.798 177.506C766.414 177.207 765.936 177.058 765.363 177.058C764.814 177.058 764.348 177.203 763.964 177.491C763.581 177.78 763.289 178.185 763.091 178.706C762.896 179.227 762.799 179.84 762.799 180.545ZM781.4 177.974L779.056 178.23C778.99 177.993 778.874 177.771 778.708 177.562C778.547 177.354 778.33 177.186 778.055 177.058C777.78 176.93 777.444 176.866 777.047 176.866C776.511 176.866 776.062 176.982 775.697 177.214C775.337 177.446 775.16 177.747 775.164 178.116C775.16 178.434 775.276 178.692 775.512 178.891C775.754 179.089 776.152 179.253 776.706 179.381L778.566 179.778C779.599 180.001 780.366 180.354 780.868 180.837C781.374 181.32 781.63 181.952 781.635 182.733C781.63 183.42 781.429 184.026 781.031 184.551C780.638 185.072 780.091 185.479 779.39 185.773C778.69 186.066 777.885 186.213 776.975 186.213C775.64 186.213 774.565 185.934 773.751 185.375C772.937 184.812 772.451 184.028 772.295 183.024L774.802 182.783C774.916 183.275 775.157 183.647 775.527 183.898C775.896 184.149 776.377 184.274 776.968 184.274C777.579 184.274 778.069 184.149 778.439 183.898C778.813 183.647 779 183.337 779 182.967C779 182.655 778.879 182.397 778.637 182.193C778.401 181.99 778.031 181.833 777.529 181.724L775.669 181.334C774.622 181.116 773.848 180.749 773.346 180.233C772.844 179.712 772.596 179.054 772.6 178.259C772.596 177.586 772.778 177.004 773.147 176.511C773.521 176.014 774.04 175.631 774.703 175.361C775.37 175.086 776.14 174.949 777.011 174.949C778.289 174.949 779.296 175.221 780.029 175.766C780.768 176.31 781.225 177.046 781.4 177.974ZM790.708 181.412V175.091H793.279V186H790.786V184.061H790.672C790.426 184.672 790.021 185.171 789.458 185.56C788.899 185.948 788.21 186.142 787.391 186.142C786.676 186.142 786.044 185.983 785.495 185.666C784.95 185.344 784.524 184.878 784.216 184.267C783.908 183.652 783.755 182.908 783.755 182.037V175.091H786.326V181.639C786.326 182.33 786.515 182.88 786.894 183.287C787.273 183.694 787.77 183.898 788.385 183.898C788.764 183.898 789.131 183.805 789.486 183.621C789.841 183.436 790.132 183.161 790.36 182.797C790.592 182.428 790.708 181.966 790.708 181.412ZM795.923 186V175.091H798.38V176.945H798.508C798.735 176.32 799.112 175.832 799.637 175.482C800.163 175.126 800.79 174.949 801.519 174.949C802.258 174.949 802.88 175.129 803.387 175.489C803.898 175.844 804.258 176.329 804.467 176.945H804.58C804.822 176.339 805.229 175.856 805.802 175.496C806.379 175.131 807.064 174.949 807.854 174.949C808.858 174.949 809.677 175.266 810.312 175.901C810.946 176.535 811.263 177.461 811.263 178.678V186H808.685V179.075C808.685 178.398 808.505 177.903 808.146 177.591C807.786 177.274 807.345 177.115 806.825 177.115C806.204 177.115 805.719 177.309 805.369 177.697C805.023 178.081 804.85 178.58 804.85 179.196V186H802.329V178.969C802.329 178.405 802.158 177.955 801.817 177.619C801.481 177.283 801.041 177.115 800.496 177.115C800.127 177.115 799.791 177.21 799.488 177.399C799.185 177.584 798.943 177.847 798.763 178.188C798.584 178.524 798.494 178.917 798.494 179.366V186H795.923Z" fill="white"/>
<rect width="560" height="249" transform="translate(656 416)" fill="#282828"/>
<path d="M689.435 467V452.455H692.07V464.791H698.476V467H689.435ZM705.408 467.213C704.342 467.213 703.419 466.979 702.638 466.51C701.857 466.041 701.25 465.385 700.82 464.543C700.393 463.7 700.18 462.715 700.18 461.588C700.18 460.461 700.393 459.474 700.82 458.626C701.25 457.779 701.857 457.121 702.638 456.652C703.419 456.183 704.342 455.949 705.408 455.949C706.473 455.949 707.396 456.183 708.178 456.652C708.959 457.121 709.563 457.779 709.989 458.626C710.42 459.474 710.635 460.461 710.635 461.588C710.635 462.715 710.42 463.7 709.989 464.543C709.563 465.385 708.959 466.041 708.178 466.51C707.396 466.979 706.473 467.213 705.408 467.213ZM705.422 465.153C706 465.153 706.482 464.995 706.871 464.678C707.259 464.356 707.548 463.925 707.737 463.385C707.931 462.845 708.028 462.244 708.028 461.581C708.028 460.913 707.931 460.31 707.737 459.77C707.548 459.225 707.259 458.792 706.871 458.47C706.482 458.148 706 457.987 705.422 457.987C704.83 457.987 704.338 458.148 703.945 458.47C703.556 458.792 703.265 459.225 703.071 459.77C702.882 460.31 702.787 460.913 702.787 461.581C702.787 462.244 702.882 462.845 703.071 463.385C703.265 463.925 703.556 464.356 703.945 464.678C704.338 464.995 704.83 465.153 705.422 465.153ZM712.817 467V456.091H715.31V457.909H715.424C715.623 457.279 715.963 456.794 716.446 456.453C716.934 456.107 717.49 455.935 718.115 455.935C718.257 455.935 718.416 455.942 718.591 455.956C718.771 455.965 718.92 455.982 719.039 456.006V458.371C718.93 458.333 718.757 458.3 718.52 458.271C718.288 458.238 718.063 458.222 717.846 458.222C717.377 458.222 716.955 458.323 716.581 458.527C716.212 458.726 715.921 459.003 715.708 459.358C715.495 459.713 715.388 460.123 715.388 460.587V467H712.817ZM725.127 467.213C724.033 467.213 723.089 466.986 722.293 466.531C721.503 466.072 720.894 465.423 720.468 464.585C720.042 463.742 719.829 462.75 719.829 461.609C719.829 460.487 720.042 459.502 720.468 458.655C720.899 457.803 721.5 457.14 722.272 456.666C723.044 456.188 723.951 455.949 724.992 455.949C725.665 455.949 726.299 456.058 726.896 456.276C727.497 456.489 728.027 456.82 728.487 457.27C728.951 457.72 729.315 458.293 729.58 458.989C729.845 459.68 729.978 460.504 729.978 461.46V462.249H721.036V460.516H727.513C727.509 460.023 727.402 459.585 727.194 459.202C726.986 458.813 726.694 458.508 726.32 458.286C725.951 458.063 725.52 457.952 725.028 457.952C724.502 457.952 724.04 458.08 723.643 458.335C723.245 458.586 722.935 458.918 722.712 459.33C722.495 459.737 722.383 460.184 722.379 460.672V462.185C722.379 462.819 722.495 463.364 722.727 463.818C722.959 464.268 723.283 464.614 723.7 464.855C724.116 465.092 724.604 465.21 725.163 465.21C725.537 465.21 725.875 465.158 726.178 465.054C726.481 464.945 726.744 464.786 726.967 464.578C727.189 464.37 727.357 464.112 727.471 463.804L729.871 464.074C729.72 464.708 729.431 465.262 729.005 465.736C728.584 466.205 728.044 466.569 727.386 466.83C726.728 467.085 725.975 467.213 725.127 467.213ZM732.153 467V456.091H734.61V457.945H734.738C734.966 457.32 735.342 456.832 735.868 456.482C736.393 456.126 737.02 455.949 737.75 455.949C738.488 455.949 739.111 456.129 739.618 456.489C740.129 456.844 740.489 457.329 740.697 457.945H740.811C741.052 457.339 741.459 456.856 742.032 456.496C742.61 456.131 743.294 455.949 744.085 455.949C745.089 455.949 745.908 456.266 746.542 456.901C747.177 457.535 747.494 458.461 747.494 459.678V467H744.916V460.075C744.916 459.398 744.736 458.903 744.376 458.591C744.016 458.274 743.576 458.115 743.055 458.115C742.435 458.115 741.949 458.309 741.599 458.697C741.253 459.081 741.081 459.58 741.081 460.196V467H738.559V459.969C738.559 459.405 738.389 458.955 738.048 458.619C737.712 458.283 737.271 458.115 736.727 458.115C736.358 458.115 736.021 458.21 735.718 458.399C735.415 458.584 735.174 458.847 734.994 459.188C734.814 459.524 734.724 459.917 734.724 460.366V467H732.153ZM755.063 467V456.091H757.634V467H755.063ZM756.356 454.543C755.949 454.543 755.598 454.408 755.305 454.138C755.011 453.863 754.864 453.534 754.864 453.151C754.864 452.762 755.011 452.433 755.305 452.163C755.598 451.889 755.949 451.751 756.356 451.751C756.768 451.751 757.118 451.889 757.407 452.163C757.701 452.433 757.847 452.762 757.847 453.151C757.847 453.534 757.701 453.863 757.407 454.138C757.118 454.408 756.768 454.543 756.356 454.543ZM760.278 471.091V456.091H762.806V457.895H762.956C763.088 457.63 763.275 457.348 763.517 457.05C763.758 456.747 764.085 456.489 764.497 456.276C764.909 456.058 765.434 455.949 766.074 455.949C766.916 455.949 767.676 456.164 768.353 456.595C769.035 457.021 769.575 457.653 769.973 458.491C770.375 459.325 770.576 460.348 770.576 461.56C770.576 462.758 770.38 463.776 769.987 464.614C769.594 465.452 769.059 466.091 768.382 466.531C767.705 466.972 766.938 467.192 766.081 467.192C765.456 467.192 764.937 467.088 764.525 466.879C764.113 466.671 763.782 466.42 763.531 466.126C763.285 465.828 763.093 465.546 762.956 465.281H762.849V471.091H760.278ZM762.799 461.545C762.799 462.251 762.899 462.869 763.098 463.399C763.301 463.929 763.592 464.344 763.971 464.642C764.355 464.936 764.819 465.082 765.363 465.082C765.931 465.082 766.407 464.931 766.791 464.628C767.174 464.32 767.463 463.901 767.657 463.371C767.856 462.836 767.956 462.227 767.956 461.545C767.956 460.868 767.859 460.267 767.664 459.741C767.47 459.216 767.181 458.804 766.798 458.506C766.414 458.207 765.936 458.058 765.363 458.058C764.814 458.058 764.348 458.203 763.964 458.491C763.581 458.78 763.289 459.185 763.091 459.706C762.896 460.227 762.799 460.84 762.799 461.545ZM781.4 458.974L779.056 459.23C778.99 458.993 778.874 458.771 778.708 458.562C778.547 458.354 778.33 458.186 778.055 458.058C777.78 457.93 777.444 457.866 777.047 457.866C776.511 457.866 776.062 457.982 775.697 458.214C775.337 458.446 775.16 458.747 775.164 459.116C775.16 459.434 775.276 459.692 775.512 459.891C775.754 460.089 776.152 460.253 776.706 460.381L778.566 460.778C779.599 461.001 780.366 461.354 780.868 461.837C781.374 462.32 781.63 462.952 781.635 463.733C781.63 464.42 781.429 465.026 781.031 465.551C780.638 466.072 780.091 466.479 779.39 466.773C778.69 467.066 777.885 467.213 776.975 467.213C775.64 467.213 774.565 466.934 773.751 466.375C772.937 465.812 772.451 465.028 772.295 464.024L774.802 463.783C774.916 464.275 775.157 464.647 775.527 464.898C775.896 465.149 776.377 465.274 776.968 465.274C777.579 465.274 778.069 465.149 778.439 464.898C778.813 464.647 779 464.337 779 463.967C779 463.655 778.879 463.397 778.637 463.193C778.401 462.99 778.031 462.833 777.529 462.724L775.669 462.334C774.622 462.116 773.848 461.749 773.346 461.233C772.844 460.712 772.596 460.054 772.6 459.259C772.596 458.586 772.778 458.004 773.147 457.511C773.521 457.014 774.04 456.631 774.703 456.361C775.37 456.086 776.14 455.949 777.011 455.949C778.289 455.949 779.296 456.221 780.029 456.766C780.768 457.31 781.225 458.046 781.4 458.974ZM790.708 462.412V456.091H793.279V467H790.786V465.061H790.672C790.426 465.672 790.021 466.171 789.458 466.56C788.899 466.948 788.21 467.142 787.391 467.142C786.676 467.142 786.044 466.983 785.495 466.666C784.95 466.344 784.524 465.878 784.216 465.267C783.908 464.652 783.755 463.908 783.755 463.037V456.091H786.326V462.639C786.326 463.33 786.515 463.88 786.894 464.287C787.273 464.694 787.77 464.898 788.385 464.898C788.764 464.898 789.131 464.805 789.486 464.621C789.841 464.436 790.132 464.161 790.36 463.797C790.592 463.428 790.708 462.966 790.708 462.412ZM795.923 467V456.091H798.38V457.945H798.508C798.735 457.32 799.112 456.832 799.637 456.482C800.163 456.126 800.79 455.949 801.519 455.949C802.258 455.949 802.88 456.129 803.387 456.489C803.898 456.844 804.258 457.329 804.467 457.945H804.58C804.822 457.339 805.229 456.856 805.802 456.496C806.379 456.131 807.064 455.949 807.854 455.949C808.858 455.949 809.677 456.266 810.312 456.901C810.946 457.535 811.263 458.461 811.263 459.678V467H808.685V460.075C808.685 459.398 808.505 458.903 808.146 458.591C807.786 458.274 807.345 458.115 806.825 458.115C806.204 458.115 805.719 458.309 805.369 458.697C805.023 459.081 804.85 459.58 804.85 460.196V467H802.329V459.969C802.329 459.405 802.158 458.955 801.817 458.619C801.481 458.283 801.041 458.115 800.496 458.115C800.127 458.115 799.791 458.21 799.488 458.399C799.185 458.584 798.943 458.847 798.763 459.188C798.584 459.524 798.494 459.917 798.494 460.366V467H795.923Z" fill="white"/>
<path d="M80.9659 71.7273H85.1818V86.9318C85.1818 88.5985 84.7879 90.0644 84 91.3295C83.2197 92.5947 82.1212 93.5833 80.7045 94.2955C79.2879 95 77.6326 95.3523 75.7386 95.3523C73.8371 95.3523 72.178 95 70.7614 94.2955C69.3447 93.5833 68.2462 92.5947 67.4659 91.3295C66.6856 90.0644 66.2955 88.5985 66.2955 86.9318V71.7273H70.5114V86.5795C70.5114 87.5492 70.7235 88.4129 71.1477 89.1705C71.5795 89.928 72.1856 90.5227 72.9659 90.9545C73.7462 91.3788 74.6705 91.5909 75.7386 91.5909C76.8068 91.5909 77.7311 91.3788 78.5114 90.9545C79.2992 90.5227 79.9053 89.928 80.3295 89.1705C80.7538 88.4129 80.9659 87.5492 80.9659 86.5795V71.7273ZM103.378 82.1591L99.6278 82.5682C99.5218 82.1894 99.3362 81.8333 99.071 81.5C98.8134 81.1667 98.465 80.8977 98.0256 80.6932C97.5862 80.4886 97.0483 80.3864 96.4119 80.3864C95.5559 80.3864 94.8362 80.572 94.2528 80.9432C93.6771 81.3144 93.393 81.7955 93.4006 82.3864C93.393 82.8939 93.5786 83.3068 93.9574 83.625C94.3438 83.9432 94.9801 84.2045 95.8665 84.4091L98.8438 85.0455C100.495 85.4015 101.723 85.9659 102.526 86.7386C103.336 87.5114 103.745 88.5227 103.753 89.7727C103.745 90.8712 103.423 91.8409 102.787 92.6818C102.158 93.5152 101.283 94.1667 100.162 94.6364C99.0407 95.1061 97.7528 95.3409 96.2983 95.3409C94.1619 95.3409 92.4422 94.8939 91.1392 94C89.8362 93.0985 89.0597 91.8447 88.8097 90.2386L92.821 89.8523C93.0028 90.6402 93.3892 91.2348 93.9801 91.6364C94.571 92.0379 95.34 92.2386 96.2869 92.2386C97.2642 92.2386 98.0483 92.0379 98.6392 91.6364C99.2377 91.2348 99.5369 90.7386 99.5369 90.1477C99.5369 89.6477 99.3438 89.2348 98.9574 88.9091C98.5786 88.5833 97.9877 88.3333 97.1847 88.1591L94.2074 87.5341C92.5331 87.1856 91.2945 86.5985 90.4915 85.7727C89.6884 84.9394 89.2907 83.8864 89.2983 82.6136C89.2907 81.5379 89.5824 80.6061 90.1733 79.8182C90.7718 79.0227 91.6013 78.4091 92.6619 77.9773C93.7301 77.5379 94.9612 77.3182 96.3551 77.3182C98.4006 77.3182 100.01 77.7538 101.185 78.625C102.366 79.4962 103.098 80.6742 103.378 82.1591ZM114.872 95.3409C113.122 95.3409 111.611 94.9773 110.338 94.25C109.073 93.5152 108.099 92.4773 107.418 91.1364C106.736 89.7879 106.395 88.2008 106.395 86.375C106.395 84.5795 106.736 83.0038 107.418 81.6477C108.107 80.2841 109.069 79.2235 110.304 78.4659C111.539 77.7008 112.99 77.3182 114.656 77.3182C115.732 77.3182 116.747 77.4924 117.702 77.8409C118.664 78.1818 119.512 78.7121 120.247 79.4318C120.99 80.1515 121.573 81.0682 121.997 82.1818C122.421 83.2879 122.634 84.6061 122.634 86.1364V87.3977H108.327V84.625H118.69C118.683 83.8371 118.512 83.1364 118.179 82.5227C117.846 81.9015 117.38 81.4129 116.781 81.0568C116.19 80.7008 115.501 80.5227 114.713 80.5227C113.872 80.5227 113.134 80.7273 112.497 81.1364C111.861 81.5379 111.365 82.0682 111.009 82.7273C110.66 83.3788 110.482 84.0947 110.474 84.875V87.2955C110.474 88.3106 110.66 89.1818 111.031 89.9091C111.402 90.6288 111.921 91.1818 112.588 91.5682C113.255 91.947 114.035 92.1364 114.929 92.1364C115.527 92.1364 116.069 92.053 116.554 91.8864C117.039 91.7121 117.459 91.4583 117.815 91.125C118.171 90.7917 118.44 90.3788 118.622 89.8864L122.463 90.3182C122.221 91.3333 121.759 92.2197 121.077 92.9773C120.402 93.7273 119.539 94.3106 118.486 94.7273C117.433 95.1364 116.228 95.3409 114.872 95.3409ZM126.114 95V77.5455H130.102V80.4545H130.284C130.602 79.447 131.148 78.6705 131.92 78.125C132.701 77.572 133.591 77.2955 134.591 77.2955C134.818 77.2955 135.072 77.3068 135.352 77.3295C135.64 77.3447 135.879 77.3712 136.068 77.4091V81.1932C135.894 81.1326 135.617 81.0795 135.239 81.0341C134.867 80.9811 134.508 80.9545 134.159 80.9545C133.409 80.9545 132.735 81.1174 132.136 81.4432C131.545 81.7614 131.08 82.2045 130.739 82.7727C130.398 83.3409 130.227 83.9962 130.227 84.7386V95H126.114ZM149.909 95H145.409L153.602 71.7273H158.807L167.011 95H162.511L156.295 76.5H156.114L149.909 95ZM150.057 85.875H162.33V89.2614H150.057V85.875Z" fill="black"/>
</svg>
