<svg width="256" height="278" viewBox="0 0 256 278" fill="none" xmlns="http://www.w3.org/2000/svg">
<rect width="256" height="277.333" fill="#282828"/>
<rect x="8.5" y="192.5" width="239" height="55" stroke="#C8C8C8"/>
<path d="M18.5682 203.364V215H17.2273V203.364H18.5682ZM24.5696 215.182C23.7817 215.182 23.0904 214.994 22.4957 214.619C21.9048 214.244 21.4427 213.72 21.1094 213.045C20.7798 212.371 20.6151 211.583 20.6151 210.682C20.6151 209.773 20.7798 208.979 21.1094 208.301C21.4427 207.623 21.9048 207.097 22.4957 206.722C23.0904 206.347 23.7817 206.159 24.5696 206.159C25.3575 206.159 26.0469 206.347 26.6378 206.722C27.2325 207.097 27.6946 207.623 28.0241 208.301C28.3575 208.979 28.5241 209.773 28.5241 210.682C28.5241 211.583 28.3575 212.371 28.0241 213.045C27.6946 213.72 27.2325 214.244 26.6378 214.619C26.0469 214.994 25.3575 215.182 24.5696 215.182ZM24.5696 213.977C25.1681 213.977 25.6605 213.824 26.0469 213.517C26.4332 213.21 26.7192 212.807 26.9048 212.307C27.0904 211.807 27.1832 211.265 27.1832 210.682C27.1832 210.098 27.0904 209.555 26.9048 209.051C26.7192 208.547 26.4332 208.14 26.0469 207.83C25.6605 207.519 25.1681 207.364 24.5696 207.364C23.9711 207.364 23.4787 207.519 23.0923 207.83C22.706 208.14 22.42 208.547 22.2344 209.051C22.0488 209.555 21.956 210.098 21.956 210.682C21.956 211.265 22.0488 211.807 22.2344 212.307C22.42 212.807 22.706 213.21 23.0923 213.517C23.4787 213.824 23.9711 213.977 24.5696 213.977ZM30.571 215V206.273H31.8665V207.591H31.9574C32.1165 207.159 32.4044 206.809 32.821 206.54C33.2377 206.271 33.7074 206.136 34.2301 206.136C34.3286 206.136 34.4517 206.138 34.5994 206.142C34.7472 206.146 34.8589 206.152 34.9347 206.159V207.523C34.8892 207.511 34.785 207.494 34.6222 207.472C34.4631 207.445 34.2945 207.432 34.1165 207.432C33.6922 207.432 33.3134 207.521 32.9801 207.699C32.6506 207.873 32.3892 208.116 32.196 208.426C32.0066 208.733 31.9119 209.083 31.9119 209.477V215H30.571ZM39.9176 215.182C39.0767 215.182 38.3513 214.996 37.7415 214.625C37.1354 214.25 36.6676 213.727 36.3381 213.057C36.0123 212.383 35.8494 211.598 35.8494 210.705C35.8494 209.811 36.0123 209.023 36.3381 208.341C36.6676 207.655 37.1259 207.121 37.7131 206.739C38.304 206.352 38.9934 206.159 39.7812 206.159C40.2358 206.159 40.6847 206.235 41.1278 206.386C41.571 206.538 41.9744 206.784 42.3381 207.125C42.7017 207.462 42.9915 207.909 43.2074 208.466C43.4233 209.023 43.5312 209.708 43.5312 210.523V211.091H36.804V209.932H42.1676C42.1676 209.439 42.0691 209 41.8722 208.614C41.679 208.227 41.4025 207.922 41.0426 207.699C40.6866 207.475 40.2661 207.364 39.7812 207.364C39.2472 207.364 38.785 207.496 38.3949 207.761C38.0085 208.023 37.7112 208.364 37.5028 208.784C37.2945 209.205 37.1903 209.655 37.1903 210.136V210.909C37.1903 211.568 37.304 212.127 37.5312 212.585C37.7623 213.04 38.0824 213.386 38.4915 213.625C38.9006 213.86 39.3759 213.977 39.9176 213.977C40.2699 213.977 40.5881 213.928 40.8722 213.83C41.16 213.727 41.4081 213.576 41.6165 213.375C41.8248 213.17 41.9858 212.917 42.0994 212.614L43.3949 212.977C43.2585 213.417 43.0294 213.803 42.7074 214.136C42.3854 214.466 41.9877 214.723 41.5142 214.909C41.0407 215.091 40.5085 215.182 39.9176 215.182ZM45.571 215V206.273H46.8665V207.636H46.9801C47.1619 207.17 47.4555 206.809 47.8608 206.551C48.2661 206.29 48.7528 206.159 49.321 206.159C49.8968 206.159 50.3759 206.29 50.7585 206.551C51.1449 206.809 51.446 207.17 51.6619 207.636H51.7528C51.9763 207.186 52.3116 206.828 52.7585 206.562C53.2055 206.294 53.7415 206.159 54.3665 206.159C55.1468 206.159 55.785 206.403 56.2812 206.892C56.7775 207.377 57.0256 208.133 57.0256 209.159V215H55.6847V209.159C55.6847 208.515 55.5085 208.055 55.1562 207.778C54.804 207.502 54.3892 207.364 53.9119 207.364C53.2983 207.364 52.8229 207.549 52.4858 207.92C52.1487 208.288 51.9801 208.754 51.9801 209.318V215H50.6165V209.023C50.6165 208.527 50.4555 208.127 50.1335 207.824C49.8116 207.517 49.3968 207.364 48.8892 207.364C48.5407 207.364 48.215 207.456 47.9119 207.642C47.6127 207.828 47.3703 208.085 47.1847 208.415C47.0028 208.741 46.9119 209.117 46.9119 209.545V215H45.571ZM63.9773 215V206.273H65.3182V215H63.9773ZM64.6591 204.818C64.3977 204.818 64.1723 204.729 63.983 204.551C63.7973 204.373 63.7045 204.159 63.7045 203.909C63.7045 203.659 63.7973 203.445 63.983 203.267C64.1723 203.089 64.3977 203 64.6591 203C64.9205 203 65.1439 203.089 65.3295 203.267C65.5189 203.445 65.6136 203.659 65.6136 203.909C65.6136 204.159 65.5189 204.373 65.3295 204.551C65.1439 204.729 64.9205 204.818 64.6591 204.818ZM67.7741 218.273V206.273H69.0696V207.659H69.2287C69.3272 207.508 69.4635 207.314 69.6378 207.08C69.8158 206.841 70.0696 206.629 70.3991 206.443C70.7325 206.254 71.1832 206.159 71.7514 206.159C72.4863 206.159 73.134 206.343 73.6946 206.71C74.2552 207.078 74.6927 207.598 75.0071 208.273C75.3215 208.947 75.4787 209.742 75.4787 210.659C75.4787 211.583 75.3215 212.384 75.0071 213.062C74.6927 213.737 74.2571 214.259 73.7003 214.631C73.1435 214.998 72.5014 215.182 71.7741 215.182C71.2135 215.182 70.7647 215.089 70.4276 214.903C70.0904 214.714 69.831 214.5 69.6491 214.261C69.4673 214.019 69.3272 213.818 69.2287 213.659H69.1151V218.273H67.7741ZM69.0923 210.636C69.0923 211.295 69.1889 211.877 69.3821 212.381C69.5753 212.881 69.8575 213.273 70.2287 213.557C70.5999 213.837 71.0545 213.977 71.5923 213.977C72.1529 213.977 72.6207 213.83 72.9957 213.534C73.3745 213.235 73.6586 212.833 73.848 212.33C74.0412 211.822 74.1378 211.258 74.1378 210.636C74.1378 210.023 74.0431 209.47 73.8537 208.977C73.6681 208.481 73.3859 208.089 73.0071 207.801C72.6321 207.509 72.1605 207.364 71.5923 207.364C71.0469 207.364 70.5885 207.502 70.2173 207.778C69.8461 208.051 69.5658 208.434 69.3764 208.926C69.187 209.415 69.0923 209.985 69.0923 210.636ZM83.706 208.227L82.5014 208.568C82.4257 208.367 82.3139 208.172 82.1662 207.983C82.0223 207.79 81.8253 207.631 81.5753 207.506C81.3253 207.381 81.0052 207.318 80.6151 207.318C80.081 207.318 79.6359 207.441 79.2798 207.688C78.9276 207.93 78.7514 208.239 78.7514 208.614C78.7514 208.947 78.8726 209.21 79.1151 209.403C79.3575 209.597 79.7363 209.758 80.2514 209.886L81.5469 210.205C82.3272 210.394 82.9086 210.684 83.2912 211.074C83.6738 211.46 83.8651 211.958 83.8651 212.568C83.8651 213.068 83.7211 213.515 83.4332 213.909C83.1491 214.303 82.7514 214.614 82.2401 214.841C81.7287 215.068 81.134 215.182 80.456 215.182C79.5658 215.182 78.8291 214.989 78.2457 214.602C77.6624 214.216 77.2931 213.652 77.1378 212.909L78.4105 212.591C78.5317 213.061 78.7609 213.413 79.098 213.648C79.4389 213.883 79.884 214 80.4332 214C81.0582 214 81.5545 213.867 81.9219 213.602C82.2931 213.333 82.4787 213.011 82.4787 212.636C82.4787 212.333 82.3726 212.08 82.1605 211.875C81.9484 211.667 81.6226 211.511 81.1832 211.409L79.7287 211.068C78.9295 210.879 78.3423 210.585 77.9673 210.188C77.5961 209.786 77.4105 209.284 77.4105 208.682C77.4105 208.189 77.5488 207.754 77.8253 207.375C78.1056 206.996 78.4863 206.699 78.9673 206.483C79.4522 206.267 80.0014 206.159 80.6151 206.159C81.4787 206.159 82.1567 206.348 82.6491 206.727C83.1454 207.106 83.4976 207.606 83.706 208.227ZM91.3835 211.432V206.273H92.7244V215H91.3835V213.523H91.2926C91.0881 213.966 90.7699 214.343 90.3381 214.653C89.9063 214.96 89.3608 215.114 88.7017 215.114C88.1562 215.114 87.6714 214.994 87.2472 214.756C86.8229 214.513 86.4896 214.15 86.2472 213.665C86.0047 213.176 85.8835 212.561 85.8835 211.818V206.273H87.2244V211.727C87.2244 212.364 87.4025 212.871 87.7585 213.25C88.1184 213.629 88.5767 213.818 89.1335 213.818C89.4669 213.818 89.8059 213.733 90.1506 213.562C90.4991 213.392 90.7907 213.131 91.0256 212.778C91.2642 212.426 91.3835 211.977 91.3835 211.432ZM95.1804 215V206.273H96.4759V207.636H96.5895C96.7713 207.17 97.0649 206.809 97.4702 206.551C97.8755 206.29 98.3622 206.159 98.9304 206.159C99.5062 206.159 99.9853 206.29 100.368 206.551C100.754 206.809 101.055 207.17 101.271 207.636H101.362C101.586 207.186 101.921 206.828 102.368 206.562C102.815 206.294 103.351 206.159 103.976 206.159C104.756 206.159 105.394 206.403 105.891 206.892C106.387 207.377 106.635 208.133 106.635 209.159V215H105.294V209.159C105.294 208.515 105.118 208.055 104.766 207.778C104.413 207.502 103.999 207.364 103.521 207.364C102.908 207.364 102.432 207.549 102.095 207.92C101.758 208.288 101.589 208.754 101.589 209.318V215H100.226V209.023C100.226 208.527 100.065 208.127 99.7429 207.824C99.4209 207.517 99.0062 207.364 98.4986 207.364C98.1501 207.364 97.8243 207.456 97.5213 207.642C97.2221 207.828 96.9796 208.085 96.794 208.415C96.6122 208.741 96.5213 209.117 96.5213 209.545V215H95.1804Z" fill="white"/>
<path d="M191.026 228.273V237H189.969V229.381H189.918L187.788 230.795V229.722L189.969 228.273H191.026ZM193.536 237V236.233L196.417 233.08C196.755 232.71 197.033 232.389 197.252 232.116C197.471 231.841 197.633 231.582 197.738 231.341C197.846 231.097 197.9 230.841 197.9 230.574C197.9 230.267 197.826 230.001 197.678 229.777C197.533 229.553 197.335 229.379 197.082 229.257C196.829 229.135 196.545 229.074 196.229 229.074C195.894 229.074 195.602 229.143 195.352 229.283C195.104 229.419 194.913 229.611 194.776 229.858C194.643 230.105 194.576 230.395 194.576 230.727H193.57C193.57 230.216 193.688 229.767 193.924 229.381C194.16 228.994 194.481 228.693 194.887 228.477C195.296 228.261 195.755 228.153 196.263 228.153C196.775 228.153 197.228 228.261 197.623 228.477C198.018 228.693 198.327 228.984 198.552 229.351C198.776 229.717 198.888 230.125 198.888 230.574C198.888 230.895 198.83 231.209 198.714 231.516C198.6 231.82 198.401 232.159 198.117 232.534C197.836 232.906 197.445 233.361 196.945 233.898L194.985 235.994V236.062H199.042V237H193.536ZM201.552 235.884C201.342 235.884 201.161 235.808 201.011 235.658C200.86 235.507 200.785 235.327 200.785 235.116C200.785 234.906 200.86 234.726 201.011 234.575C201.161 234.425 201.342 234.349 201.552 234.349C201.762 234.349 201.942 234.425 202.093 234.575C202.244 234.726 202.319 234.906 202.319 235.116C202.319 235.256 202.283 235.384 202.212 235.5C202.144 235.616 202.052 235.71 201.935 235.781C201.822 235.849 201.694 235.884 201.552 235.884ZM201.552 231.469C201.342 231.469 201.161 231.393 201.011 231.243C200.86 231.092 200.785 230.912 200.785 230.702C200.785 230.491 200.86 230.311 201.011 230.161C201.161 230.01 201.342 229.935 201.552 229.935C201.762 229.935 201.942 230.01 202.093 230.161C202.244 230.311 202.319 230.491 202.319 230.702C202.319 230.841 202.283 230.969 202.212 231.085C202.144 231.202 202.052 231.295 201.935 231.366C201.822 231.435 201.694 231.469 201.552 231.469ZM207.055 237.119C206.493 237.119 205.991 237.023 205.551 236.83C205.114 236.636 204.766 236.368 204.507 236.024C204.251 235.678 204.112 235.276 204.089 234.818H205.163C205.186 235.099 205.283 235.342 205.453 235.547C205.624 235.749 205.847 235.905 206.122 236.016C206.398 236.126 206.703 236.182 207.038 236.182C207.413 236.182 207.746 236.116 208.036 235.986C208.325 235.855 208.553 235.673 208.717 235.44C208.882 235.207 208.964 234.938 208.964 234.631C208.964 234.31 208.885 234.027 208.726 233.783C208.567 233.536 208.334 233.342 208.027 233.203C207.72 233.064 207.345 232.994 206.902 232.994H206.203V232.057H206.902C207.249 232.057 207.553 231.994 207.814 231.869C208.078 231.744 208.284 231.568 208.432 231.341C208.582 231.114 208.658 230.847 208.658 230.54C208.658 230.244 208.592 229.987 208.462 229.768C208.331 229.55 208.146 229.379 207.908 229.257C207.672 229.135 207.393 229.074 207.072 229.074C206.771 229.074 206.487 229.129 206.22 229.24C205.956 229.348 205.74 229.506 205.572 229.713C205.405 229.918 205.314 230.165 205.3 230.455H204.277C204.294 229.997 204.432 229.597 204.69 229.253C204.949 228.906 205.287 228.636 205.705 228.443C206.125 228.25 206.587 228.153 207.089 228.153C207.629 228.153 208.092 228.263 208.479 228.482C208.865 228.697 209.162 228.983 209.369 229.338C209.577 229.693 209.68 230.077 209.68 230.489C209.68 230.98 209.551 231.399 209.293 231.746C209.037 232.092 208.689 232.332 208.249 232.466V232.534C208.8 232.625 209.23 232.859 209.54 233.237C209.849 233.612 210.004 234.077 210.004 234.631C210.004 235.105 209.875 235.531 209.616 235.909C209.361 236.284 209.011 236.58 208.568 236.795C208.125 237.011 207.621 237.119 207.055 237.119ZM214.526 228.153C214.884 228.156 215.241 228.224 215.599 228.358C215.957 228.491 216.284 228.713 216.58 229.023C216.875 229.33 217.112 229.749 217.291 230.28C217.47 230.811 217.56 231.477 217.56 232.278C217.56 233.054 217.486 233.743 217.338 234.345C217.193 234.945 216.983 235.45 216.707 235.862C216.435 236.274 216.102 236.587 215.71 236.8C215.321 237.013 214.881 237.119 214.389 237.119C213.901 237.119 213.464 237.023 213.081 236.83C212.7 236.634 212.388 236.362 212.143 236.016C211.902 235.666 211.747 235.261 211.679 234.801H212.719C212.812 235.202 212.999 235.533 213.277 235.794C213.558 236.053 213.929 236.182 214.389 236.182C215.063 236.182 215.594 235.888 215.983 235.3C216.375 234.712 216.571 233.881 216.571 232.807H216.503C216.344 233.045 216.155 233.251 215.936 233.425C215.717 233.598 215.474 233.732 215.207 233.825C214.94 233.919 214.656 233.966 214.355 233.966C213.855 233.966 213.396 233.842 212.979 233.595C212.564 233.345 212.232 233.003 211.982 232.568C211.734 232.131 211.611 231.631 211.611 231.068C211.611 230.534 211.73 230.045 211.969 229.602C212.21 229.156 212.548 228.801 212.983 228.537C213.42 228.273 213.935 228.145 214.526 228.153ZM214.526 229.091C214.168 229.091 213.845 229.18 213.558 229.359C213.274 229.536 213.048 229.774 212.881 230.075C212.716 230.374 212.634 230.705 212.634 231.068C212.634 231.432 212.713 231.763 212.872 232.061C213.034 232.357 213.254 232.592 213.533 232.768C213.814 232.942 214.134 233.028 214.491 233.028C214.761 233.028 215.013 232.976 215.246 232.871C215.479 232.763 215.682 232.616 215.855 232.432C216.031 232.244 216.169 232.033 216.268 231.797C216.368 231.558 216.418 231.31 216.418 231.051C216.418 230.71 216.335 230.391 216.17 230.092C216.009 229.794 215.784 229.553 215.497 229.368C215.213 229.183 214.889 229.091 214.526 229.091ZM222.764 237V228.273H225.713C226.397 228.273 226.957 228.396 227.392 228.643C227.829 228.888 228.153 229.219 228.363 229.636C228.574 230.054 228.679 230.52 228.679 231.034C228.679 231.548 228.574 232.016 228.363 232.436C228.156 232.857 227.835 233.192 227.4 233.442C226.966 233.689 226.409 233.812 225.73 233.812H223.616V232.875H225.696C226.164 232.875 226.541 232.794 226.825 232.632C227.109 232.47 227.315 232.251 227.443 231.976C227.574 231.697 227.639 231.384 227.639 231.034C227.639 230.685 227.574 230.372 227.443 230.097C227.315 229.821 227.108 229.605 226.821 229.449C226.534 229.29 226.153 229.21 225.679 229.21H223.821V237H222.764ZM230.381 228.273H231.642L234.608 235.517H234.711L237.676 228.273H238.938V237H237.949V230.369H237.864L235.137 237H234.182L231.455 230.369H231.37V237H230.381V228.273Z" fill="white"/>
<rect x="8.5" y="132.5" width="239" height="55" stroke="#C8C8C8"/>
<path d="M18.5682 143.364V155H17.2273V143.364H18.5682ZM24.5696 155.182C23.7817 155.182 23.0904 154.994 22.4957 154.619C21.9048 154.244 21.4427 153.72 21.1094 153.045C20.7798 152.371 20.6151 151.583 20.6151 150.682C20.6151 149.773 20.7798 148.979 21.1094 148.301C21.4427 147.623 21.9048 147.097 22.4957 146.722C23.0904 146.347 23.7817 146.159 24.5696 146.159C25.3575 146.159 26.0469 146.347 26.6378 146.722C27.2325 147.097 27.6946 147.623 28.0241 148.301C28.3575 148.979 28.5241 149.773 28.5241 150.682C28.5241 151.583 28.3575 152.371 28.0241 153.045C27.6946 153.72 27.2325 154.244 26.6378 154.619C26.0469 154.994 25.3575 155.182 24.5696 155.182ZM24.5696 153.977C25.1681 153.977 25.6605 153.824 26.0469 153.517C26.4332 153.21 26.7192 152.807 26.9048 152.307C27.0904 151.807 27.1832 151.265 27.1832 150.682C27.1832 150.098 27.0904 149.555 26.9048 149.051C26.7192 148.547 26.4332 148.14 26.0469 147.83C25.6605 147.519 25.1681 147.364 24.5696 147.364C23.9711 147.364 23.4787 147.519 23.0923 147.83C22.706 148.14 22.42 148.547 22.2344 149.051C22.0488 149.555 21.956 150.098 21.956 150.682C21.956 151.265 22.0488 151.807 22.2344 152.307C22.42 152.807 22.706 153.21 23.0923 153.517C23.4787 153.824 23.9711 153.977 24.5696 153.977ZM30.571 155V146.273H31.8665V147.591H31.9574C32.1165 147.159 32.4044 146.809 32.821 146.54C33.2377 146.271 33.7074 146.136 34.2301 146.136C34.3286 146.136 34.4517 146.138 34.5994 146.142C34.7472 146.146 34.8589 146.152 34.9347 146.159V147.523C34.8892 147.511 34.785 147.494 34.6222 147.472C34.4631 147.445 34.2945 147.432 34.1165 147.432C33.6922 147.432 33.3134 147.521 32.9801 147.699C32.6506 147.873 32.3892 148.116 32.196 148.426C32.0066 148.733 31.9119 149.083 31.9119 149.477V155H30.571ZM39.9176 155.182C39.0767 155.182 38.3513 154.996 37.7415 154.625C37.1354 154.25 36.6676 153.727 36.3381 153.057C36.0123 152.383 35.8494 151.598 35.8494 150.705C35.8494 149.811 36.0123 149.023 36.3381 148.341C36.6676 147.655 37.1259 147.121 37.7131 146.739C38.304 146.352 38.9934 146.159 39.7812 146.159C40.2358 146.159 40.6847 146.235 41.1278 146.386C41.571 146.538 41.9744 146.784 42.3381 147.125C42.7017 147.462 42.9915 147.909 43.2074 148.466C43.4233 149.023 43.5312 149.708 43.5312 150.523V151.091H36.804V149.932H42.1676C42.1676 149.439 42.0691 149 41.8722 148.614C41.679 148.227 41.4025 147.922 41.0426 147.699C40.6866 147.475 40.2661 147.364 39.7812 147.364C39.2472 147.364 38.785 147.496 38.3949 147.761C38.0085 148.023 37.7112 148.364 37.5028 148.784C37.2945 149.205 37.1903 149.655 37.1903 150.136V150.909C37.1903 151.568 37.304 152.127 37.5312 152.585C37.7623 153.04 38.0824 153.386 38.4915 153.625C38.9006 153.86 39.3759 153.977 39.9176 153.977C40.2699 153.977 40.5881 153.928 40.8722 153.83C41.16 153.727 41.4081 153.576 41.6165 153.375C41.8248 153.17 41.9858 152.917 42.0994 152.614L43.3949 152.977C43.2585 153.417 43.0294 153.803 42.7074 154.136C42.3854 154.466 41.9877 154.723 41.5142 154.909C41.0407 155.091 40.5085 155.182 39.9176 155.182ZM45.571 155V146.273H46.8665V147.636H46.9801C47.1619 147.17 47.4555 146.809 47.8608 146.551C48.2661 146.29 48.7528 146.159 49.321 146.159C49.8968 146.159 50.3759 146.29 50.7585 146.551C51.1449 146.809 51.446 147.17 51.6619 147.636H51.7528C51.9763 147.186 52.3116 146.828 52.7585 146.562C53.2055 146.294 53.7415 146.159 54.3665 146.159C55.1468 146.159 55.785 146.403 56.2812 146.892C56.7775 147.377 57.0256 148.133 57.0256 149.159V155H55.6847V149.159C55.6847 148.515 55.5085 148.055 55.1562 147.778C54.804 147.502 54.3892 147.364 53.9119 147.364C53.2983 147.364 52.8229 147.549 52.4858 147.92C52.1487 148.288 51.9801 148.754 51.9801 149.318V155H50.6165V149.023C50.6165 148.527 50.4555 148.127 50.1335 147.824C49.8116 147.517 49.3968 147.364 48.8892 147.364C48.5407 147.364 48.215 147.456 47.9119 147.642C47.6127 147.828 47.3703 148.085 47.1847 148.415C47.0028 148.741 46.9119 149.117 46.9119 149.545V155H45.571ZM63.9773 155V146.273H65.3182V155H63.9773ZM64.6591 144.818C64.3977 144.818 64.1723 144.729 63.983 144.551C63.7973 144.373 63.7045 144.159 63.7045 143.909C63.7045 143.659 63.7973 143.445 63.983 143.267C64.1723 143.089 64.3977 143 64.6591 143C64.9205 143 65.1439 143.089 65.3295 143.267C65.5189 143.445 65.6136 143.659 65.6136 143.909C65.6136 144.159 65.5189 144.373 65.3295 144.551C65.1439 144.729 64.9205 144.818 64.6591 144.818ZM67.7741 158.273V146.273H69.0696V147.659H69.2287C69.3272 147.508 69.4635 147.314 69.6378 147.08C69.8158 146.841 70.0696 146.629 70.3991 146.443C70.7325 146.254 71.1832 146.159 71.7514 146.159C72.4863 146.159 73.134 146.343 73.6946 146.71C74.2552 147.078 74.6927 147.598 75.0071 148.273C75.3215 148.947 75.4787 149.742 75.4787 150.659C75.4787 151.583 75.3215 152.384 75.0071 153.062C74.6927 153.737 74.2571 154.259 73.7003 154.631C73.1435 154.998 72.5014 155.182 71.7741 155.182C71.2135 155.182 70.7647 155.089 70.4276 154.903C70.0904 154.714 69.831 154.5 69.6491 154.261C69.4673 154.019 69.3272 153.818 69.2287 153.659H69.1151V158.273H67.7741ZM69.0923 150.636C69.0923 151.295 69.1889 151.877 69.3821 152.381C69.5753 152.881 69.8575 153.273 70.2287 153.557C70.5999 153.837 71.0545 153.977 71.5923 153.977C72.1529 153.977 72.6207 153.83 72.9957 153.534C73.3745 153.235 73.6586 152.833 73.848 152.33C74.0412 151.822 74.1378 151.258 74.1378 150.636C74.1378 150.023 74.0431 149.47 73.8537 148.977C73.6681 148.481 73.3859 148.089 73.0071 147.801C72.6321 147.509 72.1605 147.364 71.5923 147.364C71.0469 147.364 70.5885 147.502 70.2173 147.778C69.8461 148.051 69.5658 148.434 69.3764 148.926C69.187 149.415 69.0923 149.985 69.0923 150.636ZM83.706 148.227L82.5014 148.568C82.4257 148.367 82.3139 148.172 82.1662 147.983C82.0223 147.79 81.8253 147.631 81.5753 147.506C81.3253 147.381 81.0052 147.318 80.6151 147.318C80.081 147.318 79.6359 147.441 79.2798 147.688C78.9276 147.93 78.7514 148.239 78.7514 148.614C78.7514 148.947 78.8726 149.21 79.1151 149.403C79.3575 149.597 79.7363 149.758 80.2514 149.886L81.5469 150.205C82.3272 150.394 82.9086 150.684 83.2912 151.074C83.6738 151.46 83.8651 151.958 83.8651 152.568C83.8651 153.068 83.7211 153.515 83.4332 153.909C83.1491 154.303 82.7514 154.614 82.2401 154.841C81.7287 155.068 81.134 155.182 80.456 155.182C79.5658 155.182 78.8291 154.989 78.2457 154.602C77.6624 154.216 77.2931 153.652 77.1378 152.909L78.4105 152.591C78.5317 153.061 78.7609 153.413 79.098 153.648C79.4389 153.883 79.884 154 80.4332 154C81.0582 154 81.5545 153.867 81.9219 153.602C82.2931 153.333 82.4787 153.011 82.4787 152.636C82.4787 152.333 82.3726 152.08 82.1605 151.875C81.9484 151.667 81.6226 151.511 81.1832 151.409L79.7287 151.068C78.9295 150.879 78.3423 150.585 77.9673 150.188C77.5961 149.786 77.4105 149.284 77.4105 148.682C77.4105 148.189 77.5488 147.754 77.8253 147.375C78.1056 146.996 78.4863 146.699 78.9673 146.483C79.4522 146.267 80.0014 146.159 80.6151 146.159C81.4787 146.159 82.1567 146.348 82.6491 146.727C83.1454 147.106 83.4976 147.606 83.706 148.227ZM91.3835 151.432V146.273H92.7244V155H91.3835V153.523H91.2926C91.0881 153.966 90.7699 154.343 90.3381 154.653C89.9063 154.96 89.3608 155.114 88.7017 155.114C88.1562 155.114 87.6714 154.994 87.2472 154.756C86.8229 154.513 86.4896 154.15 86.2472 153.665C86.0047 153.176 85.8835 152.561 85.8835 151.818V146.273H87.2244V151.727C87.2244 152.364 87.4025 152.871 87.7585 153.25C88.1184 153.629 88.5767 153.818 89.1335 153.818C89.4669 153.818 89.8059 153.733 90.1506 153.562C90.4991 153.392 90.7907 153.131 91.0256 152.778C91.2642 152.426 91.3835 151.977 91.3835 151.432ZM95.1804 155V146.273H96.4759V147.636H96.5895C96.7713 147.17 97.0649 146.809 97.4702 146.551C97.8755 146.29 98.3622 146.159 98.9304 146.159C99.5062 146.159 99.9853 146.29 100.368 146.551C100.754 146.809 101.055 147.17 101.271 147.636H101.362C101.586 147.186 101.921 146.828 102.368 146.562C102.815 146.294 103.351 146.159 103.976 146.159C104.756 146.159 105.394 146.403 105.891 146.892C106.387 147.377 106.635 148.133 106.635 149.159V155H105.294V149.159C105.294 148.515 105.118 148.055 104.766 147.778C104.413 147.502 103.999 147.364 103.521 147.364C102.908 147.364 102.432 147.549 102.095 147.92C101.758 148.288 101.589 148.754 101.589 149.318V155H100.226V149.023C100.226 148.527 100.065 148.127 99.7429 147.824C99.4209 147.517 99.0062 147.364 98.4986 147.364C98.1501 147.364 97.8243 147.456 97.5213 147.642C97.2221 147.828 96.9796 148.085 96.794 148.415C96.6122 148.741 96.5213 149.117 96.5213 149.545V155H95.1804Z" fill="white"/>
<path d="M190.956 168.273V177H189.899V169.381H189.848L187.717 170.795V169.722L189.899 168.273H190.956ZM193.466 177V176.233L196.347 173.08C196.685 172.71 196.963 172.389 197.182 172.116C197.401 171.841 197.563 171.582 197.668 171.341C197.776 171.097 197.83 170.841 197.83 170.574C197.83 170.267 197.756 170.001 197.608 169.777C197.463 169.553 197.264 169.379 197.011 169.257C196.759 169.135 196.474 169.074 196.159 169.074C195.824 169.074 195.531 169.143 195.281 169.283C195.034 169.419 194.842 169.611 194.706 169.858C194.572 170.105 194.506 170.395 194.506 170.727H193.5C193.5 170.216 193.618 169.767 193.854 169.381C194.089 168.994 194.411 168.693 194.817 168.477C195.226 168.261 195.685 168.153 196.193 168.153C196.705 168.153 197.158 168.261 197.553 168.477C197.947 168.693 198.257 168.984 198.482 169.351C198.706 169.717 198.818 170.125 198.818 170.574C198.818 170.895 198.76 171.209 198.643 171.516C198.53 171.82 198.331 172.159 198.047 172.534C197.766 172.906 197.375 173.361 196.875 173.898L194.915 175.994V176.062H198.972V177H193.466ZM201.482 175.884C201.271 175.884 201.091 175.808 200.94 175.658C200.79 175.507 200.714 175.327 200.714 175.116C200.714 174.906 200.79 174.726 200.94 174.575C201.091 174.425 201.271 174.349 201.482 174.349C201.692 174.349 201.872 174.425 202.023 174.575C202.173 174.726 202.249 174.906 202.249 175.116C202.249 175.256 202.213 175.384 202.142 175.5C202.074 175.616 201.982 175.71 201.865 175.781C201.751 175.849 201.624 175.884 201.482 175.884ZM201.482 171.469C201.271 171.469 201.091 171.393 200.94 171.243C200.79 171.092 200.714 170.912 200.714 170.702C200.714 170.491 200.79 170.311 200.94 170.161C201.091 170.01 201.271 169.935 201.482 169.935C201.692 169.935 201.872 170.01 202.023 170.161C202.173 170.311 202.249 170.491 202.249 170.702C202.249 170.841 202.213 170.969 202.142 171.085C202.074 171.202 201.982 171.295 201.865 171.366C201.751 171.435 201.624 171.469 201.482 171.469ZM203.832 175.21V174.341L207.667 168.273H208.298V169.619H207.871L204.974 174.205V174.273H210.138V175.21H203.832ZM207.94 177V174.946V174.541V168.273H208.945V177H207.94ZM214.582 177.119C213.94 177.119 213.393 176.945 212.941 176.595C212.49 176.243 212.145 175.733 211.906 175.065C211.667 174.395 211.548 173.585 211.548 172.636C211.548 171.693 211.667 170.888 211.906 170.22C212.147 169.55 212.494 169.038 212.946 168.686C213.4 168.331 213.946 168.153 214.582 168.153C215.218 168.153 215.762 168.331 216.214 168.686C216.669 169.038 217.015 169.55 217.254 170.22C217.495 170.888 217.616 171.693 217.616 172.636C217.616 173.585 217.497 174.395 217.258 175.065C217.02 175.733 216.674 176.243 216.223 176.595C215.771 176.945 215.224 177.119 214.582 177.119ZM214.582 176.182C215.218 176.182 215.713 175.875 216.065 175.261C216.417 174.648 216.593 173.773 216.593 172.636C216.593 171.881 216.512 171.237 216.35 170.706C216.191 170.175 215.961 169.77 215.66 169.491C215.362 169.213 215.002 169.074 214.582 169.074C213.951 169.074 213.458 169.385 213.103 170.007C212.748 170.626 212.571 171.503 212.571 172.636C212.571 173.392 212.65 174.034 212.809 174.562C212.968 175.091 213.197 175.493 213.495 175.768C213.797 176.044 214.159 176.182 214.582 176.182ZM222.764 177V168.273H225.713C226.397 168.273 226.957 168.396 227.392 168.643C227.829 168.888 228.153 169.219 228.363 169.636C228.574 170.054 228.679 170.52 228.679 171.034C228.679 171.548 228.574 172.016 228.363 172.436C228.156 172.857 227.835 173.192 227.4 173.442C226.966 173.689 226.409 173.812 225.73 173.812H223.616V172.875H225.696C226.164 172.875 226.541 172.794 226.825 172.632C227.109 172.47 227.315 172.251 227.443 171.976C227.574 171.697 227.639 171.384 227.639 171.034C227.639 170.685 227.574 170.372 227.443 170.097C227.315 169.821 227.108 169.605 226.821 169.449C226.534 169.29 226.153 169.21 225.679 169.21H223.821V177H222.764ZM230.381 168.273H231.642L234.608 175.517H234.711L237.676 168.273H238.938V177H237.949V170.369H237.864L235.137 177H234.182L231.455 170.369H231.37V177H230.381V168.273Z" fill="white"/>
<rect x="8.5" y="72.5" width="239" height="55" stroke="#C8C8C8"/>
<path d="M18.5682 83.3636V95H17.2273V83.3636H18.5682ZM24.5696 95.1818C23.7817 95.1818 23.0904 94.9943 22.4957 94.6193C21.9048 94.2443 21.4427 93.7197 21.1094 93.0455C20.7798 92.3712 20.6151 91.5833 20.6151 90.6818C20.6151 89.7727 20.7798 88.9792 21.1094 88.3011C21.4427 87.6231 21.9048 87.0966 22.4957 86.7216C23.0904 86.3466 23.7817 86.1591 24.5696 86.1591C25.3575 86.1591 26.0469 86.3466 26.6378 86.7216C27.2325 87.0966 27.6946 87.6231 28.0241 88.3011C28.3575 88.9792 28.5241 89.7727 28.5241 90.6818C28.5241 91.5833 28.3575 92.3712 28.0241 93.0455C27.6946 93.7197 27.2325 94.2443 26.6378 94.6193C26.0469 94.9943 25.3575 95.1818 24.5696 95.1818ZM24.5696 93.9773C25.1681 93.9773 25.6605 93.8239 26.0469 93.517C26.4332 93.2102 26.7192 92.8068 26.9048 92.3068C27.0904 91.8068 27.1832 91.2652 27.1832 90.6818C27.1832 90.0985 27.0904 89.5549 26.9048 89.0511C26.7192 88.5473 26.4332 88.1402 26.0469 87.8295C25.6605 87.5189 25.1681 87.3636 24.5696 87.3636C23.9711 87.3636 23.4787 87.5189 23.0923 87.8295C22.706 88.1402 22.42 88.5473 22.2344 89.0511C22.0488 89.5549 21.956 90.0985 21.956 90.6818C21.956 91.2652 22.0488 91.8068 22.2344 92.3068C22.42 92.8068 22.706 93.2102 23.0923 93.517C23.4787 93.8239 23.9711 93.9773 24.5696 93.9773ZM30.571 95V86.2727H31.8665V87.5909H31.9574C32.1165 87.1591 32.4044 86.8087 32.821 86.5398C33.2377 86.2708 33.7074 86.1364 34.2301 86.1364C34.3286 86.1364 34.4517 86.1383 34.5994 86.142C34.7472 86.1458 34.8589 86.1515 34.9347 86.1591V87.5227C34.8892 87.5114 34.785 87.4943 34.6222 87.4716C34.4631 87.4451 34.2945 87.4318 34.1165 87.4318C33.6922 87.4318 33.3134 87.5208 32.9801 87.6989C32.6506 87.8731 32.3892 88.1155 32.196 88.4261C32.0066 88.733 31.9119 89.0833 31.9119 89.4773V95H30.571ZM39.9176 95.1818C39.0767 95.1818 38.3513 94.9962 37.7415 94.625C37.1354 94.25 36.6676 93.7273 36.3381 93.0568C36.0123 92.3826 35.8494 91.5985 35.8494 90.7045C35.8494 89.8106 36.0123 89.0227 36.3381 88.3409C36.6676 87.6553 37.1259 87.1212 37.7131 86.7386C38.304 86.3523 38.9934 86.1591 39.7812 86.1591C40.2358 86.1591 40.6847 86.2348 41.1278 86.3864C41.571 86.5379 41.9744 86.7841 42.3381 87.125C42.7017 87.4621 42.9915 87.9091 43.2074 88.4659C43.4233 89.0227 43.5312 89.7083 43.5312 90.5227V91.0909H36.804V89.9318H42.1676C42.1676 89.4394 42.0691 89 41.8722 88.6136C41.679 88.2273 41.4025 87.9223 41.0426 87.6989C40.6866 87.4754 40.2661 87.3636 39.7812 87.3636C39.2472 87.3636 38.785 87.4962 38.3949 87.7614C38.0085 88.0227 37.7112 88.3636 37.5028 88.7841C37.2945 89.2045 37.1903 89.6553 37.1903 90.1364V90.9091C37.1903 91.5682 37.304 92.1269 37.5312 92.5852C37.7623 93.0398 38.0824 93.3864 38.4915 93.625C38.9006 93.8598 39.3759 93.9773 39.9176 93.9773C40.2699 93.9773 40.5881 93.928 40.8722 93.8295C41.16 93.7273 41.4081 93.5758 41.6165 93.375C41.8248 93.1705 41.9858 92.9167 42.0994 92.6136L43.3949 92.9773C43.2585 93.4167 43.0294 93.803 42.7074 94.1364C42.3854 94.4659 41.9877 94.7235 41.5142 94.9091C41.0407 95.0909 40.5085 95.1818 39.9176 95.1818ZM45.571 95V86.2727H46.8665V87.6364H46.9801C47.1619 87.1705 47.4555 86.8087 47.8608 86.5511C48.2661 86.2898 48.7528 86.1591 49.321 86.1591C49.8968 86.1591 50.3759 86.2898 50.7585 86.5511C51.1449 86.8087 51.446 87.1705 51.6619 87.6364H51.7528C51.9763 87.1856 52.3116 86.8277 52.7585 86.5625C53.2055 86.2936 53.7415 86.1591 54.3665 86.1591C55.1468 86.1591 55.785 86.4034 56.2812 86.892C56.7775 87.3769 57.0256 88.1326 57.0256 89.1591V95H55.6847V89.1591C55.6847 88.5152 55.5085 88.0549 55.1562 87.7784C54.804 87.5019 54.3892 87.3636 53.9119 87.3636C53.2983 87.3636 52.8229 87.5492 52.4858 87.9205C52.1487 88.2879 51.9801 88.7538 51.9801 89.3182V95H50.6165V89.0227C50.6165 88.5265 50.4555 88.1269 50.1335 87.8239C49.8116 87.517 49.3968 87.3636 48.8892 87.3636C48.5407 87.3636 48.215 87.4564 47.9119 87.642C47.6127 87.8277 47.3703 88.0852 47.1847 88.4148C47.0028 88.7405 46.9119 89.1174 46.9119 89.5455V95H45.571ZM63.9773 95V86.2727H65.3182V95H63.9773ZM64.6591 84.8182C64.3977 84.8182 64.1723 84.7292 63.983 84.5511C63.7973 84.3731 63.7045 84.1591 63.7045 83.9091C63.7045 83.6591 63.7973 83.4451 63.983 83.267C64.1723 83.089 64.3977 83 64.6591 83C64.9205 83 65.1439 83.089 65.3295 83.267C65.5189 83.4451 65.6136 83.6591 65.6136 83.9091C65.6136 84.1591 65.5189 84.3731 65.3295 84.5511C65.1439 84.7292 64.9205 84.8182 64.6591 84.8182ZM67.7741 98.2727V86.2727H69.0696V87.6591H69.2287C69.3272 87.5076 69.4635 87.3144 69.6378 87.0795C69.8158 86.8409 70.0696 86.6288 70.3991 86.4432C70.7325 86.2538 71.1832 86.1591 71.7514 86.1591C72.4863 86.1591 73.134 86.3428 73.6946 86.7102C74.2552 87.0777 74.6927 87.5985 75.0071 88.2727C75.3215 88.947 75.4787 89.7424 75.4787 90.6591C75.4787 91.5833 75.3215 92.3845 75.0071 93.0625C74.6927 93.7367 74.2571 94.2595 73.7003 94.6307C73.1435 94.9981 72.5014 95.1818 71.7741 95.1818C71.2135 95.1818 70.7647 95.089 70.4276 94.9034C70.0904 94.714 69.831 94.5 69.6491 94.2614C69.4673 94.0189 69.3272 93.8182 69.2287 93.6591H69.1151V98.2727H67.7741ZM69.0923 90.6364C69.0923 91.2955 69.1889 91.8769 69.3821 92.3807C69.5753 92.8807 69.8575 93.2727 70.2287 93.5568C70.5999 93.8371 71.0545 93.9773 71.5923 93.9773C72.1529 93.9773 72.6207 93.8295 72.9957 93.5341C73.3745 93.2348 73.6586 92.8333 73.848 92.3295C74.0412 91.822 74.1378 91.2576 74.1378 90.6364C74.1378 90.0227 74.0431 89.4697 73.8537 88.9773C73.6681 88.4811 73.3859 88.089 73.0071 87.8011C72.6321 87.5095 72.1605 87.3636 71.5923 87.3636C71.0469 87.3636 70.5885 87.5019 70.2173 87.7784C69.8461 88.0511 69.5658 88.4337 69.3764 88.9261C69.187 89.4148 69.0923 89.9848 69.0923 90.6364ZM83.706 88.2273L82.5014 88.5682C82.4257 88.3674 82.3139 88.1723 82.1662 87.983C82.0223 87.7898 81.8253 87.6307 81.5753 87.5057C81.3253 87.3807 81.0052 87.3182 80.6151 87.3182C80.081 87.3182 79.6359 87.4413 79.2798 87.6875C78.9276 87.9299 78.7514 88.2386 78.7514 88.6136C78.7514 88.947 78.8726 89.2102 79.1151 89.4034C79.3575 89.5966 79.7363 89.7576 80.2514 89.8864L81.5469 90.2045C82.3272 90.3939 82.9086 90.6837 83.2912 91.0739C83.6738 91.4602 83.8651 91.9583 83.8651 92.5682C83.8651 93.0682 83.7211 93.5152 83.4332 93.9091C83.1491 94.303 82.7514 94.6136 82.2401 94.8409C81.7287 95.0682 81.134 95.1818 80.456 95.1818C79.5658 95.1818 78.8291 94.9886 78.2457 94.6023C77.6624 94.2159 77.2931 93.6515 77.1378 92.9091L78.4105 92.5909C78.5317 93.0606 78.7609 93.4129 79.098 93.6477C79.4389 93.8826 79.884 94 80.4332 94C81.0582 94 81.5545 93.8674 81.9219 93.6023C82.2931 93.3333 82.4787 93.0114 82.4787 92.6364C82.4787 92.3333 82.3726 92.0795 82.1605 91.875C81.9484 91.6667 81.6226 91.5114 81.1832 91.4091L79.7287 91.0682C78.9295 90.8788 78.3423 90.5852 77.9673 90.1875C77.5961 89.786 77.4105 89.2841 77.4105 88.6818C77.4105 88.1894 77.5488 87.7538 77.8253 87.375C78.1056 86.9962 78.4863 86.6989 78.9673 86.483C79.4522 86.267 80.0014 86.1591 80.6151 86.1591C81.4787 86.1591 82.1567 86.3485 82.6491 86.7273C83.1454 87.1061 83.4976 87.6061 83.706 88.2273ZM91.3835 91.4318V86.2727H92.7244V95H91.3835V93.5227H91.2926C91.0881 93.9659 90.7699 94.3428 90.3381 94.6534C89.9063 94.9602 89.3608 95.1136 88.7017 95.1136C88.1562 95.1136 87.6714 94.9943 87.2472 94.7557C86.8229 94.5133 86.4896 94.1496 86.2472 93.6648C86.0047 93.1761 85.8835 92.5606 85.8835 91.8182V86.2727H87.2244V91.7273C87.2244 92.3636 87.4025 92.8712 87.7585 93.25C88.1184 93.6288 88.5767 93.8182 89.1335 93.8182C89.4669 93.8182 89.8059 93.733 90.1506 93.5625C90.4991 93.392 90.7907 93.1307 91.0256 92.7784C91.2642 92.4261 91.3835 91.9773 91.3835 91.4318ZM95.1804 95V86.2727H96.4759V87.6364H96.5895C96.7713 87.1705 97.0649 86.8087 97.4702 86.5511C97.8755 86.2898 98.3622 86.1591 98.9304 86.1591C99.5062 86.1591 99.9853 86.2898 100.368 86.5511C100.754 86.8087 101.055 87.1705 101.271 87.6364H101.362C101.586 87.1856 101.921 86.8277 102.368 86.5625C102.815 86.2936 103.351 86.1591 103.976 86.1591C104.756 86.1591 105.394 86.4034 105.891 86.892C106.387 87.3769 106.635 88.1326 106.635 89.1591V95H105.294V89.1591C105.294 88.5152 105.118 88.0549 104.766 87.7784C104.413 87.5019 103.999 87.3636 103.521 87.3636C102.908 87.3636 102.432 87.5492 102.095 87.9205C101.758 88.2879 101.589 88.7538 101.589 89.3182V95H100.226V89.0227C100.226 88.5265 100.065 88.1269 99.7429 87.8239C99.4209 87.517 99.0062 87.3636 98.4986 87.3636C98.1501 87.3636 97.8243 87.4564 97.5213 87.642C97.2221 87.8277 96.9796 88.0852 96.794 88.4148C96.6122 88.7405 96.5213 89.1174 96.5213 89.5455V95H95.1804Z" fill="white"/>
<path d="M190.757 108.273V117H189.7V109.381H189.649L187.518 110.795V109.722L189.7 108.273H190.757ZM193.267 117V116.233L196.147 113.08C196.485 112.71 196.764 112.389 196.983 112.116C197.201 111.841 197.363 111.582 197.468 111.341C197.576 111.097 197.63 110.841 197.63 110.574C197.63 110.267 197.556 110.001 197.409 109.777C197.264 109.553 197.065 109.379 196.812 109.257C196.559 109.135 196.275 109.074 195.96 109.074C195.625 109.074 195.332 109.143 195.082 109.283C194.835 109.419 194.643 109.611 194.507 109.858C194.373 110.105 194.306 110.395 194.306 110.727H193.301C193.301 110.216 193.419 109.767 193.654 109.381C193.89 108.994 194.211 108.693 194.618 108.477C195.027 108.261 195.485 108.153 195.994 108.153C196.505 108.153 196.958 108.261 197.353 108.477C197.748 108.693 198.058 108.984 198.282 109.351C198.507 109.717 198.619 110.125 198.619 110.574C198.619 110.895 198.561 111.209 198.444 111.516C198.331 111.82 198.132 112.159 197.848 112.534C197.566 112.906 197.176 113.361 196.676 113.898L194.716 115.994V116.062H198.772V117H193.267ZM201.282 115.884C201.072 115.884 200.892 115.808 200.741 115.658C200.591 115.507 200.515 115.327 200.515 115.116C200.515 114.906 200.591 114.726 200.741 114.575C200.892 114.425 201.072 114.349 201.282 114.349C201.493 114.349 201.673 114.425 201.824 114.575C201.974 114.726 202.049 114.906 202.049 115.116C202.049 115.256 202.014 115.384 201.943 115.5C201.875 115.616 201.782 115.71 201.666 115.781C201.552 115.849 201.424 115.884 201.282 115.884ZM201.282 111.469C201.072 111.469 200.892 111.393 200.741 111.243C200.591 111.092 200.515 110.912 200.515 110.702C200.515 110.491 200.591 110.311 200.741 110.161C200.892 110.01 201.072 109.935 201.282 109.935C201.493 109.935 201.673 110.01 201.824 110.161C201.974 110.311 202.049 110.491 202.049 110.702C202.049 110.841 202.014 110.969 201.943 111.085C201.875 111.202 201.782 111.295 201.666 111.366C201.552 111.435 201.424 111.469 201.282 111.469ZM203.632 115.21V114.341L207.468 108.273H208.098V109.619H207.672L204.775 114.205V114.273H209.939V115.21H203.632ZM207.74 117V114.946V114.541V108.273H208.746V117H207.74ZM211.332 115.21V114.341L215.167 108.273H215.798V109.619H215.371L212.474 114.205V114.273H217.638V115.21H211.332ZM215.44 117V114.946V114.541V108.273H216.445V117H215.44ZM222.764 117V108.273H225.713C226.397 108.273 226.957 108.396 227.392 108.643C227.829 108.888 228.153 109.219 228.363 109.636C228.574 110.054 228.679 110.52 228.679 111.034C228.679 111.548 228.574 112.016 228.363 112.436C228.156 112.857 227.835 113.192 227.4 113.442C226.966 113.689 226.409 113.812 225.73 113.812H223.616V112.875H225.696C226.164 112.875 226.541 112.794 226.825 112.632C227.109 112.47 227.315 112.251 227.443 111.976C227.574 111.697 227.639 111.384 227.639 111.034C227.639 110.685 227.574 110.372 227.443 110.097C227.315 109.821 227.108 109.605 226.821 109.449C226.534 109.29 226.153 109.21 225.679 109.21H223.821V117H222.764ZM230.381 108.273H231.642L234.608 115.517H234.711L237.676 108.273H238.938V117H237.949V110.369H237.864L235.137 117H234.182L231.455 110.369H231.37V117H230.381V108.273Z" fill="white"/>
<rect x="216" y="16" width="32" height="32" fill="#C8C8C8"/>
<path d="M10.7045 26.3636L13.733 35.5227H13.8523L16.875 26.3636H19.1932L15.0909 38H12.4886L8.39205 26.3636H10.7045ZM23.5611 38.1705C22.6861 38.1705 21.9304 37.9886 21.294 37.625C20.6615 37.2576 20.1747 36.7386 19.8338 36.0682C19.4929 35.3939 19.3224 34.6004 19.3224 33.6875C19.3224 32.7898 19.4929 32.0019 19.8338 31.3239C20.1785 30.642 20.6596 30.1117 21.277 29.733C21.8944 29.3504 22.6198 29.1591 23.4531 29.1591C23.991 29.1591 24.4986 29.2462 24.9759 29.4205C25.4569 29.5909 25.8812 29.8561 26.2486 30.2159C26.6198 30.5758 26.9115 31.0341 27.1236 31.5909C27.3357 32.1439 27.4418 32.803 27.4418 33.5682V34.1989H20.2884V32.8125H25.4702C25.4664 32.4186 25.3812 32.0682 25.2145 31.7614C25.0478 31.4508 24.8149 31.2064 24.5156 31.0284C24.2202 30.8504 23.8755 30.7614 23.4815 30.7614C23.0611 30.7614 22.6918 30.8636 22.3736 31.0682C22.0554 31.2689 21.8073 31.5341 21.6293 31.8636C21.455 32.1894 21.366 32.5473 21.3622 32.9375V34.1477C21.3622 34.6553 21.455 35.0909 21.6406 35.4545C21.8262 35.8144 22.0857 36.0909 22.419 36.2841C22.7524 36.4735 23.1425 36.5682 23.5895 36.5682C23.8887 36.5682 24.1596 36.5265 24.402 36.4432C24.6444 36.3561 24.8546 36.2292 25.0327 36.0625C25.2107 35.8958 25.3452 35.6894 25.4361 35.4432L27.3565 35.6591C27.2353 36.1667 27.0043 36.6098 26.6634 36.9886C26.3262 37.3636 25.8944 37.6553 25.3679 37.8636C24.8414 38.0682 24.2391 38.1705 23.5611 38.1705ZM29.1818 38V29.2727H31.1761V30.7273H31.267C31.4261 30.2235 31.6989 29.8352 32.0852 29.5625C32.4754 29.286 32.9205 29.1477 33.4205 29.1477C33.5341 29.1477 33.661 29.1534 33.8011 29.1648C33.9451 29.1723 34.0644 29.1856 34.1591 29.2045V31.0966C34.072 31.0663 33.9337 31.0398 33.7443 31.017C33.5587 30.9905 33.3788 30.9773 33.2045 30.9773C32.8295 30.9773 32.4924 31.0587 32.1932 31.2216C31.8977 31.3807 31.6648 31.6023 31.4943 31.8864C31.3239 32.1705 31.2386 32.4981 31.2386 32.8693V38H29.1818ZM42.4233 31.5795L40.5483 31.7841C40.4953 31.5947 40.4025 31.4167 40.2699 31.25C40.1411 31.0833 39.9669 30.9489 39.7472 30.8466C39.5275 30.7443 39.2585 30.6932 38.9403 30.6932C38.5123 30.6932 38.1525 30.786 37.8608 30.9716C37.5729 31.1572 37.4309 31.3977 37.4347 31.6932C37.4309 31.947 37.5237 32.1534 37.7131 32.3125C37.9063 32.4716 38.2244 32.6023 38.6676 32.7045L40.1562 33.0227C40.982 33.2008 41.5956 33.483 41.9972 33.8693C42.4025 34.2557 42.607 34.7614 42.6108 35.3864C42.607 35.9356 42.446 36.4205 42.1278 36.8409C41.8134 37.2576 41.3759 37.5833 40.8153 37.8182C40.2547 38.053 39.6108 38.1705 38.8835 38.1705C37.8153 38.1705 36.9555 37.947 36.304 37.5C35.6525 37.0492 35.2642 36.4223 35.1392 35.6193L37.1449 35.4261C37.2358 35.8201 37.429 36.1174 37.7244 36.3182C38.0199 36.5189 38.4044 36.6193 38.8778 36.6193C39.3665 36.6193 39.7585 36.5189 40.054 36.3182C40.3532 36.1174 40.5028 35.8693 40.5028 35.5739C40.5028 35.3239 40.4063 35.1174 40.2131 34.9545C40.0237 34.7917 39.7282 34.6667 39.3267 34.5795L37.8381 34.267C37.0009 34.0928 36.3816 33.7992 35.9801 33.3864C35.5786 32.9697 35.3797 32.4432 35.3835 31.8068C35.3797 31.2689 35.5256 30.803 35.821 30.4091C36.1203 30.0114 36.535 29.7045 37.0653 29.4886C37.5994 29.2689 38.215 29.1591 38.9119 29.1591C39.9347 29.1591 40.7396 29.3769 41.3267 29.8125C41.9176 30.2481 42.2831 30.8371 42.4233 31.5795ZM44.3068 38V29.2727H46.3636V38H44.3068ZM45.3409 28.0341C45.0152 28.0341 44.7348 27.9261 44.5 27.7102C44.2652 27.4905 44.1477 27.2273 44.1477 26.9205C44.1477 26.6098 44.2652 26.3466 44.5 26.1307C44.7348 25.911 45.0152 25.8011 45.3409 25.8011C45.6705 25.8011 45.9508 25.911 46.1818 26.1307C46.4167 26.3466 46.5341 26.6098 46.5341 26.9205C46.5341 27.2273 46.4167 27.4905 46.1818 27.7102C45.9508 27.9261 45.6705 28.0341 45.3409 28.0341ZM52.2855 38.1705C51.4332 38.1705 50.6946 37.983 50.0696 37.608C49.4446 37.233 48.9598 36.7083 48.6151 36.0341C48.2741 35.3598 48.1037 34.572 48.1037 33.6705C48.1037 32.7689 48.2741 31.9792 48.6151 31.3011C48.9598 30.6231 49.4446 30.0966 50.0696 29.7216C50.6946 29.3466 51.4332 29.1591 52.2855 29.1591C53.1378 29.1591 53.8764 29.3466 54.5014 29.7216C55.1264 30.0966 55.6094 30.6231 55.9503 31.3011C56.295 31.9792 56.4673 32.7689 56.4673 33.6705C56.4673 34.572 56.295 35.3598 55.9503 36.0341C55.6094 36.7083 55.1264 37.233 54.5014 37.608C53.8764 37.983 53.1378 38.1705 52.2855 38.1705ZM52.2969 36.5227C52.759 36.5227 53.1454 36.3958 53.456 36.142C53.7666 35.8845 53.9976 35.5398 54.1491 35.108C54.3045 34.6761 54.3821 34.1951 54.3821 33.6648C54.3821 33.1307 54.3045 32.6477 54.1491 32.2159C53.9976 31.7803 53.7666 31.4337 53.456 31.1761C53.1454 30.9186 52.759 30.7898 52.2969 30.7898C51.8234 30.7898 51.4295 30.9186 51.1151 31.1761C50.8045 31.4337 50.5715 31.7803 50.4162 32.2159C50.2647 32.6477 50.1889 33.1307 50.1889 33.6648C50.1889 34.1951 50.2647 34.6761 50.4162 35.108C50.5715 35.5398 50.8045 35.8845 51.1151 36.142C51.4295 36.3958 51.8234 36.5227 52.2969 36.5227ZM60.2699 32.8864V38H58.2131V29.2727H60.179V30.7557H60.2812C60.482 30.267 60.8021 29.8788 61.2415 29.5909C61.6847 29.303 62.232 29.1591 62.8835 29.1591C63.4858 29.1591 64.0104 29.2879 64.4574 29.5455C64.9081 29.803 65.2566 30.1761 65.5028 30.6648C65.7528 31.1534 65.8759 31.7462 65.8722 32.4432V38H63.8153V32.7614C63.8153 32.178 63.6638 31.7216 63.3608 31.392C63.0616 31.0625 62.6468 30.8977 62.1165 30.8977C61.7566 30.8977 61.4366 30.9773 61.1562 31.1364C60.8797 31.2917 60.6619 31.517 60.5028 31.8125C60.3475 32.108 60.2699 32.4659 60.2699 32.8864ZM73.9886 32.8864V38H71.9318V26.3636H73.9432V30.7557H74.0455C74.25 30.2633 74.5663 29.875 74.9943 29.5909C75.4261 29.303 75.9754 29.1591 76.642 29.1591C77.2481 29.1591 77.7765 29.286 78.2273 29.5398C78.678 29.7936 79.0265 30.1648 79.2727 30.6534C79.5227 31.142 79.6477 31.7386 79.6477 32.4432V38H77.5909V32.7614C77.5909 32.1742 77.4394 31.7178 77.1364 31.392C76.8371 31.0625 76.4167 30.8977 75.875 30.8977C75.5114 30.8977 75.1856 30.9773 74.8977 31.1364C74.6136 31.2917 74.3902 31.517 74.2273 31.8125C74.0682 32.108 73.9886 32.4659 73.9886 32.8864ZM81.7443 38V29.2727H83.8011V38H81.7443ZM82.7784 28.0341C82.4527 28.0341 82.1723 27.9261 81.9375 27.7102C81.7027 27.4905 81.5852 27.2273 81.5852 26.9205C81.5852 26.6098 81.7027 26.3466 81.9375 26.1307C82.1723 25.911 82.4527 25.8011 82.7784 25.8011C83.108 25.8011 83.3883 25.911 83.6193 26.1307C83.8542 26.3466 83.9716 26.6098 83.9716 26.9205C83.9716 27.2273 83.8542 27.4905 83.6193 27.7102C83.3883 27.9261 83.108 28.0341 82.7784 28.0341ZM92.8139 31.5795L90.9389 31.7841C90.8859 31.5947 90.7931 31.4167 90.6605 31.25C90.5317 31.0833 90.3575 30.9489 90.1378 30.8466C89.9181 30.7443 89.6491 30.6932 89.331 30.6932C88.9029 30.6932 88.5431 30.786 88.2514 30.9716C87.9635 31.1572 87.8215 31.3977 87.8253 31.6932C87.8215 31.947 87.9143 32.1534 88.1037 32.3125C88.2969 32.4716 88.6151 32.6023 89.0582 32.7045L90.5469 33.0227C91.3726 33.2008 91.9863 33.483 92.3878 33.8693C92.7931 34.2557 92.9976 34.7614 93.0014 35.3864C92.9976 35.9356 92.8366 36.4205 92.5185 36.8409C92.2041 37.2576 91.7666 37.5833 91.206 37.8182C90.6454 38.053 90.0014 38.1705 89.2741 38.1705C88.206 38.1705 87.3461 37.947 86.6946 37.5C86.0431 37.0492 85.6548 36.4223 85.5298 35.6193L87.5355 35.4261C87.6264 35.8201 87.8196 36.1174 88.1151 36.3182C88.4105 36.5189 88.795 36.6193 89.2685 36.6193C89.7571 36.6193 90.1491 36.5189 90.4446 36.3182C90.7438 36.1174 90.8935 35.8693 90.8935 35.5739C90.8935 35.3239 90.7969 35.1174 90.6037 34.9545C90.4143 34.7917 90.1188 34.6667 89.7173 34.5795L88.2287 34.267C87.3916 34.0928 86.7723 33.7992 86.3707 33.3864C85.9692 32.9697 85.7704 32.4432 85.7741 31.8068C85.7704 31.2689 85.9162 30.803 86.2116 30.4091C86.5109 30.0114 86.9257 29.7045 87.456 29.4886C87.9901 29.2689 88.6056 29.1591 89.3026 29.1591C90.3253 29.1591 91.1302 29.3769 91.7173 29.8125C92.3082 30.2481 92.6738 30.8371 92.8139 31.5795ZM99.0554 29.2727V30.8636H94.0384V29.2727H99.0554ZM95.277 27.1818H97.3338V35.375C97.3338 35.6515 97.3755 35.8636 97.4588 36.0114C97.5459 36.1553 97.6596 36.2538 97.7997 36.3068C97.9399 36.3598 98.0952 36.3864 98.2656 36.3864C98.3944 36.3864 98.5118 36.3769 98.6179 36.358C98.7277 36.339 98.8111 36.322 98.8679 36.3068L99.2145 37.9148C99.1046 37.9527 98.9474 37.9943 98.7429 38.0398C98.5421 38.0852 98.2959 38.1117 98.0043 38.1193C97.4891 38.1345 97.0251 38.0568 96.6122 37.8864C96.1993 37.7121 95.8717 37.4432 95.6293 37.0795C95.3906 36.7159 95.2732 36.2614 95.277 35.7159V27.1818ZM104.489 38.1705C103.636 38.1705 102.898 37.983 102.273 37.608C101.648 37.233 101.163 36.7083 100.818 36.0341C100.477 35.3598 100.307 34.572 100.307 33.6705C100.307 32.7689 100.477 31.9792 100.818 31.3011C101.163 30.6231 101.648 30.0966 102.273 29.7216C102.898 29.3466 103.636 29.1591 104.489 29.1591C105.341 29.1591 106.08 29.3466 106.705 29.7216C107.33 30.0966 107.813 30.6231 108.153 31.3011C108.498 31.9792 108.67 32.7689 108.67 33.6705C108.67 34.572 108.498 35.3598 108.153 36.0341C107.813 36.7083 107.33 37.233 106.705 37.608C106.08 37.983 105.341 38.1705 104.489 38.1705ZM104.5 36.5227C104.962 36.5227 105.348 36.3958 105.659 36.142C105.97 35.8845 106.201 35.5398 106.352 35.108C106.508 34.6761 106.585 34.1951 106.585 33.6648C106.585 33.1307 106.508 32.6477 106.352 32.2159C106.201 31.7803 105.97 31.4337 105.659 31.1761C105.348 30.9186 104.962 30.7898 104.5 30.7898C104.027 30.7898 103.633 30.9186 103.318 31.1761C103.008 31.4337 102.775 31.7803 102.619 32.2159C102.468 32.6477 102.392 33.1307 102.392 33.6648C102.392 34.1951 102.468 34.6761 102.619 35.108C102.775 35.5398 103.008 35.8845 103.318 36.142C103.633 36.3958 104.027 36.5227 104.5 36.5227ZM110.416 38V29.2727H112.411V30.7273H112.501C112.661 30.2235 112.933 29.8352 113.32 29.5625C113.71 29.286 114.155 29.1477 114.655 29.1477C114.768 29.1477 114.895 29.1534 115.036 29.1648C115.179 29.1723 115.299 29.1856 115.393 29.2045V31.0966C115.306 31.0663 115.168 31.0398 114.979 31.017C114.793 30.9905 114.613 30.9773 114.439 30.9773C114.064 30.9773 113.727 31.0587 113.428 31.2216C113.132 31.3807 112.899 31.6023 112.729 31.8864C112.558 32.1705 112.473 32.4981 112.473 32.8693V38H110.416ZM118.304 41.2727C118.024 41.2727 117.764 41.25 117.526 41.2045C117.291 41.1629 117.103 41.1136 116.963 41.0568L117.44 39.4545C117.74 39.5417 118.007 39.5833 118.241 39.5795C118.476 39.5758 118.683 39.5019 118.861 39.358C119.043 39.2178 119.196 38.983 119.321 38.6534L119.497 38.1818L116.332 29.2727H118.514L120.526 35.8636H120.616L122.634 29.2727H124.821L121.327 39.0568C121.164 39.5189 120.948 39.9148 120.679 40.2443C120.41 40.5777 120.08 40.8314 119.69 41.0057C119.304 41.1837 118.842 41.2727 118.304 41.2727Z" fill="#C8C8C8"/>
</svg>
