<svg width="1280" height="832" viewBox="0 0 1280 832" fill="none" xmlns="http://www.w3.org/2000/svg">
<rect width="1280" height="832" fill="#282828"/>
<circle cx="140" cy="116" r="2" fill="#7B7B7B"/>
<circle cx="140" cy="216" r="2" fill="#7B7B7B"/>
<circle cx="140" cy="316" r="2" fill="#7B7B7B"/>
<circle cx="140" cy="416" r="2" fill="#7B7B7B"/>
<circle cx="140" cy="516" r="2" fill="#7B7B7B"/>
<circle cx="140" cy="616" r="2" fill="#7B7B7B"/>
<circle cx="140" cy="716" r="2" fill="#7B7B7B"/>
<circle cx="240" cy="116" r="2" fill="#7B7B7B"/>
<circle cx="240" cy="216" r="2" fill="#7B7B7B"/>
<circle cx="240" cy="316" r="2" fill="#7B7B7B"/>
<circle cx="240" cy="416" r="2" fill="#7B7B7B"/>
<circle cx="240" cy="516" r="2" fill="#7B7B7B"/>
<circle cx="240" cy="616" r="2" fill="#7B7B7B"/>
<circle cx="240" cy="716" r="2" fill="#7B7B7B"/>
<circle cx="340" cy="116" r="2" fill="#7B7B7B"/>
<circle cx="340" cy="216" r="2" fill="#7B7B7B"/>
<circle cx="340" cy="316" r="2" fill="#7B7B7B"/>
<circle cx="340" cy="416" r="2" fill="#7B7B7B"/>
<circle cx="340" cy="516" r="2" fill="#7B7B7B"/>
<circle cx="340" cy="616" r="2" fill="#7B7B7B"/>
<circle cx="340" cy="716" r="2" fill="#7B7B7B"/>
<circle cx="440" cy="116" r="2" fill="#7B7B7B"/>
<circle cx="440" cy="216" r="2" fill="#7B7B7B"/>
<circle cx="440" cy="316" r="2" fill="#7B7B7B"/>
<circle cx="440" cy="416" r="2" fill="#7B7B7B"/>
<circle cx="440" cy="516" r="2" fill="#7B7B7B"/>
<circle cx="440" cy="616" r="2" fill="#7B7B7B"/>
<circle cx="440" cy="716" r="2" fill="#7B7B7B"/>
<circle cx="540" cy="116" r="2" fill="#7B7B7B"/>
<circle cx="540" cy="216" r="2" fill="#7B7B7B"/>
<circle cx="540" cy="316" r="2" fill="#7B7B7B"/>
<circle cx="540" cy="416" r="2" fill="#7B7B7B"/>
<circle cx="540" cy="516" r="2" fill="#7B7B7B"/>
<circle cx="540" cy="616" r="2" fill="#7B7B7B"/>
<circle cx="540" cy="716" r="2" fill="#7B7B7B"/>
<circle cx="640" cy="116" r="2" fill="#7B7B7B"/>
<circle cx="640" cy="216" r="2" fill="#7B7B7B"/>
<circle cx="640" cy="316" r="2" fill="#7B7B7B"/>
<circle cx="640" cy="416" r="2" fill="#7B7B7B"/>
<circle cx="640" cy="516" r="2" fill="#7B7B7B"/>
<circle cx="640" cy="616" r="2" fill="#7B7B7B"/>
<circle cx="640" cy="716" r="2" fill="#7B7B7B"/>
<circle cx="740" cy="116" r="2" fill="#7B7B7B"/>
<circle cx="740" cy="216" r="2" fill="#7B7B7B"/>
<circle cx="740" cy="316" r="2" fill="#7B7B7B"/>
<circle cx="740" cy="416" r="2" fill="#7B7B7B"/>
<circle cx="740" cy="516" r="2" fill="#7B7B7B"/>
<circle cx="740" cy="616" r="2" fill="#7B7B7B"/>
<circle cx="740" cy="716" r="2" fill="#7B7B7B"/>
<circle cx="840" cy="116" r="2" fill="#7B7B7B"/>
<circle cx="840" cy="216" r="2" fill="#7B7B7B"/>
<circle cx="840" cy="316" r="2" fill="#7B7B7B"/>
<circle cx="840" cy="416" r="2" fill="#7B7B7B"/>
<circle cx="840" cy="516" r="2" fill="#7B7B7B"/>
<circle cx="840" cy="616" r="2" fill="#7B7B7B"/>
<circle cx="840" cy="716" r="2" fill="#7B7B7B"/>
<circle cx="940" cy="116" r="2" fill="#7B7B7B"/>
<circle cx="940" cy="216" r="2" fill="#7B7B7B"/>
<circle cx="940" cy="316" r="2" fill="#7B7B7B"/>
<circle cx="940" cy="416" r="2" fill="#7B7B7B"/>
<circle cx="940" cy="516" r="2" fill="#7B7B7B"/>
<circle cx="940" cy="616" r="2" fill="#7B7B7B"/>
<circle cx="940" cy="716" r="2" fill="#7B7B7B"/>
<circle cx="1040" cy="116" r="2" fill="#7B7B7B"/>
<circle cx="1040" cy="216" r="2" fill="#7B7B7B"/>
<circle cx="1040" cy="316" r="2" fill="#7B7B7B"/>
<circle cx="1040" cy="416" r="2" fill="#7B7B7B"/>
<circle cx="1040" cy="516" r="2" fill="#7B7B7B"/>
<circle cx="1040" cy="616" r="2" fill="#7B7B7B"/>
<circle cx="1040" cy="716" r="2" fill="#7B7B7B"/>
<circle cx="1140" cy="116" r="2" fill="#7B7B7B"/>
<circle cx="1140" cy="216" r="2" fill="#7B7B7B"/>
<circle cx="1140" cy="316" r="2" fill="#7B7B7B"/>
<circle cx="1140" cy="416" r="2" fill="#7B7B7B"/>
<circle cx="1140" cy="516" r="2" fill="#7B7B7B"/>
<circle cx="1140" cy="616" r="2" fill="#7B7B7B"/>
<circle cx="1140" cy="716" r="2" fill="#7B7B7B"/>
<path d="M507.835 433V398.091H520.278C522.983 398.091 525.227 398.557 527.011 399.489C528.807 400.42 530.148 401.71 531.034 403.358C531.92 404.994 532.364 406.886 532.364 409.034C532.364 411.17 531.915 413.051 531.017 414.676C530.131 416.29 528.79 417.545 526.994 418.443C525.21 419.341 522.966 419.79 520.261 419.79H510.835V415.256H519.784C521.489 415.256 522.875 415.011 523.943 414.523C525.023 414.034 525.812 413.324 526.312 412.392C526.812 411.46 527.062 410.341 527.062 409.034C527.062 407.716 526.807 406.574 526.295 405.608C525.795 404.642 525.006 403.903 523.926 403.392C522.858 402.869 521.455 402.608 519.716 402.608H513.102V433H507.835ZM525.068 417.25L533.693 433H527.693L519.239 417.25H525.068ZM549.32 433.528C546.74 433.528 544.518 432.977 542.655 431.875C540.803 430.761 539.371 429.199 538.359 427.188C537.359 425.165 536.859 422.795 536.859 420.08C536.859 417.398 537.359 415.034 538.359 412.989C539.371 410.943 540.78 409.347 542.587 408.199C544.405 407.051 546.53 406.477 548.962 406.477C550.439 406.477 551.871 406.722 553.257 407.21C554.643 407.699 555.888 408.466 556.99 409.511C558.092 410.557 558.962 411.915 559.598 413.585C560.234 415.244 560.553 417.261 560.553 419.636V421.443H539.74V417.625H555.558C555.558 416.284 555.286 415.097 554.74 414.062C554.195 413.017 553.428 412.193 552.439 411.591C551.462 410.989 550.314 410.688 548.996 410.688C547.564 410.688 546.314 411.04 545.246 411.744C544.189 412.437 543.371 413.347 542.791 414.472C542.223 415.585 541.939 416.795 541.939 418.102V421.085C541.939 422.835 542.246 424.324 542.859 425.551C543.484 426.778 544.354 427.716 545.467 428.364C546.581 429 547.882 429.318 549.371 429.318C550.337 429.318 551.217 429.182 552.013 428.909C552.808 428.625 553.496 428.205 554.075 427.648C554.655 427.091 555.098 426.403 555.405 425.585L560.229 426.455C559.842 427.875 559.149 429.119 558.149 430.188C557.161 431.244 555.916 432.068 554.416 432.659C552.928 433.239 551.229 433.528 549.32 433.528ZM585.827 413.21L581.207 414.028C581.014 413.437 580.707 412.875 580.287 412.341C579.878 411.807 579.321 411.369 578.616 411.028C577.912 410.687 577.031 410.517 575.974 410.517C574.531 410.517 573.327 410.841 572.361 411.489C571.395 412.125 570.912 412.949 570.912 413.96C570.912 414.835 571.236 415.54 571.884 416.074C572.531 416.608 573.577 417.045 575.02 417.386L579.179 418.341C581.588 418.898 583.384 419.756 584.565 420.915C585.747 422.074 586.338 423.58 586.338 425.432C586.338 427 585.884 428.398 584.974 429.625C584.077 430.841 582.821 431.795 581.207 432.489C579.605 433.182 577.747 433.528 575.634 433.528C572.702 433.528 570.31 432.903 568.457 431.653C566.605 430.392 565.469 428.602 565.048 426.284L569.974 425.534C570.281 426.818 570.912 427.79 571.866 428.449C572.821 429.097 574.065 429.42 575.599 429.42C577.27 429.42 578.605 429.074 579.605 428.381C580.605 427.676 581.105 426.818 581.105 425.807C581.105 424.989 580.798 424.301 580.185 423.744C579.582 423.187 578.656 422.767 577.406 422.483L572.974 421.511C570.531 420.955 568.724 420.068 567.554 418.852C566.395 417.636 565.815 416.097 565.815 414.233C565.815 412.687 566.247 411.335 567.111 410.176C567.974 409.017 569.168 408.114 570.69 407.466C572.213 406.807 573.957 406.477 575.923 406.477C578.753 406.477 580.98 407.091 582.605 408.318C584.23 409.534 585.304 411.165 585.827 413.21ZM603.226 433.528C600.646 433.528 598.425 432.977 596.561 431.875C594.709 430.761 593.277 429.199 592.266 427.188C591.266 425.165 590.766 422.795 590.766 420.08C590.766 417.398 591.266 415.034 592.266 412.989C593.277 410.943 594.686 409.347 596.493 408.199C598.311 407.051 600.436 406.477 602.868 406.477C604.345 406.477 605.777 406.722 607.163 407.21C608.55 407.699 609.794 408.466 610.896 409.511C611.999 410.557 612.868 411.915 613.504 413.585C614.141 415.244 614.459 417.261 614.459 419.636V421.443H593.646V417.625H609.464C609.464 416.284 609.192 415.097 608.646 414.062C608.101 413.017 607.334 412.193 606.345 411.591C605.368 410.989 604.22 410.688 602.902 410.688C601.47 410.688 600.22 411.04 599.152 411.744C598.095 412.437 597.277 413.347 596.697 414.472C596.129 415.585 595.845 416.795 595.845 418.102V421.085C595.845 422.835 596.152 424.324 596.766 425.551C597.391 426.778 598.26 427.716 599.374 428.364C600.487 429 601.788 429.318 603.277 429.318C604.243 429.318 605.124 429.182 605.919 428.909C606.714 428.625 607.402 428.205 607.982 427.648C608.561 427.091 609.004 426.403 609.311 425.585L614.135 426.455C613.749 427.875 613.055 429.119 612.055 430.188C611.067 431.244 609.822 432.068 608.322 432.659C606.834 433.239 605.135 433.528 603.226 433.528ZM627.733 433.58C626.074 433.58 624.574 433.273 623.233 432.659C621.892 432.034 620.83 431.131 620.045 429.949C619.273 428.767 618.886 427.318 618.886 425.602C618.886 424.125 619.17 422.909 619.739 421.955C620.307 421 621.074 420.244 622.04 419.688C623.006 419.131 624.085 418.71 625.278 418.426C626.472 418.142 627.688 417.926 628.926 417.778C630.494 417.597 631.767 417.449 632.744 417.335C633.722 417.21 634.432 417.011 634.875 416.739C635.318 416.466 635.54 416.023 635.54 415.409V415.29C635.54 413.801 635.119 412.648 634.278 411.83C633.449 411.011 632.21 410.602 630.562 410.602C628.847 410.602 627.494 410.983 626.506 411.744C625.528 412.494 624.852 413.33 624.477 414.25L619.688 413.159C620.256 411.568 621.085 410.284 622.176 409.307C623.278 408.318 624.545 407.602 625.977 407.159C627.409 406.705 628.915 406.477 630.494 406.477C631.54 406.477 632.648 406.602 633.818 406.852C635 407.091 636.102 407.534 637.125 408.182C638.159 408.83 639.006 409.756 639.665 410.96C640.324 412.153 640.653 413.705 640.653 415.614V433H635.676V429.42H635.472C635.142 430.08 634.648 430.727 633.989 431.364C633.33 432 632.483 432.528 631.449 432.949C630.415 433.369 629.176 433.58 627.733 433.58ZM628.841 429.489C630.25 429.489 631.455 429.21 632.455 428.653C633.466 428.097 634.233 427.369 634.756 426.472C635.29 425.562 635.557 424.591 635.557 423.557V420.182C635.375 420.364 635.023 420.534 634.5 420.693C633.989 420.841 633.403 420.972 632.744 421.085C632.085 421.187 631.443 421.284 630.818 421.375C630.193 421.455 629.67 421.523 629.25 421.58C628.261 421.705 627.358 421.915 626.54 422.21C625.733 422.506 625.085 422.932 624.597 423.489C624.119 424.034 623.881 424.761 623.881 425.67C623.881 426.932 624.347 427.886 625.278 428.534C626.21 429.17 627.398 429.489 628.841 429.489ZM647.442 433V406.818H652.368V410.977H652.641C653.118 409.568 653.959 408.46 655.163 407.653C656.379 406.835 657.754 406.426 659.288 406.426C659.607 406.426 659.982 406.437 660.413 406.46C660.857 406.483 661.203 406.511 661.453 406.545V411.42C661.249 411.364 660.885 411.301 660.362 411.233C659.839 411.153 659.317 411.114 658.794 411.114C657.589 411.114 656.516 411.369 655.572 411.881C654.641 412.381 653.902 413.08 653.357 413.977C652.811 414.864 652.538 415.875 652.538 417.011V433H647.442ZM675.955 433.528C673.42 433.528 671.239 432.955 669.409 431.807C667.591 430.648 666.193 429.051 665.216 427.017C664.239 424.983 663.75 422.653 663.75 420.028C663.75 417.369 664.25 415.023 665.25 412.989C666.25 410.943 667.659 409.347 669.477 408.199C671.295 407.051 673.438 406.477 675.903 406.477C677.892 406.477 679.665 406.847 681.222 407.585C682.778 408.312 684.034 409.335 684.989 410.653C685.955 411.972 686.528 413.511 686.71 415.273H681.75C681.477 414.045 680.852 412.989 679.875 412.102C678.909 411.216 677.614 410.773 675.989 410.773C674.568 410.773 673.324 411.148 672.256 411.898C671.199 412.636 670.375 413.693 669.784 415.068C669.193 416.432 668.898 418.045 668.898 419.909C668.898 421.818 669.188 423.466 669.767 424.852C670.347 426.239 671.165 427.312 672.222 428.074C673.29 428.835 674.545 429.216 675.989 429.216C676.955 429.216 677.83 429.04 678.614 428.688C679.409 428.324 680.074 427.807 680.608 427.136C681.153 426.466 681.534 425.659 681.75 424.716H686.71C686.528 426.409 685.977 427.92 685.057 429.25C684.136 430.58 682.903 431.625 681.358 432.386C679.824 433.148 678.023 433.528 675.955 433.528ZM697.257 417.455V433H692.161V398.091H697.189V411.08H697.513C698.126 409.67 699.064 408.551 700.325 407.722C701.587 406.892 703.234 406.477 705.268 406.477C707.064 406.477 708.632 406.847 709.973 407.585C711.325 408.324 712.371 409.426 713.109 410.892C713.859 412.347 714.234 414.165 714.234 416.347V433H709.138V416.96C709.138 415.04 708.643 413.551 707.655 412.494C706.666 411.426 705.291 410.892 703.53 410.892C702.325 410.892 701.246 411.148 700.291 411.659C699.348 412.17 698.604 412.92 698.058 413.909C697.524 414.886 697.257 416.068 697.257 417.455ZM737.097 433H731.506L744.068 398.091H750.153L762.716 433H757.125L747.256 404.432H746.983L737.097 433ZM738.034 419.33H756.17V423.761H738.034V419.33ZM773.024 398.091V433H767.757V398.091H773.024Z" fill="#C8C8C8"/>
<rect width="1276" height="116" transform="translate(4 714)" fill="#C8C8C8"/>
<path d="M69.598 781V766.455H71.7926V779.111H78.3835V781H69.598ZM85.4183 781.22C84.3435 781.22 83.4179 780.991 82.6413 780.531C81.8696 780.067 81.273 779.416 80.8516 778.578C80.4349 777.735 80.2266 776.748 80.2266 775.616C80.2266 774.499 80.4349 773.514 80.8516 772.662C81.273 771.81 81.8601 771.144 82.6129 770.666C83.3705 770.188 84.2559 769.949 85.2692 769.949C85.8847 769.949 86.4813 770.051 87.0589 770.254C87.6366 770.458 88.1551 770.777 88.6143 771.213C89.0736 771.649 89.4358 772.214 89.701 772.911C89.9661 773.602 90.0987 774.442 90.0987 775.432V776.185H81.4268V774.594H88.0178C88.0178 774.035 87.9041 773.54 87.6768 773.109C87.4496 772.674 87.13 772.33 86.718 772.08C86.3108 771.829 85.8326 771.703 85.2834 771.703C84.6868 771.703 84.166 771.85 83.7209 772.143C83.2805 772.432 82.9396 772.811 82.6982 773.28C82.4614 773.744 82.343 774.248 82.343 774.793V776.036C82.343 776.765 82.4709 777.385 82.7266 777.896C82.987 778.408 83.3492 778.798 83.8132 779.068C84.2772 779.333 84.8194 779.466 85.4396 779.466C85.8421 779.466 86.209 779.409 86.5405 779.295C86.8719 779.177 87.1584 779.002 87.3999 778.77C87.6413 778.538 87.826 778.251 87.9538 777.911L89.9638 778.273C89.8028 778.865 89.514 779.383 89.0973 779.828C88.6854 780.268 88.1669 780.612 87.5419 780.858C86.9216 781.099 86.2138 781.22 85.4183 781.22ZM97.5472 770.091V771.795H91.5884V770.091H97.5472ZM93.1864 767.477H95.31V777.797C95.31 778.209 95.3716 778.519 95.4947 778.727C95.6178 778.931 95.7764 779.071 95.9705 779.146C96.1694 779.217 96.3848 779.253 96.6168 779.253C96.7873 779.253 96.9364 779.241 97.0643 779.217C97.1921 779.194 97.2915 779.175 97.3626 779.161L97.7461 780.915C97.623 780.962 97.4478 781.009 97.2205 781.057C96.9933 781.109 96.7092 781.137 96.3683 781.142C95.8095 781.152 95.2887 781.052 94.8058 780.844C94.3228 780.635 93.9322 780.313 93.6339 779.878C93.3356 779.442 93.1864 778.895 93.1864 778.237V767.477ZM102.268 766.455V767.818C102.268 768.221 102.193 768.644 102.041 769.089C101.894 769.53 101.686 769.954 101.416 770.361C101.146 770.768 100.829 771.118 100.464 771.412L99.4134 770.659C99.6927 770.252 99.9342 769.819 100.138 769.359C100.346 768.9 100.45 768.393 100.45 767.839V766.455H102.268ZM111.118 772.754L109.193 773.095C109.113 772.849 108.985 772.615 108.81 772.392C108.639 772.17 108.407 771.987 108.114 771.845C107.82 771.703 107.453 771.632 107.013 771.632C106.411 771.632 105.91 771.767 105.507 772.037C105.105 772.302 104.903 772.645 104.903 773.067C104.903 773.431 105.038 773.725 105.308 773.947C105.578 774.17 106.014 774.352 106.615 774.494L108.348 774.892C109.352 775.124 110.1 775.482 110.592 775.964C111.085 776.447 111.331 777.075 111.331 777.847C111.331 778.5 111.142 779.082 110.763 779.594C110.389 780.1 109.866 780.498 109.193 780.787C108.526 781.076 107.751 781.22 106.871 781.22C105.649 781.22 104.652 780.96 103.881 780.439C103.109 779.913 102.635 779.168 102.46 778.202L104.513 777.889C104.641 778.424 104.903 778.829 105.301 779.104C105.699 779.374 106.217 779.509 106.857 779.509C107.553 779.509 108.109 779.364 108.526 779.075C108.942 778.782 109.151 778.424 109.151 778.003C109.151 777.662 109.023 777.375 108.767 777.143C108.516 776.911 108.13 776.736 107.609 776.618L105.763 776.213C104.745 775.981 103.992 775.612 103.504 775.105C103.021 774.598 102.78 773.957 102.78 773.18C102.78 772.536 102.96 771.973 103.32 771.49C103.679 771.007 104.177 770.631 104.811 770.361C105.446 770.086 106.172 769.949 106.991 769.949C108.17 769.949 109.098 770.205 109.776 770.716C110.453 771.223 110.9 771.902 111.118 772.754ZM118.959 781V770.091H121.011V771.824H121.125C121.324 771.237 121.674 770.775 122.176 770.439C122.683 770.098 123.256 769.928 123.895 769.928C124.027 769.928 124.184 769.932 124.364 769.942C124.548 769.951 124.693 769.963 124.797 769.977V772.009C124.712 771.985 124.56 771.959 124.342 771.93C124.125 771.897 123.907 771.881 123.689 771.881C123.187 771.881 122.74 771.987 122.347 772.2C121.958 772.409 121.651 772.7 121.423 773.074C121.196 773.443 121.082 773.865 121.082 774.338V781H118.959ZM130.946 781.22C129.871 781.22 128.945 780.991 128.169 780.531C127.397 780.067 126.8 779.416 126.379 778.578C125.962 777.735 125.754 776.748 125.754 775.616C125.754 774.499 125.962 773.514 126.379 772.662C126.8 771.81 127.387 771.144 128.14 770.666C128.898 770.188 129.783 769.949 130.797 769.949C131.412 769.949 132.009 770.051 132.586 770.254C133.164 770.458 133.682 770.777 134.142 771.213C134.601 771.649 134.963 772.214 135.228 772.911C135.493 773.602 135.626 774.442 135.626 775.432V776.185H126.954V774.594H133.545C133.545 774.035 133.431 773.54 133.204 773.109C132.977 772.674 132.657 772.33 132.245 772.08C131.838 771.829 131.36 771.703 130.811 771.703C130.214 771.703 129.693 771.85 129.248 772.143C128.808 772.432 128.467 772.811 128.225 773.28C127.989 773.744 127.87 774.248 127.87 774.793V776.036C127.87 776.765 127.998 777.385 128.254 777.896C128.514 778.408 128.877 778.798 129.341 779.068C129.805 779.333 130.347 779.466 130.967 779.466C131.369 779.466 131.736 779.409 132.068 779.295C132.399 779.177 132.686 779.002 132.927 778.77C133.169 778.538 133.353 778.251 133.481 777.911L135.491 778.273C135.33 778.865 135.041 779.383 134.625 779.828C134.213 780.268 133.694 780.612 133.069 780.858C132.449 781.099 131.741 781.22 130.946 781.22ZM146.157 772.754L144.232 773.095C144.152 772.849 144.024 772.615 143.849 772.392C143.678 772.17 143.446 771.987 143.153 771.845C142.859 771.703 142.492 771.632 142.052 771.632C141.451 771.632 140.949 771.767 140.546 772.037C140.144 772.302 139.942 772.645 139.942 773.067C139.942 773.431 140.077 773.725 140.347 773.947C140.617 774.17 141.053 774.352 141.654 774.494L143.387 774.892C144.391 775.124 145.139 775.482 145.631 775.964C146.124 776.447 146.37 777.075 146.37 777.847C146.37 778.5 146.181 779.082 145.802 779.594C145.428 780.1 144.905 780.498 144.232 780.787C143.565 781.076 142.79 781.22 141.91 781.22C140.688 781.22 139.692 780.96 138.92 780.439C138.148 779.913 137.674 779.168 137.499 778.202L139.552 777.889C139.68 778.424 139.942 778.829 140.34 779.104C140.738 779.374 141.256 779.509 141.896 779.509C142.592 779.509 143.148 779.364 143.565 779.075C143.981 778.782 144.19 778.424 144.19 778.003C144.19 777.662 144.062 777.375 143.806 777.143C143.555 776.911 143.169 776.736 142.648 776.618L140.802 776.213C139.784 775.981 139.031 775.612 138.543 775.105C138.06 774.598 137.819 773.957 137.819 773.18C137.819 772.536 137.999 771.973 138.359 771.49C138.719 771.007 139.216 770.631 139.85 770.361C140.485 770.086 141.211 769.949 142.031 769.949C143.21 769.949 144.138 770.205 144.815 770.716C145.492 771.223 145.939 771.902 146.157 772.754ZM153.407 781.22C152.332 781.22 151.406 780.991 150.63 780.531C149.858 780.067 149.261 779.416 148.84 778.578C148.423 777.735 148.215 776.748 148.215 775.616C148.215 774.499 148.423 773.514 148.84 772.662C149.261 771.81 149.848 771.144 150.601 770.666C151.359 770.188 152.244 769.949 153.257 769.949C153.873 769.949 154.47 770.051 155.047 770.254C155.625 770.458 156.143 770.777 156.603 771.213C157.062 771.649 157.424 772.214 157.689 772.911C157.954 773.602 158.087 774.442 158.087 775.432V776.185H149.415V774.594H156.006C156.006 774.035 155.892 773.54 155.665 773.109C155.438 772.674 155.118 772.33 154.706 772.08C154.299 771.829 153.821 771.703 153.272 771.703C152.675 771.703 152.154 771.85 151.709 772.143C151.269 772.432 150.928 772.811 150.686 773.28C150.45 773.744 150.331 774.248 150.331 774.793V776.036C150.331 776.765 150.459 777.385 150.715 777.896C150.975 778.408 151.337 778.798 151.801 779.068C152.266 779.333 152.808 779.466 153.428 779.466C153.83 779.466 154.197 779.409 154.529 779.295C154.86 779.177 155.147 779.002 155.388 778.77C155.63 778.538 155.814 778.251 155.942 777.911L157.952 778.273C157.791 778.865 157.502 779.383 157.086 779.828C156.674 780.268 156.155 780.612 155.53 780.858C154.91 781.099 154.202 781.22 153.407 781.22ZM163.618 781.241C162.927 781.241 162.302 781.114 161.743 780.858C161.184 780.598 160.741 780.221 160.415 779.729C160.093 779.236 159.932 778.633 159.932 777.918C159.932 777.302 160.05 776.795 160.287 776.398C160.524 776 160.843 775.685 161.246 775.453C161.648 775.221 162.098 775.046 162.595 774.928C163.092 774.809 163.599 774.719 164.115 774.658C164.768 774.582 165.299 774.52 165.706 774.473C166.113 774.421 166.409 774.338 166.594 774.224C166.778 774.111 166.871 773.926 166.871 773.67V773.621C166.871 773 166.696 772.52 166.345 772.179C166 771.838 165.483 771.668 164.797 771.668C164.082 771.668 163.518 771.826 163.107 772.143C162.699 772.456 162.418 772.804 162.261 773.188L160.266 772.733C160.502 772.07 160.848 771.535 161.303 771.128C161.762 770.716 162.29 770.418 162.886 770.233C163.483 770.044 164.11 769.949 164.768 769.949C165.204 769.949 165.666 770.001 166.153 770.105C166.646 770.205 167.105 770.389 167.531 770.659C167.962 770.929 168.315 771.315 168.589 771.817C168.864 772.314 169.001 772.96 169.001 773.756V781H166.928V779.509H166.842C166.705 779.783 166.499 780.053 166.224 780.318C165.95 780.583 165.597 780.804 165.166 780.979C164.735 781.154 164.219 781.241 163.618 781.241ZM164.08 779.537C164.667 779.537 165.169 779.421 165.585 779.189C166.007 778.957 166.326 778.654 166.544 778.28C166.767 777.901 166.878 777.496 166.878 777.065V775.659C166.802 775.735 166.655 775.806 166.438 775.872C166.224 775.934 165.981 775.988 165.706 776.036C165.431 776.078 165.164 776.118 164.903 776.156C164.643 776.189 164.425 776.218 164.25 776.241C163.838 776.294 163.462 776.381 163.121 776.504C162.785 776.627 162.515 776.805 162.311 777.037C162.112 777.264 162.013 777.567 162.013 777.946C162.013 778.472 162.207 778.869 162.595 779.139C162.983 779.404 163.478 779.537 164.08 779.537ZM171.83 781V770.091H173.882V771.824H173.996C174.195 771.237 174.545 770.775 175.047 770.439C175.554 770.098 176.127 769.928 176.766 769.928C176.899 769.928 177.055 769.932 177.235 769.942C177.419 769.951 177.564 769.963 177.668 769.977V772.009C177.583 771.985 177.431 771.959 177.213 771.93C176.996 771.897 176.778 771.881 176.56 771.881C176.058 771.881 175.611 771.987 175.218 772.2C174.829 772.409 174.522 772.7 174.294 773.074C174.067 773.443 173.953 773.865 173.953 774.338V781H171.83ZM183.71 781.22C182.654 781.22 181.745 780.981 180.983 780.503C180.225 780.02 179.643 779.355 179.236 778.507C178.829 777.66 178.625 776.689 178.625 775.595C178.625 774.487 178.833 773.509 179.25 772.662C179.667 771.81 180.254 771.144 181.011 770.666C181.769 770.188 182.661 769.949 183.689 769.949C184.518 769.949 185.256 770.103 185.905 770.411C186.554 770.714 187.077 771.14 187.474 771.689C187.877 772.238 188.116 772.88 188.192 773.614H186.125C186.011 773.102 185.751 772.662 185.344 772.293C184.941 771.923 184.402 771.739 183.724 771.739C183.133 771.739 182.614 771.895 182.169 772.207C181.729 772.515 181.385 772.955 181.139 773.528C180.893 774.097 180.77 774.769 180.77 775.545C180.77 776.341 180.891 777.027 181.132 777.605C181.374 778.183 181.714 778.63 182.155 778.947C182.6 779.265 183.123 779.423 183.724 779.423C184.127 779.423 184.491 779.35 184.818 779.203C185.15 779.052 185.427 778.836 185.649 778.557C185.876 778.277 186.035 777.941 186.125 777.548H188.192C188.116 778.254 187.886 778.884 187.503 779.438C187.119 779.991 186.606 780.427 185.962 780.744C185.322 781.062 184.572 781.22 183.71 781.22ZM192.586 774.523V781H190.463V766.455H192.558V771.866H192.693C192.949 771.279 193.339 770.813 193.865 770.467C194.39 770.122 195.077 769.949 195.924 769.949C196.672 769.949 197.326 770.103 197.885 770.411C198.448 770.718 198.884 771.178 199.191 771.788C199.504 772.394 199.66 773.152 199.66 774.061V781H197.537V774.317C197.537 773.517 197.331 772.896 196.919 772.456C196.507 772.011 195.934 771.788 195.2 771.788C194.698 771.788 194.248 771.895 193.85 772.108C193.458 772.321 193.147 772.634 192.92 773.045C192.698 773.453 192.586 773.945 192.586 774.523ZM203.893 781.135C203.505 781.135 203.171 780.998 202.892 780.723C202.612 780.444 202.473 780.107 202.473 779.714C202.473 779.326 202.612 778.995 202.892 778.72C203.171 778.441 203.505 778.301 203.893 778.301C204.281 778.301 204.615 778.441 204.895 778.72C205.174 778.995 205.314 779.326 205.314 779.714C205.314 779.975 205.247 780.214 205.115 780.432C204.987 780.645 204.816 780.815 204.603 780.943C204.39 781.071 204.154 781.135 203.893 781.135ZM209.557 781.135C209.169 781.135 208.835 780.998 208.556 780.723C208.276 780.444 208.137 780.107 208.137 779.714C208.137 779.326 208.276 778.995 208.556 778.72C208.835 778.441 209.169 778.301 209.557 778.301C209.945 778.301 210.279 778.441 210.559 778.72C210.838 778.995 210.978 779.326 210.978 779.714C210.978 779.975 210.911 780.214 210.779 780.432C210.651 780.645 210.48 780.815 210.267 780.943C210.054 781.071 209.818 781.135 209.557 781.135ZM215.221 781.135C214.833 781.135 214.499 780.998 214.22 780.723C213.94 780.444 213.801 780.107 213.801 779.714C213.801 779.326 213.94 778.995 214.22 778.72C214.499 778.441 214.833 778.301 215.221 778.301C215.609 778.301 215.943 778.441 216.223 778.72C216.502 778.995 216.642 779.326 216.642 779.714C216.642 779.975 216.575 780.214 216.443 780.432C216.315 780.645 216.145 780.815 215.931 780.943C215.718 781.071 215.482 781.135 215.221 781.135Z" fill="black" fill-opacity="0.6"/>
<rect x="1152" y="740" width="64" height="64" fill="#282828"/>
</svg>
