<svg width="346" height="367" viewBox="0 0 346 367" fill="none" xmlns="http://www.w3.org/2000/svg">
<rect x="0.5" y="0.5" width="345" height="366" rx="4.5" stroke="#9747FF" stroke-dasharray="10 5"/>
<path d="M38 49.49C38 48.662 38.672 47.99 39.5 47.99H58.5C59.328 47.99 60 48.662 60 49.49C60 50.318 59.328 50.99 58.5 50.99H39.5C38.672 50.99 38 50.318 38 49.49ZM20 39.49C20 38.662 20.672 37.99 21.5 37.99H58.5C59.328 37.99 60 38.662 60 39.49C60 40.318 59.328 40.99 58.5 40.99H21.5C20.672 40.99 20 40.318 20 39.49ZM28 29.49C28 28.662 28.672 27.99 29.5 27.99H58.5C59.328 27.99 60 28.662 60 29.49C60 30.318 59.328 30.99 58.5 30.99H29.5C28.672 30.99 28 30.318 28 29.49Z" fill="#33312E"/>
<rect x="70.2322" y="20.9348" width="89" height="32" rx="2" transform="rotate(4 70.2322 20.9348)" fill="#E6E6E6"/>
<path d="M87.6463 35.4406C87.6024 35.186 87.5209 34.9596 87.4019 34.7614C87.2832 34.5585 87.1292 34.384 86.9401 34.2378C86.756 34.0873 86.5364 33.9699 86.2813 33.8856C86.0311 33.7969 85.7526 33.7419 85.4456 33.7204C84.7843 33.6742 84.2088 33.7929 83.7191 34.0767C83.2341 34.3608 82.8479 34.7918 82.5607 35.3698C82.2782 35.9481 82.1076 36.6576 82.0488 37.4983C81.9893 38.3485 82.0542 39.084 82.2433 39.7048C82.4325 40.3256 82.7449 40.8126 83.1806 41.1658C83.6163 41.519 84.1743 41.7194 84.8544 41.767C85.4543 41.8089 85.9587 41.7564 86.3677 41.6093C86.7814 41.4627 87.0987 41.2357 87.3195 40.9283C87.5403 40.621 87.6659 40.2501 87.6963 39.8156L88.3715 39.934L85.0558 39.7021L85.252 36.8965L91.6851 37.3463L91.5444 39.3584C91.4519 40.681 91.0918 41.7925 90.464 42.6932C89.8412 43.5894 89.0211 44.2535 88.0037 44.6855C86.9913 45.1131 85.8521 45.2826 84.5863 45.1941C83.174 45.0953 81.9551 44.7087 80.9296 44.0342C79.9041 43.3597 79.1302 42.4465 78.608 41.2946C78.0904 40.143 77.8852 38.802 77.9922 37.2716C78.0761 36.0719 78.3322 35.0219 78.7607 34.1215C79.1938 33.2215 79.7586 32.4755 80.455 31.8834C81.1518 31.2866 81.939 30.8552 82.8167 30.5891C83.6947 30.3182 84.6226 30.217 85.6003 30.2853C86.46 30.3454 87.2496 30.5241 87.9693 30.8212C88.694 31.1139 89.3241 31.5045 89.8595 31.9928C90.4 32.4768 90.8237 33.0357 91.1306 33.6694C91.4375 34.3032 91.6033 34.9864 91.628 35.719L87.6463 35.4406ZM98.2125 46.1469C97.0505 46.0657 96.0647 45.7737 95.255 45.2709C94.4504 44.7637 93.8505 44.0763 93.4556 43.2085C93.0656 42.3364 92.9116 41.3146 92.9936 40.1433C93.0722 39.0191 93.3676 38.0525 93.8798 37.2435C94.392 36.4344 95.0778 35.825 95.9371 35.4152C96.7963 35.0054 97.7881 34.8398 98.9122 34.9184C99.7341 34.9759 100.469 35.1554 101.117 35.457C101.765 35.7587 102.309 36.1692 102.747 36.6888C103.186 37.2036 103.508 37.8147 103.715 38.5221C103.922 39.2296 103.995 40.0155 103.935 40.8799L103.871 41.7867L94.1507 41.107L94.3013 38.9532L100.423 39.3812C100.44 39.0692 100.379 38.7896 100.239 38.5425C100.105 38.2911 99.9126 38.0901 99.6621 37.9397C99.4166 37.7849 99.1309 37.6961 98.805 37.6733C98.4885 37.6512 98.1933 37.6993 97.9192 37.8178C97.6454 37.9316 97.42 38.1009 97.2429 38.3259C97.0705 38.5511 96.9685 38.8217 96.937 39.1375L96.7745 41.4613C96.75 41.8109 96.8014 42.1277 96.9287 42.4119C97.056 42.6961 97.2511 42.9257 97.5142 43.1007C97.7772 43.2758 98.1024 43.3768 98.4897 43.4039C98.7589 43.4227 99.0072 43.4021 99.2345 43.3421C99.4665 43.2824 99.6677 43.1873 99.8382 43.0568C100.009 42.9216 100.139 42.7551 100.229 42.5573L103.8 42.807C103.624 43.5541 103.288 44.1903 102.791 44.7157C102.294 45.2362 101.657 45.6236 100.88 45.8778C100.108 46.1276 99.2185 46.2173 98.2125 46.1469ZM109.489 40.5848L109.061 46.7062L105.15 46.4327L105.911 35.5502L109.624 35.8098L109.479 37.8786L109.592 37.8865C109.877 37.2134 110.33 36.7017 110.953 36.3513C111.58 36.0012 112.293 35.854 113.091 35.9099C113.861 35.9637 114.517 36.1876 115.059 36.5814C115.606 36.9709 116.014 37.4836 116.283 38.1194C116.556 38.7556 116.663 39.4679 116.603 40.2564L116.118 47.1996L112.207 46.9262L112.635 40.8047C112.677 40.2666 112.57 39.8343 112.313 39.5078C112.06 39.1816 111.688 39.0014 111.197 38.967C110.876 38.9446 110.59 38.9958 110.339 39.1206C110.093 39.2411 109.898 39.4267 109.752 39.6776C109.607 39.9237 109.519 40.2261 109.489 40.5848ZM118.048 47.3346L118.809 36.4521L122.607 36.7177L122.462 38.7865L122.576 38.7944C122.827 38.0431 123.181 37.5054 123.635 37.1812C124.095 36.8573 124.615 36.7157 125.196 36.7563C125.366 36.7682 125.532 36.7941 125.696 36.834C125.864 36.8695 126.025 36.9163 126.177 36.9745L125.944 40.3115C125.755 40.2318 125.52 40.1655 125.239 40.1127C124.958 40.0598 124.715 40.0262 124.512 40.012C124.13 39.9853 123.779 40.0485 123.46 40.2018C123.145 40.3507 122.89 40.575 122.694 40.8745C122.497 41.1693 122.385 41.5245 122.356 41.9401L121.959 47.6081L118.048 47.3346ZM131.276 48.459C130.114 48.3777 129.129 48.0857 128.319 47.5829C127.514 47.0758 126.914 46.3883 126.519 45.5206C126.129 44.6484 125.975 43.6267 126.057 42.4553C126.136 41.3311 126.431 40.3646 126.944 39.5555C127.456 38.7465 128.142 38.137 129.001 37.7272C129.86 37.3174 130.852 37.1518 131.976 37.2304C132.798 37.2879 133.533 37.4675 134.181 37.7691C134.829 38.0707 135.372 38.4813 135.811 39.0008C136.249 39.5156 136.572 40.1268 136.779 40.8342C136.986 41.5416 137.059 42.3275 136.999 43.1919L136.935 44.0988L127.215 43.419L127.365 41.2652L133.487 41.6933C133.504 41.3812 133.442 41.1016 133.303 40.8546C133.169 40.6031 132.976 40.4022 132.726 40.2518C132.48 40.0969 132.195 40.0081 131.869 39.9853C131.552 39.9632 131.257 40.0114 130.983 40.1299C130.709 40.2436 130.484 40.413 130.307 40.6379C130.134 40.8632 130.032 41.1337 130.001 41.4495L129.838 43.7734C129.814 44.1229 129.865 44.4398 129.992 44.724C130.12 45.0082 130.315 45.2378 130.578 45.4128C130.841 45.5878 131.166 45.6889 131.554 45.716C131.823 45.7348 132.071 45.7142 132.298 45.6541C132.53 45.5944 132.732 45.4993 132.902 45.3688C133.073 45.2336 133.203 45.0671 133.293 44.8693L136.864 45.119C136.688 45.8662 136.352 46.5024 135.855 47.0277C135.358 47.5483 134.721 47.9357 133.944 48.1898C133.171 48.4396 132.282 48.5293 131.276 48.459ZM148.674 42.1003L145.075 41.8486C145.072 41.6253 145.007 41.4286 144.882 41.2584C144.756 41.0882 144.587 40.953 144.376 40.8528C144.17 40.7482 143.937 40.6868 143.677 40.6687C143.342 40.6452 143.049 40.6865 142.8 40.7924C142.55 40.8984 142.42 41.0649 142.409 41.2919C142.393 41.4522 142.451 41.6058 142.583 41.7527C142.72 41.8999 142.993 42.0258 143.404 42.1304L145.587 42.6818C146.687 42.9628 147.492 43.3632 148.002 43.883C148.516 44.3984 148.748 45.0577 148.696 45.861C148.637 46.6353 148.359 47.2922 147.861 47.8317C147.368 48.3667 146.716 48.7626 145.905 49.0192C145.1 49.2713 144.194 49.3623 143.188 49.2919C141.525 49.1757 140.248 48.7446 139.355 47.9987C138.468 47.2531 138.009 46.3192 137.978 45.1969L141.86 45.4684C141.888 45.8169 142.04 46.0956 142.315 46.3047C142.595 46.5094 142.957 46.6272 143.401 46.6583C143.759 46.6834 144.059 46.6426 144.299 46.536C144.544 46.4297 144.676 46.2634 144.697 46.037C144.707 45.8288 144.614 45.6562 144.42 45.5192C144.23 45.3826 143.925 45.2616 143.506 45.1563L141.602 44.6814C140.506 44.4102 139.7 43.9836 139.186 43.4018C138.671 42.82 138.446 42.1018 138.51 41.2472C138.559 40.4911 138.802 39.865 139.24 39.3688C139.683 38.8682 140.29 38.5071 141.06 38.2857C141.835 38.0599 142.74 37.9831 143.774 38.0554C145.347 38.1654 146.564 38.578 147.425 39.2933C148.292 40.0088 148.708 40.9445 148.674 42.1003Z" fill="#1A1817"/>
<rect x="24" y="144" width="174" height="211" rx="8" fill="#292929" fill-opacity="0.59"/>
<path d="M41.4091 175V163.364H48.3864V164.614H42.8182V168.545H47.8636V169.795H42.8182V175H41.4091ZM50.6179 175V166.273H51.9588V175H50.6179ZM51.2997 164.818C51.0384 164.818 50.813 164.729 50.6236 164.551C50.438 164.373 50.3452 164.159 50.3452 163.909C50.3452 163.659 50.438 163.445 50.6236 163.267C50.813 163.089 51.0384 163 51.2997 163C51.5611 163 51.7846 163.089 51.9702 163.267C52.1596 163.445 52.2543 163.659 52.2543 163.909C52.2543 164.159 52.1596 164.373 51.9702 164.551C51.7846 164.729 51.5611 164.818 51.2997 164.818ZM57.9602 175.182C57.142 175.182 56.4375 174.989 55.8466 174.602C55.2557 174.216 54.8011 173.684 54.483 173.006C54.1648 172.328 54.0057 171.553 54.0057 170.682C54.0057 169.795 54.1686 169.013 54.4943 168.335C54.8239 167.653 55.2822 167.121 55.8693 166.739C56.4602 166.352 57.1496 166.159 57.9375 166.159C58.5511 166.159 59.1042 166.273 59.5966 166.5C60.089 166.727 60.4924 167.045 60.8068 167.455C61.1212 167.864 61.3163 168.341 61.392 168.886H60.0511C59.9489 168.489 59.7216 168.136 59.3693 167.83C59.0208 167.519 58.5511 167.364 57.9602 167.364C57.4375 167.364 56.9792 167.5 56.5852 167.773C56.1951 168.042 55.8902 168.422 55.6705 168.915C55.4545 169.403 55.3466 169.977 55.3466 170.636C55.3466 171.311 55.4527 171.898 55.6648 172.398C55.8807 172.898 56.1837 173.286 56.5739 173.562C56.9678 173.839 57.4299 173.977 57.9602 173.977C58.3087 173.977 58.625 173.917 58.9091 173.795C59.1932 173.674 59.4337 173.5 59.6307 173.273C59.8277 173.045 59.9678 172.773 60.0511 172.455H61.392C61.3163 172.97 61.1288 173.434 60.8295 173.847C60.5341 174.256 60.142 174.581 59.6534 174.824C59.1686 175.062 58.6042 175.182 57.9602 175.182ZM67.1477 166.273V167.409H62.625V166.273H67.1477ZM63.9432 164.182H65.2841V172.5C65.2841 172.879 65.339 173.163 65.4489 173.352C65.5625 173.538 65.7064 173.663 65.8807 173.727C66.0587 173.788 66.2462 173.818 66.4432 173.818C66.5909 173.818 66.7121 173.811 66.8068 173.795C66.9015 173.777 66.9773 173.761 67.0341 173.75L67.3068 174.955C67.2159 174.989 67.089 175.023 66.9261 175.057C66.7633 175.095 66.5568 175.114 66.3068 175.114C65.928 175.114 65.5568 175.032 65.1932 174.869C64.8333 174.706 64.5341 174.458 64.2955 174.125C64.0606 173.792 63.9432 173.371 63.9432 172.864V164.182ZM69.1648 175V166.273H70.5057V175H69.1648ZM69.8466 164.818C69.5852 164.818 69.3598 164.729 69.1705 164.551C68.9848 164.373 68.892 164.159 68.892 163.909C68.892 163.659 68.9848 163.445 69.1705 163.267C69.3598 163.089 69.5852 163 69.8466 163C70.108 163 70.3314 163.089 70.517 163.267C70.7064 163.445 70.8011 163.659 70.8011 163.909C70.8011 164.159 70.7064 164.373 70.517 164.551C70.3314 164.729 70.108 164.818 69.8466 164.818ZM76.5071 175.182C75.7192 175.182 75.0279 174.994 74.4332 174.619C73.8423 174.244 73.3802 173.72 73.0469 173.045C72.7173 172.371 72.5526 171.583 72.5526 170.682C72.5526 169.773 72.7173 168.979 73.0469 168.301C73.3802 167.623 73.8423 167.097 74.4332 166.722C75.0279 166.347 75.7192 166.159 76.5071 166.159C77.295 166.159 77.9844 166.347 78.5753 166.722C79.17 167.097 79.6321 167.623 79.9616 168.301C80.295 168.979 80.4616 169.773 80.4616 170.682C80.4616 171.583 80.295 172.371 79.9616 173.045C79.6321 173.72 79.17 174.244 78.5753 174.619C77.9844 174.994 77.295 175.182 76.5071 175.182ZM76.5071 173.977C77.1056 173.977 77.598 173.824 77.9844 173.517C78.3707 173.21 78.6567 172.807 78.8423 172.307C79.0279 171.807 79.1207 171.265 79.1207 170.682C79.1207 170.098 79.0279 169.555 78.8423 169.051C78.6567 168.547 78.3707 168.14 77.9844 167.83C77.598 167.519 77.1056 167.364 76.5071 167.364C75.9086 167.364 75.4162 167.519 75.0298 167.83C74.6435 168.14 74.3575 168.547 74.1719 169.051C73.9863 169.555 73.8935 170.098 73.8935 170.682C73.8935 171.265 73.9863 171.807 74.1719 172.307C74.3575 172.807 74.6435 173.21 75.0298 173.517C75.4162 173.824 75.9086 173.977 76.5071 173.977ZM83.8494 169.75V175H82.5085V166.273H83.804V167.636H83.9176C84.1222 167.193 84.4328 166.837 84.8494 166.568C85.2661 166.295 85.804 166.159 86.4631 166.159C87.054 166.159 87.571 166.28 88.0142 166.523C88.4574 166.761 88.8021 167.125 89.0483 167.614C89.2945 168.098 89.4176 168.712 89.4176 169.455V175H88.0767V169.545C88.0767 168.86 87.8987 168.326 87.5426 167.943C87.1866 167.557 86.6979 167.364 86.0767 167.364C85.6487 167.364 85.2661 167.456 84.929 167.642C84.5956 167.828 84.3324 168.098 84.1392 168.455C83.946 168.811 83.8494 169.242 83.8494 169.75Z" fill="#E6E6E6"/>
<path d="M50.6364 203.364V215H49.2727L42.9318 205.864H42.8182V215H41.4091V203.364H42.7727L49.1364 212.523H49.25V203.364H50.6364ZM56.8196 215.182C56.0317 215.182 55.3404 214.994 54.7457 214.619C54.1548 214.244 53.6927 213.72 53.3594 213.045C53.0298 212.371 52.8651 211.583 52.8651 210.682C52.8651 209.773 53.0298 208.979 53.3594 208.301C53.6927 207.623 54.1548 207.097 54.7457 206.722C55.3404 206.347 56.0317 206.159 56.8196 206.159C57.6075 206.159 58.2969 206.347 58.8878 206.722C59.4825 207.097 59.9446 207.623 60.2741 208.301C60.6075 208.979 60.7741 209.773 60.7741 210.682C60.7741 211.583 60.6075 212.371 60.2741 213.045C59.9446 213.72 59.4825 214.244 58.8878 214.619C58.2969 214.994 57.6075 215.182 56.8196 215.182ZM56.8196 213.977C57.4181 213.977 57.9105 213.824 58.2969 213.517C58.6832 213.21 58.9692 212.807 59.1548 212.307C59.3404 211.807 59.4332 211.265 59.4332 210.682C59.4332 210.098 59.3404 209.555 59.1548 209.051C58.9692 208.547 58.6832 208.14 58.2969 207.83C57.9105 207.519 57.4181 207.364 56.8196 207.364C56.2211 207.364 55.7287 207.519 55.3423 207.83C54.956 208.14 54.67 208.547 54.4844 209.051C54.2988 209.555 54.206 210.098 54.206 210.682C54.206 211.265 54.2988 211.807 54.4844 212.307C54.67 212.807 54.956 213.21 55.3423 213.517C55.7287 213.824 56.2211 213.977 56.8196 213.977ZM64.1619 209.75V215H62.821V206.273H64.1165V207.636H64.2301C64.4347 207.193 64.7453 206.837 65.1619 206.568C65.5786 206.295 66.1165 206.159 66.7756 206.159C67.3665 206.159 67.8835 206.28 68.3267 206.523C68.7699 206.761 69.1146 207.125 69.3608 207.614C69.607 208.098 69.7301 208.712 69.7301 209.455V215H68.3892V209.545C68.3892 208.86 68.2112 208.326 67.8551 207.943C67.4991 207.557 67.0104 207.364 66.3892 207.364C65.9612 207.364 65.5786 207.456 65.2415 207.642C64.9081 207.828 64.6449 208.098 64.4517 208.455C64.2585 208.811 64.1619 209.242 64.1619 209.75ZM77.1804 209.386V210.636H72.0895V209.386H77.1804ZM79.7216 215V203.364H86.6989V204.614H81.1307V208.545H86.1761V209.795H81.1307V215H79.7216ZM88.9304 215V206.273H90.2713V215H88.9304ZM89.6122 204.818C89.3509 204.818 89.1255 204.729 88.9361 204.551C88.7505 204.373 88.6577 204.159 88.6577 203.909C88.6577 203.659 88.7505 203.445 88.9361 203.267C89.1255 203.089 89.3509 203 89.6122 203C89.8736 203 90.0971 203.089 90.2827 203.267C90.4721 203.445 90.5668 203.659 90.5668 203.909C90.5668 204.159 90.4721 204.373 90.2827 204.551C90.0971 204.729 89.8736 204.818 89.6122 204.818ZM96.2727 215.182C95.4545 215.182 94.75 214.989 94.1591 214.602C93.5682 214.216 93.1136 213.684 92.7955 213.006C92.4773 212.328 92.3182 211.553 92.3182 210.682C92.3182 209.795 92.4811 209.013 92.8068 208.335C93.1364 207.653 93.5947 207.121 94.1818 206.739C94.7727 206.352 95.4621 206.159 96.25 206.159C96.8636 206.159 97.4167 206.273 97.9091 206.5C98.4015 206.727 98.8049 207.045 99.1193 207.455C99.4337 207.864 99.6288 208.341 99.7045 208.886H98.3636C98.2614 208.489 98.0341 208.136 97.6818 207.83C97.3333 207.519 96.8636 207.364 96.2727 207.364C95.75 207.364 95.2917 207.5 94.8977 207.773C94.5076 208.042 94.2027 208.422 93.983 208.915C93.767 209.403 93.6591 209.977 93.6591 210.636C93.6591 211.311 93.7652 211.898 93.9773 212.398C94.1932 212.898 94.4962 213.286 94.8864 213.562C95.2803 213.839 95.7424 213.977 96.2727 213.977C96.6212 213.977 96.9375 213.917 97.2216 213.795C97.5057 213.674 97.7462 213.5 97.9432 213.273C98.1402 213.045 98.2803 212.773 98.3636 212.455H99.7045C99.6288 212.97 99.4413 213.434 99.142 213.847C98.8466 214.256 98.4545 214.581 97.9659 214.824C97.4811 215.062 96.9167 215.182 96.2727 215.182ZM105.46 206.273V207.409H100.938V206.273H105.46ZM102.256 204.182H103.597V212.5C103.597 212.879 103.652 213.163 103.761 213.352C103.875 213.538 104.019 213.663 104.193 213.727C104.371 213.788 104.559 213.818 104.756 213.818C104.903 213.818 105.025 213.811 105.119 213.795C105.214 213.777 105.29 213.761 105.347 213.75L105.619 214.955C105.528 214.989 105.402 215.023 105.239 215.057C105.076 215.095 104.869 215.114 104.619 215.114C104.241 215.114 103.869 215.032 103.506 214.869C103.146 214.706 102.847 214.458 102.608 214.125C102.373 213.792 102.256 213.371 102.256 212.864V204.182ZM107.477 215V206.273H108.818V215H107.477ZM108.159 204.818C107.898 204.818 107.672 204.729 107.483 204.551C107.297 204.373 107.205 204.159 107.205 203.909C107.205 203.659 107.297 203.445 107.483 203.267C107.672 203.089 107.898 203 108.159 203C108.42 203 108.644 203.089 108.83 203.267C109.019 203.445 109.114 203.659 109.114 203.909C109.114 204.159 109.019 204.373 108.83 204.551C108.644 204.729 108.42 204.818 108.159 204.818ZM114.82 215.182C114.032 215.182 113.34 214.994 112.746 214.619C112.155 214.244 111.693 213.72 111.359 213.045C111.03 212.371 110.865 211.583 110.865 210.682C110.865 209.773 111.03 208.979 111.359 208.301C111.693 207.623 112.155 207.097 112.746 206.722C113.34 206.347 114.032 206.159 114.82 206.159C115.607 206.159 116.297 206.347 116.888 206.722C117.482 207.097 117.945 207.623 118.274 208.301C118.607 208.979 118.774 209.773 118.774 210.682C118.774 211.583 118.607 212.371 118.274 213.045C117.945 213.72 117.482 214.244 116.888 214.619C116.297 214.994 115.607 215.182 114.82 215.182ZM114.82 213.977C115.418 213.977 115.911 213.824 116.297 213.517C116.683 213.21 116.969 212.807 117.155 212.307C117.34 211.807 117.433 211.265 117.433 210.682C117.433 210.098 117.34 209.555 117.155 209.051C116.969 208.547 116.683 208.14 116.297 207.83C115.911 207.519 115.418 207.364 114.82 207.364C114.221 207.364 113.729 207.519 113.342 207.83C112.956 208.14 112.67 208.547 112.484 209.051C112.299 209.555 112.206 210.098 112.206 210.682C112.206 211.265 112.299 211.807 112.484 212.307C112.67 212.807 112.956 213.21 113.342 213.517C113.729 213.824 114.221 213.977 114.82 213.977ZM122.162 209.75V215H120.821V206.273H122.116V207.636H122.23C122.435 207.193 122.745 206.837 123.162 206.568C123.579 206.295 124.116 206.159 124.776 206.159C125.366 206.159 125.884 206.28 126.327 206.523C126.77 206.761 127.115 207.125 127.361 207.614C127.607 208.098 127.73 208.712 127.73 209.455V215H126.389V209.545C126.389 208.86 126.211 208.326 125.855 207.943C125.499 207.557 125.01 207.364 124.389 207.364C123.961 207.364 123.579 207.456 123.241 207.642C122.908 207.828 122.645 208.098 122.452 208.455C122.259 208.811 122.162 209.242 122.162 209.75Z" fill="#E6E6E6"/>
<path d="M41.4091 255V243.364H45.4773C46.2879 243.364 46.9564 243.504 47.483 243.784C48.0095 244.061 48.4015 244.434 48.6591 244.903C48.9167 245.369 49.0455 245.886 49.0455 246.455C49.0455 246.955 48.9564 247.367 48.7784 247.693C48.6042 248.019 48.3731 248.277 48.0852 248.466C47.8011 248.655 47.4924 248.795 47.1591 248.886V249C47.5152 249.023 47.8731 249.148 48.233 249.375C48.5928 249.602 48.8939 249.928 49.1364 250.352C49.3788 250.777 49.5 251.295 49.5 251.909C49.5 252.492 49.3674 253.017 49.1023 253.483C48.8371 253.949 48.4186 254.318 47.8466 254.591C47.2746 254.864 46.5303 255 45.6136 255H41.4091ZM42.8182 253.75H45.6136C46.5341 253.75 47.1875 253.572 47.5739 253.216C47.964 252.856 48.1591 252.42 48.1591 251.909C48.1591 251.515 48.0587 251.152 47.858 250.818C47.6572 250.481 47.3712 250.212 47 250.011C46.6288 249.807 46.1894 249.705 45.6818 249.705H42.8182V253.75ZM42.8182 248.477H45.4318C45.8561 248.477 46.2386 248.394 46.5795 248.227C46.9242 248.061 47.197 247.826 47.3977 247.523C47.6023 247.22 47.7045 246.864 47.7045 246.455C47.7045 245.943 47.5265 245.509 47.1705 245.153C46.8144 244.794 46.25 244.614 45.4773 244.614H42.8182V248.477ZM51.6335 255V246.273H52.9744V255H51.6335ZM52.3153 244.818C52.054 244.818 51.8286 244.729 51.6392 244.551C51.4536 244.373 51.3608 244.159 51.3608 243.909C51.3608 243.659 51.4536 243.445 51.6392 243.267C51.8286 243.089 52.054 243 52.3153 243C52.5767 243 52.8002 243.089 52.9858 243.267C53.1752 243.445 53.2699 243.659 53.2699 243.909C53.2699 244.159 53.1752 244.373 52.9858 244.551C52.8002 244.729 52.5767 244.818 52.3153 244.818ZM58.9759 255.182C58.188 255.182 57.4967 254.994 56.902 254.619C56.3111 254.244 55.849 253.72 55.5156 253.045C55.1861 252.371 55.0213 251.583 55.0213 250.682C55.0213 249.773 55.1861 248.979 55.5156 248.301C55.849 247.623 56.3111 247.097 56.902 246.722C57.4967 246.347 58.188 246.159 58.9759 246.159C59.7637 246.159 60.4531 246.347 61.044 246.722C61.6387 247.097 62.1009 247.623 62.4304 248.301C62.7637 248.979 62.9304 249.773 62.9304 250.682C62.9304 251.583 62.7637 252.371 62.4304 253.045C62.1009 253.72 61.6387 254.244 61.044 254.619C60.4531 254.994 59.7637 255.182 58.9759 255.182ZM58.9759 253.977C59.5743 253.977 60.0668 253.824 60.4531 253.517C60.8395 253.21 61.1255 252.807 61.3111 252.307C61.4967 251.807 61.5895 251.265 61.5895 250.682C61.5895 250.098 61.4967 249.555 61.3111 249.051C61.1255 248.547 60.8395 248.14 60.4531 247.83C60.0668 247.519 59.5743 247.364 58.9759 247.364C58.3774 247.364 57.8849 247.519 57.4986 247.83C57.1122 248.14 56.8262 248.547 56.6406 249.051C56.455 249.555 56.3622 250.098 56.3622 250.682C56.3622 251.265 56.455 251.807 56.6406 252.307C56.8262 252.807 57.1122 253.21 57.4986 253.517C57.8849 253.824 58.3774 253.977 58.9759 253.977ZM68.5 258.455C67.8523 258.455 67.2955 258.371 66.8295 258.205C66.3636 258.042 65.9754 257.826 65.6648 257.557C65.358 257.292 65.1136 257.008 64.9318 256.705L66 255.955C66.1212 256.114 66.2746 256.295 66.4602 256.5C66.6458 256.708 66.8996 256.888 67.2216 257.04C67.5473 257.195 67.9735 257.273 68.5 257.273C69.2045 257.273 69.786 257.102 70.2443 256.761C70.7027 256.42 70.9318 255.886 70.9318 255.159V253.386H70.8182C70.7197 253.545 70.5795 253.742 70.3977 253.977C70.2197 254.208 69.9621 254.415 69.625 254.597C69.2917 254.775 68.8409 254.864 68.2727 254.864C67.5682 254.864 66.9356 254.697 66.375 254.364C65.8182 254.03 65.3769 253.545 65.0511 252.909C64.7292 252.273 64.5682 251.5 64.5682 250.591C64.5682 249.697 64.7254 248.919 65.0398 248.256C65.3542 247.589 65.7917 247.074 66.3523 246.71C66.9129 246.343 67.5606 246.159 68.2955 246.159C68.8636 246.159 69.3144 246.254 69.6477 246.443C69.9848 246.629 70.2424 246.841 70.4205 247.08C70.6023 247.314 70.7424 247.508 70.8409 247.659H70.9773V246.273H72.2727V255.25C72.2727 256 72.1023 256.61 71.7614 257.08C71.4242 257.553 70.9697 257.9 70.3977 258.119C69.8295 258.343 69.197 258.455 68.5 258.455ZM68.4545 253.659C68.9924 253.659 69.447 253.536 69.8182 253.29C70.1894 253.044 70.4716 252.689 70.6648 252.227C70.858 251.765 70.9545 251.212 70.9545 250.568C70.9545 249.939 70.8598 249.384 70.6705 248.903C70.4811 248.422 70.2008 248.045 69.8295 247.773C69.4583 247.5 69 247.364 68.4545 247.364C67.8864 247.364 67.4129 247.508 67.0341 247.795C66.6591 248.083 66.3769 248.47 66.1875 248.955C66.0019 249.439 65.9091 249.977 65.9091 250.568C65.9091 251.174 66.0038 251.71 66.1932 252.176C66.3864 252.638 66.6705 253.002 67.0455 253.267C67.4242 253.528 67.8939 253.659 68.4545 253.659ZM74.7273 255V246.273H76.0227V247.591H76.1136C76.2727 247.159 76.5606 246.809 76.9773 246.54C77.3939 246.271 77.8636 246.136 78.3864 246.136C78.4848 246.136 78.608 246.138 78.7557 246.142C78.9034 246.146 79.0152 246.152 79.0909 246.159V247.523C79.0455 247.511 78.9413 247.494 78.7784 247.472C78.6193 247.445 78.4508 247.432 78.2727 247.432C77.8485 247.432 77.4697 247.521 77.1364 247.699C76.8068 247.873 76.5455 248.116 76.3523 248.426C76.1629 248.733 76.0682 249.083 76.0682 249.477V255H74.7273ZM83.2486 255.205C82.6955 255.205 82.1937 255.1 81.7429 254.892C81.2921 254.68 80.9342 254.375 80.669 253.977C80.4039 253.576 80.2713 253.091 80.2713 252.523C80.2713 252.023 80.3698 251.617 80.5668 251.307C80.7637 250.992 81.027 250.746 81.3565 250.568C81.6861 250.39 82.0497 250.258 82.4474 250.17C82.849 250.08 83.2524 250.008 83.6577 249.955C84.188 249.886 84.6179 249.835 84.9474 249.801C85.2808 249.763 85.5232 249.701 85.6747 249.614C85.83 249.527 85.9077 249.375 85.9077 249.159V249.114C85.9077 248.553 85.7543 248.117 85.4474 247.807C85.1444 247.496 84.6842 247.341 84.0668 247.341C83.4266 247.341 82.9247 247.481 82.5611 247.761C82.1974 248.042 81.9418 248.341 81.794 248.659L80.5213 248.205C80.7486 247.674 81.0516 247.261 81.4304 246.966C81.813 246.667 82.2296 246.458 82.6804 246.341C83.1349 246.22 83.5819 246.159 84.0213 246.159C84.3016 246.159 84.6236 246.193 84.9872 246.261C85.3546 246.326 85.7088 246.46 86.0497 246.665C86.3944 246.869 86.6804 247.178 86.9077 247.591C87.1349 248.004 87.2486 248.557 87.2486 249.25V255H85.9077V253.818H85.8395C85.7486 254.008 85.5971 254.21 85.3849 254.426C85.1728 254.642 84.8906 254.826 84.5384 254.977C84.1861 255.129 83.7562 255.205 83.2486 255.205ZM83.4531 254C83.9834 254 84.4304 253.896 84.794 253.688C85.1615 253.479 85.438 253.21 85.6236 252.881C85.813 252.551 85.9077 252.205 85.9077 251.841V250.614C85.8509 250.682 85.7259 250.744 85.5327 250.801C85.3433 250.854 85.1236 250.902 84.8736 250.943C84.6274 250.981 84.3868 251.015 84.152 251.045C83.9209 251.072 83.7334 251.095 83.5895 251.114C83.241 251.159 82.9152 251.233 82.6122 251.335C82.313 251.434 82.0705 251.583 81.8849 251.784C81.7031 251.981 81.6122 252.25 81.6122 252.591C81.6122 253.057 81.7846 253.409 82.1293 253.648C82.4777 253.883 82.919 254 83.4531 254ZM89.696 258.273V246.273H90.9915V247.659H91.1506C91.2491 247.508 91.3854 247.314 91.5597 247.08C91.7377 246.841 91.9915 246.629 92.321 246.443C92.6544 246.254 93.1051 246.159 93.6733 246.159C94.4081 246.159 95.0559 246.343 95.6165 246.71C96.1771 247.078 96.6146 247.598 96.929 248.273C97.2434 248.947 97.4006 249.742 97.4006 250.659C97.4006 251.583 97.2434 252.384 96.929 253.062C96.6146 253.737 96.179 254.259 95.6222 254.631C95.0653 254.998 94.4233 255.182 93.696 255.182C93.1354 255.182 92.6866 255.089 92.3494 254.903C92.0123 254.714 91.7528 254.5 91.571 254.261C91.3892 254.019 91.2491 253.818 91.1506 253.659H91.0369V258.273H89.696ZM91.0142 250.636C91.0142 251.295 91.1108 251.877 91.304 252.381C91.4972 252.881 91.7794 253.273 92.1506 253.557C92.5218 253.837 92.9763 253.977 93.5142 253.977C94.0748 253.977 94.5426 253.83 94.9176 253.534C95.2964 253.235 95.5805 252.833 95.7699 252.33C95.9631 251.822 96.0597 251.258 96.0597 250.636C96.0597 250.023 95.965 249.47 95.7756 248.977C95.59 248.481 95.3078 248.089 94.929 247.801C94.554 247.509 94.0824 247.364 93.5142 247.364C92.9688 247.364 92.5104 247.502 92.1392 247.778C91.768 248.051 91.4877 248.434 91.2983 248.926C91.1089 249.415 91.0142 249.985 91.0142 250.636ZM100.787 249.75V255H99.446V243.364H100.787V247.636H100.901C101.105 247.186 101.412 246.828 101.821 246.562C102.234 246.294 102.783 246.159 103.469 246.159C104.063 246.159 104.584 246.278 105.031 246.517C105.478 246.752 105.825 247.114 106.071 247.602C106.321 248.087 106.446 248.705 106.446 249.455V255H105.105V249.545C105.105 248.852 104.925 248.316 104.565 247.938C104.209 247.555 103.715 247.364 103.082 247.364C102.643 247.364 102.249 247.456 101.901 247.642C101.556 247.828 101.283 248.098 101.082 248.455C100.885 248.811 100.787 249.242 100.787 249.75ZM108.899 255V246.273H110.24V255H108.899ZM109.581 244.818C109.32 244.818 109.094 244.729 108.905 244.551C108.719 244.373 108.626 244.159 108.626 243.909C108.626 243.659 108.719 243.445 108.905 243.267C109.094 243.089 109.32 243 109.581 243C109.842 243 110.066 243.089 110.251 243.267C110.441 243.445 110.536 243.659 110.536 243.909C110.536 244.159 110.441 244.373 110.251 244.551C110.066 244.729 109.842 244.818 109.581 244.818ZM116.355 255.182C115.514 255.182 114.789 254.996 114.179 254.625C113.573 254.25 113.105 253.727 112.776 253.057C112.45 252.383 112.287 251.598 112.287 250.705C112.287 249.811 112.45 249.023 112.776 248.341C113.105 247.655 113.563 247.121 114.151 246.739C114.741 246.352 115.431 246.159 116.219 246.159C116.673 246.159 117.122 246.235 117.565 246.386C118.009 246.538 118.412 246.784 118.776 247.125C119.139 247.462 119.429 247.909 119.645 248.466C119.861 249.023 119.969 249.708 119.969 250.523V251.091H113.241V249.932H118.605C118.605 249.439 118.507 249 118.31 248.614C118.116 248.227 117.84 247.922 117.48 247.699C117.124 247.475 116.704 247.364 116.219 247.364C115.685 247.364 115.223 247.496 114.832 247.761C114.446 248.023 114.149 248.364 113.94 248.784C113.732 249.205 113.628 249.655 113.628 250.136V250.909C113.628 251.568 113.741 252.127 113.969 252.585C114.2 253.04 114.52 253.386 114.929 253.625C115.338 253.86 115.813 253.977 116.355 253.977C116.707 253.977 117.026 253.928 117.31 253.83C117.598 253.727 117.846 253.576 118.054 253.375C118.262 253.17 118.423 252.917 118.537 252.614L119.832 252.977C119.696 253.417 119.467 253.803 119.145 254.136C118.823 254.466 118.425 254.723 117.952 254.909C117.478 255.091 116.946 255.182 116.355 255.182ZM128.19 248.227L126.986 248.568C126.91 248.367 126.798 248.172 126.651 247.983C126.507 247.79 126.31 247.631 126.06 247.506C125.81 247.381 125.49 247.318 125.099 247.318C124.565 247.318 124.12 247.441 123.764 247.688C123.412 247.93 123.236 248.239 123.236 248.614C123.236 248.947 123.357 249.21 123.599 249.403C123.842 249.597 124.221 249.758 124.736 249.886L126.031 250.205C126.812 250.394 127.393 250.684 127.776 251.074C128.158 251.46 128.349 251.958 128.349 252.568C128.349 253.068 128.205 253.515 127.918 253.909C127.634 254.303 127.236 254.614 126.724 254.841C126.213 255.068 125.618 255.182 124.94 255.182C124.05 255.182 123.313 254.989 122.73 254.602C122.147 254.216 121.777 253.652 121.622 252.909L122.895 252.591C123.016 253.061 123.245 253.413 123.582 253.648C123.923 253.883 124.368 254 124.918 254C125.543 254 126.039 253.867 126.406 253.602C126.777 253.333 126.963 253.011 126.963 252.636C126.963 252.333 126.857 252.08 126.645 251.875C126.433 251.667 126.107 251.511 125.668 251.409L124.213 251.068C123.414 250.879 122.827 250.585 122.452 250.188C122.08 249.786 121.895 249.284 121.895 248.682C121.895 248.189 122.033 247.754 122.31 247.375C122.59 246.996 122.971 246.699 123.452 246.483C123.937 246.267 124.486 246.159 125.099 246.159C125.963 246.159 126.641 246.348 127.134 246.727C127.63 247.106 127.982 247.606 128.19 248.227Z" fill="#E6E6E6"/>
<path d="M41.4091 283.364H43.0909L47.0455 293.023H47.1818L51.1364 283.364H52.8182V295H51.5V286.159H51.3864L47.75 295H46.4773L42.8409 286.159H42.7273V295H41.4091V283.364ZM58.0298 295.205C57.4768 295.205 56.9749 295.1 56.5241 294.892C56.0734 294.68 55.7154 294.375 55.4503 293.977C55.1851 293.576 55.0526 293.091 55.0526 292.523C55.0526 292.023 55.151 291.617 55.348 291.307C55.545 290.992 55.8082 290.746 56.1378 290.568C56.4673 290.39 56.831 290.258 57.2287 290.17C57.6302 290.08 58.0336 290.008 58.4389 289.955C58.9692 289.886 59.3991 289.835 59.7287 289.801C60.062 289.763 60.3045 289.701 60.456 289.614C60.6113 289.527 60.6889 289.375 60.6889 289.159V289.114C60.6889 288.553 60.5355 288.117 60.2287 287.807C59.9257 287.496 59.4654 287.341 58.848 287.341C58.2079 287.341 57.706 287.481 57.3423 287.761C56.9787 288.042 56.723 288.341 56.5753 288.659L55.3026 288.205C55.5298 287.674 55.8329 287.261 56.2116 286.966C56.5942 286.667 57.0109 286.458 57.4616 286.341C57.9162 286.22 58.3632 286.159 58.8026 286.159C59.0829 286.159 59.4048 286.193 59.7685 286.261C60.1359 286.326 60.4901 286.46 60.831 286.665C61.1757 286.869 61.4616 287.178 61.6889 287.591C61.9162 288.004 62.0298 288.557 62.0298 289.25V295H60.6889V293.818H60.6207C60.5298 294.008 60.3783 294.21 60.1662 294.426C59.9541 294.642 59.6719 294.826 59.3196 294.977C58.9673 295.129 58.5374 295.205 58.0298 295.205ZM58.2344 294C58.7647 294 59.2116 293.896 59.5753 293.688C59.9427 293.479 60.2192 293.21 60.4048 292.881C60.5942 292.551 60.6889 292.205 60.6889 291.841V290.614C60.6321 290.682 60.5071 290.744 60.3139 290.801C60.1245 290.854 59.9048 290.902 59.6548 290.943C59.4086 290.981 59.1681 291.015 58.9332 291.045C58.7022 291.072 58.5147 291.095 58.3707 291.114C58.0223 291.159 57.6965 291.233 57.3935 291.335C57.0942 291.434 56.8518 291.583 56.6662 291.784C56.4844 291.981 56.3935 292.25 56.3935 292.591C56.3935 293.057 56.5658 293.409 56.9105 293.648C57.259 293.883 57.7003 294 58.2344 294ZM65.8182 289.75V295H64.4773V286.273H65.7727V287.636H65.8864C66.0909 287.193 66.4015 286.837 66.8182 286.568C67.2348 286.295 67.7727 286.159 68.4318 286.159C69.0227 286.159 69.5398 286.28 69.983 286.523C70.4261 286.761 70.7708 287.125 71.017 287.614C71.2633 288.098 71.3864 288.712 71.3864 289.455V295H70.0455V289.545C70.0455 288.86 69.8674 288.326 69.5114 287.943C69.1553 287.557 68.6667 287.364 68.0455 287.364C67.6174 287.364 67.2348 287.456 66.8977 287.642C66.5644 287.828 66.3011 288.098 66.108 288.455C65.9148 288.811 65.8182 289.242 65.8182 289.75ZM77.3594 298.455C76.7116 298.455 76.1548 298.371 75.6889 298.205C75.223 298.042 74.8348 297.826 74.5241 297.557C74.2173 297.292 73.973 297.008 73.7912 296.705L74.8594 295.955C74.9806 296.114 75.134 296.295 75.3196 296.5C75.5052 296.708 75.759 296.888 76.081 297.04C76.4067 297.195 76.8329 297.273 77.3594 297.273C78.0639 297.273 78.6454 297.102 79.1037 296.761C79.562 296.42 79.7912 295.886 79.7912 295.159V293.386H79.6776C79.5791 293.545 79.4389 293.742 79.2571 293.977C79.0791 294.208 78.8215 294.415 78.4844 294.597C78.151 294.775 77.7003 294.864 77.1321 294.864C76.4276 294.864 75.795 294.697 75.2344 294.364C74.6776 294.03 74.2363 293.545 73.9105 292.909C73.5885 292.273 73.4276 291.5 73.4276 290.591C73.4276 289.697 73.5848 288.919 73.8991 288.256C74.2135 287.589 74.651 287.074 75.2116 286.71C75.7723 286.343 76.42 286.159 77.1548 286.159C77.723 286.159 78.1738 286.254 78.5071 286.443C78.8442 286.629 79.1018 286.841 79.2798 287.08C79.4616 287.314 79.6018 287.508 79.7003 287.659H79.8366V286.273H81.1321V295.25C81.1321 296 80.9616 296.61 80.6207 297.08C80.2836 297.553 79.8291 297.9 79.2571 298.119C78.6889 298.343 78.0563 298.455 77.3594 298.455ZM77.3139 293.659C77.8518 293.659 78.3063 293.536 78.6776 293.29C79.0488 293.044 79.331 292.689 79.5241 292.227C79.7173 291.765 79.8139 291.212 79.8139 290.568C79.8139 289.939 79.7192 289.384 79.5298 288.903C79.3404 288.422 79.0601 288.045 78.6889 287.773C78.3177 287.5 77.8594 287.364 77.3139 287.364C76.7457 287.364 76.2723 287.508 75.8935 287.795C75.5185 288.083 75.2363 288.47 75.0469 288.955C74.8613 289.439 74.7685 289.977 74.7685 290.568C74.7685 291.174 74.8632 291.71 75.0526 292.176C75.2457 292.638 75.5298 293.002 75.9048 293.267C76.2836 293.528 76.7533 293.659 77.3139 293.659ZM86.1548 295.205C85.6018 295.205 85.0999 295.1 84.6491 294.892C84.1984 294.68 83.8404 294.375 83.5753 293.977C83.3101 293.576 83.1776 293.091 83.1776 292.523C83.1776 292.023 83.276 291.617 83.473 291.307C83.67 290.992 83.9332 290.746 84.2628 290.568C84.5923 290.39 84.956 290.258 85.3537 290.17C85.7552 290.08 86.1586 290.008 86.5639 289.955C87.0942 289.886 87.5241 289.835 87.8537 289.801C88.187 289.763 88.4295 289.701 88.581 289.614C88.7363 289.527 88.8139 289.375 88.8139 289.159V289.114C88.8139 288.553 88.6605 288.117 88.3537 287.807C88.0507 287.496 87.5904 287.341 86.973 287.341C86.3329 287.341 85.831 287.481 85.4673 287.761C85.1037 288.042 84.848 288.341 84.7003 288.659L83.4276 288.205C83.6548 287.674 83.9579 287.261 84.3366 286.966C84.7192 286.667 85.1359 286.458 85.5866 286.341C86.0412 286.22 86.4882 286.159 86.9276 286.159C87.2079 286.159 87.5298 286.193 87.8935 286.261C88.2609 286.326 88.6151 286.46 88.956 286.665C89.3007 286.869 89.5866 287.178 89.8139 287.591C90.0412 288.004 90.1548 288.557 90.1548 289.25V295H88.8139V293.818H88.7457C88.6548 294.008 88.5033 294.21 88.2912 294.426C88.0791 294.642 87.7969 294.826 87.4446 294.977C87.0923 295.129 86.6624 295.205 86.1548 295.205ZM86.3594 294C86.8897 294 87.3366 293.896 87.7003 293.688C88.0677 293.479 88.3442 293.21 88.5298 292.881C88.7192 292.551 88.8139 292.205 88.8139 291.841V290.614C88.7571 290.682 88.6321 290.744 88.4389 290.801C88.2495 290.854 88.0298 290.902 87.7798 290.943C87.5336 290.981 87.2931 291.015 87.0582 291.045C86.8272 291.072 86.6397 291.095 86.4957 291.114C86.1473 291.159 85.8215 291.233 85.5185 291.335C85.2192 291.434 84.9768 291.583 84.7912 291.784C84.6094 291.981 84.5185 292.25 84.5185 292.591C84.5185 293.057 84.6908 293.409 85.0355 293.648C85.384 293.883 85.8253 294 86.3594 294Z" fill="#E6E6E6"/>
<path d="M41.4091 335V323.364H45.3409C46.2538 323.364 47 323.528 47.5795 323.858C48.1629 324.184 48.5947 324.625 48.875 325.182C49.1553 325.739 49.2955 326.36 49.2955 327.045C49.2955 327.731 49.1553 328.354 48.875 328.915C48.5985 329.475 48.1705 329.922 47.5909 330.256C47.0114 330.585 46.2689 330.75 45.3636 330.75H42.5455V329.5H45.3182C45.9432 329.5 46.4451 329.392 46.8239 329.176C47.2027 328.96 47.4773 328.669 47.6477 328.301C47.822 327.93 47.9091 327.511 47.9091 327.045C47.9091 326.58 47.822 326.163 47.6477 325.795C47.4773 325.428 47.2008 325.14 46.8182 324.932C46.4356 324.72 45.928 324.614 45.2955 324.614H42.8182V335H41.4091ZM52.7244 329.75V335H51.3835V323.364H52.7244V327.636H52.8381C53.0426 327.186 53.3494 326.828 53.7585 326.562C54.1714 326.294 54.7206 326.159 55.4062 326.159C56.0009 326.159 56.5218 326.278 56.9688 326.517C57.4157 326.752 57.7623 327.114 58.0085 327.602C58.2585 328.087 58.3835 328.705 58.3835 329.455V335H57.0426V329.545C57.0426 328.852 56.8627 328.316 56.5028 327.938C56.1468 327.555 55.6525 327.364 55.0199 327.364C54.5805 327.364 54.1866 327.456 53.8381 327.642C53.4934 327.828 53.2206 328.098 53.0199 328.455C52.8229 328.811 52.7244 329.242 52.7244 329.75ZM60.8366 335V326.273H62.1776V335H60.8366ZM61.5185 324.818C61.2571 324.818 61.0317 324.729 60.8423 324.551C60.6567 324.373 60.5639 324.159 60.5639 323.909C60.5639 323.659 60.6567 323.445 60.8423 323.267C61.0317 323.089 61.2571 323 61.5185 323C61.7798 323 62.0033 323.089 62.1889 323.267C62.3783 323.445 62.473 323.659 62.473 323.909C62.473 324.159 62.3783 324.373 62.1889 324.551C62.0033 324.729 61.7798 324.818 61.5185 324.818ZM65.9744 323.364V335H64.6335V323.364H65.9744ZM71.9759 335.182C71.188 335.182 70.4967 334.994 69.902 334.619C69.3111 334.244 68.849 333.72 68.5156 333.045C68.1861 332.371 68.0213 331.583 68.0213 330.682C68.0213 329.773 68.1861 328.979 68.5156 328.301C68.849 327.623 69.3111 327.097 69.902 326.722C70.4967 326.347 71.188 326.159 71.9759 326.159C72.7637 326.159 73.4531 326.347 74.044 326.722C74.6387 327.097 75.1009 327.623 75.4304 328.301C75.7637 328.979 75.9304 329.773 75.9304 330.682C75.9304 331.583 75.7637 332.371 75.4304 333.045C75.1009 333.72 74.6387 334.244 74.044 334.619C73.4531 334.994 72.7637 335.182 71.9759 335.182ZM71.9759 333.977C72.5743 333.977 73.0668 333.824 73.4531 333.517C73.8395 333.21 74.1255 332.807 74.3111 332.307C74.4967 331.807 74.5895 331.265 74.5895 330.682C74.5895 330.098 74.4967 329.555 74.3111 329.051C74.1255 328.547 73.8395 328.14 73.4531 327.83C73.0668 327.519 72.5743 327.364 71.9759 327.364C71.3774 327.364 70.8849 327.519 70.4986 327.83C70.1122 328.14 69.8262 328.547 69.6406 329.051C69.455 329.555 69.3622 330.098 69.3622 330.682C69.3622 331.265 69.455 331.807 69.6406 332.307C69.8262 332.807 70.1122 333.21 70.4986 333.517C70.8849 333.824 71.3774 333.977 71.9759 333.977ZM84.1591 328.227L82.9545 328.568C82.8788 328.367 82.767 328.172 82.6193 327.983C82.4754 327.79 82.2784 327.631 82.0284 327.506C81.7784 327.381 81.4583 327.318 81.0682 327.318C80.5341 327.318 80.089 327.441 79.733 327.688C79.3807 327.93 79.2045 328.239 79.2045 328.614C79.2045 328.947 79.3258 329.21 79.5682 329.403C79.8106 329.597 80.1894 329.758 80.7045 329.886L82 330.205C82.7803 330.394 83.3617 330.684 83.7443 331.074C84.1269 331.46 84.3182 331.958 84.3182 332.568C84.3182 333.068 84.1742 333.515 83.8864 333.909C83.6023 334.303 83.2045 334.614 82.6932 334.841C82.1818 335.068 81.5871 335.182 80.9091 335.182C80.0189 335.182 79.2822 334.989 78.6989 334.602C78.1155 334.216 77.7462 333.652 77.5909 332.909L78.8636 332.591C78.9848 333.061 79.214 333.413 79.5511 333.648C79.892 333.883 80.3371 334 80.8864 334C81.5114 334 82.0076 333.867 82.375 333.602C82.7462 333.333 82.9318 333.011 82.9318 332.636C82.9318 332.333 82.8258 332.08 82.6136 331.875C82.4015 331.667 82.0758 331.511 81.6364 331.409L80.1818 331.068C79.3826 330.879 78.7955 330.585 78.4205 330.188C78.0492 329.786 77.8636 329.284 77.8636 328.682C77.8636 328.189 78.0019 327.754 78.2784 327.375C78.5587 326.996 78.9394 326.699 79.4205 326.483C79.9053 326.267 80.4545 326.159 81.0682 326.159C81.9318 326.159 82.6098 326.348 83.1023 326.727C83.5985 327.106 83.9508 327.606 84.1591 328.227ZM89.8821 335.182C89.0942 335.182 88.4029 334.994 87.8082 334.619C87.2173 334.244 86.7552 333.72 86.4219 333.045C86.0923 332.371 85.9276 331.583 85.9276 330.682C85.9276 329.773 86.0923 328.979 86.4219 328.301C86.7552 327.623 87.2173 327.097 87.8082 326.722C88.4029 326.347 89.0942 326.159 89.8821 326.159C90.67 326.159 91.3594 326.347 91.9503 326.722C92.545 327.097 93.0071 327.623 93.3366 328.301C93.67 328.979 93.8366 329.773 93.8366 330.682C93.8366 331.583 93.67 332.371 93.3366 333.045C93.0071 333.72 92.545 334.244 91.9503 334.619C91.3594 334.994 90.67 335.182 89.8821 335.182ZM89.8821 333.977C90.4806 333.977 90.973 333.824 91.3594 333.517C91.7457 333.21 92.0317 332.807 92.2173 332.307C92.4029 331.807 92.4957 331.265 92.4957 330.682C92.4957 330.098 92.4029 329.555 92.2173 329.051C92.0317 328.547 91.7457 328.14 91.3594 327.83C90.973 327.519 90.4806 327.364 89.8821 327.364C89.2836 327.364 88.7912 327.519 88.4048 327.83C88.0185 328.14 87.7325 328.547 87.5469 329.051C87.3613 329.555 87.2685 330.098 87.2685 330.682C87.2685 331.265 87.3613 331.807 87.5469 332.307C87.7325 332.807 88.0185 333.21 88.4048 333.517C88.7912 333.824 89.2836 333.977 89.8821 333.977ZM95.8835 338.273V326.273H97.179V327.659H97.3381C97.4366 327.508 97.5729 327.314 97.7472 327.08C97.9252 326.841 98.179 326.629 98.5085 326.443C98.8419 326.254 99.2926 326.159 99.8608 326.159C100.596 326.159 101.243 326.343 101.804 326.71C102.365 327.078 102.802 327.598 103.116 328.273C103.431 328.947 103.588 329.742 103.588 330.659C103.588 331.583 103.431 332.384 103.116 333.062C102.802 333.737 102.366 334.259 101.81 334.631C101.253 334.998 100.611 335.182 99.8835 335.182C99.3229 335.182 98.8741 335.089 98.5369 334.903C98.1998 334.714 97.9403 334.5 97.7585 334.261C97.5767 334.019 97.4366 333.818 97.3381 333.659H97.2244V338.273H95.8835ZM97.2017 330.636C97.2017 331.295 97.2983 331.877 97.4915 332.381C97.6847 332.881 97.9669 333.273 98.3381 333.557C98.7093 333.837 99.1638 333.977 99.7017 333.977C100.262 333.977 100.73 333.83 101.105 333.534C101.484 333.235 101.768 332.833 101.957 332.33C102.151 331.822 102.247 331.258 102.247 330.636C102.247 330.023 102.152 329.47 101.963 328.977C101.777 328.481 101.495 328.089 101.116 327.801C100.741 327.509 100.27 327.364 99.7017 327.364C99.1563 327.364 98.6979 327.502 98.3267 327.778C97.9555 328.051 97.6752 328.434 97.4858 328.926C97.2964 329.415 97.2017 329.985 97.2017 330.636ZM106.974 329.75V335H105.634V323.364H106.974V327.636H107.088C107.293 327.186 107.599 326.828 108.009 326.562C108.421 326.294 108.971 326.159 109.656 326.159C110.251 326.159 110.772 326.278 111.219 326.517C111.666 326.752 112.012 327.114 112.259 327.602C112.509 328.087 112.634 328.705 112.634 329.455V335H111.293V329.545C111.293 328.852 111.113 328.316 110.753 327.938C110.397 327.555 109.902 327.364 109.27 327.364C108.83 327.364 108.437 327.456 108.088 327.642C107.743 327.828 107.471 328.098 107.27 328.455C107.073 328.811 106.974 329.242 106.974 329.75ZM115.638 338.273C115.411 338.273 115.208 338.254 115.03 338.216C114.852 338.182 114.729 338.148 114.661 338.114L115.001 336.932C115.327 337.015 115.615 337.045 115.865 337.023C116.115 337 116.337 336.888 116.53 336.688C116.727 336.491 116.907 336.17 117.07 335.727L117.32 335.045L114.092 326.273H115.547L117.956 333.227H118.047L120.456 326.273H121.911L118.206 336.273C118.039 336.723 117.833 337.097 117.587 337.392C117.34 337.691 117.054 337.913 116.729 338.057C116.407 338.201 116.043 338.273 115.638 338.273Z" fill="#E6E6E6"/>
<path d="M38 113.49C38 112.662 38.672 111.99 39.5 111.99H58.5C59.328 111.99 60 112.662 60 113.49C60 114.318 59.328 114.99 58.5 114.99H39.5C38.672 114.99 38 114.318 38 113.49ZM20 103.49C20 102.662 20.672 101.99 21.5 101.99H58.5C59.328 101.99 60 102.662 60 103.49C60 104.318 59.328 104.99 58.5 104.99H21.5C20.672 104.99 20 104.318 20 103.49ZM28 93.49C28 92.662 28.672 91.99 29.5 91.99H58.5C59.328 91.99 60 92.662 60 93.49C60 94.318 59.328 94.99 58.5 94.99H29.5C28.672 94.99 28 94.318 28 93.49Z" fill="#33312E"/>
<rect x="70.2322" y="84.9348" width="89" height="32" rx="2" transform="rotate(4 70.2322 84.9348)" fill="#E6E6E6"/>
<path d="M87.6463 99.4406C87.6024 99.186 87.5209 98.9596 87.4019 98.7614C87.2832 98.5585 87.1292 98.384 86.9401 98.2378C86.756 98.0873 86.5364 97.9699 86.2813 97.8856C86.0311 97.7969 85.7526 97.7419 85.4456 97.7204C84.7843 97.6742 84.2088 97.7929 83.7191 98.0767C83.2341 98.3608 82.8479 98.7918 82.5607 99.3698C82.2782 99.9481 82.1076 100.658 82.0488 101.498C81.9893 102.349 82.0542 103.084 82.2433 103.705C82.4325 104.326 82.7449 104.813 83.1806 105.166C83.6163 105.519 84.1743 105.719 84.8544 105.767C85.4543 105.809 85.9587 105.756 86.3677 105.609C86.7814 105.463 87.0987 105.236 87.3195 104.928C87.5403 104.621 87.6659 104.25 87.6963 103.816L88.3715 103.934L85.0558 103.702L85.252 100.896L91.6851 101.346L91.5444 103.358C91.4519 104.681 91.0918 105.793 90.464 106.693C89.8412 107.589 89.0211 108.254 88.0037 108.686C86.9913 109.113 85.8521 109.283 84.5863 109.194C83.174 109.095 81.9551 108.709 80.9296 108.034C79.9041 107.36 79.1302 106.446 78.608 105.295C78.0904 104.143 77.8852 102.802 77.9922 101.272C78.0761 100.072 78.3322 99.0219 78.7607 98.1215C79.1938 97.2215 79.7586 96.4755 80.455 95.8834C81.1518 95.2866 81.939 94.8552 82.8167 94.5891C83.6947 94.3182 84.6226 94.217 85.6003 94.2853C86.46 94.3454 87.2496 94.5241 87.9693 94.8212C88.694 95.1139 89.3241 95.5045 89.8595 95.9928C90.4 96.4768 90.8237 97.0357 91.1306 97.6694C91.4375 98.3032 91.6033 98.9864 91.628 99.719L87.6463 99.4406ZM98.2125 110.147C97.0505 110.066 96.0647 109.774 95.255 109.271C94.4504 108.764 93.8505 108.076 93.4556 107.209C93.0656 106.336 92.9116 105.315 92.9936 104.143C93.0722 103.019 93.3676 102.053 93.8798 101.243C94.392 100.434 95.0778 99.825 95.9371 99.4152C96.7963 99.0054 97.7881 98.8398 98.9122 98.9184C99.7341 98.9759 100.469 99.1554 101.117 99.457C101.765 99.7587 102.309 100.169 102.747 100.689C103.186 101.204 103.508 101.815 103.715 102.522C103.922 103.23 103.995 104.015 103.935 104.88L103.871 105.787L94.1507 105.107L94.3013 102.953L100.423 103.381C100.44 103.069 100.379 102.79 100.239 102.543C100.105 102.291 99.9126 102.09 99.6621 101.94C99.4166 101.785 99.1309 101.696 98.805 101.673C98.4885 101.651 98.1933 101.699 97.9192 101.818C97.6454 101.932 97.42 102.101 97.2429 102.326C97.0705 102.551 96.9685 102.822 96.937 103.137L96.7745 105.461C96.75 105.811 96.8014 106.128 96.9287 106.412C97.056 106.696 97.2511 106.926 97.5142 107.101C97.7772 107.276 98.1024 107.377 98.4897 107.404C98.7589 107.423 99.0072 107.402 99.2345 107.342C99.4665 107.282 99.6677 107.187 99.8382 107.057C100.009 106.922 100.139 106.755 100.229 106.557L103.8 106.807C103.624 107.554 103.288 108.19 102.791 108.716C102.294 109.236 101.657 109.624 100.88 109.878C100.108 110.128 99.2185 110.217 98.2125 110.147ZM109.489 104.585L109.061 110.706L105.15 110.433L105.911 99.5502L109.624 99.8098L109.479 101.879L109.592 101.887C109.877 101.213 110.33 100.702 110.953 100.351C111.58 100.001 112.293 99.854 113.091 99.9099C113.861 99.9637 114.517 100.188 115.059 100.581C115.606 100.971 116.014 101.484 116.283 102.119C116.556 102.756 116.663 103.468 116.603 104.256L116.118 111.2L112.207 110.926L112.635 104.805C112.677 104.267 112.57 103.834 112.313 103.508C112.06 103.182 111.688 103.001 111.197 102.967C110.876 102.945 110.59 102.996 110.339 103.121C110.093 103.241 109.898 103.427 109.752 103.678C109.607 103.924 109.519 104.226 109.489 104.585ZM118.048 111.335L118.809 100.452L122.607 100.718L122.462 102.786L122.576 102.794C122.827 102.043 123.181 101.505 123.635 101.181C124.095 100.857 124.615 100.716 125.196 100.756C125.366 100.768 125.532 100.794 125.696 100.834C125.864 100.87 126.025 100.916 126.177 100.974L125.944 104.311C125.755 104.232 125.52 104.166 125.239 104.113C124.958 104.06 124.715 104.026 124.512 104.012C124.13 103.985 123.779 104.049 123.46 104.202C123.145 104.351 122.89 104.575 122.694 104.874C122.497 105.169 122.385 105.524 122.356 105.94L121.959 111.608L118.048 111.335ZM131.276 112.459C130.114 112.378 129.129 112.086 128.319 111.583C127.514 111.076 126.914 110.388 126.519 109.521C126.129 108.648 125.975 107.627 126.057 106.455C126.136 105.331 126.431 104.365 126.944 103.556C127.456 102.746 128.142 102.137 129.001 101.727C129.86 101.317 130.852 101.152 131.976 101.23C132.798 101.288 133.533 101.467 134.181 101.769C134.829 102.071 135.372 102.481 135.811 103.001C136.249 103.516 136.572 104.127 136.779 104.834C136.986 105.542 137.059 106.328 136.999 107.192L136.935 108.099L127.215 107.419L127.365 105.265L133.487 105.693C133.504 105.381 133.442 105.102 133.303 104.855C133.169 104.603 132.976 104.402 132.726 104.252C132.48 104.097 132.195 104.008 131.869 103.985C131.552 103.963 131.257 104.011 130.983 104.13C130.709 104.244 130.484 104.413 130.307 104.638C130.134 104.863 130.032 105.134 130.001 105.45L129.838 107.773C129.814 108.123 129.865 108.44 129.992 108.724C130.12 109.008 130.315 109.238 130.578 109.413C130.841 109.588 131.166 109.689 131.554 109.716C131.823 109.735 132.071 109.714 132.298 109.654C132.53 109.594 132.732 109.499 132.902 109.369C133.073 109.234 133.203 109.067 133.293 108.869L136.864 109.119C136.688 109.866 136.352 110.502 135.855 111.028C135.358 111.548 134.721 111.936 133.944 112.19C133.171 112.44 132.282 112.529 131.276 112.459ZM148.674 106.1L145.075 105.849C145.072 105.625 145.007 105.429 144.882 105.258C144.756 105.088 144.587 104.953 144.376 104.853C144.17 104.748 143.937 104.687 143.677 104.669C143.342 104.645 143.049 104.686 142.8 104.792C142.55 104.898 142.42 105.065 142.409 105.292C142.393 105.452 142.451 105.606 142.583 105.753C142.72 105.9 142.993 106.026 143.404 106.13L145.587 106.682C146.687 106.963 147.492 107.363 148.002 107.883C148.516 108.398 148.748 109.058 148.696 109.861C148.637 110.635 148.359 111.292 147.861 111.832C147.368 112.367 146.716 112.763 145.905 113.019C145.1 113.271 144.194 113.362 143.188 113.292C141.525 113.176 140.248 112.745 139.355 111.999C138.468 111.253 138.009 110.319 137.978 109.197L141.86 109.468C141.888 109.817 142.04 110.096 142.315 110.305C142.595 110.509 142.957 110.627 143.401 110.658C143.759 110.683 144.059 110.643 144.299 110.536C144.544 110.43 144.676 110.263 144.697 110.037C144.707 109.829 144.614 109.656 144.42 109.519C144.23 109.383 143.925 109.262 143.506 109.156L141.602 108.681C140.506 108.41 139.7 107.984 139.186 107.402C138.671 106.82 138.446 106.102 138.51 105.247C138.559 104.491 138.802 103.865 139.24 103.369C139.683 102.868 140.29 102.507 141.06 102.286C141.835 102.06 142.74 101.983 143.774 102.055C145.347 102.165 146.564 102.578 147.425 103.293C148.292 104.009 148.708 104.945 148.674 106.1Z" fill="#1A1817"/>
</svg>
